<svg width="322" height="341" viewBox="0 0 322 341" fill="none" xmlns="http://www.w3.org/2000/svg">
<path d="M107.486 177H113.048L114.452 173.004H121.904L123.308 177H128.87L120.77 156.48H115.613L107.486 177ZM116.018 168.441L118.178 162.231L120.365 168.441H116.018ZM130.906 177H139.708C144.028 177 147.457 174.894 147.457 170.898C147.457 168.441 146.161 166.308 143.488 165.768C145.432 165.39 146.377 163.689 146.377 161.718C146.377 158.1 143.353 156.48 138.979 156.48H130.906V177ZM135.955 164.634V160.827H138.358C139.924 160.827 140.977 161.502 140.977 162.825C140.977 164.04 140.032 164.634 138.304 164.634H135.955ZM135.955 172.653V168.009H138.628C140.491 168.009 142.057 168.657 142.057 170.358C142.057 172.032 140.572 172.653 138.655 172.653H135.955ZM160.381 177.432C167.401 177.432 171.046 172.518 171.046 166.74C171.046 160.935 167.401 156.048 160.381 156.048C153.361 156.048 149.716 160.935 149.716 166.74C149.716 172.518 153.361 177.432 160.381 177.432ZM160.381 173.058C156.763 173.058 155.197 169.629 155.197 166.74C155.197 163.851 156.763 160.422 160.381 160.422C163.999 160.422 165.565 163.851 165.565 166.74C165.565 169.629 163.999 173.058 160.381 173.058ZM182.951 177.432C188.999 177.432 191.834 174.759 191.834 169.197V156.48H186.758V166.767C186.758 170.628 186.596 173.058 182.951 173.058C179.306 173.058 179.144 170.628 179.144 166.767V156.48H174.095V169.197C174.095 174.543 176.822 177.432 182.951 177.432ZM211.199 161.529L211.172 156.48H193.865V161.529H200.021V177H205.07V161.529H211.199Z" fill="white"/>
<circle cx="160.983" cy="160.022" r="158.522" stroke="white" stroke-width="3"/>
<circle cx="160.983" cy="180.978" r="158.522" stroke="white" stroke-width="3"/>
</svg>
