<svg width="1113" height="350" viewBox="0 0 1113 350" fill="none" xmlns="http://www.w3.org/2000/svg">
<path d="M527 258H494V304.537H527V258Z" fill="#E7A1A0"/>
<path d="M494 274.998H461V304.537H494V274.998Z" fill="#D11F5F"/>
<path d="M690 286H657V305.228H690V286Z" fill="#E7A1A0"/>
<path d="M657 296.311H624V305.228H657V296.311Z" fill="#D11F5F"/>
<path d="M853 278H820V305.031H853V278Z" fill="#E7A1A0"/>
<path d="M820 301.965H787V305.03H820V301.965Z" fill="#D11F5F"/>
<path d="M200 239H167V304.765H200V239Z" fill="#E7A1A0"/>
<path d="M167 266.31H134V304.766H167V266.31Z" fill="#D11F5F"/>
<path d="M363 194H330V305H363V194Z" fill="#E7A1A0"/>
<path d="M330 108H297V305H330V108Z" fill="#D11F5F"/>
<path d="M439.539 219.126H406.539V304.725H439.539V219.126Z" fill="#2D2AFF"/>
<path d="M407 218H374V304.726H407V218Z" fill="#9FC5EC"/>
<path d="M276.001 185.687H243.001V305.3H276.001V185.687Z" fill="#2D2AFF"/>
<path d="M243 189.967H210V305.301H243V189.967Z" fill="#9FC5EC"/>
<path d="M739.756 133.256C742.524 133.256 744.716 131.48 745.116 128.728H743.66C743.324 130.632 741.74 131.88 739.724 131.88C737.228 131.88 735.532 129.912 735.532 126.92C735.532 123.912 737.196 121.96 739.692 121.96C741.708 121.96 743.324 123.192 743.66 125.096H745.116C744.7 122.36 742.556 120.584 739.804 120.584C736.364 120.584 734.044 123.128 734.044 126.968C734.044 130.776 736.38 133.256 739.756 133.256ZM750.115 133.256C752.531 133.256 754.115 131.288 754.115 128.792C754.115 126.2 752.531 124.344 750.115 124.344C747.715 124.344 746.083 126.2 746.083 128.792C746.083 131.288 747.715 133.256 750.115 133.256ZM750.099 132.04C748.371 132.04 747.459 130.712 747.459 128.792C747.459 126.888 748.371 125.56 750.099 125.56C751.827 125.56 752.755 126.888 752.755 128.792C752.755 130.712 751.827 132.04 750.099 132.04ZM757.048 125.864V124.6H755.688V133H757.048V128.328C757.048 126.568 758.216 125.56 759.56 125.56C760.856 125.56 761.544 126.536 761.544 128.024V133H762.904V127.688C762.904 125.768 761.752 124.344 759.88 124.344C758.936 124.344 757.736 124.712 757.048 125.864ZM768.616 133.256C770.616 133.256 771.704 132.472 771.704 130.696C771.704 128.776 769.976 128.424 768.648 128.136C766.952 127.768 766.36 127.544 766.36 126.728C766.36 125.688 767.416 125.544 768.28 125.544C769.064 125.544 770.008 125.832 770.12 127.16H771.496C771.432 125.512 770.36 124.344 768.408 124.344C766.632 124.344 764.968 125 765 126.84C765.032 128.584 766.568 128.936 768.696 129.448C769.544 129.656 770.376 129.96 770.376 130.824C770.376 131.672 769.736 132.072 768.744 132.072C767.192 132.072 766.248 131.656 765.928 130.248H764.552C764.68 131.88 765.816 133.256 768.616 133.256ZM774.771 122.344V120.84H773.235V122.344H774.771ZM774.675 133V124.6H773.315V133H774.675ZM783.229 133H784.541V120.84H783.181V125.752C782.509 124.904 781.453 124.344 780.397 124.344C778.061 124.344 776.509 126.12 776.509 128.776C776.509 131.464 778.013 133.256 780.285 133.256C781.437 133.256 782.653 132.712 783.229 131.928V133ZM783.181 128.184V129.176C783.181 130.888 782.141 132.024 780.541 132.024C778.941 132.024 777.885 130.728 777.885 128.76C777.885 126.84 778.925 125.576 780.509 125.576C782.125 125.576 783.181 126.616 783.181 128.184ZM789.895 133.256C792.215 133.256 793.383 131.704 793.543 130.648H792.199C791.943 131.24 791.143 132.04 789.863 132.04C788.327 132.04 787.463 130.968 787.319 129.336L793.543 129.32V127.928C793.543 125.8 792.007 124.344 789.815 124.344C787.351 124.344 785.911 126.184 785.911 128.776C785.911 131.304 787.287 133.256 789.895 133.256ZM792.199 128.136H787.335C787.335 126.344 788.487 125.56 789.783 125.56C791.111 125.56 792.199 126.344 792.199 128.136ZM796.484 126.104V124.6H795.204V133H796.564V128.648C796.564 126.904 797.796 125.832 799.172 125.832H799.524V124.392C798.932 124.392 798.468 124.456 798.004 124.664C797.38 124.952 796.82 125.448 796.484 126.104ZM803.895 133.256C806.215 133.256 807.383 131.704 807.543 130.648H806.199C805.943 131.24 805.143 132.04 803.863 132.04C802.327 132.04 801.463 130.968 801.319 129.336L807.543 129.32V127.928C807.543 125.8 806.007 124.344 803.815 124.344C801.351 124.344 799.911 126.184 799.911 128.776C799.911 131.304 801.287 133.256 803.895 133.256ZM806.199 128.136H801.335C801.335 126.344 802.487 125.56 803.783 125.56C805.111 125.56 806.199 126.344 806.199 128.136ZM815.62 133H816.932V120.84H815.572V125.752C814.9 124.904 813.844 124.344 812.788 124.344C810.452 124.344 808.9 126.12 808.9 128.776C808.9 131.464 810.404 133.256 812.676 133.256C813.828 133.256 815.044 132.712 815.62 131.928V133ZM815.572 128.184V129.176C815.572 130.888 814.532 132.024 812.932 132.024C811.332 132.024 810.276 130.728 810.276 128.76C810.276 126.84 811.316 125.576 812.9 125.576C814.516 125.576 815.572 126.616 815.572 128.184ZM829.573 133H830.885V120.84H829.525V125.752C828.853 124.904 827.797 124.344 826.741 124.344C824.405 124.344 822.853 126.12 822.853 128.776C822.853 131.464 824.357 133.256 826.629 133.256C827.781 133.256 828.997 132.712 829.573 131.928V133ZM829.525 128.184V129.176C829.525 130.888 828.485 132.024 826.885 132.024C825.285 132.024 824.229 130.728 824.229 128.76C824.229 126.84 825.269 125.576 826.853 125.576C828.469 125.576 829.525 126.616 829.525 128.184ZM836.287 133.256C838.703 133.256 840.287 131.288 840.287 128.792C840.287 126.2 838.703 124.344 836.287 124.344C833.887 124.344 832.255 126.2 832.255 128.792C832.255 131.288 833.887 133.256 836.287 133.256ZM836.271 132.04C834.543 132.04 833.631 130.712 833.631 128.792C833.631 126.888 834.543 125.56 836.271 125.56C837.999 125.56 838.927 126.888 838.927 128.792C838.927 130.712 837.999 132.04 836.271 132.04ZM843.22 125.864V124.6H841.86V133H843.22V128.328C843.22 126.568 844.388 125.56 845.732 125.56C847.028 125.56 847.716 126.536 847.716 128.024V133H849.076V127.688C849.076 125.768 847.924 124.344 846.052 124.344C845.108 124.344 843.908 124.712 843.22 125.864ZM853.654 133.176C854.838 133.176 856.102 132.6 856.694 131.832H856.71C856.822 132.648 857.67 133.176 858.838 133.128H858.822V131.896C858.086 131.944 857.91 131.752 857.91 130.968V127.944C857.91 125.16 856.55 124.36 854.598 124.36C851.862 124.36 851.174 125.88 851.142 126.968H852.486C852.518 126.344 852.998 125.592 854.566 125.592C856.022 125.592 856.534 126.312 856.534 127.352V127.848H856.102C853.462 127.848 852.342 128.184 851.638 128.728C851.014 129.208 850.71 129.864 850.71 130.616C850.71 131.784 851.414 133.176 853.654 133.176ZM853.846 131.992C852.63 131.992 852.038 131.464 852.038 130.648C852.038 129.176 853.862 128.92 856.038 128.92H856.55V130.216C856.55 130.84 855.654 131.992 853.846 131.992ZM863.304 133.16C863.48 133.16 863.752 133.144 864.12 133.112V132.008C863.864 132.04 863.688 132.04 863.56 132.04C862.504 132.04 862.152 131.72 862.152 130.6V125.752H864.072V124.6H862.152V122.44H860.856V123.304C860.856 124.312 860.664 124.744 859.64 124.744V125.752H860.792V130.84C860.792 132.376 861.432 133.16 863.304 133.16ZM867.162 122.344V120.84H865.626V122.344H867.162ZM867.066 133V124.6H865.706V133H867.066ZM870.564 125.864V124.6H869.204V133H870.564V128.328C870.564 126.568 871.732 125.56 873.076 125.56C874.372 125.56 875.06 126.536 875.06 128.024V133H876.42V127.688C876.42 125.768 875.268 124.344 873.396 124.344C872.452 124.344 871.252 124.712 870.564 125.864ZM886.084 132.584V124.6H884.724V125.928C884.02 124.744 882.932 124.344 881.748 124.344C879.092 124.344 878.036 126.344 878.036 128.712C878.036 131.336 879.364 133.256 881.828 133.256C883.012 133.256 884.068 132.808 884.724 131.736V132.232C884.724 134.52 884.148 135.576 882.244 135.576C881.012 135.576 880.036 135.144 879.732 134.024H878.356C878.804 136.056 880.18 136.84 882.292 136.84C884.372 136.84 886.084 136.104 886.084 132.584ZM884.724 128.184V129.176C884.724 130.952 883.652 132.024 882.036 132.024C880.244 132.024 879.3 130.68 879.3 128.76C879.3 126.872 880.228 125.576 882.004 125.576C883.588 125.576 884.724 126.616 884.724 128.184ZM896.552 124.344C895.48 124.344 894.408 124.904 893.736 125.752V120.84H892.376V133H893.672V131.928C894.248 132.712 895.48 133.256 896.632 133.256C898.904 133.256 900.408 131.464 900.408 128.776C900.408 126.12 898.856 124.344 896.552 124.344ZM896.44 132.024C894.824 132.024 893.736 130.968 893.736 129.4V128.408C893.736 126.696 894.808 125.56 896.408 125.56C897.992 125.56 899.032 126.856 899.032 128.824C899.032 130.744 897.992 132.024 896.44 132.024ZM903.22 133V120.84H901.86V133H903.22ZM908.708 133.256C911.124 133.256 912.708 131.288 912.708 128.792C912.708 126.2 911.124 124.344 908.708 124.344C906.308 124.344 904.676 126.2 904.676 128.792C904.676 131.288 906.308 133.256 908.708 133.256ZM908.692 132.04C906.964 132.04 906.052 130.712 906.052 128.792C906.052 126.888 906.964 125.56 908.692 125.56C910.42 125.56 911.348 126.888 911.348 128.792C911.348 130.712 910.42 132.04 908.692 132.04ZM918.13 133.256C920.546 133.256 922.13 131.288 922.13 128.792C922.13 126.2 920.546 124.344 918.13 124.344C915.73 124.344 914.098 126.2 914.098 128.792C914.098 131.288 915.73 133.256 918.13 133.256ZM918.114 132.04C916.386 132.04 915.474 130.712 915.474 128.792C915.474 126.888 916.386 125.56 918.114 125.56C919.842 125.56 920.77 126.888 920.77 128.792C920.77 130.712 919.842 132.04 918.114 132.04ZM930.432 133H931.744V120.84H930.384V125.752C929.712 124.904 928.656 124.344 927.6 124.344C925.264 124.344 923.712 126.12 923.712 128.776C923.712 131.464 925.216 133.256 927.488 133.256C928.64 133.256 929.856 132.712 930.432 131.928V133ZM930.384 128.184V129.176C930.384 130.888 929.344 132.024 927.744 132.024C926.144 132.024 925.088 130.728 925.088 128.76C925.088 126.84 926.128 125.576 927.712 125.576C929.328 125.576 930.384 126.616 930.384 128.184ZM939.249 126.104V124.6H937.969V133H939.329V128.648C939.329 126.904 940.561 125.832 941.937 125.832H942.289V124.392C941.697 124.392 941.233 124.456 940.769 124.664C940.145 124.952 939.585 125.448 939.249 126.104ZM946.66 133.256C948.98 133.256 950.148 131.704 950.308 130.648H948.964C948.708 131.24 947.908 132.04 946.628 132.04C945.092 132.04 944.228 130.968 944.084 129.336L950.308 129.32V127.928C950.308 125.8 948.772 124.344 946.58 124.344C944.116 124.344 942.676 126.184 942.676 128.776C942.676 131.304 944.052 133.256 946.66 133.256ZM948.964 128.136H944.1C944.1 126.344 945.252 125.56 946.548 125.56C947.876 125.56 948.964 126.344 948.964 128.136ZM955.457 133.256C957.777 133.256 958.945 131.704 959.105 130.344H957.761C957.505 131.256 956.721 132.04 955.441 132.04C953.697 132.04 952.849 130.696 952.849 128.792C952.849 126.888 953.713 125.56 955.441 125.56C956.721 125.56 957.521 126.168 957.761 127.528H959.105C958.977 125.608 957.537 124.344 955.425 124.344C952.897 124.344 951.473 126.184 951.473 128.792C951.473 131.288 952.849 133.256 955.457 133.256ZM964.254 133.256C966.574 133.256 967.742 131.704 967.902 130.648H966.558C966.302 131.24 965.502 132.04 964.222 132.04C962.686 132.04 961.822 130.968 961.678 129.336L967.902 129.32V127.928C967.902 125.8 966.366 124.344 964.174 124.344C961.71 124.344 960.27 126.184 960.27 128.776C960.27 131.304 961.646 133.256 964.254 133.256ZM966.558 128.136H961.694C961.694 126.344 962.846 125.56 964.142 125.56C965.47 125.56 966.558 126.344 966.558 128.136ZM970.923 125.864V124.6H969.563V133H970.923V128.328C970.923 126.568 972.091 125.56 973.435 125.56C974.731 125.56 975.419 126.536 975.419 128.024V133H976.779V127.688C976.779 125.768 975.627 124.344 973.755 124.344C972.811 124.344 971.611 124.712 970.923 125.864ZM981.835 133.16C982.011 133.16 982.283 133.144 982.651 133.112V132.008C982.395 132.04 982.219 132.04 982.091 132.04C981.035 132.04 980.683 131.72 980.683 130.6V125.752H982.603V124.6H980.683V122.44H979.387V123.304C979.387 124.312 979.195 124.744 978.171 124.744V125.752H979.323V130.84C979.323 132.376 979.963 133.16 981.835 133.16ZM985.517 133V120.84H984.157V133H985.517ZM988.471 124.6H986.935L990.135 133L988.839 136.84H990.135L991.687 132.2L994.631 124.6H993.095L991.095 130.504L990.807 131.272H990.775L990.487 130.504L988.471 124.6Z" fill="black"/>
<path d="M673.82 77V64.84H672.396V77H673.82ZM679.247 77H680.655V66.184H684.383L684.367 64.84H675.503V66.184H679.247V77Z" fill="black"/>
<path d="M666.416 48.256C670.688 48.256 670.896 45.216 670.896 42.064V35.84H669.488V42.176C669.488 44.8 669.248 46.88 666.416 46.88C663.584 46.88 663.344 44.8 663.344 42.176V35.84H661.936V42.064C661.936 45.216 662.144 48.256 666.416 48.256ZM677.8 48.256C680.728 48.256 682.152 47.2 682.152 44.784C682.152 42.064 679.4 41.552 678.408 41.312C677.512 41.12 677.048 41.04 676.184 40.736C675.144 40.352 674.648 39.904 674.648 38.96C674.648 37.168 676.52 36.96 677.32 36.96C678.6 36.96 680.232 37.424 680.408 39.648H681.816C681.768 37.296 680.28 35.584 677.512 35.584C675.576 35.584 673.224 36.496 673.224 39.184C673.224 40.912 674.296 41.6 675.784 42.112C676.984 42.528 677.976 42.688 678.776 42.912C679.608 43.136 680.856 43.552 680.856 44.976C680.856 46.288 679.768 46.896 678.088 46.896C676.04 46.896 674.472 46.304 673.944 44.064H672.504C672.68 46.304 674.2 48.256 677.8 48.256Z" fill="black"/>
<path d="M673.416 119.256C677.688 119.256 677.896 116.216 677.896 113.064V106.84H676.488V113.176C676.488 115.8 676.248 117.88 673.416 117.88C670.584 117.88 670.344 115.8 670.344 113.176V106.84H668.936V113.064C668.936 116.216 669.144 119.256 673.416 119.256ZM684.8 119.256C687.728 119.256 689.152 118.2 689.152 115.784C689.152 113.064 686.4 112.552 685.408 112.312C684.512 112.12 684.048 112.04 683.184 111.736C682.144 111.352 681.648 110.904 681.648 109.96C681.648 108.168 683.52 107.96 684.32 107.96C685.6 107.96 687.232 108.424 687.408 110.648H688.816C688.768 108.296 687.28 106.584 684.512 106.584C682.576 106.584 680.224 107.496 680.224 110.184C680.224 111.912 681.296 112.6 682.784 113.112C683.984 113.528 684.976 113.688 685.776 113.912C686.608 114.136 687.856 114.552 687.856 115.976C687.856 117.288 686.768 117.896 685.088 117.896C683.04 117.896 681.472 117.304 680.944 115.064H679.504C679.68 117.304 681.2 119.256 684.8 119.256Z" fill="black"/>
<path d="M673.82 152V139.84H672.396V152H673.82ZM679.247 152H680.655V141.184H684.383L684.367 139.84H675.503V141.184H679.247V152Z" fill="black"/>
<path d="M742.597 60H744.005V47.84H742.597V52.88H736.453V47.84H735.045V60H736.453V54.256H742.597V60ZM748.685 60.176C749.869 60.176 751.133 59.6 751.725 58.832H751.741C751.853 59.648 752.701 60.176 753.869 60.128H753.853V58.896C753.117 58.944 752.941 58.752 752.941 57.968V54.944C752.941 52.16 751.581 51.36 749.629 51.36C746.893 51.36 746.205 52.88 746.173 53.968H747.517C747.549 53.344 748.029 52.592 749.597 52.592C751.053 52.592 751.565 53.312 751.565 54.352V54.848H751.133C748.493 54.848 747.373 55.184 746.669 55.728C746.045 56.208 745.741 56.864 745.741 57.616C745.741 58.784 746.445 60.176 748.685 60.176ZM748.877 58.992C747.661 58.992 747.069 58.464 747.069 57.648C747.069 56.176 748.893 55.92 751.069 55.92H751.581V57.216C751.581 57.84 750.685 58.992 748.877 58.992ZM759.163 60.256C761.163 60.256 762.251 59.472 762.251 57.696C762.251 55.776 760.523 55.424 759.195 55.136C757.499 54.768 756.907 54.544 756.907 53.728C756.907 52.688 757.963 52.544 758.827 52.544C759.611 52.544 760.555 52.832 760.667 54.16H762.043C761.979 52.512 760.907 51.344 758.955 51.344C757.179 51.344 755.515 52 755.547 53.84C755.579 55.584 757.115 55.936 759.243 56.448C760.091 56.656 760.923 56.96 760.923 57.824C760.923 58.672 760.283 59.072 759.291 59.072C757.739 59.072 756.795 58.656 756.475 57.248H755.099C755.227 58.88 756.363 60.256 759.163 60.256ZM774.62 60H775.932V47.84H774.572V52.752C773.9 51.904 772.844 51.344 771.788 51.344C769.452 51.344 767.9 53.12 767.9 55.776C767.9 58.464 769.404 60.256 771.676 60.256C772.828 60.256 774.044 59.712 774.62 58.928V60ZM774.572 55.184V56.176C774.572 57.888 773.532 59.024 771.932 59.024C770.332 59.024 769.276 57.728 769.276 55.76C769.276 53.84 770.316 52.576 771.9 52.576C773.516 52.576 774.572 53.616 774.572 55.184ZM781.333 60.256C783.749 60.256 785.333 58.288 785.333 55.792C785.333 53.2 783.749 51.344 781.333 51.344C778.933 51.344 777.301 53.2 777.301 55.792C777.301 58.288 778.933 60.256 781.333 60.256ZM781.317 59.04C779.589 59.04 778.677 57.712 778.677 55.792C778.677 53.888 779.589 52.56 781.317 52.56C783.045 52.56 783.973 53.888 783.973 55.792C783.973 57.712 783.045 59.04 781.317 59.04ZM788.267 52.864V51.6H786.907V60H788.267V55.328C788.267 53.568 789.435 52.56 790.779 52.56C792.075 52.56 792.763 53.536 792.763 55.024V60H794.123V54.688C794.123 52.768 792.971 51.344 791.099 51.344C790.155 51.344 788.955 51.712 788.267 52.864ZM798.701 60.176C799.885 60.176 801.149 59.6 801.741 58.832H801.757C801.869 59.648 802.717 60.176 803.885 60.128H803.869V58.896C803.133 58.944 802.957 58.752 802.957 57.968V54.944C802.957 52.16 801.597 51.36 799.645 51.36C796.909 51.36 796.221 52.88 796.189 53.968H797.533C797.565 53.344 798.045 52.592 799.613 52.592C801.069 52.592 801.581 53.312 801.581 54.352V54.848H801.149C798.509 54.848 797.389 55.184 796.685 55.728C796.061 56.208 795.757 56.864 795.757 57.616C795.757 58.784 796.461 60.176 798.701 60.176ZM798.893 58.992C797.677 58.992 797.085 58.464 797.085 57.648C797.085 56.176 798.909 55.92 801.085 55.92H801.597V57.216C801.597 57.84 800.701 58.992 798.893 58.992ZM808.351 60.16C808.527 60.16 808.799 60.144 809.167 60.112V59.008C808.911 59.04 808.735 59.04 808.607 59.04C807.551 59.04 807.199 58.72 807.199 57.6V52.752H809.119V51.6H807.199V49.44H805.903V50.304C805.903 51.312 805.711 51.744 804.687 51.744V52.752H805.839V57.84C805.839 59.376 806.479 60.16 808.351 60.16ZM814.02 60.256C816.34 60.256 817.508 58.704 817.668 57.648H816.324C816.068 58.24 815.268 59.04 813.988 59.04C812.452 59.04 811.588 57.968 811.444 56.336L817.668 56.32V54.928C817.668 52.8 816.132 51.344 813.94 51.344C811.476 51.344 810.036 53.184 810.036 55.776C810.036 58.304 811.412 60.256 814.02 60.256ZM816.324 55.136H811.46C811.46 53.344 812.612 52.56 813.908 52.56C815.236 52.56 816.324 53.344 816.324 55.136ZM825.745 60H827.057V47.84H825.697V52.752C825.025 51.904 823.969 51.344 822.913 51.344C820.577 51.344 819.025 53.12 819.025 55.776C819.025 58.464 820.529 60.256 822.801 60.256C823.953 60.256 825.169 59.712 825.745 58.928V60ZM825.697 55.184V56.176C825.697 57.888 824.657 59.024 823.057 59.024C821.457 59.024 820.401 57.728 820.401 55.76C820.401 53.84 821.441 52.576 823.025 52.576C824.641 52.576 825.697 53.616 825.697 55.184ZM837.458 51.344C836.386 51.344 835.314 51.904 834.642 52.752V47.84H833.282V60H834.578V58.928C835.154 59.712 836.386 60.256 837.538 60.256C839.81 60.256 841.314 58.464 841.314 55.776C841.314 53.12 839.762 51.344 837.458 51.344ZM837.346 59.024C835.73 59.024 834.642 57.968 834.642 56.4V55.408C834.642 53.696 835.714 52.56 837.314 52.56C838.898 52.56 839.938 53.856 839.938 55.824C839.938 57.744 838.898 59.024 837.346 59.024ZM846.66 60.256C848.98 60.256 850.148 58.704 850.308 57.648H848.964C848.708 58.24 847.908 59.04 846.628 59.04C845.092 59.04 844.228 57.968 844.084 56.336L850.308 56.32V54.928C850.308 52.8 848.772 51.344 846.58 51.344C844.116 51.344 842.676 53.184 842.676 55.776C842.676 58.304 844.052 60.256 846.66 60.256ZM848.964 55.136H844.1C844.1 53.344 845.252 52.56 846.548 52.56C847.876 52.56 848.964 53.344 848.964 55.136ZM851.281 51.6V52.752H852.417V60H853.777V52.752H855.505V51.6H853.777V49.936C853.777 49.104 854.161 48.768 855.057 48.768C855.409 48.768 855.489 48.8 855.569 48.816V47.68C855.505 47.664 855.105 47.584 854.625 47.584C853.073 47.584 852.417 48.448 852.417 50.224V51.6H851.281ZM860.005 60.256C862.421 60.256 864.005 58.288 864.005 55.792C864.005 53.2 862.421 51.344 860.005 51.344C857.605 51.344 855.973 53.2 855.973 55.792C855.973 58.288 857.605 60.256 860.005 60.256ZM859.989 59.04C858.261 59.04 857.349 57.712 857.349 55.792C857.349 53.888 858.261 52.56 859.989 52.56C861.717 52.56 862.645 53.888 862.645 55.792C862.645 57.712 861.717 59.04 859.989 59.04ZM866.859 53.104V51.6H865.579V60H866.939V55.648C866.939 53.904 868.171 52.832 869.547 52.832H869.899V51.392C869.307 51.392 868.843 51.456 868.379 51.664C867.755 51.952 867.195 52.448 866.859 53.104ZM874.27 60.256C876.59 60.256 877.758 58.704 877.918 57.648H876.574C876.318 58.24 875.518 59.04 874.238 59.04C872.702 59.04 871.838 57.968 871.694 56.336L877.918 56.32V54.928C877.918 52.8 876.382 51.344 874.19 51.344C871.726 51.344 870.286 53.184 870.286 55.776C870.286 58.304 871.662 60.256 874.27 60.256ZM876.574 55.136H871.71C871.71 53.344 872.862 52.56 874.158 52.56C875.486 52.56 876.574 53.344 876.574 55.136Z" fill="black"/>
<path d="M723 57H698V82H723V57Z" fill="#2D2AFF"/>
<path d="M723 28H698V53H723V28Z" fill="#E7A1A0"/>
<path d="M723 130H698V155H723V130Z" fill="#9FC5EC"/>
<path d="M723 101H698V126H723V101Z" fill="#D11F5F"/>
<path d="M127.56 8.544C129.432 8.544 130.552 7.088 130.552 5.056C130.552 3.024 129.432 1.568 127.56 1.568C125.688 1.568 124.568 3.024 124.568 5.056C124.568 7.088 125.688 8.544 127.56 8.544ZM127.64 14.256H129.336L136.712 1.6H135.016L127.64 14.256ZM127.56 7.216C126.696 7.216 126.184 6.32 126.184 5.056C126.184 3.792 126.696 2.896 127.56 2.896C128.424 2.896 128.936 3.792 128.936 5.056C128.936 6.32 128.424 7.216 127.56 7.216ZM136.936 14.144C138.968 14.144 139.928 12.528 139.928 10.656C139.928 8.784 138.968 7.168 136.936 7.168C134.904 7.168 133.944 8.784 133.944 10.656C133.944 12.528 134.904 14.144 136.936 14.144ZM136.936 12.8C135.928 12.8 135.576 11.648 135.576 10.656C135.576 9.664 135.928 8.512 136.936 8.512C137.944 8.512 138.296 9.664 138.296 10.656C138.296 11.648 137.944 12.8 136.936 12.8Z" fill="black"/>
<path d="M146.51 330.96H142.274V328.188H147.134V327.18H141.218V336.3H142.274V332.004H146.51V330.96ZM148.882 331.128V330H147.922V336.3H148.942V333.036C148.942 331.728 149.866 330.924 150.898 330.924H151.162V329.844C150.718 329.844 150.37 329.892 150.022 330.048C149.554 330.264 149.134 330.636 148.882 331.128ZM153.164 328.308V327.18H152.012V328.308H153.164ZM153.092 336.3V330H152.072V336.3H153.092ZM157.312 336.492C159.052 336.492 159.928 335.328 160.048 334.536H159.04C158.848 334.98 158.248 335.58 157.288 335.58C156.136 335.58 155.488 334.776 155.38 333.552L160.048 333.54V332.496C160.048 330.9 158.896 329.808 157.252 329.808C155.404 329.808 154.324 331.188 154.324 333.132C154.324 335.028 155.356 336.492 157.312 336.492ZM159.04 332.652H155.392C155.392 331.308 156.256 330.72 157.228 330.72C158.224 330.72 159.04 331.308 159.04 332.652ZM162.313 330.948V330H161.293V336.3H162.313V332.796C162.313 331.476 163.189 330.72 164.197 330.72C165.169 330.72 165.685 331.452 165.685 332.568V336.3H166.705V332.316C166.705 330.876 165.841 329.808 164.437 329.808C163.729 329.808 162.829 330.084 162.313 330.948ZM173.101 336.3H174.085V327.18H173.065V330.864C172.561 330.228 171.769 329.808 170.977 329.808C169.225 329.808 168.061 331.14 168.061 333.132C168.061 335.148 169.189 336.492 170.893 336.492C171.757 336.492 172.669 336.084 173.101 335.496V336.3ZM173.065 332.688V333.432C173.065 334.716 172.285 335.568 171.085 335.568C169.885 335.568 169.093 334.596 169.093 333.12C169.093 331.68 169.873 330.732 171.061 330.732C172.273 330.732 173.065 331.512 173.065 332.688ZM178.255 336.492C179.755 336.492 180.571 335.904 180.571 334.572C180.571 333.132 179.275 332.868 178.279 332.652C177.007 332.376 176.563 332.208 176.563 331.596C176.563 330.816 177.355 330.708 178.003 330.708C178.591 330.708 179.299 330.924 179.383 331.92H180.415C180.367 330.684 179.563 329.808 178.099 329.808C176.767 329.808 175.519 330.3 175.543 331.68C175.567 332.988 176.719 333.252 178.315 333.636C178.951 333.792 179.575 334.02 179.575 334.668C179.575 335.304 179.095 335.604 178.351 335.604C177.187 335.604 176.479 335.292 176.239 334.236H175.207C175.303 335.46 176.155 336.492 178.255 336.492ZM186.944 336.432C187.832 336.432 188.78 336 189.224 335.424H189.236C189.32 336.036 189.956 336.432 190.832 336.396H190.82V335.472C190.268 335.508 190.136 335.364 190.136 334.776V332.508C190.136 330.42 189.116 329.82 187.652 329.82C185.6 329.82 185.084 330.96 185.06 331.776H186.068C186.092 331.308 186.452 330.744 187.628 330.744C188.72 330.744 189.104 331.284 189.104 332.064V332.436H188.78C186.8 332.436 185.96 332.688 185.432 333.096C184.964 333.456 184.736 333.948 184.736 334.512C184.736 335.388 185.264 336.432 186.944 336.432ZM187.088 335.544C186.176 335.544 185.732 335.148 185.732 334.536C185.732 333.432 187.1 333.24 188.732 333.24H189.116V334.212C189.116 334.68 188.444 335.544 187.088 335.544ZM192.97 330.948V330H191.95V336.3H192.97V332.796C192.97 331.476 193.846 330.72 194.854 330.72C195.826 330.72 196.342 331.452 196.342 332.568V336.3H197.362V332.316C197.362 330.876 196.498 329.808 195.094 329.808C194.386 329.808 193.486 330.084 192.97 330.948ZM203.758 336.3H204.742V327.18H203.722V330.864C203.218 330.228 202.426 329.808 201.634 329.808C199.882 329.808 198.718 331.14 198.718 333.132C198.718 335.148 199.846 336.492 201.55 336.492C202.414 336.492 203.326 336.084 203.758 335.496V336.3ZM203.722 332.688V333.432C203.722 334.716 202.942 335.568 201.742 335.568C200.542 335.568 199.75 334.596 199.75 333.12C199.75 331.68 200.53 330.732 201.718 330.732C202.93 330.732 203.722 331.512 203.722 332.688ZM206.463 337.692L209.787 327.18H208.887L205.563 337.692H206.463ZM213.07 336.492C214.882 336.492 216.07 335.016 216.07 333.144C216.07 331.2 214.882 329.808 213.07 329.808C211.27 329.808 210.046 331.2 210.046 333.144C210.046 335.016 211.27 336.492 213.07 336.492ZM213.058 335.58C211.762 335.58 211.078 334.584 211.078 333.144C211.078 331.716 211.762 330.72 213.058 330.72C214.354 330.72 215.05 331.716 215.05 333.144C215.05 334.584 214.354 335.58 213.058 335.58ZM218.21 331.128V330H217.25V336.3H218.27V333.036C218.27 331.728 219.194 330.924 220.226 330.924H220.49V329.844C220.046 329.844 219.698 329.892 219.35 330.048C218.882 330.264 218.462 330.636 218.21 331.128ZM225.499 331.128V330H224.539V336.3H225.559V333.036C225.559 331.728 226.483 330.924 227.515 330.924H227.779V329.844C227.335 329.844 226.987 329.892 226.639 330.048C226.171 330.264 225.751 330.636 225.499 331.128ZM231.058 336.492C232.798 336.492 233.674 335.328 233.794 334.536H232.786C232.594 334.98 231.994 335.58 231.034 335.58C229.882 335.58 229.234 334.776 229.126 333.552L233.794 333.54V332.496C233.794 330.9 232.642 329.808 230.998 329.808C229.15 329.808 228.07 331.188 228.07 333.132C228.07 335.028 229.102 336.492 231.058 336.492ZM232.786 332.652H229.138C229.138 331.308 230.002 330.72 230.974 330.72C231.97 330.72 232.786 331.308 232.786 332.652ZM236.059 336.3V327.18H235.039V336.3H236.059ZM239.397 336.432C240.285 336.432 241.233 336 241.677 335.424H241.689C241.773 336.036 242.409 336.432 243.285 336.396H243.273V335.472C242.721 335.508 242.589 335.364 242.589 334.776V332.508C242.589 330.42 241.569 329.82 240.105 329.82C238.053 329.82 237.537 330.96 237.513 331.776H238.521C238.545 331.308 238.905 330.744 240.081 330.744C241.173 330.744 241.557 331.284 241.557 332.064V332.436H241.233C239.253 332.436 238.413 332.688 237.885 333.096C237.417 333.456 237.189 333.948 237.189 334.512C237.189 335.388 237.717 336.432 239.397 336.432ZM239.541 335.544C238.629 335.544 238.185 335.148 238.185 334.536C238.185 333.432 239.553 333.24 241.185 333.24H241.569V334.212C241.569 334.68 240.897 335.544 239.541 335.544ZM246.634 336.42C246.766 336.42 246.97 336.408 247.246 336.384V335.556C247.054 335.58 246.922 335.58 246.826 335.58C246.034 335.58 245.77 335.34 245.77 334.5V330.864H247.21V330H245.77V328.38H244.798V329.028C244.798 329.784 244.654 330.108 243.886 330.108V330.864H244.75V334.68C244.75 335.832 245.23 336.42 246.634 336.42ZM249.527 328.308V327.18H248.375V328.308H249.527ZM249.455 336.3V330H248.435V336.3H249.455ZM253.075 334.272L251.611 330H250.459L252.859 336.3H253.831L256.231 330H255.079L253.615 334.272L253.363 334.968H253.339L253.075 334.272ZM259.488 336.492C261.228 336.492 262.104 335.328 262.224 334.536H261.216C261.024 334.98 260.424 335.58 259.464 335.58C258.312 335.58 257.664 334.776 257.556 333.552L262.224 333.54V332.496C262.224 330.9 261.072 329.808 259.428 329.808C257.58 329.808 256.5 331.188 256.5 333.132C256.5 335.028 257.532 336.492 259.488 336.492ZM261.216 332.652H257.568C257.568 331.308 258.432 330.72 259.404 330.72C260.4 330.72 261.216 331.308 261.216 332.652ZM266.169 336.492C267.669 336.492 268.485 335.904 268.485 334.572C268.485 333.132 267.189 332.868 266.193 332.652C264.921 332.376 264.477 332.208 264.477 331.596C264.477 330.816 265.269 330.708 265.917 330.708C266.505 330.708 267.213 330.924 267.297 331.92H268.329C268.281 330.684 267.477 329.808 266.013 329.808C264.681 329.808 263.433 330.3 263.457 331.68C263.481 332.988 264.633 333.252 266.229 333.636C266.865 333.792 267.489 334.02 267.489 334.668C267.489 335.304 267.009 335.604 266.265 335.604C265.101 335.604 264.393 335.292 264.153 334.236H263.121C263.217 335.46 264.069 336.492 266.169 336.492Z" fill="black"/>
<path d="M313.452 334.492C315.648 334.492 316.716 333.7 316.716 331.888C316.716 329.848 314.652 329.464 313.908 329.284C313.236 329.14 312.888 329.08 312.24 328.852C311.46 328.564 311.088 328.228 311.088 327.52C311.088 326.176 312.492 326.02 313.092 326.02C314.052 326.02 315.276 326.368 315.408 328.036H316.464C316.428 326.272 315.312 324.988 313.236 324.988C311.784 324.988 310.02 325.672 310.02 327.688C310.02 328.984 310.824 329.5 311.94 329.884C312.84 330.196 313.584 330.316 314.184 330.484C314.808 330.652 315.744 330.964 315.744 332.032C315.744 333.016 314.928 333.472 313.668 333.472C312.132 333.472 310.956 333.028 310.56 331.348H309.48C309.612 333.028 310.752 334.492 313.452 334.492ZM320.484 334.492C322.224 334.492 323.1 333.328 323.22 332.308H322.212C322.02 332.992 321.432 333.58 320.472 333.58C319.164 333.58 318.528 332.572 318.528 331.144C318.528 329.716 319.176 328.72 320.472 328.72C321.432 328.72 322.032 329.176 322.212 330.196H323.22C323.124 328.756 322.044 327.808 320.46 327.808C318.564 327.808 317.496 329.188 317.496 331.144C317.496 333.016 318.528 334.492 320.484 334.492ZM325.485 328.948V325.18H324.465V334.3H325.485V330.796C325.485 329.476 326.361 328.72 327.369 328.72C328.341 328.72 328.857 329.452 328.857 330.568V334.3H329.877V330.328C329.877 328.888 329.013 327.808 327.609 327.808C326.901 327.808 326.001 328.084 325.485 328.948ZM333.996 334.492C335.808 334.492 336.996 333.016 336.996 331.144C336.996 329.2 335.808 327.808 333.996 327.808C332.196 327.808 330.972 329.2 330.972 331.144C330.972 333.016 332.196 334.492 333.996 334.492ZM333.984 333.58C332.688 333.58 332.004 332.584 332.004 331.144C332.004 329.716 332.688 328.72 333.984 328.72C335.28 328.72 335.976 329.716 335.976 331.144C335.976 332.584 335.28 333.58 333.984 333.58ZM341.063 334.492C342.875 334.492 344.063 333.016 344.063 331.144C344.063 329.2 342.875 327.808 341.063 327.808C339.263 327.808 338.039 329.2 338.039 331.144C338.039 333.016 339.263 334.492 341.063 334.492ZM341.051 333.58C339.755 333.58 339.071 332.584 339.071 331.144C339.071 329.716 339.755 328.72 341.051 328.72C342.347 328.72 343.043 329.716 343.043 331.144C343.043 332.584 342.347 333.58 341.051 333.58ZM346.192 334.3V325.18H345.172V334.3H346.192ZM353.578 334.492C355.39 334.492 356.578 333.016 356.578 331.144C356.578 329.2 355.39 327.808 353.578 327.808C351.778 327.808 350.554 329.2 350.554 331.144C350.554 333.016 351.778 334.492 353.578 334.492ZM353.566 333.58C352.27 333.58 351.586 332.584 351.586 331.144C351.586 329.716 352.27 328.72 353.566 328.72C354.862 328.72 355.558 329.716 355.558 331.144C355.558 332.584 354.862 333.58 353.566 333.58ZM358.718 329.128V328H357.758V334.3H358.778V331.036C358.778 329.728 359.702 328.924 360.734 328.924H360.998V327.844C360.554 327.844 360.206 327.892 359.858 328.048C359.39 328.264 358.97 328.636 358.718 329.128ZM367.663 334.492C369.403 334.492 370.279 333.328 370.399 332.536H369.391C369.199 332.98 368.599 333.58 367.639 333.58C366.487 333.58 365.839 332.776 365.731 331.552L370.399 331.54V330.496C370.399 328.9 369.247 327.808 367.603 327.808C365.755 327.808 364.675 329.188 364.675 331.132C364.675 333.028 365.707 334.492 367.663 334.492ZM369.391 330.652H365.743C365.743 329.308 366.607 328.72 367.579 328.72C368.575 328.72 369.391 329.308 369.391 330.652ZM379.229 327.808C378.389 327.808 377.501 328.096 376.829 329.068C376.493 328.216 375.809 327.808 374.837 327.808C373.973 327.808 373.169 328.12 372.665 328.948V328H371.645V334.3H372.665V330.796C372.665 329.476 373.505 328.72 374.633 328.72C375.341 328.72 376.037 329.02 376.037 330.424V334.3H377.057V330.796C377.057 329.476 377.897 328.72 379.025 328.72C379.733 328.72 380.429 329.02 380.429 330.424V334.3H381.449V330.448C381.449 328.648 380.621 327.808 379.229 327.808ZM386.168 327.808C385.364 327.808 384.524 328.228 384.02 328.864V328H383.036V337.18H384.056V333.496C384.488 334.084 385.364 334.492 386.228 334.492C387.932 334.492 389.06 333.148 389.06 331.132C389.06 329.14 387.896 327.808 386.168 327.808ZM386.084 333.568C384.872 333.568 384.056 332.776 384.056 331.6V330.856C384.056 329.572 384.86 328.72 386.06 328.72C387.248 328.72 388.028 329.692 388.028 331.168C388.028 332.608 387.248 333.568 386.084 333.568ZM391.169 334.3V325.18H390.149V334.3H391.169ZM395.285 334.492C397.097 334.492 398.285 333.016 398.285 331.144C398.285 329.2 397.097 327.808 395.285 327.808C393.485 327.808 392.261 329.2 392.261 331.144C392.261 333.016 393.485 334.492 395.285 334.492ZM395.273 333.58C393.977 333.58 393.293 332.584 393.293 331.144C393.293 329.716 393.977 328.72 395.273 328.72C396.569 328.72 397.265 329.716 397.265 331.144C397.265 332.584 396.569 333.58 395.273 333.58ZM399.724 328H398.572L400.972 334.3L400 337.18H400.972L402.136 333.7L404.344 328H403.192L401.692 332.428L401.476 333.004H401.452L401.236 332.428L399.724 328ZM407.601 334.492C409.341 334.492 410.217 333.328 410.337 332.536H409.329C409.137 332.98 408.537 333.58 407.577 333.58C406.425 333.58 405.777 332.776 405.669 331.552L410.337 331.54V330.496C410.337 328.9 409.185 327.808 407.541 327.808C405.693 327.808 404.613 329.188 404.613 331.132C404.613 333.028 405.645 334.492 407.601 334.492ZM409.329 330.652H405.681C405.681 329.308 406.545 328.72 407.517 328.72C408.513 328.72 409.329 329.308 409.329 330.652ZM412.542 329.128V328H411.582V334.3H412.602V331.036C412.602 329.728 413.526 328.924 414.558 328.924H414.822V327.844C414.378 327.844 414.03 327.892 413.682 328.048C413.214 328.264 412.794 328.636 412.542 329.128Z" fill="black"/>
<path d="M461.014 327.18H457.882V336.3H461.638C463.63 336.3 464.518 335.256 464.518 333.708C464.518 332.4 463.606 331.524 462.754 331.416C463.402 331.212 464.038 330.504 464.038 329.616C464.038 327.972 462.754 327.18 461.014 327.18ZM460.798 330.936H458.926V328.152H461.038C462.43 328.152 463.006 328.752 463.006 329.604C463.006 330.516 462.166 330.936 460.798 330.936ZM461.278 335.328H458.926V331.968H461.158C462.706 331.968 463.486 332.628 463.486 333.624C463.486 334.788 462.562 335.328 461.278 335.328ZM466.919 336.3V327.18H465.899V336.3H466.919ZM471.035 336.492C472.847 336.492 474.035 335.016 474.035 333.144C474.035 331.2 472.847 329.808 471.035 329.808C469.235 329.808 468.011 331.2 468.011 333.144C468.011 335.016 469.235 336.492 471.035 336.492ZM471.023 335.58C469.727 335.58 469.043 334.584 469.043 333.144C469.043 331.716 469.727 330.72 471.023 330.72C472.319 330.72 473.015 331.716 473.015 333.144C473.015 334.584 472.319 335.58 471.023 335.58ZM478.102 336.492C479.914 336.492 481.102 335.016 481.102 333.144C481.102 331.2 479.914 329.808 478.102 329.808C476.302 329.808 475.078 331.2 475.078 333.144C475.078 335.016 476.302 336.492 478.102 336.492ZM478.09 335.58C476.794 335.58 476.11 334.584 476.11 333.144C476.11 331.716 476.794 330.72 478.09 330.72C479.386 330.72 480.082 331.716 480.082 333.144C480.082 334.584 479.386 335.58 478.09 335.58ZM487.328 336.3H488.312V327.18H487.292V330.864C486.788 330.228 485.996 329.808 485.204 329.808C483.452 329.808 482.288 331.14 482.288 333.132C482.288 335.148 483.416 336.492 485.12 336.492C485.984 336.492 486.896 336.084 487.328 335.496V336.3ZM487.292 332.688V333.432C487.292 334.716 486.512 335.568 485.312 335.568C484.112 335.568 483.32 334.596 483.32 333.12C483.32 331.68 484.1 330.732 485.288 330.732C486.5 330.732 487.292 331.512 487.292 332.688ZM497.793 336.3H498.777V327.18H497.757V330.864C497.253 330.228 496.461 329.808 495.669 329.808C493.917 329.808 492.753 331.14 492.753 333.132C492.753 335.148 493.881 336.492 495.585 336.492C496.449 336.492 497.361 336.084 497.793 335.496V336.3ZM497.757 332.688V333.432C497.757 334.716 496.977 335.568 495.777 335.568C494.577 335.568 493.785 334.596 493.785 333.12C493.785 331.68 494.565 330.732 495.753 330.732C496.965 330.732 497.757 331.512 497.757 332.688ZM502.828 336.492C504.64 336.492 505.828 335.016 505.828 333.144C505.828 331.2 504.64 329.808 502.828 329.808C501.028 329.808 499.804 331.2 499.804 333.144C499.804 335.016 501.028 336.492 502.828 336.492ZM502.816 335.58C501.52 335.58 500.836 334.584 500.836 333.144C500.836 331.716 501.52 330.72 502.816 330.72C504.112 330.72 504.808 331.716 504.808 333.144C504.808 334.584 504.112 335.58 502.816 335.58ZM508.028 330.948V330H507.008V336.3H508.028V332.796C508.028 331.476 508.904 330.72 509.912 330.72C510.884 330.72 511.4 331.452 511.4 332.568V336.3H512.42V332.316C512.42 330.876 511.556 329.808 510.152 329.808C509.444 329.808 508.544 330.084 508.028 330.948ZM515.854 336.432C516.742 336.432 517.69 336 518.134 335.424H518.146C518.23 336.036 518.866 336.432 519.742 336.396H519.73V335.472C519.178 335.508 519.046 335.364 519.046 334.776V332.508C519.046 330.42 518.026 329.82 516.562 329.82C514.51 329.82 513.994 330.96 513.97 331.776H514.978C515.002 331.308 515.362 330.744 516.538 330.744C517.63 330.744 518.014 331.284 518.014 332.064V332.436H517.69C515.71 332.436 514.87 332.688 514.342 333.096C513.874 333.456 513.646 333.948 513.646 334.512C513.646 335.388 514.174 336.432 515.854 336.432ZM515.998 335.544C515.086 335.544 514.642 335.148 514.642 334.536C514.642 333.432 516.01 333.24 517.642 333.24H518.026V334.212C518.026 334.68 517.354 335.544 515.998 335.544ZM523.091 336.42C523.223 336.42 523.427 336.408 523.703 336.384V335.556C523.511 335.58 523.379 335.58 523.283 335.58C522.491 335.58 522.227 335.34 522.227 334.5V330.864H523.667V330H522.227V328.38H521.255V329.028C521.255 329.784 521.111 330.108 520.343 330.108V330.864H521.207V334.68C521.207 335.832 521.687 336.42 523.091 336.42ZM525.984 328.308V327.18H524.832V328.308H525.984ZM525.912 336.3V330H524.892V336.3H525.912ZM530.168 336.492C531.98 336.492 533.168 335.016 533.168 333.144C533.168 331.2 531.98 329.808 530.168 329.808C528.368 329.808 527.144 331.2 527.144 333.144C527.144 335.016 528.368 336.492 530.168 336.492ZM530.156 335.58C528.86 335.58 528.176 334.584 528.176 333.144C528.176 331.716 528.86 330.72 530.156 330.72C531.452 330.72 532.148 331.716 532.148 333.144C532.148 334.584 531.452 335.58 530.156 335.58ZM535.368 330.948V330H534.348V336.3H535.368V332.796C535.368 331.476 536.244 330.72 537.252 330.72C538.224 330.72 538.74 331.452 538.74 332.568V336.3H539.76V332.316C539.76 330.876 538.896 329.808 537.492 329.808C536.784 329.808 535.884 330.084 535.368 330.948ZM547.195 336.492C549.007 336.492 550.195 335.016 550.195 333.144C550.195 331.2 549.007 329.808 547.195 329.808C545.395 329.808 544.171 331.2 544.171 333.144C544.171 335.016 545.395 336.492 547.195 336.492ZM547.183 335.58C545.887 335.58 545.203 334.584 545.203 333.144C545.203 331.716 545.887 330.72 547.183 330.72C548.479 330.72 549.175 331.716 549.175 333.144C549.175 334.584 548.479 335.58 547.183 335.58ZM552.335 331.128V330H551.375V336.3H552.395V333.036C552.395 331.728 553.319 330.924 554.351 330.924H554.615V329.844C554.171 329.844 553.823 329.892 553.475 330.048C553.007 330.264 552.587 330.636 552.335 331.128ZM561.129 335.988V330H560.109V330.996C559.581 330.108 558.765 329.808 557.877 329.808C555.885 329.808 555.093 331.308 555.093 333.084C555.093 335.052 556.089 336.492 557.937 336.492C558.825 336.492 559.617 336.156 560.109 335.352V335.724C560.109 337.44 559.677 338.232 558.249 338.232C557.325 338.232 556.593 337.908 556.365 337.068H555.333C555.669 338.592 556.701 339.18 558.285 339.18C559.845 339.18 561.129 338.628 561.129 335.988ZM560.109 332.688V333.432C560.109 334.764 559.305 335.568 558.093 335.568C556.749 335.568 556.041 334.56 556.041 333.12C556.041 331.704 556.737 330.732 558.069 330.732C559.257 330.732 560.109 331.512 560.109 332.688ZM564.557 336.432C565.445 336.432 566.393 336 566.837 335.424H566.849C566.933 336.036 567.569 336.432 568.445 336.396H568.433V335.472C567.881 335.508 567.749 335.364 567.749 334.776V332.508C567.749 330.42 566.729 329.82 565.265 329.82C563.213 329.82 562.697 330.96 562.673 331.776H563.681C563.705 331.308 564.065 330.744 565.241 330.744C566.333 330.744 566.717 331.284 566.717 332.064V332.436H566.393C564.413 332.436 563.573 332.688 563.045 333.096C562.577 333.456 562.349 333.948 562.349 334.512C562.349 335.388 562.877 336.432 564.557 336.432ZM564.701 335.544C563.789 335.544 563.345 335.148 563.345 334.536C563.345 333.432 564.713 333.24 566.345 333.24H566.729V334.212C566.729 334.68 566.057 335.544 564.701 335.544ZM570.583 330.948V330H569.563V336.3H570.583V332.796C570.583 331.476 571.459 330.72 572.467 330.72C573.439 330.72 573.955 331.452 573.955 332.568V336.3H574.975V332.316C574.975 330.876 574.111 329.808 572.707 329.808C571.999 329.808 571.099 330.084 570.583 330.948ZM577.711 328.308V327.18H576.559V328.308H577.711ZM577.639 336.3V330H576.619V336.3H577.639ZM578.859 336.3H584.583V335.4H580.071L584.355 330.9L584.343 330H578.907V330.9H583.143L578.859 335.4V336.3ZM587.596 336.432C588.484 336.432 589.432 336 589.876 335.424H589.888C589.972 336.036 590.608 336.432 591.484 336.396H591.472V335.472C590.92 335.508 590.788 335.364 590.788 334.776V332.508C590.788 330.42 589.768 329.82 588.304 329.82C586.252 329.82 585.736 330.96 585.712 331.776H586.72C586.744 331.308 587.104 330.744 588.28 330.744C589.372 330.744 589.756 331.284 589.756 332.064V332.436H589.432C587.452 332.436 586.612 332.688 586.084 333.096C585.616 333.456 585.388 333.948 585.388 334.512C585.388 335.388 585.916 336.432 587.596 336.432ZM587.74 335.544C586.828 335.544 586.384 335.148 586.384 334.536C586.384 333.432 587.752 333.24 589.384 333.24H589.768V334.212C589.768 334.68 589.096 335.544 587.74 335.544ZM594.833 336.42C594.965 336.42 595.169 336.408 595.445 336.384V335.556C595.253 335.58 595.121 335.58 595.025 335.58C594.233 335.58 593.969 335.34 593.969 334.5V330.864H595.409V330H593.969V328.38H592.997V329.028C592.997 329.784 592.853 330.108 592.085 330.108V330.864H592.949V334.68C592.949 335.832 593.429 336.42 594.833 336.42ZM597.727 328.308V327.18H596.575V328.308H597.727ZM597.655 336.3V330H596.635V336.3H597.655ZM601.91 336.492C603.722 336.492 604.91 335.016 604.91 333.144C604.91 331.2 603.722 329.808 601.91 329.808C600.11 329.808 598.886 331.2 598.886 333.144C598.886 335.016 600.11 336.492 601.91 336.492ZM601.898 335.58C600.602 335.58 599.918 334.584 599.918 333.144C599.918 331.716 600.602 330.72 601.898 330.72C603.194 330.72 603.89 331.716 603.89 333.144C603.89 334.584 603.194 335.58 601.898 335.58ZM607.11 330.948V330H606.09V336.3H607.11V332.796C607.11 331.476 607.986 330.72 608.994 330.72C609.966 330.72 610.482 331.452 610.482 332.568V336.3H611.502V332.316C611.502 330.876 610.638 329.808 609.234 329.808C608.526 329.808 607.626 330.084 607.11 330.948Z" fill="black"/>
<path d="M630.715 336.3V327.18H629.647V336.3H630.715ZM633.429 330.948V330H632.409V336.3H633.429V332.796C633.429 331.476 634.305 330.72 635.313 330.72C636.285 330.72 636.801 331.452 636.801 332.568V336.3H637.821V332.316C637.821 330.876 636.957 329.808 635.553 329.808C634.845 329.808 633.945 330.084 633.429 330.948ZM641.613 336.42C641.745 336.42 641.949 336.408 642.225 336.384V335.556C642.033 335.58 641.901 335.58 641.805 335.58C641.013 335.58 640.749 335.34 640.749 334.5V330.864H642.189V330H640.749V328.38H639.777V329.028C639.777 329.784 639.633 330.108 638.865 330.108V330.864H639.729V334.68C639.729 335.832 640.209 336.42 641.613 336.42ZM645.864 336.492C647.604 336.492 648.48 335.328 648.6 334.536H647.592C647.4 334.98 646.8 335.58 645.84 335.58C644.688 335.58 644.04 334.776 643.932 333.552L648.6 333.54V332.496C648.6 330.9 647.448 329.808 645.804 329.808C643.956 329.808 642.876 331.188 642.876 333.132C642.876 335.028 643.908 336.492 645.864 336.492ZM647.592 332.652H643.944C643.944 331.308 644.808 330.72 645.78 330.72C646.776 330.72 647.592 331.308 647.592 332.652ZM650.806 331.128V330H649.846V336.3H650.866V333.036C650.866 331.728 651.79 330.924 652.822 330.924H653.086V329.844C652.642 329.844 652.294 329.892 651.946 330.048C651.478 330.264 651.058 330.636 650.806 331.128ZM654.956 330.948V330H653.936V336.3H654.956V332.796C654.956 331.476 655.832 330.72 656.84 330.72C657.812 330.72 658.328 331.452 658.328 332.568V336.3H659.348V332.316C659.348 330.876 658.484 329.808 657.08 329.808C656.372 329.808 655.472 330.084 654.956 330.948ZM663.548 336.492C665.288 336.492 666.164 335.328 666.284 334.536H665.276C665.084 334.98 664.484 335.58 663.524 335.58C662.372 335.58 661.724 334.776 661.616 333.552L666.284 333.54V332.496C666.284 330.9 665.132 329.808 663.488 329.808C661.64 329.808 660.56 331.188 660.56 333.132C660.56 335.028 661.592 336.492 663.548 336.492ZM665.276 332.652H661.628C661.628 331.308 662.492 330.72 663.464 330.72C664.46 330.72 665.276 331.308 665.276 332.652ZM669.738 336.42C669.87 336.42 670.074 336.408 670.35 336.384V335.556C670.158 335.58 670.026 335.58 669.93 335.58C669.138 335.58 668.874 335.34 668.874 334.5V330.864H670.314V330H668.874V328.38H667.902V329.028C667.902 329.784 667.758 330.108 666.99 330.108V330.864H667.854V334.68C667.854 335.832 668.334 336.42 669.738 336.42ZM676.106 337.692H676.886C675.086 334.392 675.086 331.104 676.886 327.804H676.106C674.066 331.104 674.066 334.392 676.106 337.692ZM679.05 330.948V330H678.03V336.3H679.05V332.796C679.05 331.476 679.926 330.72 680.934 330.72C681.906 330.72 682.422 331.452 682.422 332.568V336.3H683.442V332.316C683.442 330.876 682.578 329.808 681.174 329.808C680.466 329.808 679.566 330.084 679.05 330.948ZM687.678 336.492C689.49 336.492 690.678 335.016 690.678 333.144C690.678 331.2 689.49 329.808 687.678 329.808C685.878 329.808 684.654 331.2 684.654 333.144C684.654 335.016 685.878 336.492 687.678 336.492ZM687.666 335.58C686.37 335.58 685.686 334.584 685.686 333.144C685.686 331.716 686.37 330.72 687.666 330.72C688.962 330.72 689.658 331.716 689.658 333.144C689.658 334.584 688.962 335.58 687.666 335.58ZM694.066 336.42C694.198 336.42 694.402 336.408 694.678 336.384V335.556C694.486 335.58 694.354 335.58 694.258 335.58C693.466 335.58 693.202 335.34 693.202 334.5V330.864H694.642V330H693.202V328.38H692.23V329.028C692.23 329.784 692.086 330.108 691.318 330.108V330.864H692.182V334.68C692.182 335.832 692.662 336.42 694.066 336.42ZM701.706 336.492C703.206 336.492 704.022 335.904 704.022 334.572C704.022 333.132 702.726 332.868 701.73 332.652C700.458 332.376 700.014 332.208 700.014 331.596C700.014 330.816 700.806 330.708 701.454 330.708C702.042 330.708 702.75 330.924 702.834 331.92H703.866C703.818 330.684 703.014 329.808 701.55 329.808C700.218 329.808 698.97 330.3 698.994 331.68C699.018 332.988 700.17 333.252 701.766 333.636C702.402 333.792 703.026 334.02 703.026 334.668C703.026 335.304 702.546 335.604 701.802 335.604C700.638 335.604 699.93 335.292 699.69 334.236H698.658C698.754 335.46 699.606 336.492 701.706 336.492ZM707.94 336.492C709.752 336.492 710.94 335.016 710.94 333.144C710.94 331.2 709.752 329.808 707.94 329.808C706.14 329.808 704.916 331.2 704.916 333.144C704.916 335.016 706.14 336.492 707.94 336.492ZM707.928 335.58C706.632 335.58 705.948 334.584 705.948 333.144C705.948 331.716 706.632 330.72 707.928 330.72C709.224 330.72 709.92 331.716 709.92 333.144C709.92 334.584 709.224 335.58 707.928 335.58ZM714.97 336.492C716.71 336.492 717.586 335.328 717.706 334.308H716.698C716.506 334.992 715.918 335.58 714.958 335.58C713.65 335.58 713.014 334.572 713.014 333.144C713.014 331.716 713.662 330.72 714.958 330.72C715.918 330.72 716.518 331.176 716.698 332.196H717.706C717.61 330.756 716.53 329.808 714.946 329.808C713.05 329.808 711.982 331.188 711.982 333.144C711.982 335.016 713.014 336.492 714.97 336.492ZM720.104 328.308V327.18H718.952V328.308H720.104ZM720.032 336.3V330H719.012V336.3H720.032ZM723.543 336.432C724.431 336.432 725.379 336 725.823 335.424H725.835C725.919 336.036 726.555 336.432 727.431 336.396H727.419V335.472C726.867 335.508 726.735 335.364 726.735 334.776V332.508C726.735 330.42 725.715 329.82 724.251 329.82C722.199 329.82 721.683 330.96 721.659 331.776H722.667C722.691 331.308 723.051 330.744 724.227 330.744C725.319 330.744 725.703 331.284 725.703 332.064V332.436H725.379C723.399 332.436 722.559 332.688 722.031 333.096C721.563 333.456 721.335 333.948 721.335 334.512C721.335 335.388 721.863 336.432 723.543 336.432ZM723.687 335.544C722.775 335.544 722.331 335.148 722.331 334.536C722.331 333.432 723.699 333.24 725.331 333.24H725.715V334.212C725.715 334.68 725.043 335.544 723.687 335.544ZM729.71 336.3V327.18H728.69V336.3H729.71ZM742.028 329.808C741.188 329.808 740.3 330.096 739.628 331.068C739.292 330.216 738.608 329.808 737.636 329.808C736.772 329.808 735.968 330.12 735.464 330.948V330H734.444V336.3H735.464V332.796C735.464 331.476 736.304 330.72 737.432 330.72C738.14 330.72 738.836 331.02 738.836 332.424V336.3H739.856V332.796C739.856 331.476 740.696 330.72 741.824 330.72C742.532 330.72 743.228 331.02 743.228 332.424V336.3H744.248V332.448C744.248 330.648 743.42 329.808 742.028 329.808ZM748.45 336.492C750.19 336.492 751.066 335.328 751.186 334.536H750.178C749.986 334.98 749.386 335.58 748.426 335.58C747.274 335.58 746.626 334.776 746.518 333.552L751.186 333.54V332.496C751.186 330.9 750.034 329.808 748.39 329.808C746.542 329.808 745.462 331.188 745.462 333.132C745.462 335.028 746.494 336.492 748.45 336.492ZM750.178 332.652H746.53C746.53 331.308 747.394 330.72 748.366 330.72C749.362 330.72 750.178 331.308 750.178 332.652ZM757.244 336.3H758.228V327.18H757.208V330.864C756.704 330.228 755.912 329.808 755.12 329.808C753.368 329.808 752.204 331.14 752.204 333.132C752.204 335.148 753.332 336.492 755.036 336.492C755.9 336.492 756.812 336.084 757.244 335.496V336.3ZM757.208 332.688V333.432C757.208 334.716 756.428 335.568 755.228 335.568C754.028 335.568 753.236 334.596 753.236 333.12C753.236 331.68 754.016 330.732 755.204 330.732C756.416 330.732 757.208 331.512 757.208 332.688ZM760.838 328.308V327.18H759.686V328.308H760.838ZM760.766 336.3V330H759.746V336.3H760.766ZM764.278 336.432C765.166 336.432 766.114 336 766.558 335.424H766.57C766.654 336.036 767.29 336.432 768.166 336.396H768.154V335.472C767.602 335.508 767.47 335.364 767.47 334.776V332.508C767.47 330.42 766.45 329.82 764.986 329.82C762.934 329.82 762.418 330.96 762.394 331.776H763.402C763.426 331.308 763.786 330.744 764.962 330.744C766.054 330.744 766.438 331.284 766.438 332.064V332.436H766.114C764.134 332.436 763.294 332.688 762.766 333.096C762.298 333.456 762.07 333.948 762.07 334.512C762.07 335.388 762.598 336.432 764.278 336.432ZM764.422 335.544C763.51 335.544 763.066 335.148 763.066 334.536C763.066 333.432 764.434 333.24 766.066 333.24H766.45V334.212C766.45 334.68 765.778 335.544 764.422 335.544ZM769.298 337.692H770.078C772.118 334.392 772.118 331.104 770.078 327.804H769.298C771.098 331.104 771.098 334.392 769.298 337.692Z" fill="black"/>
<path d="M815.34 334.492C817.536 334.492 818.604 333.7 818.604 331.888C818.604 329.848 816.54 329.464 815.796 329.284C815.124 329.14 814.776 329.08 814.128 328.852C813.348 328.564 812.976 328.228 812.976 327.52C812.976 326.176 814.38 326.02 814.98 326.02C815.94 326.02 817.164 326.368 817.296 328.036H818.352C818.316 326.272 817.2 324.988 815.124 324.988C813.672 324.988 811.908 325.672 811.908 327.688C811.908 328.984 812.712 329.5 813.828 329.884C814.728 330.196 815.472 330.316 816.072 330.484C816.696 330.652 817.632 330.964 817.632 332.032C817.632 333.016 816.816 333.472 815.556 333.472C814.02 333.472 812.844 333.028 812.448 331.348H811.368C811.5 333.028 812.64 334.492 815.34 334.492ZM822.408 334.492C824.22 334.492 825.408 333.016 825.408 331.144C825.408 329.2 824.22 327.808 822.408 327.808C820.608 327.808 819.384 329.2 819.384 331.144C819.384 333.016 820.608 334.492 822.408 334.492ZM822.396 333.58C821.1 333.58 820.416 332.584 820.416 331.144C820.416 329.716 821.1 328.72 822.396 328.72C823.692 328.72 824.388 329.716 824.388 331.144C824.388 332.584 823.692 333.58 822.396 333.58ZM829.439 334.492C831.179 334.492 832.055 333.328 832.175 332.308H831.167C830.975 332.992 830.387 333.58 829.427 333.58C828.119 333.58 827.483 332.572 827.483 331.144C827.483 329.716 828.131 328.72 829.427 328.72C830.387 328.72 830.987 329.176 831.167 330.196H832.175C832.079 328.756 830.999 327.808 829.415 327.808C827.519 327.808 826.451 329.188 826.451 331.144C826.451 333.016 827.483 334.492 829.439 334.492ZM834.572 326.308V325.18H833.42V326.308H834.572ZM834.5 334.3V328H833.48V334.3H834.5ZM838.012 334.432C838.9 334.432 839.848 334 840.292 333.424H840.304C840.388 334.036 841.024 334.432 841.9 334.396H841.888V333.472C841.336 333.508 841.204 333.364 841.204 332.776V330.508C841.204 328.42 840.184 327.82 838.72 327.82C836.668 327.82 836.152 328.96 836.128 329.776H837.136C837.16 329.308 837.52 328.744 838.696 328.744C839.788 328.744 840.172 329.284 840.172 330.064V330.436H839.848C837.868 330.436 837.028 330.688 836.5 331.096C836.032 331.456 835.804 331.948 835.804 332.512C835.804 333.388 836.332 334.432 838.012 334.432ZM838.156 333.544C837.244 333.544 836.8 333.148 836.8 332.536C836.8 331.432 838.168 331.24 839.8 331.24H840.184V332.212C840.184 332.68 839.512 333.544 838.156 333.544ZM844.179 334.3V325.18H843.159V334.3H844.179ZM856.497 327.808C855.657 327.808 854.769 328.096 854.097 329.068C853.761 328.216 853.077 327.808 852.105 327.808C851.241 327.808 850.437 328.12 849.933 328.948V328H848.913V334.3H849.933V330.796C849.933 329.476 850.773 328.72 851.901 328.72C852.609 328.72 853.305 329.02 853.305 330.424V334.3H854.325V330.796C854.325 329.476 855.165 328.72 856.293 328.72C857.001 328.72 857.697 329.02 857.697 330.424V334.3H858.717V330.448C858.717 328.648 857.889 327.808 856.497 327.808ZM862.919 334.492C864.659 334.492 865.535 333.328 865.655 332.536H864.647C864.455 332.98 863.855 333.58 862.895 333.58C861.743 333.58 861.095 332.776 860.987 331.552L865.655 331.54V330.496C865.655 328.9 864.503 327.808 862.859 327.808C861.011 327.808 859.931 329.188 859.931 331.132C859.931 333.028 860.963 334.492 862.919 334.492ZM864.647 330.652H860.999C860.999 329.308 861.863 328.72 862.835 328.72C863.831 328.72 864.647 329.308 864.647 330.652ZM871.713 334.3H872.697V325.18H871.677V328.864C871.173 328.228 870.381 327.808 869.589 327.808C867.837 327.808 866.673 329.14 866.673 331.132C866.673 333.148 867.801 334.492 869.505 334.492C870.369 334.492 871.281 334.084 871.713 333.496V334.3ZM871.677 330.688V331.432C871.677 332.716 870.897 333.568 869.697 333.568C868.497 333.568 867.705 332.596 867.705 331.12C867.705 329.68 868.485 328.732 869.673 328.732C870.885 328.732 871.677 329.512 871.677 330.688ZM875.307 326.308V325.18H874.155V326.308H875.307ZM875.235 334.3V328H874.215V334.3H875.235ZM878.746 334.432C879.634 334.432 880.582 334 881.026 333.424H881.038C881.122 334.036 881.758 334.432 882.634 334.396H882.622V333.472C882.07 333.508 881.938 333.364 881.938 332.776V330.508C881.938 328.42 880.918 327.82 879.454 327.82C877.402 327.82 876.886 328.96 876.862 329.776H877.87C877.894 329.308 878.254 328.744 879.43 328.744C880.522 328.744 880.906 329.284 880.906 330.064V330.436H880.582C878.602 330.436 877.762 330.688 877.234 331.096C876.766 331.456 876.538 331.948 876.538 332.512C876.538 333.388 877.066 334.432 878.746 334.432ZM878.89 333.544C877.978 333.544 877.534 333.148 877.534 332.536C877.534 331.432 878.902 331.24 880.534 331.24H880.918V332.212C880.918 332.68 880.246 333.544 878.89 333.544ZM890.494 327.808C889.69 327.808 888.85 328.228 888.346 328.864V328H887.362V337.18H888.382V333.496C888.814 334.084 889.69 334.492 890.554 334.492C892.258 334.492 893.386 333.148 893.386 331.132C893.386 329.14 892.222 327.808 890.494 327.808ZM890.41 333.568C889.198 333.568 888.382 332.776 888.382 331.6V330.856C888.382 329.572 889.186 328.72 890.386 328.72C891.574 328.72 892.354 329.692 892.354 331.168C892.354 332.608 891.574 333.568 890.41 333.568ZM897.432 334.492C899.244 334.492 900.432 333.016 900.432 331.144C900.432 329.2 899.244 327.808 897.432 327.808C895.632 327.808 894.408 329.2 894.408 331.144C894.408 333.016 895.632 334.492 897.432 334.492ZM897.42 333.58C896.124 333.58 895.44 332.584 895.44 331.144C895.44 329.716 896.124 328.72 897.42 328.72C898.716 328.72 899.412 329.716 899.412 331.144C899.412 332.584 898.716 333.58 897.42 333.58ZM904.312 334.492C905.812 334.492 906.628 333.904 906.628 332.572C906.628 331.132 905.332 330.868 904.336 330.652C903.064 330.376 902.62 330.208 902.62 329.596C902.62 328.816 903.412 328.708 904.06 328.708C904.648 328.708 905.356 328.924 905.44 329.92H906.472C906.424 328.684 905.62 327.808 904.156 327.808C902.824 327.808 901.576 328.3 901.6 329.68C901.624 330.988 902.776 331.252 904.372 331.636C905.008 331.792 905.632 332.02 905.632 332.668C905.632 333.304 905.152 333.604 904.408 333.604C903.244 333.604 902.536 333.292 902.296 332.236H901.264C901.36 333.46 902.212 334.492 904.312 334.492ZM909.878 334.42C910.01 334.42 910.214 334.408 910.49 334.384V333.556C910.298 333.58 910.166 333.58 910.07 333.58C909.278 333.58 909.014 333.34 909.014 332.5V328.864H910.454V328H909.014V326.38H908.042V327.028C908.042 327.784 907.898 328.108 907.13 328.108V328.864H907.994V332.68C907.994 333.832 908.474 334.42 909.878 334.42ZM914.202 334.492C915.702 334.492 916.518 333.904 916.518 332.572C916.518 331.132 915.222 330.868 914.226 330.652C912.954 330.376 912.51 330.208 912.51 329.596C912.51 328.816 913.302 328.708 913.95 328.708C914.538 328.708 915.246 328.924 915.33 329.92H916.362C916.314 328.684 915.51 327.808 914.046 327.808C912.714 327.808 911.466 328.3 911.49 329.68C911.514 330.988 912.666 331.252 914.262 331.636C914.898 331.792 915.522 332.02 915.522 332.668C915.522 333.304 915.042 333.604 914.298 333.604C913.134 333.604 912.426 333.292 912.186 332.236H911.154C911.25 333.46 912.102 334.492 914.202 334.492Z" fill="black"/>
<path d="M1013.64 324.88H1010.42L1010.4 334L1013.91 334.012C1016.55 334.024 1017.75 332.152 1017.75 329.5C1017.75 326.38 1016.09 324.88 1013.64 324.88ZM1013.68 332.968H1011.46V325.912H1013.68C1015.7 325.912 1016.64 327.364 1016.64 329.428C1016.64 331.804 1015.43 332.968 1013.68 332.968ZM1021.79 334.192C1023.6 334.192 1024.79 332.716 1024.79 330.844C1024.79 328.9 1023.6 327.508 1021.79 327.508C1019.99 327.508 1018.76 328.9 1018.76 330.844C1018.76 332.716 1019.99 334.192 1021.79 334.192ZM1021.78 333.28C1020.48 333.28 1019.8 332.284 1019.8 330.844C1019.8 329.416 1020.48 328.42 1021.78 328.42C1023.07 328.42 1023.77 329.416 1023.77 330.844C1023.77 332.284 1023.07 333.28 1021.78 333.28ZM1028.82 334.192C1030.56 334.192 1031.43 333.028 1031.55 332.008H1030.55C1030.35 332.692 1029.77 333.28 1028.81 333.28C1027.5 333.28 1026.86 332.272 1026.86 330.844C1026.86 329.416 1027.51 328.42 1028.81 328.42C1029.77 328.42 1030.37 328.876 1030.55 329.896H1031.55C1031.46 328.456 1030.38 327.508 1028.79 327.508C1026.9 327.508 1025.83 328.888 1025.83 330.844C1025.83 332.716 1026.86 334.192 1028.82 334.192ZM1035.01 334.12C1035.14 334.12 1035.34 334.108 1035.62 334.084V333.256C1035.43 333.28 1035.3 333.28 1035.2 333.28C1034.41 333.28 1034.14 333.04 1034.14 332.2V328.564H1035.58V327.7H1034.14V326.08H1033.17V326.728C1033.17 327.484 1033.03 327.808 1032.26 327.808V328.564H1033.12V332.38C1033.12 333.532 1033.6 334.12 1035.01 334.12ZM1039.3 334.192C1041.11 334.192 1042.3 332.716 1042.3 330.844C1042.3 328.9 1041.11 327.508 1039.3 327.508C1037.5 327.508 1036.27 328.9 1036.27 330.844C1036.27 332.716 1037.5 334.192 1039.3 334.192ZM1039.28 333.28C1037.99 333.28 1037.3 332.284 1037.3 330.844C1037.3 329.416 1037.99 328.42 1039.28 328.42C1040.58 328.42 1041.28 329.416 1041.28 330.844C1041.28 332.284 1040.58 333.28 1039.28 333.28ZM1044.44 328.828V327.7H1043.48V334H1044.5V330.736C1044.5 329.428 1045.42 328.624 1046.45 328.624H1046.72V327.544C1046.27 327.544 1045.92 327.592 1045.58 327.748C1045.11 327.964 1044.69 328.336 1044.44 328.828Z" fill="black"/>
<path d="M134 310.3V24.5" stroke="black"/>
<path d="M134 304.8H128" stroke="black"/>
<path d="M115.346 308.16C117.586 308.16 118.426 306.27 118.426 304.2C118.426 302.13 117.586 300.24 115.346 300.24C113.096 300.24 112.236 302.13 112.236 304.2C112.236 306.27 113.096 308.16 115.346 308.16ZM115.326 307.33C113.756 307.33 113.086 305.9 113.086 304.2C113.086 302.5 113.756 301.07 115.326 301.07C116.906 301.07 117.576 302.5 117.576 304.2C117.576 305.9 116.906 307.33 115.326 307.33Z" fill="black"/>
<path d="M134 248.8H128" stroke="black"/>
<path d="M105.576 251.16V252.01H111.106V251.16H107.056C108.166 250.5 108.786 250.06 109.286 249.64C110.476 248.64 111.006 247.75 111.006 246.67C111.006 245.16 109.936 244.24 108.186 244.24C106.286 244.24 105.156 245.3 105.156 247C105.156 247.23 105.176 247.36 105.256 247.67H106.096C106.016 247.35 105.996 247.24 105.996 247.07C105.996 245.9 106.786 245.04 108.216 245.04C109.416 245.04 110.096 245.66 110.096 246.69C110.096 247.45 109.746 248.14 108.756 248.99C108.156 249.5 107.336 250.07 105.576 251.16ZM115.346 252.16C117.586 252.16 118.426 250.27 118.426 248.2C118.426 246.13 117.586 244.24 115.346 244.24C113.096 244.24 112.236 246.13 112.236 248.2C112.236 250.27 113.096 252.16 115.346 252.16ZM115.326 251.33C113.756 251.33 113.086 249.9 113.086 248.2C113.086 246.5 113.756 245.07 115.326 245.07C116.906 245.07 117.576 246.5 117.576 248.2C117.576 249.9 116.906 251.33 115.326 251.33Z" fill="black"/>
<path d="M134 192.8H128" stroke="black"/>
<path d="M109.472 196V194.27H111.092V193.42H109.472V191.44H108.622V193.42H106.222L109.092 188.4H108.162L105.302 193.32V194.27H108.622V196H109.472ZM115.346 196.16C117.586 196.16 118.426 194.27 118.426 192.2C118.426 190.13 117.586 188.24 115.346 188.24C113.096 188.24 112.236 190.13 112.236 192.2C112.236 194.27 113.096 196.16 115.346 196.16ZM115.326 195.33C113.756 195.33 113.086 193.9 113.086 192.2C113.086 190.5 113.756 189.07 115.326 189.07C116.906 189.07 117.576 190.5 117.576 192.2C117.576 193.9 116.906 195.33 115.326 195.33Z" fill="black"/>
<path d="M134 136.8H128" stroke="black"/>
<path d="M108.315 140.15C110.025 140.15 111.105 139.09 111.105 137.47C111.105 135.91 110.075 134.88 108.585 134.88C107.625 134.88 106.895 135.31 106.445 136.02C106.605 134.24 107.375 133.04 108.515 133.04C109.145 133.04 109.715 133.42 109.795 134.02H110.715C110.605 132.96 109.715 132.26 108.535 132.26C106.715 132.26 105.605 134.03 105.605 136.6C105.605 138.73 106.345 140.15 108.315 140.15ZM108.395 139.35C107.275 139.35 106.525 138.62 106.525 137.52C106.525 136.41 107.285 135.7 108.395 135.7C109.505 135.7 110.265 136.42 110.265 137.52C110.265 138.63 109.495 139.35 108.395 139.35ZM115.346 140.16C117.586 140.16 118.426 138.27 118.426 136.2C118.426 134.13 117.586 132.24 115.346 132.24C113.096 132.24 112.236 134.13 112.236 136.2C112.236 138.27 113.096 140.16 115.346 140.16ZM115.326 139.33C113.756 139.33 113.086 137.9 113.086 136.2C113.086 134.5 113.756 133.07 115.326 133.07C116.906 133.07 117.576 134.5 117.576 136.2C117.576 137.9 116.906 139.33 115.326 139.33Z" fill="black"/>
<path d="M134 80.7998H128" stroke="black"/>
<path d="M108.155 84.18C110.335 84.18 111.095 82.92 111.095 81.84C111.095 81.01 110.715 80.32 109.705 79.94C110.535 79.45 110.745 78.85 110.745 78.33C110.745 77.37 110.015 76.27 108.155 76.27C106.355 76.27 105.555 77.38 105.555 78.39C105.555 78.86 105.755 79.45 106.595 79.94C105.575 80.32 105.195 81.03 105.195 81.84C105.195 82.92 105.995 84.18 108.155 84.18ZM108.145 79.59C106.885 79.59 106.425 79 106.425 78.35C106.425 77.71 106.885 77.07 108.145 77.07C109.405 77.07 109.835 77.71 109.835 78.35C109.835 79 109.405 79.59 108.145 79.59ZM108.145 83.39C106.515 83.39 106.045 82.54 106.045 81.9C106.045 81.11 106.555 80.42 108.145 80.42C109.775 80.42 110.235 81.2 110.235 81.9C110.235 82.54 109.765 83.39 108.145 83.39ZM115.346 84.16C117.586 84.16 118.426 82.27 118.426 80.2C118.426 78.13 117.586 76.24 115.346 76.24C113.096 76.24 112.236 78.13 112.236 80.2C112.236 82.27 113.096 84.16 115.346 84.16ZM115.326 83.33C113.756 83.33 113.086 81.9 113.086 80.2C113.086 78.5 113.756 77.07 115.326 77.07C116.906 77.07 117.576 78.5 117.576 80.2C117.576 81.9 116.906 83.33 115.326 83.33Z" fill="black"/>
<path d="M134 24.7998H128" stroke="black"/>
<path d="M101.038 20.4V21.25H102.548V28H103.398V20.4H101.038ZM108.012 28.16C110.252 28.16 111.092 26.27 111.092 24.2C111.092 22.13 110.252 20.24 108.012 20.24C105.762 20.24 104.902 22.13 104.902 24.2C104.902 26.27 105.762 28.16 108.012 28.16ZM107.992 27.33C106.422 27.33 105.752 25.9 105.752 24.2C105.752 22.5 106.422 21.07 107.992 21.07C109.572 21.07 110.242 22.5 110.242 24.2C110.242 25.9 109.572 27.33 107.992 27.33ZM115.346 28.16C117.586 28.16 118.426 26.27 118.426 24.2C118.426 22.13 117.586 20.24 115.346 20.24C113.096 20.24 112.236 22.13 112.236 24.2C112.236 26.27 113.096 28.16 115.346 28.16ZM115.326 27.33C113.756 27.33 113.086 25.9 113.086 24.2C113.086 22.5 113.756 21.07 115.326 21.07C116.906 21.07 117.576 22.5 117.576 24.2C117.576 25.9 116.906 27.33 115.326 27.33Z" fill="black"/>
<path d="M722.5 22.5H727.5V86.5H722.5" stroke="black"/>
<path d="M722.5 96H727.5V160H722.5" stroke="black"/>
<path d="M765.616 299H732.616V305.082H765.616V299Z" fill="#2D2AFF"/>
<path d="M733 299.226H700V305.082H733V299.226Z" fill="#9FC5EC"/>
<path d="M930.154 302H897.154V304.253H930.154V302Z" fill="#2D2AFF"/>
<path d="M897 303.803H864V304.253H897V303.803Z" fill="#9FC5EC"/>
<path d="M1093.69 304H1060.69V305.352H1093.69V304Z" fill="#2D2AFF"/>
<path d="M1061 304.226H1028V305.352H1061V304.226Z" fill="#9FC5EC"/>
<path d="M602.077 239.955H569.077V305.281H602.077V239.955Z" fill="#2D2AFF"/>
<path d="M569 235H536V305.282H569V235Z" fill="#9FC5EC"/>
<path d="M1017 294H984V305H1017V294Z" fill="#E7A1A0"/>
<path d="M984 298.524H951V305.182H984V298.524Z" fill="#D11F5F"/>
<path d="M134 305H1093" stroke="black"/>
<path d="M133.5 309.5H275.5V305" stroke="black"/>
<path d="M439 305V309.5H297V305" stroke="black"/>
<path d="M602.5 305V309.5H460.5V305" stroke="black"/>
<path d="M766 305V309.5H624V305" stroke="black"/>
<path d="M929.5 305V309.5H787.5V305" stroke="black"/>
<path d="M1093 305V309.5H951V305" stroke="black"/>
<path d="M1027 309V322" stroke="black"/>
<path d="M858 309V322" stroke="black"/>
<path d="M695 309V322" stroke="black"/>
<path d="M531 310V323" stroke="black"/>
<path d="M368 309V322" stroke="black"/>
<path d="M204 309V322" stroke="black"/>
<path d="M1.25879 312.033V314.123" stroke="black"/>
</svg>
