<svg width="1014" height="350" viewBox="0 0 1014 350" fill="none" xmlns="http://www.w3.org/2000/svg">
<path d="M340.539 219.126H307.539V304.725H340.539V219.126Z" fill="#2D2AFF"/>
<path d="M308 218H275V304.726H308V218Z" fill="#9FC5EC"/>
<path d="M264 247H231V304.566H264V247Z" fill="#E7A1A0"/>
<path d="M231 260.706H198V304.566H231V260.706Z" fill="#D11F5F"/>
<path d="M177.001 185.687H144.001V305.3H177.001V185.687Z" fill="#2D2AFF"/>
<path d="M144 189.967H111V305.301H144V189.967Z" fill="#9FC5EC"/>
<path d="M101.001 210.531H68.001V305.3H101.001V210.531Z" fill="#E7A1A0"/>
<path d="M68 86H35V305.301H68V86Z" fill="#D11F5F"/>
<path d="M640.756 133.256C643.524 133.256 645.716 131.48 646.116 128.728H644.66C644.324 130.632 642.74 131.88 640.724 131.88C638.228 131.88 636.532 129.912 636.532 126.92C636.532 123.912 638.196 121.96 640.692 121.96C642.708 121.96 644.324 123.192 644.66 125.096H646.116C645.7 122.36 643.556 120.584 640.804 120.584C637.364 120.584 635.044 123.128 635.044 126.968C635.044 130.776 637.38 133.256 640.756 133.256ZM651.115 133.256C653.531 133.256 655.115 131.288 655.115 128.792C655.115 126.2 653.531 124.344 651.115 124.344C648.715 124.344 647.083 126.2 647.083 128.792C647.083 131.288 648.715 133.256 651.115 133.256ZM651.099 132.04C649.371 132.04 648.459 130.712 648.459 128.792C648.459 126.888 649.371 125.56 651.099 125.56C652.827 125.56 653.755 126.888 653.755 128.792C653.755 130.712 652.827 132.04 651.099 132.04ZM658.048 125.864V124.6H656.688V133H658.048V128.328C658.048 126.568 659.216 125.56 660.56 125.56C661.856 125.56 662.544 126.536 662.544 128.024V133H663.904V127.688C663.904 125.768 662.752 124.344 660.88 124.344C659.936 124.344 658.736 124.712 658.048 125.864ZM669.616 133.256C671.616 133.256 672.704 132.472 672.704 130.696C672.704 128.776 670.976 128.424 669.648 128.136C667.952 127.768 667.36 127.544 667.36 126.728C667.36 125.688 668.416 125.544 669.28 125.544C670.064 125.544 671.008 125.832 671.12 127.16H672.496C672.432 125.512 671.36 124.344 669.408 124.344C667.632 124.344 665.968 125 666 126.84C666.032 128.584 667.568 128.936 669.696 129.448C670.544 129.656 671.376 129.96 671.376 130.824C671.376 131.672 670.736 132.072 669.744 132.072C668.192 132.072 667.248 131.656 666.928 130.248H665.552C665.68 131.88 666.816 133.256 669.616 133.256ZM675.771 122.344V120.84H674.235V122.344H675.771ZM675.675 133V124.6H674.315V133H675.675ZM684.229 133H685.541V120.84H684.181V125.752C683.509 124.904 682.453 124.344 681.397 124.344C679.061 124.344 677.509 126.12 677.509 128.776C677.509 131.464 679.013 133.256 681.285 133.256C682.437 133.256 683.653 132.712 684.229 131.928V133ZM684.181 128.184V129.176C684.181 130.888 683.141 132.024 681.541 132.024C679.941 132.024 678.885 130.728 678.885 128.76C678.885 126.84 679.925 125.576 681.509 125.576C683.125 125.576 684.181 126.616 684.181 128.184ZM690.895 133.256C693.215 133.256 694.383 131.704 694.543 130.648H693.199C692.943 131.24 692.143 132.04 690.863 132.04C689.327 132.04 688.463 130.968 688.319 129.336L694.543 129.32V127.928C694.543 125.8 693.007 124.344 690.815 124.344C688.351 124.344 686.911 126.184 686.911 128.776C686.911 131.304 688.287 133.256 690.895 133.256ZM693.199 128.136H688.335C688.335 126.344 689.487 125.56 690.783 125.56C692.111 125.56 693.199 126.344 693.199 128.136ZM697.484 126.104V124.6H696.204V133H697.564V128.648C697.564 126.904 698.796 125.832 700.172 125.832H700.524V124.392C699.932 124.392 699.468 124.456 699.004 124.664C698.38 124.952 697.82 125.448 697.484 126.104ZM704.895 133.256C707.215 133.256 708.383 131.704 708.543 130.648H707.199C706.943 131.24 706.143 132.04 704.863 132.04C703.327 132.04 702.463 130.968 702.319 129.336L708.543 129.32V127.928C708.543 125.8 707.007 124.344 704.815 124.344C702.351 124.344 700.911 126.184 700.911 128.776C700.911 131.304 702.287 133.256 704.895 133.256ZM707.199 128.136H702.335C702.335 126.344 703.487 125.56 704.783 125.56C706.111 125.56 707.199 126.344 707.199 128.136ZM716.62 133H717.932V120.84H716.572V125.752C715.9 124.904 714.844 124.344 713.788 124.344C711.452 124.344 709.9 126.12 709.9 128.776C709.9 131.464 711.404 133.256 713.676 133.256C714.828 133.256 716.044 132.712 716.62 131.928V133ZM716.572 128.184V129.176C716.572 130.888 715.532 132.024 713.932 132.024C712.332 132.024 711.276 130.728 711.276 128.76C711.276 126.84 712.316 125.576 713.9 125.576C715.516 125.576 716.572 126.616 716.572 128.184ZM730.573 133H731.885V120.84H730.525V125.752C729.853 124.904 728.797 124.344 727.741 124.344C725.405 124.344 723.853 126.12 723.853 128.776C723.853 131.464 725.357 133.256 727.629 133.256C728.781 133.256 729.997 132.712 730.573 131.928V133ZM730.525 128.184V129.176C730.525 130.888 729.485 132.024 727.885 132.024C726.285 132.024 725.229 130.728 725.229 128.76C725.229 126.84 726.269 125.576 727.853 125.576C729.469 125.576 730.525 126.616 730.525 128.184ZM737.287 133.256C739.703 133.256 741.287 131.288 741.287 128.792C741.287 126.2 739.703 124.344 737.287 124.344C734.887 124.344 733.255 126.2 733.255 128.792C733.255 131.288 734.887 133.256 737.287 133.256ZM737.271 132.04C735.543 132.04 734.631 130.712 734.631 128.792C734.631 126.888 735.543 125.56 737.271 125.56C738.999 125.56 739.927 126.888 739.927 128.792C739.927 130.712 738.999 132.04 737.271 132.04ZM744.22 125.864V124.6H742.86V133H744.22V128.328C744.22 126.568 745.388 125.56 746.732 125.56C748.028 125.56 748.716 126.536 748.716 128.024V133H750.076V127.688C750.076 125.768 748.924 124.344 747.052 124.344C746.108 124.344 744.908 124.712 744.22 125.864ZM754.654 133.176C755.838 133.176 757.102 132.6 757.694 131.832H757.71C757.822 132.648 758.67 133.176 759.838 133.128H759.822V131.896C759.086 131.944 758.91 131.752 758.91 130.968V127.944C758.91 125.16 757.55 124.36 755.598 124.36C752.862 124.36 752.174 125.88 752.142 126.968H753.486C753.518 126.344 753.998 125.592 755.566 125.592C757.022 125.592 757.534 126.312 757.534 127.352V127.848H757.102C754.462 127.848 753.342 128.184 752.638 128.728C752.014 129.208 751.71 129.864 751.71 130.616C751.71 131.784 752.414 133.176 754.654 133.176ZM754.846 131.992C753.63 131.992 753.038 131.464 753.038 130.648C753.038 129.176 754.862 128.92 757.038 128.92H757.55V130.216C757.55 130.84 756.654 131.992 754.846 131.992ZM764.304 133.16C764.48 133.16 764.752 133.144 765.12 133.112V132.008C764.864 132.04 764.688 132.04 764.56 132.04C763.504 132.04 763.152 131.72 763.152 130.6V125.752H765.072V124.6H763.152V122.44H761.856V123.304C761.856 124.312 761.664 124.744 760.64 124.744V125.752H761.792V130.84C761.792 132.376 762.432 133.16 764.304 133.16ZM768.162 122.344V120.84H766.626V122.344H768.162ZM768.066 133V124.6H766.706V133H768.066ZM771.564 125.864V124.6H770.204V133H771.564V128.328C771.564 126.568 772.732 125.56 774.076 125.56C775.372 125.56 776.06 126.536 776.06 128.024V133H777.42V127.688C777.42 125.768 776.268 124.344 774.396 124.344C773.452 124.344 772.252 124.712 771.564 125.864ZM787.084 132.584V124.6H785.724V125.928C785.02 124.744 783.932 124.344 782.748 124.344C780.092 124.344 779.036 126.344 779.036 128.712C779.036 131.336 780.364 133.256 782.828 133.256C784.012 133.256 785.068 132.808 785.724 131.736V132.232C785.724 134.52 785.148 135.576 783.244 135.576C782.012 135.576 781.036 135.144 780.732 134.024H779.356C779.804 136.056 781.18 136.84 783.292 136.84C785.372 136.84 787.084 136.104 787.084 132.584ZM785.724 128.184V129.176C785.724 130.952 784.652 132.024 783.036 132.024C781.244 132.024 780.3 130.68 780.3 128.76C780.3 126.872 781.228 125.576 783.004 125.576C784.588 125.576 785.724 126.616 785.724 128.184ZM797.552 124.344C796.48 124.344 795.408 124.904 794.736 125.752V120.84H793.376V133H794.672V131.928C795.248 132.712 796.48 133.256 797.632 133.256C799.904 133.256 801.408 131.464 801.408 128.776C801.408 126.12 799.856 124.344 797.552 124.344ZM797.44 132.024C795.824 132.024 794.736 130.968 794.736 129.4V128.408C794.736 126.696 795.808 125.56 797.408 125.56C798.992 125.56 800.032 126.856 800.032 128.824C800.032 130.744 798.992 132.024 797.44 132.024ZM804.22 133V120.84H802.86V133H804.22ZM809.708 133.256C812.124 133.256 813.708 131.288 813.708 128.792C813.708 126.2 812.124 124.344 809.708 124.344C807.308 124.344 805.676 126.2 805.676 128.792C805.676 131.288 807.308 133.256 809.708 133.256ZM809.692 132.04C807.964 132.04 807.052 130.712 807.052 128.792C807.052 126.888 807.964 125.56 809.692 125.56C811.42 125.56 812.348 126.888 812.348 128.792C812.348 130.712 811.42 132.04 809.692 132.04ZM819.13 133.256C821.546 133.256 823.13 131.288 823.13 128.792C823.13 126.2 821.546 124.344 819.13 124.344C816.73 124.344 815.098 126.2 815.098 128.792C815.098 131.288 816.73 133.256 819.13 133.256ZM819.114 132.04C817.386 132.04 816.474 130.712 816.474 128.792C816.474 126.888 817.386 125.56 819.114 125.56C820.842 125.56 821.77 126.888 821.77 128.792C821.77 130.712 820.842 132.04 819.114 132.04ZM831.432 133H832.744V120.84H831.384V125.752C830.712 124.904 829.656 124.344 828.6 124.344C826.264 124.344 824.712 126.12 824.712 128.776C824.712 131.464 826.216 133.256 828.488 133.256C829.64 133.256 830.856 132.712 831.432 131.928V133ZM831.384 128.184V129.176C831.384 130.888 830.344 132.024 828.744 132.024C827.144 132.024 826.088 130.728 826.088 128.76C826.088 126.84 827.128 125.576 828.712 125.576C830.328 125.576 831.384 126.616 831.384 128.184ZM840.249 126.104V124.6H838.969V133H840.329V128.648C840.329 126.904 841.561 125.832 842.937 125.832H843.289V124.392C842.697 124.392 842.233 124.456 841.769 124.664C841.145 124.952 840.585 125.448 840.249 126.104ZM847.66 133.256C849.98 133.256 851.148 131.704 851.308 130.648H849.964C849.708 131.24 848.908 132.04 847.628 132.04C846.092 132.04 845.228 130.968 845.084 129.336L851.308 129.32V127.928C851.308 125.8 849.772 124.344 847.58 124.344C845.116 124.344 843.676 126.184 843.676 128.776C843.676 131.304 845.052 133.256 847.66 133.256ZM849.964 128.136H845.1C845.1 126.344 846.252 125.56 847.548 125.56C848.876 125.56 849.964 126.344 849.964 128.136ZM856.457 133.256C858.777 133.256 859.945 131.704 860.105 130.344H858.761C858.505 131.256 857.721 132.04 856.441 132.04C854.697 132.04 853.849 130.696 853.849 128.792C853.849 126.888 854.713 125.56 856.441 125.56C857.721 125.56 858.521 126.168 858.761 127.528H860.105C859.977 125.608 858.537 124.344 856.425 124.344C853.897 124.344 852.473 126.184 852.473 128.792C852.473 131.288 853.849 133.256 856.457 133.256ZM865.254 133.256C867.574 133.256 868.742 131.704 868.902 130.648H867.558C867.302 131.24 866.502 132.04 865.222 132.04C863.686 132.04 862.822 130.968 862.678 129.336L868.902 129.32V127.928C868.902 125.8 867.366 124.344 865.174 124.344C862.71 124.344 861.27 126.184 861.27 128.776C861.27 131.304 862.646 133.256 865.254 133.256ZM867.558 128.136H862.694C862.694 126.344 863.846 125.56 865.142 125.56C866.47 125.56 867.558 126.344 867.558 128.136ZM871.923 125.864V124.6H870.563V133H871.923V128.328C871.923 126.568 873.091 125.56 874.435 125.56C875.731 125.56 876.419 126.536 876.419 128.024V133H877.779V127.688C877.779 125.768 876.627 124.344 874.755 124.344C873.811 124.344 872.611 124.712 871.923 125.864ZM882.835 133.16C883.011 133.16 883.283 133.144 883.651 133.112V132.008C883.395 132.04 883.219 132.04 883.091 132.04C882.035 132.04 881.683 131.72 881.683 130.6V125.752H883.603V124.6H881.683V122.44H880.387V123.304C880.387 124.312 880.195 124.744 879.171 124.744V125.752H880.323V130.84C880.323 132.376 880.963 133.16 882.835 133.16ZM886.517 133V120.84H885.157V133H886.517ZM889.471 124.6H887.935L891.135 133L889.839 136.84H891.135L892.687 132.2L895.631 124.6H894.095L892.095 130.504L891.807 131.272H891.775L891.487 130.504L889.471 124.6Z" fill="black"/>
<path d="M574.82 77V64.84H573.396V77H574.82ZM580.247 77H581.655V66.184H585.383L585.367 64.84H576.503V66.184H580.247V77Z" fill="black"/>
<path d="M567.416 48.256C571.688 48.256 571.896 45.216 571.896 42.064V35.84H570.488V42.176C570.488 44.8 570.248 46.88 567.416 46.88C564.584 46.88 564.344 44.8 564.344 42.176V35.84H562.936V42.064C562.936 45.216 563.144 48.256 567.416 48.256ZM578.8 48.256C581.728 48.256 583.152 47.2 583.152 44.784C583.152 42.064 580.4 41.552 579.408 41.312C578.512 41.12 578.048 41.04 577.184 40.736C576.144 40.352 575.648 39.904 575.648 38.96C575.648 37.168 577.52 36.96 578.32 36.96C579.6 36.96 581.232 37.424 581.408 39.648H582.816C582.768 37.296 581.28 35.584 578.512 35.584C576.576 35.584 574.224 36.496 574.224 39.184C574.224 40.912 575.296 41.6 576.784 42.112C577.984 42.528 578.976 42.688 579.776 42.912C580.608 43.136 581.856 43.552 581.856 44.976C581.856 46.288 580.768 46.896 579.088 46.896C577.04 46.896 575.472 46.304 574.944 44.064H573.504C573.68 46.304 575.2 48.256 578.8 48.256Z" fill="black"/>
<path d="M574.416 119.256C578.688 119.256 578.896 116.216 578.896 113.064V106.84H577.488V113.176C577.488 115.8 577.248 117.88 574.416 117.88C571.584 117.88 571.344 115.8 571.344 113.176V106.84H569.936V113.064C569.936 116.216 570.144 119.256 574.416 119.256ZM585.8 119.256C588.728 119.256 590.152 118.2 590.152 115.784C590.152 113.064 587.4 112.552 586.408 112.312C585.512 112.12 585.048 112.04 584.184 111.736C583.144 111.352 582.648 110.904 582.648 109.96C582.648 108.168 584.52 107.96 585.32 107.96C586.6 107.96 588.232 108.424 588.408 110.648H589.816C589.768 108.296 588.28 106.584 585.512 106.584C583.576 106.584 581.224 107.496 581.224 110.184C581.224 111.912 582.296 112.6 583.784 113.112C584.984 113.528 585.976 113.688 586.776 113.912C587.608 114.136 588.856 114.552 588.856 115.976C588.856 117.288 587.768 117.896 586.088 117.896C584.04 117.896 582.472 117.304 581.944 115.064H580.504C580.68 117.304 582.2 119.256 585.8 119.256Z" fill="black"/>
<path d="M574.82 152V139.84H573.396V152H574.82ZM580.247 152H581.655V141.184H585.383L585.367 139.84H576.503V141.184H580.247V152Z" fill="black"/>
<path d="M643.597 60H645.005V47.84H643.597V52.88H637.453V47.84H636.045V60H637.453V54.256H643.597V60ZM649.685 60.176C650.869 60.176 652.133 59.6 652.725 58.832H652.741C652.853 59.648 653.701 60.176 654.869 60.128H654.853V58.896C654.117 58.944 653.941 58.752 653.941 57.968V54.944C653.941 52.16 652.581 51.36 650.629 51.36C647.893 51.36 647.205 52.88 647.173 53.968H648.517C648.549 53.344 649.029 52.592 650.597 52.592C652.053 52.592 652.565 53.312 652.565 54.352V54.848H652.133C649.493 54.848 648.373 55.184 647.669 55.728C647.045 56.208 646.741 56.864 646.741 57.616C646.741 58.784 647.445 60.176 649.685 60.176ZM649.877 58.992C648.661 58.992 648.069 58.464 648.069 57.648C648.069 56.176 649.893 55.92 652.069 55.92H652.581V57.216C652.581 57.84 651.685 58.992 649.877 58.992ZM660.163 60.256C662.163 60.256 663.251 59.472 663.251 57.696C663.251 55.776 661.523 55.424 660.195 55.136C658.499 54.768 657.907 54.544 657.907 53.728C657.907 52.688 658.963 52.544 659.827 52.544C660.611 52.544 661.555 52.832 661.667 54.16H663.043C662.979 52.512 661.907 51.344 659.955 51.344C658.179 51.344 656.515 52 656.547 53.84C656.579 55.584 658.115 55.936 660.243 56.448C661.091 56.656 661.923 56.96 661.923 57.824C661.923 58.672 661.283 59.072 660.291 59.072C658.739 59.072 657.795 58.656 657.475 57.248H656.099C656.227 58.88 657.363 60.256 660.163 60.256ZM675.62 60H676.932V47.84H675.572V52.752C674.9 51.904 673.844 51.344 672.788 51.344C670.452 51.344 668.9 53.12 668.9 55.776C668.9 58.464 670.404 60.256 672.676 60.256C673.828 60.256 675.044 59.712 675.62 58.928V60ZM675.572 55.184V56.176C675.572 57.888 674.532 59.024 672.932 59.024C671.332 59.024 670.276 57.728 670.276 55.76C670.276 53.84 671.316 52.576 672.9 52.576C674.516 52.576 675.572 53.616 675.572 55.184ZM682.333 60.256C684.749 60.256 686.333 58.288 686.333 55.792C686.333 53.2 684.749 51.344 682.333 51.344C679.933 51.344 678.301 53.2 678.301 55.792C678.301 58.288 679.933 60.256 682.333 60.256ZM682.317 59.04C680.589 59.04 679.677 57.712 679.677 55.792C679.677 53.888 680.589 52.56 682.317 52.56C684.045 52.56 684.973 53.888 684.973 55.792C684.973 57.712 684.045 59.04 682.317 59.04ZM689.267 52.864V51.6H687.907V60H689.267V55.328C689.267 53.568 690.435 52.56 691.779 52.56C693.075 52.56 693.763 53.536 693.763 55.024V60H695.123V54.688C695.123 52.768 693.971 51.344 692.099 51.344C691.155 51.344 689.955 51.712 689.267 52.864ZM699.701 60.176C700.885 60.176 702.149 59.6 702.741 58.832H702.757C702.869 59.648 703.717 60.176 704.885 60.128H704.869V58.896C704.133 58.944 703.957 58.752 703.957 57.968V54.944C703.957 52.16 702.597 51.36 700.645 51.36C697.909 51.36 697.221 52.88 697.189 53.968H698.533C698.565 53.344 699.045 52.592 700.613 52.592C702.069 52.592 702.581 53.312 702.581 54.352V54.848H702.149C699.509 54.848 698.389 55.184 697.685 55.728C697.061 56.208 696.757 56.864 696.757 57.616C696.757 58.784 697.461 60.176 699.701 60.176ZM699.893 58.992C698.677 58.992 698.085 58.464 698.085 57.648C698.085 56.176 699.909 55.92 702.085 55.92H702.597V57.216C702.597 57.84 701.701 58.992 699.893 58.992ZM709.351 60.16C709.527 60.16 709.799 60.144 710.167 60.112V59.008C709.911 59.04 709.735 59.04 709.607 59.04C708.551 59.04 708.199 58.72 708.199 57.6V52.752H710.119V51.6H708.199V49.44H706.903V50.304C706.903 51.312 706.711 51.744 705.687 51.744V52.752H706.839V57.84C706.839 59.376 707.479 60.16 709.351 60.16ZM715.02 60.256C717.34 60.256 718.508 58.704 718.668 57.648H717.324C717.068 58.24 716.268 59.04 714.988 59.04C713.452 59.04 712.588 57.968 712.444 56.336L718.668 56.32V54.928C718.668 52.8 717.132 51.344 714.94 51.344C712.476 51.344 711.036 53.184 711.036 55.776C711.036 58.304 712.412 60.256 715.02 60.256ZM717.324 55.136H712.46C712.46 53.344 713.612 52.56 714.908 52.56C716.236 52.56 717.324 53.344 717.324 55.136ZM726.745 60H728.057V47.84H726.697V52.752C726.025 51.904 724.969 51.344 723.913 51.344C721.577 51.344 720.025 53.12 720.025 55.776C720.025 58.464 721.529 60.256 723.801 60.256C724.953 60.256 726.169 59.712 726.745 58.928V60ZM726.697 55.184V56.176C726.697 57.888 725.657 59.024 724.057 59.024C722.457 59.024 721.401 57.728 721.401 55.76C721.401 53.84 722.441 52.576 724.025 52.576C725.641 52.576 726.697 53.616 726.697 55.184ZM738.458 51.344C737.386 51.344 736.314 51.904 735.642 52.752V47.84H734.282V60H735.578V58.928C736.154 59.712 737.386 60.256 738.538 60.256C740.81 60.256 742.314 58.464 742.314 55.776C742.314 53.12 740.762 51.344 738.458 51.344ZM738.346 59.024C736.73 59.024 735.642 57.968 735.642 56.4V55.408C735.642 53.696 736.714 52.56 738.314 52.56C739.898 52.56 740.938 53.856 740.938 55.824C740.938 57.744 739.898 59.024 738.346 59.024ZM747.66 60.256C749.98 60.256 751.148 58.704 751.308 57.648H749.964C749.708 58.24 748.908 59.04 747.628 59.04C746.092 59.04 745.228 57.968 745.084 56.336L751.308 56.32V54.928C751.308 52.8 749.772 51.344 747.58 51.344C745.116 51.344 743.676 53.184 743.676 55.776C743.676 58.304 745.052 60.256 747.66 60.256ZM749.964 55.136H745.1C745.1 53.344 746.252 52.56 747.548 52.56C748.876 52.56 749.964 53.344 749.964 55.136ZM752.281 51.6V52.752H753.417V60H754.777V52.752H756.505V51.6H754.777V49.936C754.777 49.104 755.161 48.768 756.057 48.768C756.409 48.768 756.489 48.8 756.569 48.816V47.68C756.505 47.664 756.105 47.584 755.625 47.584C754.073 47.584 753.417 48.448 753.417 50.224V51.6H752.281ZM761.005 60.256C763.421 60.256 765.005 58.288 765.005 55.792C765.005 53.2 763.421 51.344 761.005 51.344C758.605 51.344 756.973 53.2 756.973 55.792C756.973 58.288 758.605 60.256 761.005 60.256ZM760.989 59.04C759.261 59.04 758.349 57.712 758.349 55.792C758.349 53.888 759.261 52.56 760.989 52.56C762.717 52.56 763.645 53.888 763.645 55.792C763.645 57.712 762.717 59.04 760.989 59.04ZM767.859 53.104V51.6H766.579V60H767.939V55.648C767.939 53.904 769.171 52.832 770.547 52.832H770.899V51.392C770.307 51.392 769.843 51.456 769.379 51.664C768.755 51.952 768.195 52.448 767.859 53.104ZM775.27 60.256C777.59 60.256 778.758 58.704 778.918 57.648H777.574C777.318 58.24 776.518 59.04 775.238 59.04C773.702 59.04 772.838 57.968 772.694 56.336L778.918 56.32V54.928C778.918 52.8 777.382 51.344 775.19 51.344C772.726 51.344 771.286 53.184 771.286 55.776C771.286 58.304 772.662 60.256 775.27 60.256ZM777.574 55.136H772.71C772.71 53.344 773.862 52.56 775.158 52.56C776.486 52.56 777.574 53.344 777.574 55.136Z" fill="black"/>
<path d="M624 57H599V82H624V57Z" fill="#2D2AFF"/>
<path d="M624 28H599V53H624V28Z" fill="#E7A1A0"/>
<path d="M624 130H599V155H624V130Z" fill="#9FC5EC"/>
<path d="M624 101H599V126H624V101Z" fill="#D11F5F"/>
<path d="M28.5601 8.544C30.4321 8.544 31.5521 7.088 31.5521 5.056C31.5521 3.024 30.4321 1.568 28.5601 1.568C26.6881 1.568 25.5681 3.024 25.5681 5.056C25.5681 7.088 26.6881 8.544 28.5601 8.544ZM28.6401 14.256H30.3361L37.7121 1.6H36.0161L28.6401 14.256ZM28.5601 7.216C27.6961 7.216 27.1841 6.32 27.1841 5.056C27.1841 3.792 27.6961 2.896 28.5601 2.896C29.4241 2.896 29.9361 3.792 29.9361 5.056C29.9361 6.32 29.4241 7.216 28.5601 7.216ZM37.9361 14.144C39.9681 14.144 40.9281 12.528 40.9281 10.656C40.9281 8.784 39.9681 7.168 37.9361 7.168C35.9041 7.168 34.9441 8.784 34.9441 10.656C34.9441 12.528 35.9041 14.144 37.9361 14.144ZM37.9361 12.8C36.9281 12.8 36.5761 11.648 36.5761 10.656C36.5761 9.664 36.9281 8.512 37.9361 8.512C38.9441 8.512 39.2961 9.664 39.2961 10.656C39.2961 11.648 38.9441 12.8 37.9361 12.8Z" fill="black"/>
<path d="M47.5096 330.96H43.2736V328.188H48.1336V327.18H42.2176V336.3H43.2736V332.004H47.5096V330.96ZM49.8823 331.128V330H48.9223V336.3H49.9423V333.036C49.9423 331.728 50.8663 330.924 51.8983 330.924H52.1623V329.844C51.7183 329.844 51.3703 329.892 51.0223 330.048C50.5543 330.264 50.1343 330.636 49.8823 331.128ZM54.1641 328.308V327.18H53.0121V328.308H54.1641ZM54.0921 336.3V330H53.0721V336.3H54.0921ZM58.3117 336.492C60.0517 336.492 60.9277 335.328 61.0477 334.536H60.0397C59.8477 334.98 59.2477 335.58 58.2877 335.58C57.1357 335.58 56.4877 334.776 56.3797 333.552L61.0477 333.54V332.496C61.0477 330.9 59.8957 329.808 58.2517 329.808C56.4037 329.808 55.3237 331.188 55.3237 333.132C55.3237 335.028 56.3557 336.492 58.3117 336.492ZM60.0397 332.652H56.3917C56.3917 331.308 57.2557 330.72 58.2277 330.72C59.2237 330.72 60.0397 331.308 60.0397 332.652ZM63.3134 330.948V330H62.2934V336.3H63.3134V332.796C63.3134 331.476 64.1894 330.72 65.1974 330.72C66.1694 330.72 66.6854 331.452 66.6854 332.568V336.3H67.7054V332.316C67.7054 330.876 66.8414 329.808 65.4374 329.808C64.7294 329.808 63.8294 330.084 63.3134 330.948ZM74.1015 336.3H75.0855V327.18H74.0655V330.864C73.5615 330.228 72.7695 329.808 71.9775 329.808C70.2255 329.808 69.0615 331.14 69.0615 333.132C69.0615 335.148 70.1895 336.492 71.8935 336.492C72.7575 336.492 73.6695 336.084 74.1015 335.496V336.3ZM74.0655 332.688V333.432C74.0655 334.716 73.2855 335.568 72.0855 335.568C70.8855 335.568 70.0935 334.596 70.0935 333.12C70.0935 331.68 70.8735 330.732 72.0615 330.732C73.2735 330.732 74.0655 331.512 74.0655 332.688ZM79.2551 336.492C80.7551 336.492 81.5711 335.904 81.5711 334.572C81.5711 333.132 80.2751 332.868 79.2791 332.652C78.0071 332.376 77.5631 332.208 77.5631 331.596C77.5631 330.816 78.3551 330.708 79.0031 330.708C79.5911 330.708 80.2991 330.924 80.3831 331.92H81.4151C81.3671 330.684 80.5631 329.808 79.0991 329.808C77.7671 329.808 76.5191 330.3 76.5431 331.68C76.5671 332.988 77.7191 333.252 79.3151 333.636C79.9511 333.792 80.5751 334.02 80.5751 334.668C80.5751 335.304 80.0951 335.604 79.3511 335.604C78.1871 335.604 77.4791 335.292 77.2391 334.236H76.2071C76.3031 335.46 77.1551 336.492 79.2551 336.492ZM87.9436 336.432C88.8316 336.432 89.7796 336 90.2236 335.424H90.2356C90.3196 336.036 90.9556 336.432 91.8316 336.396H91.8196V335.472C91.2676 335.508 91.1356 335.364 91.1356 334.776V332.508C91.1356 330.42 90.1156 329.82 88.6516 329.82C86.5996 329.82 86.0836 330.96 86.0596 331.776H87.0676C87.0916 331.308 87.4516 330.744 88.6276 330.744C89.7196 330.744 90.1036 331.284 90.1036 332.064V332.436H89.7796C87.7996 332.436 86.9596 332.688 86.4316 333.096C85.9636 333.456 85.7356 333.948 85.7356 334.512C85.7356 335.388 86.2636 336.432 87.9436 336.432ZM88.0876 335.544C87.1756 335.544 86.7316 335.148 86.7316 334.536C86.7316 333.432 88.0996 333.24 89.7316 333.24H90.1156V334.212C90.1156 334.68 89.4436 335.544 88.0876 335.544ZM93.9696 330.948V330H92.9496V336.3H93.9696V332.796C93.9696 331.476 94.8456 330.72 95.8536 330.72C96.8256 330.72 97.3416 331.452 97.3416 332.568V336.3H98.3616V332.316C98.3616 330.876 97.4976 329.808 96.0936 329.808C95.3856 329.808 94.4856 330.084 93.9696 330.948ZM104.758 336.3H105.742V327.18H104.722V330.864C104.218 330.228 103.426 329.808 102.634 329.808C100.882 329.808 99.7177 331.14 99.7177 333.132C99.7177 335.148 100.846 336.492 102.55 336.492C103.414 336.492 104.326 336.084 104.758 335.496V336.3ZM104.722 332.688V333.432C104.722 334.716 103.942 335.568 102.742 335.568C101.542 335.568 100.75 334.596 100.75 333.12C100.75 331.68 101.53 330.732 102.718 330.732C103.93 330.732 104.722 331.512 104.722 332.688ZM107.463 337.692L110.787 327.18H109.887L106.563 337.692H107.463ZM114.07 336.492C115.882 336.492 117.07 335.016 117.07 333.144C117.07 331.2 115.882 329.808 114.07 329.808C112.27 329.808 111.046 331.2 111.046 333.144C111.046 335.016 112.27 336.492 114.07 336.492ZM114.058 335.58C112.762 335.58 112.078 334.584 112.078 333.144C112.078 331.716 112.762 330.72 114.058 330.72C115.354 330.72 116.05 331.716 116.05 333.144C116.05 334.584 115.354 335.58 114.058 335.58ZM119.21 331.128V330H118.25V336.3H119.27V333.036C119.27 331.728 120.194 330.924 121.226 330.924H121.49V329.844C121.046 329.844 120.698 329.892 120.35 330.048C119.882 330.264 119.462 330.636 119.21 331.128ZM126.499 331.128V330H125.539V336.3H126.559V333.036C126.559 331.728 127.483 330.924 128.515 330.924H128.779V329.844C128.335 329.844 127.987 329.892 127.639 330.048C127.171 330.264 126.751 330.636 126.499 331.128ZM132.058 336.492C133.798 336.492 134.674 335.328 134.794 334.536H133.786C133.594 334.98 132.994 335.58 132.034 335.58C130.882 335.58 130.234 334.776 130.126 333.552L134.794 333.54V332.496C134.794 330.9 133.642 329.808 131.998 329.808C130.15 329.808 129.07 331.188 129.07 333.132C129.07 335.028 130.102 336.492 132.058 336.492ZM133.786 332.652H130.138C130.138 331.308 131.002 330.72 131.974 330.72C132.97 330.72 133.786 331.308 133.786 332.652ZM137.059 336.3V327.18H136.039V336.3H137.059ZM140.397 336.432C141.285 336.432 142.233 336 142.677 335.424H142.689C142.773 336.036 143.409 336.432 144.285 336.396H144.273V335.472C143.721 335.508 143.589 335.364 143.589 334.776V332.508C143.589 330.42 142.569 329.82 141.105 329.82C139.053 329.82 138.537 330.96 138.513 331.776H139.521C139.545 331.308 139.905 330.744 141.081 330.744C142.173 330.744 142.557 331.284 142.557 332.064V332.436H142.233C140.253 332.436 139.413 332.688 138.885 333.096C138.417 333.456 138.189 333.948 138.189 334.512C138.189 335.388 138.717 336.432 140.397 336.432ZM140.541 335.544C139.629 335.544 139.185 335.148 139.185 334.536C139.185 333.432 140.553 333.24 142.185 333.24H142.569V334.212C142.569 334.68 141.897 335.544 140.541 335.544ZM147.634 336.42C147.766 336.42 147.97 336.408 148.246 336.384V335.556C148.054 335.58 147.922 335.58 147.826 335.58C147.034 335.58 146.77 335.34 146.77 334.5V330.864H148.21V330H146.77V328.38H145.798V329.028C145.798 329.784 145.654 330.108 144.886 330.108V330.864H145.75V334.68C145.75 335.832 146.23 336.42 147.634 336.42ZM150.527 328.308V327.18H149.375V328.308H150.527ZM150.455 336.3V330H149.435V336.3H150.455ZM154.075 334.272L152.611 330H151.459L153.859 336.3H154.831L157.231 330H156.079L154.615 334.272L154.363 334.968H154.339L154.075 334.272ZM160.488 336.492C162.228 336.492 163.104 335.328 163.224 334.536H162.216C162.024 334.98 161.424 335.58 160.464 335.58C159.312 335.58 158.664 334.776 158.556 333.552L163.224 333.54V332.496C163.224 330.9 162.072 329.808 160.428 329.808C158.58 329.808 157.5 331.188 157.5 333.132C157.5 335.028 158.532 336.492 160.488 336.492ZM162.216 332.652H158.568C158.568 331.308 159.432 330.72 160.404 330.72C161.4 330.72 162.216 331.308 162.216 332.652ZM167.169 336.492C168.669 336.492 169.485 335.904 169.485 334.572C169.485 333.132 168.189 332.868 167.193 332.652C165.921 332.376 165.477 332.208 165.477 331.596C165.477 330.816 166.269 330.708 166.917 330.708C167.505 330.708 168.213 330.924 168.297 331.92H169.329C169.281 330.684 168.477 329.808 167.013 329.808C165.681 329.808 164.433 330.3 164.457 331.68C164.481 332.988 165.633 333.252 167.229 333.636C167.865 333.792 168.489 334.02 168.489 334.668C168.489 335.304 168.009 335.604 167.265 335.604C166.101 335.604 165.393 335.292 165.153 334.236H164.121C164.217 335.46 165.069 336.492 167.169 336.492Z" fill="black"/>
<path d="M214.452 334.492C216.648 334.492 217.716 333.7 217.716 331.888C217.716 329.848 215.652 329.464 214.908 329.284C214.236 329.14 213.888 329.08 213.24 328.852C212.46 328.564 212.088 328.228 212.088 327.52C212.088 326.176 213.492 326.02 214.092 326.02C215.052 326.02 216.276 326.368 216.408 328.036H217.464C217.428 326.272 216.312 324.988 214.236 324.988C212.784 324.988 211.02 325.672 211.02 327.688C211.02 328.984 211.824 329.5 212.94 329.884C213.84 330.196 214.584 330.316 215.184 330.484C215.808 330.652 216.744 330.964 216.744 332.032C216.744 333.016 215.928 333.472 214.668 333.472C213.132 333.472 211.956 333.028 211.56 331.348H210.48C210.612 333.028 211.752 334.492 214.452 334.492ZM221.484 334.492C223.224 334.492 224.1 333.328 224.22 332.308H223.212C223.02 332.992 222.432 333.58 221.472 333.58C220.164 333.58 219.528 332.572 219.528 331.144C219.528 329.716 220.176 328.72 221.472 328.72C222.432 328.72 223.032 329.176 223.212 330.196H224.22C224.124 328.756 223.044 327.808 221.46 327.808C219.564 327.808 218.496 329.188 218.496 331.144C218.496 333.016 219.528 334.492 221.484 334.492ZM226.485 328.948V325.18H225.465V334.3H226.485V330.796C226.485 329.476 227.361 328.72 228.369 328.72C229.341 328.72 229.857 329.452 229.857 330.568V334.3H230.877V330.328C230.877 328.888 230.013 327.808 228.609 327.808C227.901 327.808 227.001 328.084 226.485 328.948ZM234.996 334.492C236.808 334.492 237.996 333.016 237.996 331.144C237.996 329.2 236.808 327.808 234.996 327.808C233.196 327.808 231.972 329.2 231.972 331.144C231.972 333.016 233.196 334.492 234.996 334.492ZM234.984 333.58C233.688 333.58 233.004 332.584 233.004 331.144C233.004 329.716 233.688 328.72 234.984 328.72C236.28 328.72 236.976 329.716 236.976 331.144C236.976 332.584 236.28 333.58 234.984 333.58ZM242.063 334.492C243.875 334.492 245.063 333.016 245.063 331.144C245.063 329.2 243.875 327.808 242.063 327.808C240.263 327.808 239.039 329.2 239.039 331.144C239.039 333.016 240.263 334.492 242.063 334.492ZM242.051 333.58C240.755 333.58 240.071 332.584 240.071 331.144C240.071 329.716 240.755 328.72 242.051 328.72C243.347 328.72 244.043 329.716 244.043 331.144C244.043 332.584 243.347 333.58 242.051 333.58ZM247.192 334.3V325.18H246.172V334.3H247.192ZM254.578 334.492C256.39 334.492 257.578 333.016 257.578 331.144C257.578 329.2 256.39 327.808 254.578 327.808C252.778 327.808 251.554 329.2 251.554 331.144C251.554 333.016 252.778 334.492 254.578 334.492ZM254.566 333.58C253.27 333.58 252.586 332.584 252.586 331.144C252.586 329.716 253.27 328.72 254.566 328.72C255.862 328.72 256.558 329.716 256.558 331.144C256.558 332.584 255.862 333.58 254.566 333.58ZM259.718 329.128V328H258.758V334.3H259.778V331.036C259.778 329.728 260.702 328.924 261.734 328.924H261.998V327.844C261.554 327.844 261.206 327.892 260.858 328.048C260.39 328.264 259.97 328.636 259.718 329.128ZM268.663 334.492C270.403 334.492 271.279 333.328 271.399 332.536H270.391C270.199 332.98 269.599 333.58 268.639 333.58C267.487 333.58 266.839 332.776 266.731 331.552L271.399 331.54V330.496C271.399 328.9 270.247 327.808 268.603 327.808C266.755 327.808 265.675 329.188 265.675 331.132C265.675 333.028 266.707 334.492 268.663 334.492ZM270.391 330.652H266.743C266.743 329.308 267.607 328.72 268.579 328.72C269.575 328.72 270.391 329.308 270.391 330.652ZM280.229 327.808C279.389 327.808 278.501 328.096 277.829 329.068C277.493 328.216 276.809 327.808 275.837 327.808C274.973 327.808 274.169 328.12 273.665 328.948V328H272.645V334.3H273.665V330.796C273.665 329.476 274.505 328.72 275.633 328.72C276.341 328.72 277.037 329.02 277.037 330.424V334.3H278.057V330.796C278.057 329.476 278.897 328.72 280.025 328.72C280.733 328.72 281.429 329.02 281.429 330.424V334.3H282.449V330.448C282.449 328.648 281.621 327.808 280.229 327.808ZM287.168 327.808C286.364 327.808 285.524 328.228 285.02 328.864V328H284.036V337.18H285.056V333.496C285.488 334.084 286.364 334.492 287.228 334.492C288.932 334.492 290.06 333.148 290.06 331.132C290.06 329.14 288.896 327.808 287.168 327.808ZM287.084 333.568C285.872 333.568 285.056 332.776 285.056 331.6V330.856C285.056 329.572 285.86 328.72 287.06 328.72C288.248 328.72 289.028 329.692 289.028 331.168C289.028 332.608 288.248 333.568 287.084 333.568ZM292.169 334.3V325.18H291.149V334.3H292.169ZM296.285 334.492C298.097 334.492 299.285 333.016 299.285 331.144C299.285 329.2 298.097 327.808 296.285 327.808C294.485 327.808 293.261 329.2 293.261 331.144C293.261 333.016 294.485 334.492 296.285 334.492ZM296.273 333.58C294.977 333.58 294.293 332.584 294.293 331.144C294.293 329.716 294.977 328.72 296.273 328.72C297.569 328.72 298.265 329.716 298.265 331.144C298.265 332.584 297.569 333.58 296.273 333.58ZM300.724 328H299.572L301.972 334.3L301 337.18H301.972L303.136 333.7L305.344 328H304.192L302.692 332.428L302.476 333.004H302.452L302.236 332.428L300.724 328ZM308.601 334.492C310.341 334.492 311.217 333.328 311.337 332.536H310.329C310.137 332.98 309.537 333.58 308.577 333.58C307.425 333.58 306.777 332.776 306.669 331.552L311.337 331.54V330.496C311.337 328.9 310.185 327.808 308.541 327.808C306.693 327.808 305.613 329.188 305.613 331.132C305.613 333.028 306.645 334.492 308.601 334.492ZM310.329 330.652H306.681C306.681 329.308 307.545 328.72 308.517 328.72C309.513 328.72 310.329 329.308 310.329 330.652ZM313.542 329.128V328H312.582V334.3H313.602V331.036C313.602 329.728 314.526 328.924 315.558 328.924H315.822V327.844C315.378 327.844 315.03 327.892 314.682 328.048C314.214 328.264 313.794 328.636 313.542 329.128Z" fill="black"/>
<path d="M362.014 327.18H358.882V336.3H362.638C364.63 336.3 365.518 335.256 365.518 333.708C365.518 332.4 364.606 331.524 363.754 331.416C364.402 331.212 365.038 330.504 365.038 329.616C365.038 327.972 363.754 327.18 362.014 327.18ZM361.798 330.936H359.926V328.152H362.038C363.43 328.152 364.006 328.752 364.006 329.604C364.006 330.516 363.166 330.936 361.798 330.936ZM362.278 335.328H359.926V331.968H362.158C363.706 331.968 364.486 332.628 364.486 333.624C364.486 334.788 363.562 335.328 362.278 335.328ZM367.919 336.3V327.18H366.899V336.3H367.919ZM372.035 336.492C373.847 336.492 375.035 335.016 375.035 333.144C375.035 331.2 373.847 329.808 372.035 329.808C370.235 329.808 369.011 331.2 369.011 333.144C369.011 335.016 370.235 336.492 372.035 336.492ZM372.023 335.58C370.727 335.58 370.043 334.584 370.043 333.144C370.043 331.716 370.727 330.72 372.023 330.72C373.319 330.72 374.015 331.716 374.015 333.144C374.015 334.584 373.319 335.58 372.023 335.58ZM379.102 336.492C380.914 336.492 382.102 335.016 382.102 333.144C382.102 331.2 380.914 329.808 379.102 329.808C377.302 329.808 376.078 331.2 376.078 333.144C376.078 335.016 377.302 336.492 379.102 336.492ZM379.09 335.58C377.794 335.58 377.11 334.584 377.11 333.144C377.11 331.716 377.794 330.72 379.09 330.72C380.386 330.72 381.082 331.716 381.082 333.144C381.082 334.584 380.386 335.58 379.09 335.58ZM388.328 336.3H389.312V327.18H388.292V330.864C387.788 330.228 386.996 329.808 386.204 329.808C384.452 329.808 383.288 331.14 383.288 333.132C383.288 335.148 384.416 336.492 386.12 336.492C386.984 336.492 387.896 336.084 388.328 335.496V336.3ZM388.292 332.688V333.432C388.292 334.716 387.512 335.568 386.312 335.568C385.112 335.568 384.32 334.596 384.32 333.12C384.32 331.68 385.1 330.732 386.288 330.732C387.5 330.732 388.292 331.512 388.292 332.688ZM398.793 336.3H399.777V327.18H398.757V330.864C398.253 330.228 397.461 329.808 396.669 329.808C394.917 329.808 393.753 331.14 393.753 333.132C393.753 335.148 394.881 336.492 396.585 336.492C397.449 336.492 398.361 336.084 398.793 335.496V336.3ZM398.757 332.688V333.432C398.757 334.716 397.977 335.568 396.777 335.568C395.577 335.568 394.785 334.596 394.785 333.12C394.785 331.68 395.565 330.732 396.753 330.732C397.965 330.732 398.757 331.512 398.757 332.688ZM403.828 336.492C405.64 336.492 406.828 335.016 406.828 333.144C406.828 331.2 405.64 329.808 403.828 329.808C402.028 329.808 400.804 331.2 400.804 333.144C400.804 335.016 402.028 336.492 403.828 336.492ZM403.816 335.58C402.52 335.58 401.836 334.584 401.836 333.144C401.836 331.716 402.52 330.72 403.816 330.72C405.112 330.72 405.808 331.716 405.808 333.144C405.808 334.584 405.112 335.58 403.816 335.58ZM409.028 330.948V330H408.008V336.3H409.028V332.796C409.028 331.476 409.904 330.72 410.912 330.72C411.884 330.72 412.4 331.452 412.4 332.568V336.3H413.42V332.316C413.42 330.876 412.556 329.808 411.152 329.808C410.444 329.808 409.544 330.084 409.028 330.948ZM416.854 336.432C417.742 336.432 418.69 336 419.134 335.424H419.146C419.23 336.036 419.866 336.432 420.742 336.396H420.73V335.472C420.178 335.508 420.046 335.364 420.046 334.776V332.508C420.046 330.42 419.026 329.82 417.562 329.82C415.51 329.82 414.994 330.96 414.97 331.776H415.978C416.002 331.308 416.362 330.744 417.538 330.744C418.63 330.744 419.014 331.284 419.014 332.064V332.436H418.69C416.71 332.436 415.87 332.688 415.342 333.096C414.874 333.456 414.646 333.948 414.646 334.512C414.646 335.388 415.174 336.432 416.854 336.432ZM416.998 335.544C416.086 335.544 415.642 335.148 415.642 334.536C415.642 333.432 417.01 333.24 418.642 333.24H419.026V334.212C419.026 334.68 418.354 335.544 416.998 335.544ZM424.091 336.42C424.223 336.42 424.427 336.408 424.703 336.384V335.556C424.511 335.58 424.379 335.58 424.283 335.58C423.491 335.58 423.227 335.34 423.227 334.5V330.864H424.667V330H423.227V328.38H422.255V329.028C422.255 329.784 422.111 330.108 421.343 330.108V330.864H422.207V334.68C422.207 335.832 422.687 336.42 424.091 336.42ZM426.984 328.308V327.18H425.832V328.308H426.984ZM426.912 336.3V330H425.892V336.3H426.912ZM431.168 336.492C432.98 336.492 434.168 335.016 434.168 333.144C434.168 331.2 432.98 329.808 431.168 329.808C429.368 329.808 428.144 331.2 428.144 333.144C428.144 335.016 429.368 336.492 431.168 336.492ZM431.156 335.58C429.86 335.58 429.176 334.584 429.176 333.144C429.176 331.716 429.86 330.72 431.156 330.72C432.452 330.72 433.148 331.716 433.148 333.144C433.148 334.584 432.452 335.58 431.156 335.58ZM436.368 330.948V330H435.348V336.3H436.368V332.796C436.368 331.476 437.244 330.72 438.252 330.72C439.224 330.72 439.74 331.452 439.74 332.568V336.3H440.76V332.316C440.76 330.876 439.896 329.808 438.492 329.808C437.784 329.808 436.884 330.084 436.368 330.948ZM448.195 336.492C450.007 336.492 451.195 335.016 451.195 333.144C451.195 331.2 450.007 329.808 448.195 329.808C446.395 329.808 445.171 331.2 445.171 333.144C445.171 335.016 446.395 336.492 448.195 336.492ZM448.183 335.58C446.887 335.58 446.203 334.584 446.203 333.144C446.203 331.716 446.887 330.72 448.183 330.72C449.479 330.72 450.175 331.716 450.175 333.144C450.175 334.584 449.479 335.58 448.183 335.58ZM453.335 331.128V330H452.375V336.3H453.395V333.036C453.395 331.728 454.319 330.924 455.351 330.924H455.615V329.844C455.171 329.844 454.823 329.892 454.475 330.048C454.007 330.264 453.587 330.636 453.335 331.128ZM462.129 335.988V330H461.109V330.996C460.581 330.108 459.765 329.808 458.877 329.808C456.885 329.808 456.093 331.308 456.093 333.084C456.093 335.052 457.089 336.492 458.937 336.492C459.825 336.492 460.617 336.156 461.109 335.352V335.724C461.109 337.44 460.677 338.232 459.249 338.232C458.325 338.232 457.593 337.908 457.365 337.068H456.333C456.669 338.592 457.701 339.18 459.285 339.18C460.845 339.18 462.129 338.628 462.129 335.988ZM461.109 332.688V333.432C461.109 334.764 460.305 335.568 459.093 335.568C457.749 335.568 457.041 334.56 457.041 333.12C457.041 331.704 457.737 330.732 459.069 330.732C460.257 330.732 461.109 331.512 461.109 332.688ZM465.557 336.432C466.445 336.432 467.393 336 467.837 335.424H467.849C467.933 336.036 468.569 336.432 469.445 336.396H469.433V335.472C468.881 335.508 468.749 335.364 468.749 334.776V332.508C468.749 330.42 467.729 329.82 466.265 329.82C464.213 329.82 463.697 330.96 463.673 331.776H464.681C464.705 331.308 465.065 330.744 466.241 330.744C467.333 330.744 467.717 331.284 467.717 332.064V332.436H467.393C465.413 332.436 464.573 332.688 464.045 333.096C463.577 333.456 463.349 333.948 463.349 334.512C463.349 335.388 463.877 336.432 465.557 336.432ZM465.701 335.544C464.789 335.544 464.345 335.148 464.345 334.536C464.345 333.432 465.713 333.24 467.345 333.24H467.729V334.212C467.729 334.68 467.057 335.544 465.701 335.544ZM471.583 330.948V330H470.563V336.3H471.583V332.796C471.583 331.476 472.459 330.72 473.467 330.72C474.439 330.72 474.955 331.452 474.955 332.568V336.3H475.975V332.316C475.975 330.876 475.111 329.808 473.707 329.808C472.999 329.808 472.099 330.084 471.583 330.948ZM478.711 328.308V327.18H477.559V328.308H478.711ZM478.639 336.3V330H477.619V336.3H478.639ZM479.859 336.3H485.583V335.4H481.071L485.355 330.9L485.343 330H479.907V330.9H484.143L479.859 335.4V336.3ZM488.596 336.432C489.484 336.432 490.432 336 490.876 335.424H490.888C490.972 336.036 491.608 336.432 492.484 336.396H492.472V335.472C491.92 335.508 491.788 335.364 491.788 334.776V332.508C491.788 330.42 490.768 329.82 489.304 329.82C487.252 329.82 486.736 330.96 486.712 331.776H487.72C487.744 331.308 488.104 330.744 489.28 330.744C490.372 330.744 490.756 331.284 490.756 332.064V332.436H490.432C488.452 332.436 487.612 332.688 487.084 333.096C486.616 333.456 486.388 333.948 486.388 334.512C486.388 335.388 486.916 336.432 488.596 336.432ZM488.74 335.544C487.828 335.544 487.384 335.148 487.384 334.536C487.384 333.432 488.752 333.24 490.384 333.24H490.768V334.212C490.768 334.68 490.096 335.544 488.74 335.544ZM495.833 336.42C495.965 336.42 496.169 336.408 496.445 336.384V335.556C496.253 335.58 496.121 335.58 496.025 335.58C495.233 335.58 494.969 335.34 494.969 334.5V330.864H496.409V330H494.969V328.38H493.997V329.028C493.997 329.784 493.853 330.108 493.085 330.108V330.864H493.949V334.68C493.949 335.832 494.429 336.42 495.833 336.42ZM498.727 328.308V327.18H497.575V328.308H498.727ZM498.655 336.3V330H497.635V336.3H498.655ZM502.91 336.492C504.722 336.492 505.91 335.016 505.91 333.144C505.91 331.2 504.722 329.808 502.91 329.808C501.11 329.808 499.886 331.2 499.886 333.144C499.886 335.016 501.11 336.492 502.91 336.492ZM502.898 335.58C501.602 335.58 500.918 334.584 500.918 333.144C500.918 331.716 501.602 330.72 502.898 330.72C504.194 330.72 504.89 331.716 504.89 333.144C504.89 334.584 504.194 335.58 502.898 335.58ZM508.11 330.948V330H507.09V336.3H508.11V332.796C508.11 331.476 508.986 330.72 509.994 330.72C510.966 330.72 511.482 331.452 511.482 332.568V336.3H512.502V332.316C512.502 330.876 511.638 329.808 510.234 329.808C509.526 329.808 508.626 330.084 508.11 330.948Z" fill="black"/>
<path d="M531.715 336.3V327.18H530.647V336.3H531.715ZM534.429 330.948V330H533.409V336.3H534.429V332.796C534.429 331.476 535.305 330.72 536.313 330.72C537.285 330.72 537.801 331.452 537.801 332.568V336.3H538.821V332.316C538.821 330.876 537.957 329.808 536.553 329.808C535.845 329.808 534.945 330.084 534.429 330.948ZM542.613 336.42C542.745 336.42 542.949 336.408 543.225 336.384V335.556C543.033 335.58 542.901 335.58 542.805 335.58C542.013 335.58 541.749 335.34 541.749 334.5V330.864H543.189V330H541.749V328.38H540.777V329.028C540.777 329.784 540.633 330.108 539.865 330.108V330.864H540.729V334.68C540.729 335.832 541.209 336.42 542.613 336.42ZM546.864 336.492C548.604 336.492 549.48 335.328 549.6 334.536H548.592C548.4 334.98 547.8 335.58 546.84 335.58C545.688 335.58 545.04 334.776 544.932 333.552L549.6 333.54V332.496C549.6 330.9 548.448 329.808 546.804 329.808C544.956 329.808 543.876 331.188 543.876 333.132C543.876 335.028 544.908 336.492 546.864 336.492ZM548.592 332.652H544.944C544.944 331.308 545.808 330.72 546.78 330.72C547.776 330.72 548.592 331.308 548.592 332.652ZM551.806 331.128V330H550.846V336.3H551.866V333.036C551.866 331.728 552.79 330.924 553.822 330.924H554.086V329.844C553.642 329.844 553.294 329.892 552.946 330.048C552.478 330.264 552.058 330.636 551.806 331.128ZM555.956 330.948V330H554.936V336.3H555.956V332.796C555.956 331.476 556.832 330.72 557.84 330.72C558.812 330.72 559.328 331.452 559.328 332.568V336.3H560.348V332.316C560.348 330.876 559.484 329.808 558.08 329.808C557.372 329.808 556.472 330.084 555.956 330.948ZM564.548 336.492C566.288 336.492 567.164 335.328 567.284 334.536H566.276C566.084 334.98 565.484 335.58 564.524 335.58C563.372 335.58 562.724 334.776 562.616 333.552L567.284 333.54V332.496C567.284 330.9 566.132 329.808 564.488 329.808C562.64 329.808 561.56 331.188 561.56 333.132C561.56 335.028 562.592 336.492 564.548 336.492ZM566.276 332.652H562.628C562.628 331.308 563.492 330.72 564.464 330.72C565.46 330.72 566.276 331.308 566.276 332.652ZM570.738 336.42C570.87 336.42 571.074 336.408 571.35 336.384V335.556C571.158 335.58 571.026 335.58 570.93 335.58C570.138 335.58 569.874 335.34 569.874 334.5V330.864H571.314V330H569.874V328.38H568.902V329.028C568.902 329.784 568.758 330.108 567.99 330.108V330.864H568.854V334.68C568.854 335.832 569.334 336.42 570.738 336.42ZM577.106 337.692H577.886C576.086 334.392 576.086 331.104 577.886 327.804H577.106C575.066 331.104 575.066 334.392 577.106 337.692ZM580.05 330.948V330H579.03V336.3H580.05V332.796C580.05 331.476 580.926 330.72 581.934 330.72C582.906 330.72 583.422 331.452 583.422 332.568V336.3H584.442V332.316C584.442 330.876 583.578 329.808 582.174 329.808C581.466 329.808 580.566 330.084 580.05 330.948ZM588.678 336.492C590.49 336.492 591.678 335.016 591.678 333.144C591.678 331.2 590.49 329.808 588.678 329.808C586.878 329.808 585.654 331.2 585.654 333.144C585.654 335.016 586.878 336.492 588.678 336.492ZM588.666 335.58C587.37 335.58 586.686 334.584 586.686 333.144C586.686 331.716 587.37 330.72 588.666 330.72C589.962 330.72 590.658 331.716 590.658 333.144C590.658 334.584 589.962 335.58 588.666 335.58ZM595.066 336.42C595.198 336.42 595.402 336.408 595.678 336.384V335.556C595.486 335.58 595.354 335.58 595.258 335.58C594.466 335.58 594.202 335.34 594.202 334.5V330.864H595.642V330H594.202V328.38H593.23V329.028C593.23 329.784 593.086 330.108 592.318 330.108V330.864H593.182V334.68C593.182 335.832 593.662 336.42 595.066 336.42ZM602.706 336.492C604.206 336.492 605.022 335.904 605.022 334.572C605.022 333.132 603.726 332.868 602.73 332.652C601.458 332.376 601.014 332.208 601.014 331.596C601.014 330.816 601.806 330.708 602.454 330.708C603.042 330.708 603.75 330.924 603.834 331.92H604.866C604.818 330.684 604.014 329.808 602.55 329.808C601.218 329.808 599.97 330.3 599.994 331.68C600.018 332.988 601.17 333.252 602.766 333.636C603.402 333.792 604.026 334.02 604.026 334.668C604.026 335.304 603.546 335.604 602.802 335.604C601.638 335.604 600.93 335.292 600.69 334.236H599.658C599.754 335.46 600.606 336.492 602.706 336.492ZM608.94 336.492C610.752 336.492 611.94 335.016 611.94 333.144C611.94 331.2 610.752 329.808 608.94 329.808C607.14 329.808 605.916 331.2 605.916 333.144C605.916 335.016 607.14 336.492 608.94 336.492ZM608.928 335.58C607.632 335.58 606.948 334.584 606.948 333.144C606.948 331.716 607.632 330.72 608.928 330.72C610.224 330.72 610.92 331.716 610.92 333.144C610.92 334.584 610.224 335.58 608.928 335.58ZM615.97 336.492C617.71 336.492 618.586 335.328 618.706 334.308H617.698C617.506 334.992 616.918 335.58 615.958 335.58C614.65 335.58 614.014 334.572 614.014 333.144C614.014 331.716 614.662 330.72 615.958 330.72C616.918 330.72 617.518 331.176 617.698 332.196H618.706C618.61 330.756 617.53 329.808 615.946 329.808C614.05 329.808 612.982 331.188 612.982 333.144C612.982 335.016 614.014 336.492 615.97 336.492ZM621.104 328.308V327.18H619.952V328.308H621.104ZM621.032 336.3V330H620.012V336.3H621.032ZM624.543 336.432C625.431 336.432 626.379 336 626.823 335.424H626.835C626.919 336.036 627.555 336.432 628.431 336.396H628.419V335.472C627.867 335.508 627.735 335.364 627.735 334.776V332.508C627.735 330.42 626.715 329.82 625.251 329.82C623.199 329.82 622.683 330.96 622.659 331.776H623.667C623.691 331.308 624.051 330.744 625.227 330.744C626.319 330.744 626.703 331.284 626.703 332.064V332.436H626.379C624.399 332.436 623.559 332.688 623.031 333.096C622.563 333.456 622.335 333.948 622.335 334.512C622.335 335.388 622.863 336.432 624.543 336.432ZM624.687 335.544C623.775 335.544 623.331 335.148 623.331 334.536C623.331 333.432 624.699 333.24 626.331 333.24H626.715V334.212C626.715 334.68 626.043 335.544 624.687 335.544ZM630.71 336.3V327.18H629.69V336.3H630.71ZM643.028 329.808C642.188 329.808 641.3 330.096 640.628 331.068C640.292 330.216 639.608 329.808 638.636 329.808C637.772 329.808 636.968 330.12 636.464 330.948V330H635.444V336.3H636.464V332.796C636.464 331.476 637.304 330.72 638.432 330.72C639.14 330.72 639.836 331.02 639.836 332.424V336.3H640.856V332.796C640.856 331.476 641.696 330.72 642.824 330.72C643.532 330.72 644.228 331.02 644.228 332.424V336.3H645.248V332.448C645.248 330.648 644.42 329.808 643.028 329.808ZM649.45 336.492C651.19 336.492 652.066 335.328 652.186 334.536H651.178C650.986 334.98 650.386 335.58 649.426 335.58C648.274 335.58 647.626 334.776 647.518 333.552L652.186 333.54V332.496C652.186 330.9 651.034 329.808 649.39 329.808C647.542 329.808 646.462 331.188 646.462 333.132C646.462 335.028 647.494 336.492 649.45 336.492ZM651.178 332.652H647.53C647.53 331.308 648.394 330.72 649.366 330.72C650.362 330.72 651.178 331.308 651.178 332.652ZM658.244 336.3H659.228V327.18H658.208V330.864C657.704 330.228 656.912 329.808 656.12 329.808C654.368 329.808 653.204 331.14 653.204 333.132C653.204 335.148 654.332 336.492 656.036 336.492C656.9 336.492 657.812 336.084 658.244 335.496V336.3ZM658.208 332.688V333.432C658.208 334.716 657.428 335.568 656.228 335.568C655.028 335.568 654.236 334.596 654.236 333.12C654.236 331.68 655.016 330.732 656.204 330.732C657.416 330.732 658.208 331.512 658.208 332.688ZM661.838 328.308V327.18H660.686V328.308H661.838ZM661.766 336.3V330H660.746V336.3H661.766ZM665.278 336.432C666.166 336.432 667.114 336 667.558 335.424H667.57C667.654 336.036 668.29 336.432 669.166 336.396H669.154V335.472C668.602 335.508 668.47 335.364 668.47 334.776V332.508C668.47 330.42 667.45 329.82 665.986 329.82C663.934 329.82 663.418 330.96 663.394 331.776H664.402C664.426 331.308 664.786 330.744 665.962 330.744C667.054 330.744 667.438 331.284 667.438 332.064V332.436H667.114C665.134 332.436 664.294 332.688 663.766 333.096C663.298 333.456 663.07 333.948 663.07 334.512C663.07 335.388 663.598 336.432 665.278 336.432ZM665.422 335.544C664.51 335.544 664.066 335.148 664.066 334.536C664.066 333.432 665.434 333.24 667.066 333.24H667.45V334.212C667.45 334.68 666.778 335.544 665.422 335.544ZM670.298 337.692H671.078C673.118 334.392 673.118 331.104 671.078 327.804H670.298C672.098 331.104 672.098 334.392 670.298 337.692Z" fill="black"/>
<path d="M716.34 334.492C718.536 334.492 719.604 333.7 719.604 331.888C719.604 329.848 717.54 329.464 716.796 329.284C716.124 329.14 715.776 329.08 715.128 328.852C714.348 328.564 713.976 328.228 713.976 327.52C713.976 326.176 715.38 326.02 715.98 326.02C716.94 326.02 718.164 326.368 718.296 328.036H719.352C719.316 326.272 718.2 324.988 716.124 324.988C714.672 324.988 712.908 325.672 712.908 327.688C712.908 328.984 713.712 329.5 714.828 329.884C715.728 330.196 716.472 330.316 717.072 330.484C717.696 330.652 718.632 330.964 718.632 332.032C718.632 333.016 717.816 333.472 716.556 333.472C715.02 333.472 713.844 333.028 713.448 331.348H712.368C712.5 333.028 713.64 334.492 716.34 334.492ZM723.408 334.492C725.22 334.492 726.408 333.016 726.408 331.144C726.408 329.2 725.22 327.808 723.408 327.808C721.608 327.808 720.384 329.2 720.384 331.144C720.384 333.016 721.608 334.492 723.408 334.492ZM723.396 333.58C722.1 333.58 721.416 332.584 721.416 331.144C721.416 329.716 722.1 328.72 723.396 328.72C724.692 328.72 725.388 329.716 725.388 331.144C725.388 332.584 724.692 333.58 723.396 333.58ZM730.439 334.492C732.179 334.492 733.055 333.328 733.175 332.308H732.167C731.975 332.992 731.387 333.58 730.427 333.58C729.119 333.58 728.483 332.572 728.483 331.144C728.483 329.716 729.131 328.72 730.427 328.72C731.387 328.72 731.987 329.176 732.167 330.196H733.175C733.079 328.756 731.999 327.808 730.415 327.808C728.519 327.808 727.451 329.188 727.451 331.144C727.451 333.016 728.483 334.492 730.439 334.492ZM735.572 326.308V325.18H734.42V326.308H735.572ZM735.5 334.3V328H734.48V334.3H735.5ZM739.012 334.432C739.9 334.432 740.848 334 741.292 333.424H741.304C741.388 334.036 742.024 334.432 742.9 334.396H742.888V333.472C742.336 333.508 742.204 333.364 742.204 332.776V330.508C742.204 328.42 741.184 327.82 739.72 327.82C737.668 327.82 737.152 328.96 737.128 329.776H738.136C738.16 329.308 738.52 328.744 739.696 328.744C740.788 328.744 741.172 329.284 741.172 330.064V330.436H740.848C738.868 330.436 738.028 330.688 737.5 331.096C737.032 331.456 736.804 331.948 736.804 332.512C736.804 333.388 737.332 334.432 739.012 334.432ZM739.156 333.544C738.244 333.544 737.8 333.148 737.8 332.536C737.8 331.432 739.168 331.24 740.8 331.24H741.184V332.212C741.184 332.68 740.512 333.544 739.156 333.544ZM745.179 334.3V325.18H744.159V334.3H745.179ZM757.497 327.808C756.657 327.808 755.769 328.096 755.097 329.068C754.761 328.216 754.077 327.808 753.105 327.808C752.241 327.808 751.437 328.12 750.933 328.948V328H749.913V334.3H750.933V330.796C750.933 329.476 751.773 328.72 752.901 328.72C753.609 328.72 754.305 329.02 754.305 330.424V334.3H755.325V330.796C755.325 329.476 756.165 328.72 757.293 328.72C758.001 328.72 758.697 329.02 758.697 330.424V334.3H759.717V330.448C759.717 328.648 758.889 327.808 757.497 327.808ZM763.919 334.492C765.659 334.492 766.535 333.328 766.655 332.536H765.647C765.455 332.98 764.855 333.58 763.895 333.58C762.743 333.58 762.095 332.776 761.987 331.552L766.655 331.54V330.496C766.655 328.9 765.503 327.808 763.859 327.808C762.011 327.808 760.931 329.188 760.931 331.132C760.931 333.028 761.963 334.492 763.919 334.492ZM765.647 330.652H761.999C761.999 329.308 762.863 328.72 763.835 328.72C764.831 328.72 765.647 329.308 765.647 330.652ZM772.713 334.3H773.697V325.18H772.677V328.864C772.173 328.228 771.381 327.808 770.589 327.808C768.837 327.808 767.673 329.14 767.673 331.132C767.673 333.148 768.801 334.492 770.505 334.492C771.369 334.492 772.281 334.084 772.713 333.496V334.3ZM772.677 330.688V331.432C772.677 332.716 771.897 333.568 770.697 333.568C769.497 333.568 768.705 332.596 768.705 331.12C768.705 329.68 769.485 328.732 770.673 328.732C771.885 328.732 772.677 329.512 772.677 330.688ZM776.307 326.308V325.18H775.155V326.308H776.307ZM776.235 334.3V328H775.215V334.3H776.235ZM779.746 334.432C780.634 334.432 781.582 334 782.026 333.424H782.038C782.122 334.036 782.758 334.432 783.634 334.396H783.622V333.472C783.07 333.508 782.938 333.364 782.938 332.776V330.508C782.938 328.42 781.918 327.82 780.454 327.82C778.402 327.82 777.886 328.96 777.862 329.776H778.87C778.894 329.308 779.254 328.744 780.43 328.744C781.522 328.744 781.906 329.284 781.906 330.064V330.436H781.582C779.602 330.436 778.762 330.688 778.234 331.096C777.766 331.456 777.538 331.948 777.538 332.512C777.538 333.388 778.066 334.432 779.746 334.432ZM779.89 333.544C778.978 333.544 778.534 333.148 778.534 332.536C778.534 331.432 779.902 331.24 781.534 331.24H781.918V332.212C781.918 332.68 781.246 333.544 779.89 333.544ZM791.494 327.808C790.69 327.808 789.85 328.228 789.346 328.864V328H788.362V337.18H789.382V333.496C789.814 334.084 790.69 334.492 791.554 334.492C793.258 334.492 794.386 333.148 794.386 331.132C794.386 329.14 793.222 327.808 791.494 327.808ZM791.41 333.568C790.198 333.568 789.382 332.776 789.382 331.6V330.856C789.382 329.572 790.186 328.72 791.386 328.72C792.574 328.72 793.354 329.692 793.354 331.168C793.354 332.608 792.574 333.568 791.41 333.568ZM798.432 334.492C800.244 334.492 801.432 333.016 801.432 331.144C801.432 329.2 800.244 327.808 798.432 327.808C796.632 327.808 795.408 329.2 795.408 331.144C795.408 333.016 796.632 334.492 798.432 334.492ZM798.42 333.58C797.124 333.58 796.44 332.584 796.44 331.144C796.44 329.716 797.124 328.72 798.42 328.72C799.716 328.72 800.412 329.716 800.412 331.144C800.412 332.584 799.716 333.58 798.42 333.58ZM805.312 334.492C806.812 334.492 807.628 333.904 807.628 332.572C807.628 331.132 806.332 330.868 805.336 330.652C804.064 330.376 803.62 330.208 803.62 329.596C803.62 328.816 804.412 328.708 805.06 328.708C805.648 328.708 806.356 328.924 806.44 329.92H807.472C807.424 328.684 806.62 327.808 805.156 327.808C803.824 327.808 802.576 328.3 802.6 329.68C802.624 330.988 803.776 331.252 805.372 331.636C806.008 331.792 806.632 332.02 806.632 332.668C806.632 333.304 806.152 333.604 805.408 333.604C804.244 333.604 803.536 333.292 803.296 332.236H802.264C802.36 333.46 803.212 334.492 805.312 334.492ZM810.878 334.42C811.01 334.42 811.214 334.408 811.49 334.384V333.556C811.298 333.58 811.166 333.58 811.07 333.58C810.278 333.58 810.014 333.34 810.014 332.5V328.864H811.454V328H810.014V326.38H809.042V327.028C809.042 327.784 808.898 328.108 808.13 328.108V328.864H808.994V332.68C808.994 333.832 809.474 334.42 810.878 334.42ZM815.202 334.492C816.702 334.492 817.518 333.904 817.518 332.572C817.518 331.132 816.222 330.868 815.226 330.652C813.954 330.376 813.51 330.208 813.51 329.596C813.51 328.816 814.302 328.708 814.95 328.708C815.538 328.708 816.246 328.924 816.33 329.92H817.362C817.314 328.684 816.51 327.808 815.046 327.808C813.714 327.808 812.466 328.3 812.49 329.68C812.514 330.988 813.666 331.252 815.262 331.636C815.898 331.792 816.522 332.02 816.522 332.668C816.522 333.304 816.042 333.604 815.298 333.604C814.134 333.604 813.426 333.292 813.186 332.236H812.154C812.25 333.46 813.102 334.492 815.202 334.492Z" fill="black"/>
<path d="M914.643 324.88H911.415L911.403 334L914.907 334.012C917.547 334.024 918.747 332.152 918.747 329.5C918.747 326.38 917.091 324.88 914.643 324.88ZM914.679 332.968H912.459V325.912H914.679C916.695 325.912 917.643 327.364 917.643 329.428C917.643 331.804 916.431 332.968 914.679 332.968ZM922.787 334.192C924.599 334.192 925.787 332.716 925.787 330.844C925.787 328.9 924.599 327.508 922.787 327.508C920.987 327.508 919.763 328.9 919.763 330.844C919.763 332.716 920.987 334.192 922.787 334.192ZM922.775 333.28C921.479 333.28 920.795 332.284 920.795 330.844C920.795 329.416 921.479 328.42 922.775 328.42C924.071 328.42 924.767 329.416 924.767 330.844C924.767 332.284 924.071 333.28 922.775 333.28ZM929.818 334.192C931.558 334.192 932.434 333.028 932.554 332.008H931.546C931.354 332.692 930.766 333.28 929.806 333.28C928.498 333.28 927.862 332.272 927.862 330.844C927.862 329.416 928.51 328.42 929.806 328.42C930.766 328.42 931.366 328.876 931.546 329.896H932.554C932.458 328.456 931.378 327.508 929.794 327.508C927.898 327.508 926.83 328.888 926.83 330.844C926.83 332.716 927.862 334.192 929.818 334.192ZM936.007 334.12C936.139 334.12 936.343 334.108 936.619 334.084V333.256C936.427 333.28 936.295 333.28 936.199 333.28C935.407 333.28 935.143 333.04 935.143 332.2V328.564H936.583V327.7H935.143V326.08H934.171V326.728C934.171 327.484 934.027 327.808 933.259 327.808V328.564H934.123V332.38C934.123 333.532 934.603 334.12 936.007 334.12ZM940.295 334.192C942.107 334.192 943.295 332.716 943.295 330.844C943.295 328.9 942.107 327.508 940.295 327.508C938.495 327.508 937.271 328.9 937.271 330.844C937.271 332.716 938.495 334.192 940.295 334.192ZM940.283 333.28C938.987 333.28 938.303 332.284 938.303 330.844C938.303 329.416 938.987 328.42 940.283 328.42C941.579 328.42 942.275 329.416 942.275 330.844C942.275 332.284 941.579 333.28 940.283 333.28ZM945.435 328.828V327.7H944.475V334H945.495V330.736C945.495 329.428 946.419 328.624 947.451 328.624H947.715V327.544C947.271 327.544 946.923 327.592 946.575 327.748C946.107 327.964 945.687 328.336 945.435 328.828Z" fill="black"/>
<path d="M35 310.3V24.5" stroke="black"/>
<path d="M35 304.8H29" stroke="black"/>
<path d="M16.346 308.16C18.586 308.16 19.426 306.27 19.426 304.2C19.426 302.13 18.586 300.24 16.346 300.24C14.096 300.24 13.236 302.13 13.236 304.2C13.236 306.27 14.096 308.16 16.346 308.16ZM16.326 307.33C14.756 307.33 14.086 305.9 14.086 304.2C14.086 302.5 14.756 301.07 16.326 301.07C17.906 301.07 18.576 302.5 18.576 304.2C18.576 305.9 17.906 307.33 16.326 307.33Z" fill="black"/>
<path d="M35 248.8H29" stroke="black"/>
<path d="M9.37156 244.4V245.25H10.8816V252H11.7316V244.4H9.37156ZM16.346 252.16C18.586 252.16 19.426 250.27 19.426 248.2C19.426 246.13 18.586 244.24 16.346 244.24C14.096 244.24 13.236 246.13 13.236 248.2C13.236 250.27 14.096 252.16 16.346 252.16ZM16.326 251.33C14.756 251.33 14.086 249.9 14.086 248.2C14.086 246.5 14.756 245.07 16.326 245.07C17.906 245.07 18.576 246.5 18.576 248.2C18.576 249.9 17.906 251.33 16.326 251.33Z" fill="black"/>
<path d="M35 192.8H29" stroke="black"/>
<path d="M6.57594 195.16V196.01H12.1059V195.16H8.05594C9.16594 194.5 9.78594 194.06 10.2859 193.64C11.4759 192.64 12.0059 191.75 12.0059 190.67C12.0059 189.16 10.9359 188.24 9.18594 188.24C7.28594 188.24 6.15594 189.3 6.15594 191C6.15594 191.23 6.17594 191.36 6.25594 191.67H7.09594C7.01594 191.35 6.99594 191.24 6.99594 191.07C6.99594 189.9 7.78594 189.04 9.21594 189.04C10.4159 189.04 11.0959 189.66 11.0959 190.69C11.0959 191.45 10.7459 192.14 9.75594 192.99C9.15594 193.5 8.33594 194.07 6.57594 195.16ZM16.346 196.16C18.586 196.16 19.426 194.27 19.426 192.2C19.426 190.13 18.586 188.24 16.346 188.24C14.096 188.24 13.236 190.13 13.236 192.2C13.236 194.27 14.096 196.16 16.346 196.16ZM16.326 195.33C14.756 195.33 14.086 193.9 14.086 192.2C14.086 190.5 14.756 189.07 16.326 189.07C17.906 189.07 18.576 190.5 18.576 192.2C18.576 193.9 17.906 195.33 16.326 195.33Z" fill="black"/>
<path d="M35 136.8H29" stroke="black"/>
<path d="M9.03594 140.16C11.5159 140.16 12.1059 138.87 12.1059 137.71C12.1059 136.09 10.9759 135.23 9.16594 135.23H8.99594L11.4859 133.35V132.4H6.68594V133.27H10.4359L8.03594 135.14V136.03H8.64594C10.5159 136.03 11.2559 136.57 11.2559 137.75C11.2559 138.62 10.8659 139.36 9.11594 139.36C8.05594 139.36 7.29594 139.09 7.03594 138.4H6.15594C6.45594 139.56 7.54594 140.16 9.03594 140.16ZM16.346 140.16C18.586 140.16 19.426 138.27 19.426 136.2C19.426 134.13 18.586 132.24 16.346 132.24C14.096 132.24 13.236 134.13 13.236 136.2C13.236 138.27 14.096 140.16 16.346 140.16ZM16.326 139.33C14.756 139.33 14.086 137.9 14.086 136.2C14.086 134.5 14.756 133.07 16.326 133.07C17.906 133.07 18.576 134.5 18.576 136.2C18.576 137.9 17.906 139.33 16.326 139.33Z" fill="black"/>
<path d="M35 80.7998H29" stroke="black"/>
<path d="M10.4724 84V82.27H12.0924V81.42H10.4724V79.44H9.62242V81.42H7.22242L10.0924 76.4H9.16242L6.30242 81.32V82.27H9.62242V84H10.4724ZM16.346 84.16C18.586 84.16 19.426 82.27 19.426 80.2C19.426 78.13 18.586 76.24 16.346 76.24C14.096 76.24 13.236 78.13 13.236 80.2C13.236 82.27 14.096 84.16 16.346 84.16ZM16.326 83.33C14.756 83.33 14.086 81.9 14.086 80.2C14.086 78.5 14.756 77.07 16.326 77.07C17.906 77.07 18.576 78.5 18.576 80.2C18.576 81.9 17.906 83.33 16.326 83.33Z" fill="black"/>
<path d="M35 24.7998H29" stroke="black"/>
<path d="M9.0043 28.16C10.9143 28.16 12.0943 27.09 12.0943 25.46C12.0943 23.86 10.9843 22.73 9.3343 22.73C8.5943 22.73 7.8743 22.96 7.5343 23.31L8.0543 21.27H11.4443V20.4H7.4543L6.3543 24.66H7.3543C7.5843 24.05 8.2243 23.56 9.1643 23.56C10.3643 23.56 11.2343 24.33 11.2343 25.48C11.2343 26.6 10.3943 27.35 8.9743 27.35C8.0343 27.35 7.1943 27.02 7.1443 26.5H6.2243C6.3143 27.48 7.4643 28.16 9.0043 28.16ZM16.346 28.16C18.586 28.16 19.426 26.27 19.426 24.2C19.426 22.13 18.586 20.24 16.346 20.24C14.096 20.24 13.236 22.13 13.236 24.2C13.236 26.27 14.096 28.16 16.346 28.16ZM16.326 27.33C14.756 27.33 14.086 25.9 14.086 24.2C14.086 22.5 14.756 21.07 16.326 21.07C17.906 21.07 18.576 22.5 18.576 24.2C18.576 25.9 17.906 27.33 16.326 27.33Z" fill="black"/>
<path d="M623.5 22.5H628.5V86.5H623.5" stroke="black"/>
<path d="M623.5 96H628.5V160H623.5" stroke="black"/>
<path d="M666.616 299H633.616V305.082H666.616V299Z" fill="#2D2AFF"/>
<path d="M634 299.226H601V305.082H634V299.226Z" fill="#9FC5EC"/>
<path d="M831.154 302H798.154V304.253H831.154V302Z" fill="#2D2AFF"/>
<path d="M798 303.803H765V304.253H798V303.803Z" fill="#9FC5EC"/>
<path d="M994.692 304H961.692V305.352H994.692V304Z" fill="#2D2AFF"/>
<path d="M962 304.226H929V305.352H962V304.226Z" fill="#9FC5EC"/>
<path d="M503.077 239.955H470.077V305.281H503.077V239.955Z" fill="#2D2AFF"/>
<path d="M470 235H437V305.282H470V235Z" fill="#9FC5EC"/>
<path d="M427.077 265H394.077V305.336H427.077V265Z" fill="#E7A1A0"/>
<path d="M395 271.657H362V305.336H395V271.657Z" fill="#D11F5F"/>
<path d="M589.616 282H556.616V305.497H589.616V282Z" fill="#E7A1A0"/>
<path d="M557 301.972H524V305.496H557V301.972Z" fill="#D11F5F"/>
<path d="M754.154 288H721.154V304.839H754.154V288Z" fill="#E7A1A0"/>
<path d="M721 295.049H688V304.839H721V295.049Z" fill="#D11F5F"/>
<path d="M917.692 295H884.692V305.182H917.692V295Z" fill="#E7A1A0"/>
<path d="M885 298.524H852V305.182H885V298.524Z" fill="#D11F5F"/>
<path d="M35 305H994" stroke="black"/>
<path d="M34.5 309.5H176.5V305" stroke="black"/>
<path d="M340 305V309.5H198V305" stroke="black"/>
<path d="M503.5 305V309.5H361.5V305" stroke="black"/>
<path d="M667 305V309.5H525V305" stroke="black"/>
<path d="M830.5 305V309.5H688.5V305" stroke="black"/>
<path d="M994 305V309.5H852V305" stroke="black"/>
<path d="M928 309V322" stroke="black"/>
<path d="M759 309V322" stroke="black"/>
<path d="M596 309V322" stroke="black"/>
<path d="M432 310V323" stroke="black"/>
<path d="M269 309V322" stroke="black"/>
<path d="M105 309V322" stroke="black"/>
</svg>
