<svg width="925" height="359" viewBox="0 0 925 359" fill="none" xmlns="http://www.w3.org/2000/svg">
<path d="M175 184.3H142V304.3H175V184.3Z" fill="#2D2AFF"/>
<path d="M143 188.3H110V304.3H143V188.3Z" fill="#9FC5EC"/>
<path d="M96 205.3H63V304.3H96V205.3Z" fill="#E7A1A0"/>
<path d="M63 74.2998H30V304.3H63V74.2998Z" fill="#D11F5F"/>
<path d="M359 218.3H326V304.3H359V218.3Z" fill="#2D2AFF"/>
<path d="M326 217.3H293V304.3H326V217.3Z" fill="#9FC5EC"/>
<path d="M279 244.3H246V304.3H279V244.3Z" fill="#E7A1A0"/>
<path d="M246 258.3H213V304.3H246V258.3Z" fill="#D11F5F"/>
<path d="M463 261.3H430V304.3H463V261.3Z" fill="#E7A1A0"/>
<path d="M430 268.3H397V304.3H430V268.3Z" fill="#D11F5F"/>
<path d="M543 238.3H510V304.3H543V238.3Z" fill="#2D2AFF"/>
<path d="M510 233.3H477V304.3H510V233.3Z" fill="#9FC5EC"/>
<path d="M647 279.3H614V304.3H647V279.3Z" fill="#E7A1A0"/>
<path d="M614 300.3H581V304.3H614V300.3Z" fill="#D11F5F"/>
<path d="M727 298.3H694V304.3H727V298.3Z" fill="#2D2AFF"/>
<path d="M694 298.3H661V304.3H694V298.3Z" fill="#9FC5EC"/>
<path d="M831 293.3H798V304.3H831V293.3Z" fill="#E7A1A0"/>
<path d="M798 297.3H765V304.3H798V297.3Z" fill="#D11F5F"/>
<path d="M911 303.3H878V304.3H911V303.3Z" fill="#2D2AFF"/>
<path d="M878 303.3H845V304.3H878V303.3Z" fill="#9FC5EC"/>
<path d="M635.756 133.256C638.524 133.256 640.716 131.48 641.116 128.728H639.66C639.324 130.632 637.74 131.88 635.724 131.88C633.228 131.88 631.532 129.912 631.532 126.92C631.532 123.912 633.196 121.96 635.692 121.96C637.708 121.96 639.324 123.192 639.66 125.096H641.116C640.7 122.36 638.556 120.584 635.804 120.584C632.364 120.584 630.044 123.128 630.044 126.968C630.044 130.776 632.38 133.256 635.756 133.256ZM646.115 133.256C648.531 133.256 650.115 131.288 650.115 128.792C650.115 126.2 648.531 124.344 646.115 124.344C643.715 124.344 642.083 126.2 642.083 128.792C642.083 131.288 643.715 133.256 646.115 133.256ZM646.099 132.04C644.371 132.04 643.459 130.712 643.459 128.792C643.459 126.888 644.371 125.56 646.099 125.56C647.827 125.56 648.755 126.888 648.755 128.792C648.755 130.712 647.827 132.04 646.099 132.04ZM653.048 125.864V124.6H651.688V133H653.048V128.328C653.048 126.568 654.216 125.56 655.56 125.56C656.856 125.56 657.544 126.536 657.544 128.024V133H658.904V127.688C658.904 125.768 657.752 124.344 655.88 124.344C654.936 124.344 653.736 124.712 653.048 125.864ZM664.616 133.256C666.616 133.256 667.704 132.472 667.704 130.696C667.704 128.776 665.976 128.424 664.648 128.136C662.952 127.768 662.36 127.544 662.36 126.728C662.36 125.688 663.416 125.544 664.28 125.544C665.064 125.544 666.008 125.832 666.12 127.16H667.496C667.432 125.512 666.36 124.344 664.408 124.344C662.632 124.344 660.968 125 661 126.84C661.032 128.584 662.568 128.936 664.696 129.448C665.544 129.656 666.376 129.96 666.376 130.824C666.376 131.672 665.736 132.072 664.744 132.072C663.192 132.072 662.248 131.656 661.928 130.248H660.552C660.68 131.88 661.816 133.256 664.616 133.256ZM670.771 122.344V120.84H669.235V122.344H670.771ZM670.675 133V124.6H669.315V133H670.675ZM679.229 133H680.541V120.84H679.181V125.752C678.509 124.904 677.453 124.344 676.397 124.344C674.061 124.344 672.509 126.12 672.509 128.776C672.509 131.464 674.013 133.256 676.285 133.256C677.437 133.256 678.653 132.712 679.229 131.928V133ZM679.181 128.184V129.176C679.181 130.888 678.141 132.024 676.541 132.024C674.941 132.024 673.885 130.728 673.885 128.76C673.885 126.84 674.925 125.576 676.509 125.576C678.125 125.576 679.181 126.616 679.181 128.184ZM685.895 133.256C688.215 133.256 689.383 131.704 689.543 130.648H688.199C687.943 131.24 687.143 132.04 685.863 132.04C684.327 132.04 683.463 130.968 683.319 129.336L689.543 129.32V127.928C689.543 125.8 688.007 124.344 685.815 124.344C683.351 124.344 681.911 126.184 681.911 128.776C681.911 131.304 683.287 133.256 685.895 133.256ZM688.199 128.136H683.335C683.335 126.344 684.487 125.56 685.783 125.56C687.111 125.56 688.199 126.344 688.199 128.136ZM692.484 126.104V124.6H691.204V133H692.564V128.648C692.564 126.904 693.796 125.832 695.172 125.832H695.524V124.392C694.932 124.392 694.468 124.456 694.004 124.664C693.38 124.952 692.82 125.448 692.484 126.104ZM699.895 133.256C702.215 133.256 703.383 131.704 703.543 130.648H702.199C701.943 131.24 701.143 132.04 699.863 132.04C698.327 132.04 697.463 130.968 697.319 129.336L703.543 129.32V127.928C703.543 125.8 702.007 124.344 699.815 124.344C697.351 124.344 695.911 126.184 695.911 128.776C695.911 131.304 697.287 133.256 699.895 133.256ZM702.199 128.136H697.335C697.335 126.344 698.487 125.56 699.783 125.56C701.111 125.56 702.199 126.344 702.199 128.136ZM711.62 133H712.932V120.84H711.572V125.752C710.9 124.904 709.844 124.344 708.788 124.344C706.452 124.344 704.9 126.12 704.9 128.776C704.9 131.464 706.404 133.256 708.676 133.256C709.828 133.256 711.044 132.712 711.62 131.928V133ZM711.572 128.184V129.176C711.572 130.888 710.532 132.024 708.932 132.024C707.332 132.024 706.276 130.728 706.276 128.76C706.276 126.84 707.316 125.576 708.9 125.576C710.516 125.576 711.572 126.616 711.572 128.184ZM725.573 133H726.885V120.84H725.525V125.752C724.853 124.904 723.797 124.344 722.741 124.344C720.405 124.344 718.853 126.12 718.853 128.776C718.853 131.464 720.357 133.256 722.629 133.256C723.781 133.256 724.997 132.712 725.573 131.928V133ZM725.525 128.184V129.176C725.525 130.888 724.485 132.024 722.885 132.024C721.285 132.024 720.229 130.728 720.229 128.76C720.229 126.84 721.269 125.576 722.853 125.576C724.469 125.576 725.525 126.616 725.525 128.184ZM732.287 133.256C734.703 133.256 736.287 131.288 736.287 128.792C736.287 126.2 734.703 124.344 732.287 124.344C729.887 124.344 728.255 126.2 728.255 128.792C728.255 131.288 729.887 133.256 732.287 133.256ZM732.271 132.04C730.543 132.04 729.631 130.712 729.631 128.792C729.631 126.888 730.543 125.56 732.271 125.56C733.999 125.56 734.927 126.888 734.927 128.792C734.927 130.712 733.999 132.04 732.271 132.04ZM739.22 125.864V124.6H737.86V133H739.22V128.328C739.22 126.568 740.388 125.56 741.732 125.56C743.028 125.56 743.716 126.536 743.716 128.024V133H745.076V127.688C745.076 125.768 743.924 124.344 742.052 124.344C741.108 124.344 739.908 124.712 739.22 125.864ZM749.654 133.176C750.838 133.176 752.102 132.6 752.694 131.832H752.71C752.822 132.648 753.67 133.176 754.838 133.128H754.822V131.896C754.086 131.944 753.91 131.752 753.91 130.968V127.944C753.91 125.16 752.55 124.36 750.598 124.36C747.862 124.36 747.174 125.88 747.142 126.968H748.486C748.518 126.344 748.998 125.592 750.566 125.592C752.022 125.592 752.534 126.312 752.534 127.352V127.848H752.102C749.462 127.848 748.342 128.184 747.638 128.728C747.014 129.208 746.71 129.864 746.71 130.616C746.71 131.784 747.414 133.176 749.654 133.176ZM749.846 131.992C748.63 131.992 748.038 131.464 748.038 130.648C748.038 129.176 749.862 128.92 752.038 128.92H752.55V130.216C752.55 130.84 751.654 131.992 749.846 131.992ZM759.304 133.16C759.48 133.16 759.752 133.144 760.12 133.112V132.008C759.864 132.04 759.688 132.04 759.56 132.04C758.504 132.04 758.152 131.72 758.152 130.6V125.752H760.072V124.6H758.152V122.44H756.856V123.304C756.856 124.312 756.664 124.744 755.64 124.744V125.752H756.792V130.84C756.792 132.376 757.432 133.16 759.304 133.16ZM763.162 122.344V120.84H761.626V122.344H763.162ZM763.066 133V124.6H761.706V133H763.066ZM766.564 125.864V124.6H765.204V133H766.564V128.328C766.564 126.568 767.732 125.56 769.076 125.56C770.372 125.56 771.06 126.536 771.06 128.024V133H772.42V127.688C772.42 125.768 771.268 124.344 769.396 124.344C768.452 124.344 767.252 124.712 766.564 125.864ZM782.084 132.584V124.6H780.724V125.928C780.02 124.744 778.932 124.344 777.748 124.344C775.092 124.344 774.036 126.344 774.036 128.712C774.036 131.336 775.364 133.256 777.828 133.256C779.012 133.256 780.068 132.808 780.724 131.736V132.232C780.724 134.52 780.148 135.576 778.244 135.576C777.012 135.576 776.036 135.144 775.732 134.024H774.356C774.804 136.056 776.18 136.84 778.292 136.84C780.372 136.84 782.084 136.104 782.084 132.584ZM780.724 128.184V129.176C780.724 130.952 779.652 132.024 778.036 132.024C776.244 132.024 775.3 130.68 775.3 128.76C775.3 126.872 776.228 125.576 778.004 125.576C779.588 125.576 780.724 126.616 780.724 128.184ZM792.552 124.344C791.48 124.344 790.408 124.904 789.736 125.752V120.84H788.376V133H789.672V131.928C790.248 132.712 791.48 133.256 792.632 133.256C794.904 133.256 796.408 131.464 796.408 128.776C796.408 126.12 794.856 124.344 792.552 124.344ZM792.44 132.024C790.824 132.024 789.736 130.968 789.736 129.4V128.408C789.736 126.696 790.808 125.56 792.408 125.56C793.992 125.56 795.032 126.856 795.032 128.824C795.032 130.744 793.992 132.024 792.44 132.024ZM799.22 133V120.84H797.86V133H799.22ZM804.708 133.256C807.124 133.256 808.708 131.288 808.708 128.792C808.708 126.2 807.124 124.344 804.708 124.344C802.308 124.344 800.676 126.2 800.676 128.792C800.676 131.288 802.308 133.256 804.708 133.256ZM804.692 132.04C802.964 132.04 802.052 130.712 802.052 128.792C802.052 126.888 802.964 125.56 804.692 125.56C806.42 125.56 807.348 126.888 807.348 128.792C807.348 130.712 806.42 132.04 804.692 132.04ZM814.13 133.256C816.546 133.256 818.13 131.288 818.13 128.792C818.13 126.2 816.546 124.344 814.13 124.344C811.73 124.344 810.098 126.2 810.098 128.792C810.098 131.288 811.73 133.256 814.13 133.256ZM814.114 132.04C812.386 132.04 811.474 130.712 811.474 128.792C811.474 126.888 812.386 125.56 814.114 125.56C815.842 125.56 816.77 126.888 816.77 128.792C816.77 130.712 815.842 132.04 814.114 132.04ZM826.432 133H827.744V120.84H826.384V125.752C825.712 124.904 824.656 124.344 823.6 124.344C821.264 124.344 819.712 126.12 819.712 128.776C819.712 131.464 821.216 133.256 823.488 133.256C824.64 133.256 825.856 132.712 826.432 131.928V133ZM826.384 128.184V129.176C826.384 130.888 825.344 132.024 823.744 132.024C822.144 132.024 821.088 130.728 821.088 128.76C821.088 126.84 822.128 125.576 823.712 125.576C825.328 125.576 826.384 126.616 826.384 128.184ZM835.249 126.104V124.6H833.969V133H835.329V128.648C835.329 126.904 836.561 125.832 837.937 125.832H838.289V124.392C837.697 124.392 837.233 124.456 836.769 124.664C836.145 124.952 835.585 125.448 835.249 126.104ZM842.66 133.256C844.98 133.256 846.148 131.704 846.308 130.648H844.964C844.708 131.24 843.908 132.04 842.628 132.04C841.092 132.04 840.228 130.968 840.084 129.336L846.308 129.32V127.928C846.308 125.8 844.772 124.344 842.58 124.344C840.116 124.344 838.676 126.184 838.676 128.776C838.676 131.304 840.052 133.256 842.66 133.256ZM844.964 128.136H840.1C840.1 126.344 841.252 125.56 842.548 125.56C843.876 125.56 844.964 126.344 844.964 128.136ZM851.457 133.256C853.777 133.256 854.945 131.704 855.105 130.344H853.761C853.505 131.256 852.721 132.04 851.441 132.04C849.697 132.04 848.849 130.696 848.849 128.792C848.849 126.888 849.713 125.56 851.441 125.56C852.721 125.56 853.521 126.168 853.761 127.528H855.105C854.977 125.608 853.537 124.344 851.425 124.344C848.897 124.344 847.473 126.184 847.473 128.792C847.473 131.288 848.849 133.256 851.457 133.256ZM860.254 133.256C862.574 133.256 863.742 131.704 863.902 130.648H862.558C862.302 131.24 861.502 132.04 860.222 132.04C858.686 132.04 857.822 130.968 857.678 129.336L863.902 129.32V127.928C863.902 125.8 862.366 124.344 860.174 124.344C857.71 124.344 856.27 126.184 856.27 128.776C856.27 131.304 857.646 133.256 860.254 133.256ZM862.558 128.136H857.694C857.694 126.344 858.846 125.56 860.142 125.56C861.47 125.56 862.558 126.344 862.558 128.136ZM866.923 125.864V124.6H865.563V133H866.923V128.328C866.923 126.568 868.091 125.56 869.435 125.56C870.731 125.56 871.419 126.536 871.419 128.024V133H872.779V127.688C872.779 125.768 871.627 124.344 869.755 124.344C868.811 124.344 867.611 124.712 866.923 125.864ZM877.835 133.16C878.011 133.16 878.283 133.144 878.651 133.112V132.008C878.395 132.04 878.219 132.04 878.091 132.04C877.035 132.04 876.683 131.72 876.683 130.6V125.752H878.603V124.6H876.683V122.44H875.387V123.304C875.387 124.312 875.195 124.744 874.171 124.744V125.752H875.323V130.84C875.323 132.376 875.963 133.16 877.835 133.16ZM881.517 133V120.84H880.157V133H881.517ZM884.471 124.6H882.935L886.135 133L884.839 136.84H886.135L887.687 132.2L890.631 124.6H889.095L887.095 130.504L886.807 131.272H886.775L886.487 130.504L884.471 124.6Z" fill="black"/>
<path d="M569.82 45V32.84H568.396V45H569.82ZM575.247 45H576.655V34.184H580.383L580.367 32.84H571.503V34.184H575.247V45Z" fill="black"/>
<path d="M569.416 75.256C573.688 75.256 573.896 72.216 573.896 69.064V62.84H572.488V69.176C572.488 71.8 572.248 73.88 569.416 73.88C566.584 73.88 566.344 71.8 566.344 69.176V62.84H564.936V69.064C564.936 72.216 565.144 75.256 569.416 75.256ZM580.8 75.256C583.728 75.256 585.152 74.2 585.152 71.784C585.152 69.064 582.4 68.552 581.408 68.312C580.512 68.12 580.048 68.04 579.184 67.736C578.144 67.352 577.648 66.904 577.648 65.96C577.648 64.168 579.52 63.96 580.32 63.96C581.6 63.96 583.232 64.424 583.408 66.648H584.816C584.768 64.296 583.28 62.584 580.512 62.584C578.576 62.584 576.224 63.496 576.224 66.184C576.224 67.912 577.296 68.6 578.784 69.112C579.984 69.528 580.976 69.688 581.776 69.912C582.608 70.136 583.856 70.552 583.856 71.976C583.856 73.288 582.768 73.896 581.088 73.896C579.04 73.896 577.472 73.304 576.944 71.064H575.504C575.68 73.304 577.2 75.256 580.8 75.256Z" fill="black"/>
<path d="M569.416 147.256C573.688 147.256 573.896 144.216 573.896 141.064V134.84H572.488V141.176C572.488 143.8 572.248 145.88 569.416 145.88C566.584 145.88 566.344 143.8 566.344 141.176V134.84H564.936V141.064C564.936 144.216 565.144 147.256 569.416 147.256ZM580.8 147.256C583.728 147.256 585.152 146.2 585.152 143.784C585.152 141.064 582.4 140.552 581.408 140.312C580.512 140.12 580.048 140.04 579.184 139.736C578.144 139.352 577.648 138.904 577.648 137.96C577.648 136.168 579.52 135.96 580.32 135.96C581.6 135.96 583.232 136.424 583.408 138.648H584.816C584.768 136.296 583.28 134.584 580.512 134.584C578.576 134.584 576.224 135.496 576.224 138.184C576.224 139.912 577.296 140.6 578.784 141.112C579.984 141.528 580.976 141.688 581.776 141.912C582.608 142.136 583.856 142.552 583.856 143.976C583.856 145.288 582.768 145.896 581.088 145.896C579.04 145.896 577.472 145.304 576.944 143.064H575.504C575.68 145.304 577.2 147.256 580.8 147.256Z" fill="black"/>
<path d="M569.82 119V106.84H568.396V119H569.82ZM575.247 119H576.655V108.184H580.383L580.367 106.84H571.503V108.184H575.247V119Z" fill="black"/>
<path d="M638.597 60H640.005V47.84H638.597V52.88H632.453V47.84H631.045V60H632.453V54.256H638.597V60ZM644.685 60.176C645.869 60.176 647.133 59.6 647.725 58.832H647.741C647.853 59.648 648.701 60.176 649.869 60.128H649.853V58.896C649.117 58.944 648.941 58.752 648.941 57.968V54.944C648.941 52.16 647.581 51.36 645.629 51.36C642.893 51.36 642.205 52.88 642.173 53.968H643.517C643.549 53.344 644.029 52.592 645.597 52.592C647.053 52.592 647.565 53.312 647.565 54.352V54.848H647.133C644.493 54.848 643.373 55.184 642.669 55.728C642.045 56.208 641.741 56.864 641.741 57.616C641.741 58.784 642.445 60.176 644.685 60.176ZM644.877 58.992C643.661 58.992 643.069 58.464 643.069 57.648C643.069 56.176 644.893 55.92 647.069 55.92H647.581V57.216C647.581 57.84 646.685 58.992 644.877 58.992ZM655.163 60.256C657.163 60.256 658.251 59.472 658.251 57.696C658.251 55.776 656.523 55.424 655.195 55.136C653.499 54.768 652.907 54.544 652.907 53.728C652.907 52.688 653.963 52.544 654.827 52.544C655.611 52.544 656.555 52.832 656.667 54.16H658.043C657.979 52.512 656.907 51.344 654.955 51.344C653.179 51.344 651.515 52 651.547 53.84C651.579 55.584 653.115 55.936 655.243 56.448C656.091 56.656 656.923 56.96 656.923 57.824C656.923 58.672 656.283 59.072 655.291 59.072C653.739 59.072 652.795 58.656 652.475 57.248H651.099C651.227 58.88 652.363 60.256 655.163 60.256ZM670.62 60H671.932V47.84H670.572V52.752C669.9 51.904 668.844 51.344 667.788 51.344C665.452 51.344 663.9 53.12 663.9 55.776C663.9 58.464 665.404 60.256 667.676 60.256C668.828 60.256 670.044 59.712 670.62 58.928V60ZM670.572 55.184V56.176C670.572 57.888 669.532 59.024 667.932 59.024C666.332 59.024 665.276 57.728 665.276 55.76C665.276 53.84 666.316 52.576 667.9 52.576C669.516 52.576 670.572 53.616 670.572 55.184ZM677.333 60.256C679.749 60.256 681.333 58.288 681.333 55.792C681.333 53.2 679.749 51.344 677.333 51.344C674.933 51.344 673.301 53.2 673.301 55.792C673.301 58.288 674.933 60.256 677.333 60.256ZM677.317 59.04C675.589 59.04 674.677 57.712 674.677 55.792C674.677 53.888 675.589 52.56 677.317 52.56C679.045 52.56 679.973 53.888 679.973 55.792C679.973 57.712 679.045 59.04 677.317 59.04ZM684.267 52.864V51.6H682.907V60H684.267V55.328C684.267 53.568 685.435 52.56 686.779 52.56C688.075 52.56 688.763 53.536 688.763 55.024V60H690.123V54.688C690.123 52.768 688.971 51.344 687.099 51.344C686.155 51.344 684.955 51.712 684.267 52.864ZM694.701 60.176C695.885 60.176 697.149 59.6 697.741 58.832H697.757C697.869 59.648 698.717 60.176 699.885 60.128H699.869V58.896C699.133 58.944 698.957 58.752 698.957 57.968V54.944C698.957 52.16 697.597 51.36 695.645 51.36C692.909 51.36 692.221 52.88 692.189 53.968H693.533C693.565 53.344 694.045 52.592 695.613 52.592C697.069 52.592 697.581 53.312 697.581 54.352V54.848H697.149C694.509 54.848 693.389 55.184 692.685 55.728C692.061 56.208 691.757 56.864 691.757 57.616C691.757 58.784 692.461 60.176 694.701 60.176ZM694.893 58.992C693.677 58.992 693.085 58.464 693.085 57.648C693.085 56.176 694.909 55.92 697.085 55.92H697.597V57.216C697.597 57.84 696.701 58.992 694.893 58.992ZM704.351 60.16C704.527 60.16 704.799 60.144 705.167 60.112V59.008C704.911 59.04 704.735 59.04 704.607 59.04C703.551 59.04 703.199 58.72 703.199 57.6V52.752H705.119V51.6H703.199V49.44H701.903V50.304C701.903 51.312 701.711 51.744 700.687 51.744V52.752H701.839V57.84C701.839 59.376 702.479 60.16 704.351 60.16ZM710.02 60.256C712.34 60.256 713.508 58.704 713.668 57.648H712.324C712.068 58.24 711.268 59.04 709.988 59.04C708.452 59.04 707.588 57.968 707.444 56.336L713.668 56.32V54.928C713.668 52.8 712.132 51.344 709.94 51.344C707.476 51.344 706.036 53.184 706.036 55.776C706.036 58.304 707.412 60.256 710.02 60.256ZM712.324 55.136H707.46C707.46 53.344 708.612 52.56 709.908 52.56C711.236 52.56 712.324 53.344 712.324 55.136ZM721.745 60H723.057V47.84H721.697V52.752C721.025 51.904 719.969 51.344 718.913 51.344C716.577 51.344 715.025 53.12 715.025 55.776C715.025 58.464 716.529 60.256 718.801 60.256C719.953 60.256 721.169 59.712 721.745 58.928V60ZM721.697 55.184V56.176C721.697 57.888 720.657 59.024 719.057 59.024C717.457 59.024 716.401 57.728 716.401 55.76C716.401 53.84 717.441 52.576 719.025 52.576C720.641 52.576 721.697 53.616 721.697 55.184ZM733.458 51.344C732.386 51.344 731.314 51.904 730.642 52.752V47.84H729.282V60H730.578V58.928C731.154 59.712 732.386 60.256 733.538 60.256C735.81 60.256 737.314 58.464 737.314 55.776C737.314 53.12 735.762 51.344 733.458 51.344ZM733.346 59.024C731.73 59.024 730.642 57.968 730.642 56.4V55.408C730.642 53.696 731.714 52.56 733.314 52.56C734.898 52.56 735.938 53.856 735.938 55.824C735.938 57.744 734.898 59.024 733.346 59.024ZM742.66 60.256C744.98 60.256 746.148 58.704 746.308 57.648H744.964C744.708 58.24 743.908 59.04 742.628 59.04C741.092 59.04 740.228 57.968 740.084 56.336L746.308 56.32V54.928C746.308 52.8 744.772 51.344 742.58 51.344C740.116 51.344 738.676 53.184 738.676 55.776C738.676 58.304 740.052 60.256 742.66 60.256ZM744.964 55.136H740.1C740.1 53.344 741.252 52.56 742.548 52.56C743.876 52.56 744.964 53.344 744.964 55.136ZM747.281 51.6V52.752H748.417V60H749.777V52.752H751.505V51.6H749.777V49.936C749.777 49.104 750.161 48.768 751.057 48.768C751.409 48.768 751.489 48.8 751.569 48.816V47.68C751.505 47.664 751.105 47.584 750.625 47.584C749.073 47.584 748.417 48.448 748.417 50.224V51.6H747.281ZM756.005 60.256C758.421 60.256 760.005 58.288 760.005 55.792C760.005 53.2 758.421 51.344 756.005 51.344C753.605 51.344 751.973 53.2 751.973 55.792C751.973 58.288 753.605 60.256 756.005 60.256ZM755.989 59.04C754.261 59.04 753.349 57.712 753.349 55.792C753.349 53.888 754.261 52.56 755.989 52.56C757.717 52.56 758.645 53.888 758.645 55.792C758.645 57.712 757.717 59.04 755.989 59.04ZM762.859 53.104V51.6H761.579V60H762.939V55.648C762.939 53.904 764.171 52.832 765.547 52.832H765.899V51.392C765.307 51.392 764.843 51.456 764.379 51.664C763.755 51.952 763.195 52.448 762.859 53.104ZM770.27 60.256C772.59 60.256 773.758 58.704 773.918 57.648H772.574C772.318 58.24 771.518 59.04 770.238 59.04C768.702 59.04 767.838 57.968 767.694 56.336L773.918 56.32V54.928C773.918 52.8 772.382 51.344 770.19 51.344C767.726 51.344 766.286 53.184 766.286 55.776C766.286 58.304 767.662 60.256 770.27 60.256ZM772.574 55.136H767.71C767.71 53.344 768.862 52.56 770.158 52.56C771.486 52.56 772.574 53.344 772.574 55.136Z" fill="black"/>
<path d="M619 57H594V82H619V57Z" fill="#2D2AFF"/>
<path d="M619 28H594V53H619V28Z" fill="#E7A1A0"/>
<path d="M619 130H594V155H619V130Z" fill="#9FC5EC"/>
<path d="M619 101H594V126H619V101Z" fill="#D11F5F"/>
<path d="M23.5601 8.544C25.4321 8.544 26.5521 7.088 26.5521 5.056C26.5521 3.024 25.4321 1.568 23.5601 1.568C21.6881 1.568 20.5681 3.024 20.5681 5.056C20.5681 7.088 21.6881 8.544 23.5601 8.544ZM23.6401 14.256H25.3361L32.7121 1.6H31.0161L23.6401 14.256ZM23.5601 7.216C22.6961 7.216 22.1841 6.32 22.1841 5.056C22.1841 3.792 22.6961 2.896 23.5601 2.896C24.4241 2.896 24.9361 3.792 24.9361 5.056C24.9361 6.32 24.4241 7.216 23.5601 7.216ZM32.9361 14.144C34.9681 14.144 35.9281 12.528 35.9281 10.656C35.9281 8.784 34.9681 7.168 32.9361 7.168C30.9041 7.168 29.9441 8.784 29.9441 10.656C29.9441 12.528 30.9041 14.144 32.9361 14.144ZM32.9361 12.8C31.9281 12.8 31.5761 11.648 31.5761 10.656C31.5761 9.664 31.9281 8.512 32.9361 8.512C33.9441 8.512 34.2961 9.664 34.2961 10.656C34.2961 11.648 33.9441 12.8 32.9361 12.8Z" fill="black"/>
<path d="M49.5096 339.96H45.2736V337.188H50.1336V336.18H44.2176V345.3H45.2736V341.004H49.5096V339.96ZM51.8823 340.128V339H50.9223V345.3H51.9423V342.036C51.9423 340.728 52.8663 339.924 53.8983 339.924H54.1623V338.844C53.7183 338.844 53.3703 338.892 53.0223 339.048C52.5543 339.264 52.1343 339.636 51.8823 340.128ZM56.1641 337.308V336.18H55.0121V337.308H56.1641ZM56.0921 345.3V339H55.0721V345.3H56.0921ZM60.3117 345.492C62.0517 345.492 62.9277 344.328 63.0477 343.536H62.0397C61.8477 343.98 61.2477 344.58 60.2877 344.58C59.1357 344.58 58.4877 343.776 58.3797 342.552L63.0477 342.54V341.496C63.0477 339.9 61.8957 338.808 60.2517 338.808C58.4037 338.808 57.3237 340.188 57.3237 342.132C57.3237 344.028 58.3557 345.492 60.3117 345.492ZM62.0397 341.652H58.3917C58.3917 340.308 59.2557 339.72 60.2277 339.72C61.2237 339.72 62.0397 340.308 62.0397 341.652ZM65.3134 339.948V339H64.2934V345.3H65.3134V341.796C65.3134 340.476 66.1894 339.72 67.1974 339.72C68.1694 339.72 68.6854 340.452 68.6854 341.568V345.3H69.7054V341.316C69.7054 339.876 68.8414 338.808 67.4374 338.808C66.7294 338.808 65.8294 339.084 65.3134 339.948ZM76.1015 345.3H77.0855V336.18H76.0655V339.864C75.5615 339.228 74.7695 338.808 73.9775 338.808C72.2255 338.808 71.0615 340.14 71.0615 342.132C71.0615 344.148 72.1895 345.492 73.8935 345.492C74.7575 345.492 75.6695 345.084 76.1015 344.496V345.3ZM76.0655 341.688V342.432C76.0655 343.716 75.2855 344.568 74.0855 344.568C72.8855 344.568 72.0935 343.596 72.0935 342.12C72.0935 340.68 72.8735 339.732 74.0615 339.732C75.2735 339.732 76.0655 340.512 76.0655 341.688ZM81.2551 345.492C82.7551 345.492 83.5711 344.904 83.5711 343.572C83.5711 342.132 82.2751 341.868 81.2791 341.652C80.0071 341.376 79.5631 341.208 79.5631 340.596C79.5631 339.816 80.3551 339.708 81.0031 339.708C81.5911 339.708 82.2991 339.924 82.3831 340.92H83.4151C83.3671 339.684 82.5631 338.808 81.0991 338.808C79.7671 338.808 78.5191 339.3 78.5431 340.68C78.5671 341.988 79.7191 342.252 81.3151 342.636C81.9511 342.792 82.5751 343.02 82.5751 343.668C82.5751 344.304 82.0951 344.604 81.3511 344.604C80.1871 344.604 79.4791 344.292 79.2391 343.236H78.2071C78.3031 344.46 79.1551 345.492 81.2551 345.492ZM89.9436 345.432C90.8316 345.432 91.7796 345 92.2236 344.424H92.2356C92.3196 345.036 92.9556 345.432 93.8316 345.396H93.8196V344.472C93.2676 344.508 93.1356 344.364 93.1356 343.776V341.508C93.1356 339.42 92.1156 338.82 90.6516 338.82C88.5996 338.82 88.0836 339.96 88.0596 340.776H89.0676C89.0916 340.308 89.4516 339.744 90.6276 339.744C91.7196 339.744 92.1036 340.284 92.1036 341.064V341.436H91.7796C89.7996 341.436 88.9596 341.688 88.4316 342.096C87.9636 342.456 87.7356 342.948 87.7356 343.512C87.7356 344.388 88.2636 345.432 89.9436 345.432ZM90.0876 344.544C89.1756 344.544 88.7316 344.148 88.7316 343.536C88.7316 342.432 90.0996 342.24 91.7316 342.24H92.1156V343.212C92.1156 343.68 91.4436 344.544 90.0876 344.544ZM95.9696 339.948V339H94.9496V345.3H95.9696V341.796C95.9696 340.476 96.8456 339.72 97.8536 339.72C98.8256 339.72 99.3416 340.452 99.3416 341.568V345.3H100.362V341.316C100.362 339.876 99.4976 338.808 98.0936 338.808C97.3856 338.808 96.4856 339.084 95.9696 339.948ZM106.758 345.3H107.742V336.18H106.722V339.864C106.218 339.228 105.426 338.808 104.634 338.808C102.882 338.808 101.718 340.14 101.718 342.132C101.718 344.148 102.846 345.492 104.55 345.492C105.414 345.492 106.326 345.084 106.758 344.496V345.3ZM106.722 341.688V342.432C106.722 343.716 105.942 344.568 104.742 344.568C103.542 344.568 102.75 343.596 102.75 342.12C102.75 340.68 103.53 339.732 104.718 339.732C105.93 339.732 106.722 340.512 106.722 341.688ZM109.463 346.692L112.787 336.18H111.887L108.563 346.692H109.463ZM116.07 345.492C117.882 345.492 119.07 344.016 119.07 342.144C119.07 340.2 117.882 338.808 116.07 338.808C114.27 338.808 113.046 340.2 113.046 342.144C113.046 344.016 114.27 345.492 116.07 345.492ZM116.058 344.58C114.762 344.58 114.078 343.584 114.078 342.144C114.078 340.716 114.762 339.72 116.058 339.72C117.354 339.72 118.05 340.716 118.05 342.144C118.05 343.584 117.354 344.58 116.058 344.58ZM121.21 340.128V339H120.25V345.3H121.27V342.036C121.27 340.728 122.194 339.924 123.226 339.924H123.49V338.844C123.046 338.844 122.698 338.892 122.35 339.048C121.882 339.264 121.462 339.636 121.21 340.128ZM128.499 340.128V339H127.539V345.3H128.559V342.036C128.559 340.728 129.483 339.924 130.515 339.924H130.779V338.844C130.335 338.844 129.987 338.892 129.639 339.048C129.171 339.264 128.751 339.636 128.499 340.128ZM134.058 345.492C135.798 345.492 136.674 344.328 136.794 343.536H135.786C135.594 343.98 134.994 344.58 134.034 344.58C132.882 344.58 132.234 343.776 132.126 342.552L136.794 342.54V341.496C136.794 339.9 135.642 338.808 133.998 338.808C132.15 338.808 131.07 340.188 131.07 342.132C131.07 344.028 132.102 345.492 134.058 345.492ZM135.786 341.652H132.138C132.138 340.308 133.002 339.72 133.974 339.72C134.97 339.72 135.786 340.308 135.786 341.652ZM139.059 345.3V336.18H138.039V345.3H139.059ZM142.397 345.432C143.285 345.432 144.233 345 144.677 344.424H144.689C144.773 345.036 145.409 345.432 146.285 345.396H146.273V344.472C145.721 344.508 145.589 344.364 145.589 343.776V341.508C145.589 339.42 144.569 338.82 143.105 338.82C141.053 338.82 140.537 339.96 140.513 340.776H141.521C141.545 340.308 141.905 339.744 143.081 339.744C144.173 339.744 144.557 340.284 144.557 341.064V341.436H144.233C142.253 341.436 141.413 341.688 140.885 342.096C140.417 342.456 140.189 342.948 140.189 343.512C140.189 344.388 140.717 345.432 142.397 345.432ZM142.541 344.544C141.629 344.544 141.185 344.148 141.185 343.536C141.185 342.432 142.553 342.24 144.185 342.24H144.569V343.212C144.569 343.68 143.897 344.544 142.541 344.544ZM149.634 345.42C149.766 345.42 149.97 345.408 150.246 345.384V344.556C150.054 344.58 149.922 344.58 149.826 344.58C149.034 344.58 148.77 344.34 148.77 343.5V339.864H150.21V339H148.77V337.38H147.798V338.028C147.798 338.784 147.654 339.108 146.886 339.108V339.864H147.75V343.68C147.75 344.832 148.23 345.42 149.634 345.42ZM152.527 337.308V336.18H151.375V337.308H152.527ZM152.455 345.3V339H151.435V345.3H152.455ZM156.075 343.272L154.611 339H153.459L155.859 345.3H156.831L159.231 339H158.079L156.615 343.272L156.363 343.968H156.339L156.075 343.272ZM162.488 345.492C164.228 345.492 165.104 344.328 165.224 343.536H164.216C164.024 343.98 163.424 344.58 162.464 344.58C161.312 344.58 160.664 343.776 160.556 342.552L165.224 342.54V341.496C165.224 339.9 164.072 338.808 162.428 338.808C160.58 338.808 159.5 340.188 159.5 342.132C159.5 344.028 160.532 345.492 162.488 345.492ZM164.216 341.652H160.568C160.568 340.308 161.432 339.72 162.404 339.72C163.4 339.72 164.216 340.308 164.216 341.652ZM169.169 345.492C170.669 345.492 171.485 344.904 171.485 343.572C171.485 342.132 170.189 341.868 169.193 341.652C167.921 341.376 167.477 341.208 167.477 340.596C167.477 339.816 168.269 339.708 168.917 339.708C169.505 339.708 170.213 339.924 170.297 340.92H171.329C171.281 339.684 170.477 338.808 169.013 338.808C167.681 338.808 166.433 339.3 166.457 340.68C166.481 341.988 167.633 342.252 169.229 342.636C169.865 342.792 170.489 343.02 170.489 343.668C170.489 344.304 170.009 344.604 169.265 344.604C168.101 344.604 167.393 344.292 167.153 343.236H166.121C166.217 344.46 167.069 345.492 169.169 345.492Z" fill="black"/>
<path d="M229.452 343.492C231.648 343.492 232.716 342.7 232.716 340.888C232.716 338.848 230.652 338.464 229.908 338.284C229.236 338.14 228.888 338.08 228.24 337.852C227.46 337.564 227.088 337.228 227.088 336.52C227.088 335.176 228.492 335.02 229.092 335.02C230.052 335.02 231.276 335.368 231.408 337.036H232.464C232.428 335.272 231.312 333.988 229.236 333.988C227.784 333.988 226.02 334.672 226.02 336.688C226.02 337.984 226.824 338.5 227.94 338.884C228.84 339.196 229.584 339.316 230.184 339.484C230.808 339.652 231.744 339.964 231.744 341.032C231.744 342.016 230.928 342.472 229.668 342.472C228.132 342.472 226.956 342.028 226.56 340.348H225.48C225.612 342.028 226.752 343.492 229.452 343.492ZM236.484 343.492C238.224 343.492 239.1 342.328 239.22 341.308H238.212C238.02 341.992 237.432 342.58 236.472 342.58C235.164 342.58 234.528 341.572 234.528 340.144C234.528 338.716 235.176 337.72 236.472 337.72C237.432 337.72 238.032 338.176 238.212 339.196H239.22C239.124 337.756 238.044 336.808 236.46 336.808C234.564 336.808 233.496 338.188 233.496 340.144C233.496 342.016 234.528 343.492 236.484 343.492ZM241.485 337.948V334.18H240.465V343.3H241.485V339.796C241.485 338.476 242.361 337.72 243.369 337.72C244.341 337.72 244.857 338.452 244.857 339.568V343.3H245.877V339.328C245.877 337.888 245.013 336.808 243.609 336.808C242.901 336.808 242.001 337.084 241.485 337.948ZM249.996 343.492C251.808 343.492 252.996 342.016 252.996 340.144C252.996 338.2 251.808 336.808 249.996 336.808C248.196 336.808 246.972 338.2 246.972 340.144C246.972 342.016 248.196 343.492 249.996 343.492ZM249.984 342.58C248.688 342.58 248.004 341.584 248.004 340.144C248.004 338.716 248.688 337.72 249.984 337.72C251.28 337.72 251.976 338.716 251.976 340.144C251.976 341.584 251.28 342.58 249.984 342.58ZM257.063 343.492C258.875 343.492 260.063 342.016 260.063 340.144C260.063 338.2 258.875 336.808 257.063 336.808C255.263 336.808 254.039 338.2 254.039 340.144C254.039 342.016 255.263 343.492 257.063 343.492ZM257.051 342.58C255.755 342.58 255.071 341.584 255.071 340.144C255.071 338.716 255.755 337.72 257.051 337.72C258.347 337.72 259.043 338.716 259.043 340.144C259.043 341.584 258.347 342.58 257.051 342.58ZM262.192 343.3V334.18H261.172V343.3H262.192ZM269.578 343.492C271.39 343.492 272.578 342.016 272.578 340.144C272.578 338.2 271.39 336.808 269.578 336.808C267.778 336.808 266.554 338.2 266.554 340.144C266.554 342.016 267.778 343.492 269.578 343.492ZM269.566 342.58C268.27 342.58 267.586 341.584 267.586 340.144C267.586 338.716 268.27 337.72 269.566 337.72C270.862 337.72 271.558 338.716 271.558 340.144C271.558 341.584 270.862 342.58 269.566 342.58ZM274.718 338.128V337H273.758V343.3H274.778V340.036C274.778 338.728 275.702 337.924 276.734 337.924H276.998V336.844C276.554 336.844 276.206 336.892 275.858 337.048C275.39 337.264 274.97 337.636 274.718 338.128ZM283.663 343.492C285.403 343.492 286.279 342.328 286.399 341.536H285.391C285.199 341.98 284.599 342.58 283.639 342.58C282.487 342.58 281.839 341.776 281.731 340.552L286.399 340.54V339.496C286.399 337.9 285.247 336.808 283.603 336.808C281.755 336.808 280.675 338.188 280.675 340.132C280.675 342.028 281.707 343.492 283.663 343.492ZM285.391 339.652H281.743C281.743 338.308 282.607 337.72 283.579 337.72C284.575 337.72 285.391 338.308 285.391 339.652ZM295.229 336.808C294.389 336.808 293.501 337.096 292.829 338.068C292.493 337.216 291.809 336.808 290.837 336.808C289.973 336.808 289.169 337.12 288.665 337.948V337H287.645V343.3H288.665V339.796C288.665 338.476 289.505 337.72 290.633 337.72C291.341 337.72 292.037 338.02 292.037 339.424V343.3H293.057V339.796C293.057 338.476 293.897 337.72 295.025 337.72C295.733 337.72 296.429 338.02 296.429 339.424V343.3H297.449V339.448C297.449 337.648 296.621 336.808 295.229 336.808ZM302.168 336.808C301.364 336.808 300.524 337.228 300.02 337.864V337H299.036V346.18H300.056V342.496C300.488 343.084 301.364 343.492 302.228 343.492C303.932 343.492 305.06 342.148 305.06 340.132C305.06 338.14 303.896 336.808 302.168 336.808ZM302.084 342.568C300.872 342.568 300.056 341.776 300.056 340.6V339.856C300.056 338.572 300.86 337.72 302.06 337.72C303.248 337.72 304.028 338.692 304.028 340.168C304.028 341.608 303.248 342.568 302.084 342.568ZM307.169 343.3V334.18H306.149V343.3H307.169ZM311.285 343.492C313.097 343.492 314.285 342.016 314.285 340.144C314.285 338.2 313.097 336.808 311.285 336.808C309.485 336.808 308.261 338.2 308.261 340.144C308.261 342.016 309.485 343.492 311.285 343.492ZM311.273 342.58C309.977 342.58 309.293 341.584 309.293 340.144C309.293 338.716 309.977 337.72 311.273 337.72C312.569 337.72 313.265 338.716 313.265 340.144C313.265 341.584 312.569 342.58 311.273 342.58ZM315.724 337H314.572L316.972 343.3L316 346.18H316.972L318.136 342.7L320.344 337H319.192L317.692 341.428L317.476 342.004H317.452L317.236 341.428L315.724 337ZM323.601 343.492C325.341 343.492 326.217 342.328 326.337 341.536H325.329C325.137 341.98 324.537 342.58 323.577 342.58C322.425 342.58 321.777 341.776 321.669 340.552L326.337 340.54V339.496C326.337 337.9 325.185 336.808 323.541 336.808C321.693 336.808 320.613 338.188 320.613 340.132C320.613 342.028 321.645 343.492 323.601 343.492ZM325.329 339.652H321.681C321.681 338.308 322.545 337.72 323.517 337.72C324.513 337.72 325.329 338.308 325.329 339.652ZM328.542 338.128V337H327.582V343.3H328.602V340.036C328.602 338.728 329.526 337.924 330.558 337.924H330.822V336.844C330.378 336.844 330.03 336.892 329.682 337.048C329.214 337.264 328.794 337.636 328.542 338.128Z" fill="black"/>
<path d="M397.014 336.18H393.882V345.3H397.638C399.63 345.3 400.518 344.256 400.518 342.708C400.518 341.4 399.606 340.524 398.754 340.416C399.402 340.212 400.038 339.504 400.038 338.616C400.038 336.972 398.754 336.18 397.014 336.18ZM396.798 339.936H394.926V337.152H397.038C398.43 337.152 399.006 337.752 399.006 338.604C399.006 339.516 398.166 339.936 396.798 339.936ZM397.278 344.328H394.926V340.968H397.158C398.706 340.968 399.486 341.628 399.486 342.624C399.486 343.788 398.562 344.328 397.278 344.328ZM402.919 345.3V336.18H401.899V345.3H402.919ZM407.035 345.492C408.847 345.492 410.035 344.016 410.035 342.144C410.035 340.2 408.847 338.808 407.035 338.808C405.235 338.808 404.011 340.2 404.011 342.144C404.011 344.016 405.235 345.492 407.035 345.492ZM407.023 344.58C405.727 344.58 405.043 343.584 405.043 342.144C405.043 340.716 405.727 339.72 407.023 339.72C408.319 339.72 409.015 340.716 409.015 342.144C409.015 343.584 408.319 344.58 407.023 344.58ZM414.102 345.492C415.914 345.492 417.102 344.016 417.102 342.144C417.102 340.2 415.914 338.808 414.102 338.808C412.302 338.808 411.078 340.2 411.078 342.144C411.078 344.016 412.302 345.492 414.102 345.492ZM414.09 344.58C412.794 344.58 412.11 343.584 412.11 342.144C412.11 340.716 412.794 339.72 414.09 339.72C415.386 339.72 416.082 340.716 416.082 342.144C416.082 343.584 415.386 344.58 414.09 344.58ZM423.328 345.3H424.312V336.18H423.292V339.864C422.788 339.228 421.996 338.808 421.204 338.808C419.452 338.808 418.288 340.14 418.288 342.132C418.288 344.148 419.416 345.492 421.12 345.492C421.984 345.492 422.896 345.084 423.328 344.496V345.3ZM423.292 341.688V342.432C423.292 343.716 422.512 344.568 421.312 344.568C420.112 344.568 419.32 343.596 419.32 342.12C419.32 340.68 420.1 339.732 421.288 339.732C422.5 339.732 423.292 340.512 423.292 341.688ZM433.793 345.3H434.777V336.18H433.757V339.864C433.253 339.228 432.461 338.808 431.669 338.808C429.917 338.808 428.753 340.14 428.753 342.132C428.753 344.148 429.881 345.492 431.585 345.492C432.449 345.492 433.361 345.084 433.793 344.496V345.3ZM433.757 341.688V342.432C433.757 343.716 432.977 344.568 431.777 344.568C430.577 344.568 429.785 343.596 429.785 342.12C429.785 340.68 430.565 339.732 431.753 339.732C432.965 339.732 433.757 340.512 433.757 341.688ZM438.828 345.492C440.64 345.492 441.828 344.016 441.828 342.144C441.828 340.2 440.64 338.808 438.828 338.808C437.028 338.808 435.804 340.2 435.804 342.144C435.804 344.016 437.028 345.492 438.828 345.492ZM438.816 344.58C437.52 344.58 436.836 343.584 436.836 342.144C436.836 340.716 437.52 339.72 438.816 339.72C440.112 339.72 440.808 340.716 440.808 342.144C440.808 343.584 440.112 344.58 438.816 344.58ZM444.028 339.948V339H443.008V345.3H444.028V341.796C444.028 340.476 444.904 339.72 445.912 339.72C446.884 339.72 447.4 340.452 447.4 341.568V345.3H448.42V341.316C448.42 339.876 447.556 338.808 446.152 338.808C445.444 338.808 444.544 339.084 444.028 339.948ZM451.854 345.432C452.742 345.432 453.69 345 454.134 344.424H454.146C454.23 345.036 454.866 345.432 455.742 345.396H455.73V344.472C455.178 344.508 455.046 344.364 455.046 343.776V341.508C455.046 339.42 454.026 338.82 452.562 338.82C450.51 338.82 449.994 339.96 449.97 340.776H450.978C451.002 340.308 451.362 339.744 452.538 339.744C453.63 339.744 454.014 340.284 454.014 341.064V341.436H453.69C451.71 341.436 450.87 341.688 450.342 342.096C449.874 342.456 449.646 342.948 449.646 343.512C449.646 344.388 450.174 345.432 451.854 345.432ZM451.998 344.544C451.086 344.544 450.642 344.148 450.642 343.536C450.642 342.432 452.01 342.24 453.642 342.24H454.026V343.212C454.026 343.68 453.354 344.544 451.998 344.544ZM459.091 345.42C459.223 345.42 459.427 345.408 459.703 345.384V344.556C459.511 344.58 459.379 344.58 459.283 344.58C458.491 344.58 458.227 344.34 458.227 343.5V339.864H459.667V339H458.227V337.38H457.255V338.028C457.255 338.784 457.111 339.108 456.343 339.108V339.864H457.207V343.68C457.207 344.832 457.687 345.42 459.091 345.42ZM461.984 337.308V336.18H460.832V337.308H461.984ZM461.912 345.3V339H460.892V345.3H461.912ZM466.168 345.492C467.98 345.492 469.168 344.016 469.168 342.144C469.168 340.2 467.98 338.808 466.168 338.808C464.368 338.808 463.144 340.2 463.144 342.144C463.144 344.016 464.368 345.492 466.168 345.492ZM466.156 344.58C464.86 344.58 464.176 343.584 464.176 342.144C464.176 340.716 464.86 339.72 466.156 339.72C467.452 339.72 468.148 340.716 468.148 342.144C468.148 343.584 467.452 344.58 466.156 344.58ZM471.368 339.948V339H470.348V345.3H471.368V341.796C471.368 340.476 472.244 339.72 473.252 339.72C474.224 339.72 474.74 340.452 474.74 341.568V345.3H475.76V341.316C475.76 339.876 474.896 338.808 473.492 338.808C472.784 338.808 471.884 339.084 471.368 339.948ZM483.195 345.492C485.007 345.492 486.195 344.016 486.195 342.144C486.195 340.2 485.007 338.808 483.195 338.808C481.395 338.808 480.171 340.2 480.171 342.144C480.171 344.016 481.395 345.492 483.195 345.492ZM483.183 344.58C481.887 344.58 481.203 343.584 481.203 342.144C481.203 340.716 481.887 339.72 483.183 339.72C484.479 339.72 485.175 340.716 485.175 342.144C485.175 343.584 484.479 344.58 483.183 344.58ZM488.335 340.128V339H487.375V345.3H488.395V342.036C488.395 340.728 489.319 339.924 490.351 339.924H490.615V338.844C490.171 338.844 489.823 338.892 489.475 339.048C489.007 339.264 488.587 339.636 488.335 340.128ZM497.129 344.988V339H496.109V339.996C495.581 339.108 494.765 338.808 493.877 338.808C491.885 338.808 491.093 340.308 491.093 342.084C491.093 344.052 492.089 345.492 493.937 345.492C494.825 345.492 495.617 345.156 496.109 344.352V344.724C496.109 346.44 495.677 347.232 494.249 347.232C493.325 347.232 492.593 346.908 492.365 346.068H491.333C491.669 347.592 492.701 348.18 494.285 348.18C495.845 348.18 497.129 347.628 497.129 344.988ZM496.109 341.688V342.432C496.109 343.764 495.305 344.568 494.093 344.568C492.749 344.568 492.041 343.56 492.041 342.12C492.041 340.704 492.737 339.732 494.069 339.732C495.257 339.732 496.109 340.512 496.109 341.688ZM500.557 345.432C501.445 345.432 502.393 345 502.837 344.424H502.849C502.933 345.036 503.569 345.432 504.445 345.396H504.433V344.472C503.881 344.508 503.749 344.364 503.749 343.776V341.508C503.749 339.42 502.729 338.82 501.265 338.82C499.213 338.82 498.697 339.96 498.673 340.776H499.681C499.705 340.308 500.065 339.744 501.241 339.744C502.333 339.744 502.717 340.284 502.717 341.064V341.436H502.393C500.413 341.436 499.573 341.688 499.045 342.096C498.577 342.456 498.349 342.948 498.349 343.512C498.349 344.388 498.877 345.432 500.557 345.432ZM500.701 344.544C499.789 344.544 499.345 344.148 499.345 343.536C499.345 342.432 500.713 342.24 502.345 342.24H502.729V343.212C502.729 343.68 502.057 344.544 500.701 344.544ZM506.583 339.948V339H505.563V345.3H506.583V341.796C506.583 340.476 507.459 339.72 508.467 339.72C509.439 339.72 509.955 340.452 509.955 341.568V345.3H510.975V341.316C510.975 339.876 510.111 338.808 508.707 338.808C507.999 338.808 507.099 339.084 506.583 339.948ZM513.711 337.308V336.18H512.559V337.308H513.711ZM513.639 345.3V339H512.619V345.3H513.639ZM514.859 345.3H520.583V344.4H516.071L520.355 339.9L520.343 339H514.907V339.9H519.143L514.859 344.4V345.3ZM523.596 345.432C524.484 345.432 525.432 345 525.876 344.424H525.888C525.972 345.036 526.608 345.432 527.484 345.396H527.472V344.472C526.92 344.508 526.788 344.364 526.788 343.776V341.508C526.788 339.42 525.768 338.82 524.304 338.82C522.252 338.82 521.736 339.96 521.712 340.776H522.72C522.744 340.308 523.104 339.744 524.28 339.744C525.372 339.744 525.756 340.284 525.756 341.064V341.436H525.432C523.452 341.436 522.612 341.688 522.084 342.096C521.616 342.456 521.388 342.948 521.388 343.512C521.388 344.388 521.916 345.432 523.596 345.432ZM523.74 344.544C522.828 344.544 522.384 344.148 522.384 343.536C522.384 342.432 523.752 342.24 525.384 342.24H525.768V343.212C525.768 343.68 525.096 344.544 523.74 344.544ZM530.833 345.42C530.965 345.42 531.169 345.408 531.445 345.384V344.556C531.253 344.58 531.121 344.58 531.025 344.58C530.233 344.58 529.969 344.34 529.969 343.5V339.864H531.409V339H529.969V337.38H528.997V338.028C528.997 338.784 528.853 339.108 528.085 339.108V339.864H528.949V343.68C528.949 344.832 529.429 345.42 530.833 345.42ZM533.727 337.308V336.18H532.575V337.308H533.727ZM533.655 345.3V339H532.635V345.3H533.655ZM537.91 345.492C539.722 345.492 540.91 344.016 540.91 342.144C540.91 340.2 539.722 338.808 537.91 338.808C536.11 338.808 534.886 340.2 534.886 342.144C534.886 344.016 536.11 345.492 537.91 345.492ZM537.898 344.58C536.602 344.58 535.918 343.584 535.918 342.144C535.918 340.716 536.602 339.72 537.898 339.72C539.194 339.72 539.89 340.716 539.89 342.144C539.89 343.584 539.194 344.58 537.898 344.58ZM543.11 339.948V339H542.09V345.3H543.11V341.796C543.11 340.476 543.986 339.72 544.994 339.72C545.966 339.72 546.482 340.452 546.482 341.568V345.3H547.502V341.316C547.502 339.876 546.638 338.808 545.234 338.808C544.526 338.808 543.626 339.084 543.11 339.948Z" fill="black"/>
<path d="M586.715 345.3V336.18H585.647V345.3H586.715ZM589.429 339.948V339H588.409V345.3H589.429V341.796C589.429 340.476 590.305 339.72 591.313 339.72C592.285 339.72 592.801 340.452 592.801 341.568V345.3H593.821V341.316C593.821 339.876 592.957 338.808 591.553 338.808C590.845 338.808 589.945 339.084 589.429 339.948ZM597.613 345.42C597.745 345.42 597.949 345.408 598.225 345.384V344.556C598.033 344.58 597.901 344.58 597.805 344.58C597.013 344.58 596.749 344.34 596.749 343.5V339.864H598.189V339H596.749V337.38H595.777V338.028C595.777 338.784 595.633 339.108 594.865 339.108V339.864H595.729V343.68C595.729 344.832 596.209 345.42 597.613 345.42ZM601.864 345.492C603.604 345.492 604.48 344.328 604.6 343.536H603.592C603.4 343.98 602.8 344.58 601.84 344.58C600.688 344.58 600.04 343.776 599.932 342.552L604.6 342.54V341.496C604.6 339.9 603.448 338.808 601.804 338.808C599.956 338.808 598.876 340.188 598.876 342.132C598.876 344.028 599.908 345.492 601.864 345.492ZM603.592 341.652H599.944C599.944 340.308 600.808 339.72 601.78 339.72C602.776 339.72 603.592 340.308 603.592 341.652ZM606.806 340.128V339H605.846V345.3H606.866V342.036C606.866 340.728 607.79 339.924 608.822 339.924H609.086V338.844C608.642 338.844 608.294 338.892 607.946 339.048C607.478 339.264 607.058 339.636 606.806 340.128ZM610.956 339.948V339H609.936V345.3H610.956V341.796C610.956 340.476 611.832 339.72 612.84 339.72C613.812 339.72 614.328 340.452 614.328 341.568V345.3H615.348V341.316C615.348 339.876 614.484 338.808 613.08 338.808C612.372 338.808 611.472 339.084 610.956 339.948ZM619.548 345.492C621.288 345.492 622.164 344.328 622.284 343.536H621.276C621.084 343.98 620.484 344.58 619.524 344.58C618.372 344.58 617.724 343.776 617.616 342.552L622.284 342.54V341.496C622.284 339.9 621.132 338.808 619.488 338.808C617.64 338.808 616.56 340.188 616.56 342.132C616.56 344.028 617.592 345.492 619.548 345.492ZM621.276 341.652H617.628C617.628 340.308 618.492 339.72 619.464 339.72C620.46 339.72 621.276 340.308 621.276 341.652ZM625.738 345.42C625.87 345.42 626.074 345.408 626.35 345.384V344.556C626.158 344.58 626.026 344.58 625.93 344.58C625.138 344.58 624.874 344.34 624.874 343.5V339.864H626.314V339H624.874V337.38H623.902V338.028C623.902 338.784 623.758 339.108 622.99 339.108V339.864H623.854V343.68C623.854 344.832 624.334 345.42 625.738 345.42ZM632.106 346.692H632.886C631.086 343.392 631.086 340.104 632.886 336.804H632.106C630.066 340.104 630.066 343.392 632.106 346.692ZM635.05 339.948V339H634.03V345.3H635.05V341.796C635.05 340.476 635.926 339.72 636.934 339.72C637.906 339.72 638.422 340.452 638.422 341.568V345.3H639.442V341.316C639.442 339.876 638.578 338.808 637.174 338.808C636.466 338.808 635.566 339.084 635.05 339.948ZM643.678 345.492C645.49 345.492 646.678 344.016 646.678 342.144C646.678 340.2 645.49 338.808 643.678 338.808C641.878 338.808 640.654 340.2 640.654 342.144C640.654 344.016 641.878 345.492 643.678 345.492ZM643.666 344.58C642.37 344.58 641.686 343.584 641.686 342.144C641.686 340.716 642.37 339.72 643.666 339.72C644.962 339.72 645.658 340.716 645.658 342.144C645.658 343.584 644.962 344.58 643.666 344.58ZM650.066 345.42C650.198 345.42 650.402 345.408 650.678 345.384V344.556C650.486 344.58 650.354 344.58 650.258 344.58C649.466 344.58 649.202 344.34 649.202 343.5V339.864H650.642V339H649.202V337.38H648.23V338.028C648.23 338.784 648.086 339.108 647.318 339.108V339.864H648.182V343.68C648.182 344.832 648.662 345.42 650.066 345.42ZM657.706 345.492C659.206 345.492 660.022 344.904 660.022 343.572C660.022 342.132 658.726 341.868 657.73 341.652C656.458 341.376 656.014 341.208 656.014 340.596C656.014 339.816 656.806 339.708 657.454 339.708C658.042 339.708 658.75 339.924 658.834 340.92H659.866C659.818 339.684 659.014 338.808 657.55 338.808C656.218 338.808 654.97 339.3 654.994 340.68C655.018 341.988 656.17 342.252 657.766 342.636C658.402 342.792 659.026 343.02 659.026 343.668C659.026 344.304 658.546 344.604 657.802 344.604C656.638 344.604 655.93 344.292 655.69 343.236H654.658C654.754 344.46 655.606 345.492 657.706 345.492ZM663.94 345.492C665.752 345.492 666.94 344.016 666.94 342.144C666.94 340.2 665.752 338.808 663.94 338.808C662.14 338.808 660.916 340.2 660.916 342.144C660.916 344.016 662.14 345.492 663.94 345.492ZM663.928 344.58C662.632 344.58 661.948 343.584 661.948 342.144C661.948 340.716 662.632 339.72 663.928 339.72C665.224 339.72 665.92 340.716 665.92 342.144C665.92 343.584 665.224 344.58 663.928 344.58ZM670.97 345.492C672.71 345.492 673.586 344.328 673.706 343.308H672.698C672.506 343.992 671.918 344.58 670.958 344.58C669.65 344.58 669.014 343.572 669.014 342.144C669.014 340.716 669.662 339.72 670.958 339.72C671.918 339.72 672.518 340.176 672.698 341.196H673.706C673.61 339.756 672.53 338.808 670.946 338.808C669.05 338.808 667.982 340.188 667.982 342.144C667.982 344.016 669.014 345.492 670.97 345.492ZM676.104 337.308V336.18H674.952V337.308H676.104ZM676.032 345.3V339H675.012V345.3H676.032ZM679.543 345.432C680.431 345.432 681.379 345 681.823 344.424H681.835C681.919 345.036 682.555 345.432 683.431 345.396H683.419V344.472C682.867 344.508 682.735 344.364 682.735 343.776V341.508C682.735 339.42 681.715 338.82 680.251 338.82C678.199 338.82 677.683 339.96 677.659 340.776H678.667C678.691 340.308 679.051 339.744 680.227 339.744C681.319 339.744 681.703 340.284 681.703 341.064V341.436H681.379C679.399 341.436 678.559 341.688 678.031 342.096C677.563 342.456 677.335 342.948 677.335 343.512C677.335 344.388 677.863 345.432 679.543 345.432ZM679.687 344.544C678.775 344.544 678.331 344.148 678.331 343.536C678.331 342.432 679.699 342.24 681.331 342.24H681.715V343.212C681.715 343.68 681.043 344.544 679.687 344.544ZM685.71 345.3V336.18H684.69V345.3H685.71ZM698.028 338.808C697.188 338.808 696.3 339.096 695.628 340.068C695.292 339.216 694.608 338.808 693.636 338.808C692.772 338.808 691.968 339.12 691.464 339.948V339H690.444V345.3H691.464V341.796C691.464 340.476 692.304 339.72 693.432 339.72C694.14 339.72 694.836 340.02 694.836 341.424V345.3H695.856V341.796C695.856 340.476 696.696 339.72 697.824 339.72C698.532 339.72 699.228 340.02 699.228 341.424V345.3H700.248V341.448C700.248 339.648 699.42 338.808 698.028 338.808ZM704.45 345.492C706.19 345.492 707.066 344.328 707.186 343.536H706.178C705.986 343.98 705.386 344.58 704.426 344.58C703.274 344.58 702.626 343.776 702.518 342.552L707.186 342.54V341.496C707.186 339.9 706.034 338.808 704.39 338.808C702.542 338.808 701.462 340.188 701.462 342.132C701.462 344.028 702.494 345.492 704.45 345.492ZM706.178 341.652H702.53C702.53 340.308 703.394 339.72 704.366 339.72C705.362 339.72 706.178 340.308 706.178 341.652ZM713.244 345.3H714.228V336.18H713.208V339.864C712.704 339.228 711.912 338.808 711.12 338.808C709.368 338.808 708.204 340.14 708.204 342.132C708.204 344.148 709.332 345.492 711.036 345.492C711.9 345.492 712.812 345.084 713.244 344.496V345.3ZM713.208 341.688V342.432C713.208 343.716 712.428 344.568 711.228 344.568C710.028 344.568 709.236 343.596 709.236 342.12C709.236 340.68 710.016 339.732 711.204 339.732C712.416 339.732 713.208 340.512 713.208 341.688ZM716.838 337.308V336.18H715.686V337.308H716.838ZM716.766 345.3V339H715.746V345.3H716.766ZM720.278 345.432C721.166 345.432 722.114 345 722.558 344.424H722.57C722.654 345.036 723.29 345.432 724.166 345.396H724.154V344.472C723.602 344.508 723.47 344.364 723.47 343.776V341.508C723.47 339.42 722.45 338.82 720.986 338.82C718.934 338.82 718.418 339.96 718.394 340.776H719.402C719.426 340.308 719.786 339.744 720.962 339.744C722.054 339.744 722.438 340.284 722.438 341.064V341.436H722.114C720.134 341.436 719.294 341.688 718.766 342.096C718.298 342.456 718.07 342.948 718.07 343.512C718.07 344.388 718.598 345.432 720.278 345.432ZM720.422 344.544C719.51 344.544 719.066 344.148 719.066 343.536C719.066 342.432 720.434 342.24 722.066 342.24H722.45V343.212C722.45 343.68 721.778 344.544 720.422 344.544ZM725.298 346.692H726.078C728.118 343.392 728.118 340.104 726.078 336.804H725.298C727.098 340.104 727.098 343.392 725.298 346.692Z" fill="black"/>
<path d="M791.34 343.492C793.536 343.492 794.604 342.7 794.604 340.888C794.604 338.848 792.54 338.464 791.796 338.284C791.124 338.14 790.776 338.08 790.128 337.852C789.348 337.564 788.976 337.228 788.976 336.52C788.976 335.176 790.38 335.02 790.98 335.02C791.94 335.02 793.164 335.368 793.296 337.036H794.352C794.316 335.272 793.2 333.988 791.124 333.988C789.672 333.988 787.908 334.672 787.908 336.688C787.908 337.984 788.712 338.5 789.828 338.884C790.728 339.196 791.472 339.316 792.072 339.484C792.696 339.652 793.632 339.964 793.632 341.032C793.632 342.016 792.816 342.472 791.556 342.472C790.02 342.472 788.844 342.028 788.448 340.348H787.368C787.5 342.028 788.64 343.492 791.34 343.492ZM798.408 343.492C800.22 343.492 801.408 342.016 801.408 340.144C801.408 338.2 800.22 336.808 798.408 336.808C796.608 336.808 795.384 338.2 795.384 340.144C795.384 342.016 796.608 343.492 798.408 343.492ZM798.396 342.58C797.1 342.58 796.416 341.584 796.416 340.144C796.416 338.716 797.1 337.72 798.396 337.72C799.692 337.72 800.388 338.716 800.388 340.144C800.388 341.584 799.692 342.58 798.396 342.58ZM805.439 343.492C807.179 343.492 808.055 342.328 808.175 341.308H807.167C806.975 341.992 806.387 342.58 805.427 342.58C804.119 342.58 803.483 341.572 803.483 340.144C803.483 338.716 804.131 337.72 805.427 337.72C806.387 337.72 806.987 338.176 807.167 339.196H808.175C808.079 337.756 806.999 336.808 805.415 336.808C803.519 336.808 802.451 338.188 802.451 340.144C802.451 342.016 803.483 343.492 805.439 343.492ZM810.572 335.308V334.18H809.42V335.308H810.572ZM810.5 343.3V337H809.48V343.3H810.5ZM814.012 343.432C814.9 343.432 815.848 343 816.292 342.424H816.304C816.388 343.036 817.024 343.432 817.9 343.396H817.888V342.472C817.336 342.508 817.204 342.364 817.204 341.776V339.508C817.204 337.42 816.184 336.82 814.72 336.82C812.668 336.82 812.152 337.96 812.128 338.776H813.136C813.16 338.308 813.52 337.744 814.696 337.744C815.788 337.744 816.172 338.284 816.172 339.064V339.436H815.848C813.868 339.436 813.028 339.688 812.5 340.096C812.032 340.456 811.804 340.948 811.804 341.512C811.804 342.388 812.332 343.432 814.012 343.432ZM814.156 342.544C813.244 342.544 812.8 342.148 812.8 341.536C812.8 340.432 814.168 340.24 815.8 340.24H816.184V341.212C816.184 341.68 815.512 342.544 814.156 342.544ZM820.179 343.3V334.18H819.159V343.3H820.179ZM832.497 336.808C831.657 336.808 830.769 337.096 830.097 338.068C829.761 337.216 829.077 336.808 828.105 336.808C827.241 336.808 826.437 337.12 825.933 337.948V337H824.913V343.3H825.933V339.796C825.933 338.476 826.773 337.72 827.901 337.72C828.609 337.72 829.305 338.02 829.305 339.424V343.3H830.325V339.796C830.325 338.476 831.165 337.72 832.293 337.72C833.001 337.72 833.697 338.02 833.697 339.424V343.3H834.717V339.448C834.717 337.648 833.889 336.808 832.497 336.808ZM838.919 343.492C840.659 343.492 841.535 342.328 841.655 341.536H840.647C840.455 341.98 839.855 342.58 838.895 342.58C837.743 342.58 837.095 341.776 836.987 340.552L841.655 340.54V339.496C841.655 337.9 840.503 336.808 838.859 336.808C837.011 336.808 835.931 338.188 835.931 340.132C835.931 342.028 836.963 343.492 838.919 343.492ZM840.647 339.652H836.999C836.999 338.308 837.863 337.72 838.835 337.72C839.831 337.72 840.647 338.308 840.647 339.652ZM847.713 343.3H848.697V334.18H847.677V337.864C847.173 337.228 846.381 336.808 845.589 336.808C843.837 336.808 842.673 338.14 842.673 340.132C842.673 342.148 843.801 343.492 845.505 343.492C846.369 343.492 847.281 343.084 847.713 342.496V343.3ZM847.677 339.688V340.432C847.677 341.716 846.897 342.568 845.697 342.568C844.497 342.568 843.705 341.596 843.705 340.12C843.705 338.68 844.485 337.732 845.673 337.732C846.885 337.732 847.677 338.512 847.677 339.688ZM851.307 335.308V334.18H850.155V335.308H851.307ZM851.235 343.3V337H850.215V343.3H851.235ZM854.746 343.432C855.634 343.432 856.582 343 857.026 342.424H857.038C857.122 343.036 857.758 343.432 858.634 343.396H858.622V342.472C858.07 342.508 857.938 342.364 857.938 341.776V339.508C857.938 337.42 856.918 336.82 855.454 336.82C853.402 336.82 852.886 337.96 852.862 338.776H853.87C853.894 338.308 854.254 337.744 855.43 337.744C856.522 337.744 856.906 338.284 856.906 339.064V339.436H856.582C854.602 339.436 853.762 339.688 853.234 340.096C852.766 340.456 852.538 340.948 852.538 341.512C852.538 342.388 853.066 343.432 854.746 343.432ZM854.89 342.544C853.978 342.544 853.534 342.148 853.534 341.536C853.534 340.432 854.902 340.24 856.534 340.24H856.918V341.212C856.918 341.68 856.246 342.544 854.89 342.544ZM866.494 336.808C865.69 336.808 864.85 337.228 864.346 337.864V337H863.362V346.18H864.382V342.496C864.814 343.084 865.69 343.492 866.554 343.492C868.258 343.492 869.386 342.148 869.386 340.132C869.386 338.14 868.222 336.808 866.494 336.808ZM866.41 342.568C865.198 342.568 864.382 341.776 864.382 340.6V339.856C864.382 338.572 865.186 337.72 866.386 337.72C867.574 337.72 868.354 338.692 868.354 340.168C868.354 341.608 867.574 342.568 866.41 342.568ZM873.432 343.492C875.244 343.492 876.432 342.016 876.432 340.144C876.432 338.2 875.244 336.808 873.432 336.808C871.632 336.808 870.408 338.2 870.408 340.144C870.408 342.016 871.632 343.492 873.432 343.492ZM873.42 342.58C872.124 342.58 871.44 341.584 871.44 340.144C871.44 338.716 872.124 337.72 873.42 337.72C874.716 337.72 875.412 338.716 875.412 340.144C875.412 341.584 874.716 342.58 873.42 342.58ZM880.312 343.492C881.812 343.492 882.628 342.904 882.628 341.572C882.628 340.132 881.332 339.868 880.336 339.652C879.064 339.376 878.62 339.208 878.62 338.596C878.62 337.816 879.412 337.708 880.06 337.708C880.648 337.708 881.356 337.924 881.44 338.92H882.472C882.424 337.684 881.62 336.808 880.156 336.808C878.824 336.808 877.576 337.3 877.6 338.68C877.624 339.988 878.776 340.252 880.372 340.636C881.008 340.792 881.632 341.02 881.632 341.668C881.632 342.304 881.152 342.604 880.408 342.604C879.244 342.604 878.536 342.292 878.296 341.236H877.264C877.36 342.46 878.212 343.492 880.312 343.492ZM885.878 343.42C886.01 343.42 886.214 343.408 886.49 343.384V342.556C886.298 342.58 886.166 342.58 886.07 342.58C885.278 342.58 885.014 342.34 885.014 341.5V337.864H886.454V337H885.014V335.38H884.042V336.028C884.042 336.784 883.898 337.108 883.13 337.108V337.864H883.994V341.68C883.994 342.832 884.474 343.42 885.878 343.42ZM890.202 343.492C891.702 343.492 892.518 342.904 892.518 341.572C892.518 340.132 891.222 339.868 890.226 339.652C888.954 339.376 888.51 339.208 888.51 338.596C888.51 337.816 889.302 337.708 889.95 337.708C890.538 337.708 891.246 337.924 891.33 338.92H892.362C892.314 337.684 891.51 336.808 890.046 336.808C888.714 336.808 887.466 337.3 887.49 338.68C887.514 339.988 888.666 340.252 890.262 340.636C890.898 340.792 891.522 341.02 891.522 341.668C891.522 342.304 891.042 342.604 890.298 342.604C889.134 342.604 888.426 342.292 888.186 341.236H887.154C887.25 342.46 888.102 343.492 890.202 343.492Z" fill="black"/>
<path d="M30 310.3V24.5" stroke="black"/>
<path d="M30 304.3H911" stroke="black"/>
<path d="M30 304.8H24" stroke="black"/>
<path d="M11.346 308.16C13.586 308.16 14.426 306.27 14.426 304.2C14.426 302.13 13.586 300.24 11.346 300.24C9.09602 300.24 8.23602 302.13 8.23602 304.2C8.23602 306.27 9.09602 308.16 11.346 308.16ZM11.326 307.33C9.75602 307.33 9.08602 305.9 9.08602 304.2C9.08602 302.5 9.75602 301.07 11.326 301.07C12.906 301.07 13.576 302.5 13.576 304.2C13.576 305.9 12.906 307.33 11.326 307.33Z" fill="black"/>
<path d="M30 248.8H24" stroke="black"/>
<path d="M4.37156 244.4V245.25H5.88156V252H6.73156V244.4H4.37156ZM11.346 252.16C13.586 252.16 14.426 250.27 14.426 248.2C14.426 246.13 13.586 244.24 11.346 244.24C9.09602 244.24 8.23602 246.13 8.23602 248.2C8.23602 250.27 9.09602 252.16 11.346 252.16ZM11.326 251.33C9.75602 251.33 9.08602 249.9 9.08602 248.2C9.08602 246.5 9.75602 245.07 11.326 245.07C12.906 245.07 13.576 246.5 13.576 248.2C13.576 249.9 12.906 251.33 11.326 251.33Z" fill="black"/>
<path d="M30 192.8H24" stroke="black"/>
<path d="M1.57594 195.16V196.01H7.10594V195.16H3.05594C4.16594 194.5 4.78594 194.06 5.28594 193.64C6.47594 192.64 7.00594 191.75 7.00594 190.67C7.00594 189.16 5.93594 188.24 4.18594 188.24C2.28594 188.24 1.15594 189.3 1.15594 191C1.15594 191.23 1.17594 191.36 1.25594 191.67H2.09594C2.01594 191.35 1.99594 191.24 1.99594 191.07C1.99594 189.9 2.78594 189.04 4.21594 189.04C5.41594 189.04 6.09594 189.66 6.09594 190.69C6.09594 191.45 5.74594 192.14 4.75594 192.99C4.15594 193.5 3.33594 194.07 1.57594 195.16ZM11.346 196.16C13.586 196.16 14.426 194.27 14.426 192.2C14.426 190.13 13.586 188.24 11.346 188.24C9.09602 188.24 8.23602 190.13 8.23602 192.2C8.23602 194.27 9.09602 196.16 11.346 196.16ZM11.326 195.33C9.75602 195.33 9.08602 193.9 9.08602 192.2C9.08602 190.5 9.75602 189.07 11.326 189.07C12.906 189.07 13.576 190.5 13.576 192.2C13.576 193.9 12.906 195.33 11.326 195.33Z" fill="black"/>
<path d="M30 136.8H24" stroke="black"/>
<path d="M4.03594 140.16C6.51594 140.16 7.10594 138.87 7.10594 137.71C7.10594 136.09 5.97594 135.23 4.16594 135.23H3.99594L6.48594 133.35V132.4H1.68594V133.27H5.43594L3.03594 135.14V136.03H3.64594C5.51594 136.03 6.25594 136.57 6.25594 137.75C6.25594 138.62 5.86594 139.36 4.11594 139.36C3.05594 139.36 2.29594 139.09 2.03594 138.4H1.15594C1.45594 139.56 2.54594 140.16 4.03594 140.16ZM11.346 140.16C13.586 140.16 14.426 138.27 14.426 136.2C14.426 134.13 13.586 132.24 11.346 132.24C9.09602 132.24 8.23602 134.13 8.23602 136.2C8.23602 138.27 9.09602 140.16 11.346 140.16ZM11.326 139.33C9.75602 139.33 9.08602 137.9 9.08602 136.2C9.08602 134.5 9.75602 133.07 11.326 133.07C12.906 133.07 13.576 134.5 13.576 136.2C13.576 137.9 12.906 139.33 11.326 139.33Z" fill="black"/>
<path d="M30 80.7998H24" stroke="black"/>
<path d="M5.47242 84V82.27H7.09242V81.42H5.47242V79.44H4.62242V81.42H2.22242L5.09242 76.4H4.16242L1.30242 81.32V82.27H4.62242V84H5.47242ZM11.346 84.16C13.586 84.16 14.426 82.27 14.426 80.2C14.426 78.13 13.586 76.24 11.346 76.24C9.09602 76.24 8.23602 78.13 8.23602 80.2C8.23602 82.27 9.09602 84.16 11.346 84.16ZM11.326 83.33C9.75602 83.33 9.08602 81.9 9.08602 80.2C9.08602 78.5 9.75602 77.07 11.326 77.07C12.906 77.07 13.576 78.5 13.576 80.2C13.576 81.9 12.906 83.33 11.326 83.33Z" fill="black"/>
<path d="M30 24.7998H24" stroke="black"/>
<path d="M4.0043 28.16C5.9143 28.16 7.0943 27.09 7.0943 25.46C7.0943 23.86 5.9843 22.73 4.3343 22.73C3.5943 22.73 2.8743 22.96 2.5343 23.31L3.0543 21.27H6.4443V20.4H2.4543L1.3543 24.66H2.3543C2.5843 24.05 3.2243 23.56 4.1643 23.56C5.3643 23.56 6.2343 24.33 6.2343 25.48C6.2343 26.6 5.3943 27.35 3.9743 27.35C3.0343 27.35 2.1943 27.02 2.1443 26.5H1.2243C1.3143 27.48 2.4643 28.16 4.0043 28.16ZM11.346 28.16C13.586 28.16 14.426 26.27 14.426 24.2C14.426 22.13 13.586 20.24 11.346 20.24C9.09602 20.24 8.23602 22.13 8.23602 24.2C8.23602 26.27 9.09602 28.16 11.346 28.16ZM11.326 27.33C9.75602 27.33 9.08602 25.9 9.08602 24.2C9.08602 22.5 9.75602 21.07 11.326 21.07C12.906 21.07 13.576 22.5 13.576 24.2C13.576 25.9 12.906 27.33 11.326 27.33Z" fill="black"/>
<path d="M618.5 22.5H623.5V86.5H618.5" stroke="black"/>
<path d="M618.5 96H623.5V160H618.5" stroke="black"/>
</svg>
