<svg width="974" height="680" viewBox="0 0 974 680" fill="none" xmlns="http://www.w3.org/2000/svg">
<path d="M15.0119 12H17.1353V1.1688H15.0119V12ZM27.1402 3.27803L27.1259 1.1688H18.461V3.27803H21.7388V12H23.8623V3.27803H27.1402Z" fill="black"/>
<path d="M1 0V679.2" stroke="black"/>
<path d="M507.143 6.2041H509.435V12.8398C509.435 13.582 509.523 14.124 509.699 14.4658C509.972 15.0713 510.568 15.374 511.486 15.374C512.399 15.374 512.992 15.0713 513.266 14.4658C513.441 14.124 513.529 13.582 513.529 12.8398V6.2041H515.822V12.8398C515.822 13.9873 515.644 14.8809 515.287 15.5205C514.623 16.6924 513.356 17.2783 511.486 17.2783C509.616 17.2783 508.346 16.6924 507.677 15.5205C507.321 14.8809 507.143 13.9873 507.143 12.8398V6.2041ZM519.616 13.6675C519.684 14.1606 519.818 14.5293 520.019 14.7734C520.385 15.2178 521.012 15.4399 521.901 15.4399C522.433 15.4399 522.865 15.3813 523.197 15.2642C523.827 15.0396 524.142 14.6221 524.142 14.0117C524.142 13.6553 523.986 13.3794 523.673 13.1841C523.361 12.9937 522.87 12.8252 522.201 12.6787L521.059 12.4224C519.936 12.1685 519.159 11.8926 518.729 11.5947C518.002 11.0967 517.638 10.3179 517.638 9.2583C517.638 8.2915 517.99 7.48828 518.693 6.84863C519.396 6.20898 520.429 5.88916 521.791 5.88916C522.929 5.88916 523.898 6.19189 524.699 6.79736C525.504 7.39795 525.927 8.27197 525.966 9.41943H523.798C523.759 8.77002 523.476 8.30859 522.948 8.03516C522.597 7.85449 522.16 7.76416 521.637 7.76416C521.056 7.76416 520.592 7.88135 520.246 8.11572C519.899 8.3501 519.726 8.67725 519.726 9.09717C519.726 9.48291 519.896 9.771 520.238 9.96143C520.458 10.0884 520.927 10.2373 521.645 10.4082L523.505 10.855C524.32 11.0503 524.936 11.3115 525.351 11.6387C525.995 12.1465 526.317 12.8813 526.317 13.8433C526.317 14.8296 525.939 15.6499 525.182 16.3042C524.43 16.9536 523.366 17.2783 521.989 17.2783C520.583 17.2783 519.477 16.9585 518.671 16.3188C517.865 15.6743 517.462 14.7905 517.462 13.6675H519.616Z" fill="black"/>
<path d="M487.6 0V679.2" stroke="black"/>
<path d="M487 33.8999H1.5V161.6H487V33.8999Z" fill="#D11F5F"/>
<path d="M14.962 54H16.522V44.12H14.962V54ZM19.0515 48.475H19.8445L20.1435 45.992V44.237H18.7525V45.992L19.0515 48.475ZM30.7871 46.967C29.8771 46.967 28.9411 47.279 28.2131 48.345C27.8491 47.422 27.0951 46.967 26.0291 46.967C25.0931 46.967 24.2611 47.305 23.7151 48.202V47.175H22.1811V54H23.7151V50.412C23.7151 49.06 24.4821 48.241 25.5611 48.241C26.2631 48.241 26.9391 48.605 26.9391 50.152V54H28.4731V50.412C28.4731 49.06 29.2401 48.241 30.3191 48.241C31.0211 48.241 31.6971 48.605 31.6971 50.152V54H33.2311V49.866C33.2311 47.916 32.3341 46.967 30.7871 46.967ZM40.2172 54.143C41.2572 54.143 42.0892 53.753 42.5312 53.051H42.5572V54H44.0262V53.142V52.323V49.931C44.0262 47.682 42.9212 46.98 41.1662 46.98C38.8652 46.98 38.2672 48.176 38.2412 49.203H39.7232C39.7492 48.748 40.0742 48.202 41.1402 48.202C42.1282 48.202 42.4792 48.709 42.4792 49.476V49.84H42.1022C40.1912 49.84 39.2552 50.1 38.6702 50.529C38.1502 50.919 37.8902 51.452 37.8902 52.089C37.8902 53.09 38.5142 54.143 40.2172 54.143ZM40.6852 52.999C39.8792 52.999 39.4242 52.648 39.4242 52.05C39.4242 51.049 40.6462 50.802 42.1282 50.802H42.4922V51.751C42.4922 52.206 41.9072 52.999 40.6852 52.999ZM45.9818 54H47.5158V48.514H48.8938V47.175H47.5158V46.122C47.5158 45.511 47.8148 45.199 48.5688 45.199C48.8288 45.199 48.9068 45.225 48.9718 45.238V43.99C48.8938 43.977 48.5948 43.912 48.0618 43.912C46.5018 43.912 45.9818 44.835 45.9818 46.226V47.175H45.1108V48.514H45.9818V54ZM49.8822 54H51.4162V50.906C51.4162 49.489 52.2742 48.579 53.5742 48.579H53.8212V47.006C53.3012 47.006 52.9242 47.058 52.5472 47.227C52.0402 47.461 51.6242 47.929 51.3512 48.462V47.175H49.8822V54ZM56.6704 54.143C57.7104 54.143 58.5424 53.753 58.9844 53.051H59.0104V54H60.4794V53.142V52.323V49.931C60.4794 47.682 59.3744 46.98 57.6194 46.98C55.3184 46.98 54.7204 48.176 54.6944 49.203H56.1764C56.2024 48.748 56.5274 48.202 57.5934 48.202C58.5814 48.202 58.9324 48.709 58.9324 49.476V49.84H58.5554C56.6444 49.84 55.7084 50.1 55.1234 50.529C54.6034 50.919 54.3434 51.452 54.3434 52.089C54.3434 53.09 54.9674 54.143 56.6704 54.143ZM57.1384 52.999C56.3324 52.999 55.8774 52.648 55.8774 52.05C55.8774 51.049 57.0994 50.802 58.5814 50.802H58.9454V51.751C58.9454 52.206 58.3604 52.999 57.1384 52.999ZM61.7016 45.667H63.3396V44.12H61.7016V45.667ZM61.7536 54H63.2876V47.175H61.7536V54ZM69.537 44.12V48.059C69.03 47.396 68.211 46.967 67.405 46.967C65.559 46.967 64.337 48.41 64.337 50.568C64.337 52.752 65.546 54.208 67.366 54.208C68.211 54.208 69.121 53.792 69.576 53.168V54H71.071V44.12H69.537ZM69.537 50.854C69.537 52.102 68.809 52.934 67.717 52.934C66.599 52.934 65.858 51.985 65.858 50.555C65.858 49.164 66.586 48.241 67.691 48.241C68.809 48.241 69.537 49.021 69.537 50.191V50.854ZM78.9487 54.208C80.9897 54.208 82.3027 52.648 82.3027 50.581C82.3027 48.475 80.9897 46.967 78.9487 46.967C76.8947 46.967 75.5687 48.475 75.5687 50.581C75.5687 52.648 76.8947 54.208 78.9487 54.208ZM78.9357 52.934C77.7787 52.934 77.0897 52.037 77.0897 50.581C77.0897 49.138 77.7787 48.241 78.9357 48.241C80.0927 48.241 80.7817 49.138 80.7817 50.581C80.7817 52.037 80.0927 52.934 78.9357 52.934ZM83.7758 54H85.3098V48.514H86.6878V47.175H85.3098V46.122C85.3098 45.511 85.6088 45.199 86.3628 45.199C86.6228 45.199 86.7008 45.225 86.7658 45.238V43.99C86.6878 43.977 86.3888 43.912 85.8558 43.912C84.2958 43.912 83.7758 44.835 83.7758 46.226V47.175H82.9048V48.514H83.7758V54ZM91.0658 54H92.5998V50.412C92.5998 49.06 93.4058 48.241 94.3808 48.241C95.2908 48.241 95.8238 48.93 95.8238 50.256V54H97.3578V49.762C97.3578 48.098 96.4218 46.967 94.8618 46.967C94.0558 46.967 93.1458 47.279 92.5998 48.202V47.175H91.0658V54ZM101.874 54.208C103.798 54.208 104.877 52.934 105.007 51.907H103.486C103.343 52.388 102.771 52.934 101.9 52.934C100.847 52.934 100.236 52.206 100.132 51.062L104.994 51.049V50.087C104.994 48.163 103.642 46.967 101.822 46.967C99.7943 46.967 98.5853 48.462 98.5853 50.568C98.5853 52.648 99.7423 54.208 101.874 54.208ZM100.145 49.983C100.145 48.8 100.899 48.241 101.835 48.241C102.745 48.241 103.486 48.8 103.486 49.983H100.145ZM109.161 54.208C111.085 54.208 112.164 52.934 112.294 51.907H110.773C110.63 52.388 110.058 52.934 109.187 52.934C108.134 52.934 107.523 52.206 107.419 51.062L112.281 51.049V50.087C112.281 48.163 110.929 46.967 109.109 46.967C107.081 46.967 105.872 48.462 105.872 50.568C105.872 52.648 107.029 54.208 109.161 54.208ZM107.432 49.983C107.432 48.8 108.186 48.241 109.122 48.241C110.032 48.241 110.773 48.8 110.773 49.983H107.432ZM118.516 44.12V48.059C118.009 47.396 117.19 46.967 116.384 46.967C114.538 46.967 113.316 48.41 113.316 50.568C113.316 52.752 114.525 54.208 116.345 54.208C117.19 54.208 118.1 53.792 118.555 53.168V54H120.05V44.12H118.516ZM118.516 50.854C118.516 52.102 117.788 52.934 116.696 52.934C115.578 52.934 114.837 51.985 114.837 50.555C114.837 49.164 115.565 48.241 116.67 48.241C117.788 48.241 118.516 49.021 118.516 50.191V50.854ZM121.535 54H123.069V44.12H121.535V54ZM127.455 54.208C129.379 54.208 130.458 52.934 130.588 51.907H129.067C128.924 52.388 128.352 52.934 127.481 52.934C126.428 52.934 125.817 52.206 125.713 51.062L130.575 51.049V50.087C130.575 48.163 129.223 46.967 127.403 46.967C125.375 46.967 124.166 48.462 124.166 50.568C124.166 52.648 125.323 54.208 127.455 54.208ZM125.726 49.983C125.726 48.8 126.48 48.241 127.416 48.241C128.326 48.241 129.067 48.8 129.067 49.983H125.726ZM134.846 54.208C136.549 54.208 137.511 53.532 137.511 52.076C137.511 50.607 136.315 50.282 135.236 50.022C133.962 49.723 133.247 49.541 133.247 48.956C133.247 48.306 133.949 48.163 134.573 48.163C135.158 48.163 135.808 48.384 135.899 49.255H137.381C137.316 47.89 136.406 46.967 134.664 46.967C133.104 46.967 131.791 47.526 131.817 48.995C131.83 50.386 133.013 50.776 134.638 51.192C135.275 51.361 136.029 51.569 136.029 52.167C136.029 52.739 135.574 52.999 134.872 52.999C133.78 52.999 133.156 52.687 132.961 51.764H131.492C131.609 53.155 132.61 54.208 134.846 54.208Z" fill="white"/>
<path d="M15.0719 72.2762H22.3519V71.0152H17.2169C18.6209 70.1702 19.4399 69.5982 20.1029 69.0392C21.5589 67.8042 22.2219 66.6862 22.2219 65.3212C22.2219 63.3842 20.8699 62.1752 18.5299 62.1752C15.9949 62.1752 14.5519 63.5792 14.5519 65.7762C14.5519 66.0752 14.5779 66.2442 14.6819 66.6342H15.9559C15.8519 66.2312 15.8259 66.0882 15.8259 65.8542C15.8259 64.3592 16.8399 63.3452 18.5559 63.3452C20.0249 63.3452 20.8829 64.0992 20.8829 65.3602C20.8829 66.2962 20.4149 67.1542 19.1799 68.2072C18.3869 68.8832 17.2819 69.6372 15.0719 71.0152V72.2762ZM27.8764 72.4712C30.7754 72.4712 31.9454 70.0532 31.9454 67.3232C31.9454 64.5932 30.7754 62.1752 27.8764 62.1752C24.9774 62.1752 23.7814 64.5932 23.7814 67.3232C23.7814 70.0532 24.9774 72.4712 27.8764 72.4712ZM27.8634 71.2752C25.9264 71.2752 25.0684 69.4812 25.0684 67.3232C25.0684 65.1652 25.9264 63.3712 27.8634 63.3712C29.8004 63.3712 30.6584 65.1652 30.6584 67.3232C30.6584 69.4812 29.8004 71.2752 27.8634 71.2752Z" fill="white"/>
<path d="M487 162.8H1.5V335.7H487V162.8Z" fill="#E7A1A0"/>
<path d="M14.962 182H16.522V172.12H14.962V182ZM20.8065 182.13C21.1705 182.13 21.4175 182.117 21.7295 182.078V180.752C21.5605 180.765 21.4305 180.765 21.2875 180.765C20.4945 180.765 20.1695 180.544 20.1695 179.686V176.514H21.6125V175.175H20.1695V173.42H18.7135V174.2C18.7135 174.98 18.5315 175.318 17.7645 175.318V176.514H18.6355V180.076C18.6355 181.415 19.1815 182.13 20.8065 182.13ZM23.6345 176.475H24.4275L24.7265 173.992V172.237H23.3355V173.992L23.6345 176.475ZM29.7801 182.208C31.4831 182.208 32.4451 181.532 32.4451 180.076C32.4451 178.607 31.2491 178.282 30.1701 178.022C28.8961 177.723 28.1811 177.541 28.1811 176.956C28.1811 176.306 28.8831 176.163 29.5071 176.163C30.0921 176.163 30.7421 176.384 30.8331 177.255H32.3151C32.2501 175.89 31.3401 174.967 29.5981 174.967C28.0381 174.967 26.7251 175.526 26.7511 176.995C26.7641 178.386 27.9471 178.776 29.5721 179.192C30.2091 179.361 30.9631 179.569 30.9631 180.167C30.9631 180.739 30.5081 180.999 29.8061 180.999C28.7141 180.999 28.0901 180.687 27.8951 179.764H26.4261C26.5431 181.155 27.5441 182.208 29.7801 182.208ZM42.0898 172.12V176.059C41.5828 175.396 40.7638 174.967 39.9578 174.967C38.1118 174.967 36.8898 176.41 36.8898 178.568C36.8898 180.752 38.0988 182.208 39.9188 182.208C40.7638 182.208 41.6738 181.792 42.1288 181.168V182H43.6238V172.12H42.0898ZM42.0898 178.854C42.0898 180.102 41.3618 180.934 40.2698 180.934C39.1518 180.934 38.4108 179.985 38.4108 178.555C38.4108 177.164 39.1388 176.241 40.2438 176.241C41.3618 176.241 42.0898 177.021 42.0898 178.191V178.854ZM45.1342 173.667H46.7722V172.12H45.1342V173.667ZM45.1862 182H46.7202V175.175H45.1862V182ZM48.724 182H50.258V176.514H51.636V175.175H50.258V174.122C50.258 173.511 50.557 173.199 51.311 173.199C51.571 173.199 51.649 173.225 51.714 173.238V171.99C51.636 171.977 51.337 171.912 50.804 171.912C49.244 171.912 48.724 172.835 48.724 174.226V175.175H47.853V176.514H48.724V182ZM53.0404 182H54.5744V176.514H55.9524V175.175H54.5744V174.122C54.5744 173.511 54.8734 173.199 55.6274 173.199C55.8874 173.199 55.9654 173.225 56.0304 173.238V171.99C55.9524 171.977 55.6534 171.912 55.1204 171.912C53.5604 171.912 53.0404 172.835 53.0404 174.226V175.175H52.1694V176.514H53.0404V182ZM56.9408 173.667H58.5788V172.12H56.9408V173.667ZM56.9928 182H58.5268V175.175H56.9928V182ZM62.7093 182.208C64.6333 182.208 65.7123 180.934 65.8423 179.621H64.3213C64.1783 180.375 63.5933 180.934 62.7223 180.934C61.5653 180.934 60.9413 180.024 60.9413 178.581C60.9413 177.138 61.5653 176.241 62.7223 176.241C63.5933 176.241 64.1653 176.696 64.3213 177.671H65.8293C65.7253 176.059 64.4773 174.967 62.6963 174.967C60.6163 174.967 59.4203 176.462 59.4203 178.581C59.4203 180.648 60.5773 182.208 62.7093 182.208ZM69.3854 182.208C70.3214 182.208 71.1534 181.87 71.6994 180.869V182H73.2334V175.175H71.6994V178.75C71.6994 180.115 70.9194 180.934 69.8534 180.934C69.1514 180.934 68.4754 180.57 68.4754 179.023V175.175H66.9414V179.309C66.9414 181.259 67.8384 182.208 69.3854 182.208ZM74.7524 182H76.2864V172.12H74.7524V182ZM80.3729 182.13C80.7369 182.13 80.9839 182.117 81.2959 182.078V180.752C81.1269 180.765 80.9969 180.765 80.8539 180.765C80.0609 180.765 79.7359 180.544 79.7359 179.686V176.514H81.1789V175.175H79.7359V173.42H78.2799V174.2C78.2799 174.98 78.0979 175.318 77.3309 175.318V176.514H78.2019V180.076C78.2019 181.415 78.7479 182.13 80.3729 182.13ZM88.4471 182.13C88.8111 182.13 89.0581 182.117 89.3701 182.078V180.752C89.2011 180.765 89.0711 180.765 88.9281 180.765C88.1351 180.765 87.8101 180.544 87.8101 179.686V176.514H89.2531V175.175H87.8101V173.42H86.3541V174.2C86.3541 174.98 86.1721 175.318 85.4051 175.318V176.514H86.2761V180.076C86.2761 181.415 86.8221 182.13 88.4471 182.13ZM93.4214 182.208C95.4624 182.208 96.7754 180.648 96.7754 178.581C96.7754 176.475 95.4624 174.967 93.4214 174.967C91.3674 174.967 90.0414 176.475 90.0414 178.581C90.0414 180.648 91.3674 182.208 93.4214 182.208ZM93.4084 180.934C92.2514 180.934 91.5624 180.037 91.5624 178.581C91.5624 177.138 92.2514 176.241 93.4084 176.241C94.5654 176.241 95.2544 177.138 95.2544 178.581C95.2544 180.037 94.5654 180.934 93.4084 180.934ZM104.327 182.208C106.368 182.208 107.681 180.648 107.681 178.581C107.681 176.475 106.368 174.967 104.327 174.967C102.273 174.967 100.947 176.475 100.947 178.581C100.947 180.648 102.273 182.208 104.327 182.208ZM104.314 180.934C103.157 180.934 102.468 180.037 102.468 178.581C102.468 177.138 103.157 176.241 104.314 176.241C105.471 176.241 106.16 177.138 106.16 178.581C106.16 180.037 105.471 180.934 104.314 180.934ZM108.839 182H110.373V178.906C110.373 177.489 111.231 176.579 112.531 176.579H112.778V175.006C112.258 175.006 111.881 175.058 111.504 175.227C110.997 175.461 110.581 175.929 110.308 176.462V175.175H108.839V182ZM118.448 175.175V176.15C117.928 175.318 117.135 174.967 116.199 174.967C114.21 174.967 113.248 176.553 113.248 178.529C113.248 180.674 114.366 182.208 116.277 182.208C117.2 182.208 117.941 181.844 118.448 181.077V181.519C118.435 183.157 118.006 183.872 116.745 183.872C115.874 183.872 115.211 183.521 115.016 182.754H113.508C113.833 184.379 114.99 185.12 116.823 185.12C118.773 185.12 119.982 184.275 119.982 181.363V175.175H118.448ZM118.448 178.854C118.448 180.193 117.681 180.934 116.602 180.934C115.406 180.934 114.704 180.011 114.704 178.555C114.704 177.125 115.393 176.241 116.576 176.241C117.642 176.241 118.448 176.969 118.448 178.191V178.854ZM123.511 182.143C124.551 182.143 125.383 181.753 125.825 181.051H125.851V182H127.32V181.142V180.323V177.931C127.32 175.682 126.215 174.98 124.46 174.98C122.159 174.98 121.561 176.176 121.535 177.203H123.017C123.043 176.748 123.368 176.202 124.434 176.202C125.422 176.202 125.773 176.709 125.773 177.476V177.84H125.396C123.485 177.84 122.549 178.1 121.964 178.529C121.444 178.919 121.184 179.452 121.184 180.089C121.184 181.09 121.808 182.143 123.511 182.143ZM123.979 180.999C123.173 180.999 122.718 180.648 122.718 180.05C122.718 179.049 123.94 178.802 125.422 178.802H125.786V179.751C125.786 180.206 125.201 180.999 123.979 180.999ZM128.542 182H130.076V178.412C130.076 177.06 130.882 176.241 131.857 176.241C132.767 176.241 133.3 176.93 133.3 178.256V182H134.834V177.762C134.834 176.098 133.898 174.967 132.338 174.967C131.532 174.967 130.622 175.279 130.076 176.202V175.175H128.542V182ZM136.439 173.667H138.077V172.12H136.439V173.667ZM136.491 182H138.025V175.175H136.491V182ZM141.03 180.726L145.359 176.449L145.346 175.175H139.379V176.449H143.617L139.301 180.726V182H145.632V180.726H141.03ZM149.685 182.208C151.609 182.208 152.688 180.934 152.818 179.907H151.297C151.154 180.388 150.582 180.934 149.711 180.934C148.658 180.934 148.047 180.206 147.943 179.062L152.805 179.049V178.087C152.805 176.163 151.453 174.967 149.633 174.967C147.605 174.967 146.396 176.462 146.396 178.568C146.396 180.648 147.553 182.208 149.685 182.208ZM147.956 177.983C147.956 176.8 148.71 176.241 149.646 176.241C150.556 176.241 151.297 176.8 151.297 177.983H147.956ZM161.129 174.967C160.31 174.967 159.452 175.396 158.945 176.059V175.175H157.45V185.12H158.984V181.168C159.439 181.792 160.31 182.208 161.155 182.208C162.975 182.208 164.184 180.752 164.184 178.568C164.184 176.41 162.962 174.967 161.129 174.967ZM160.843 180.934C159.725 180.934 158.984 180.141 158.984 178.984V178.308C158.984 177.06 159.712 176.241 160.83 176.241C161.935 176.241 162.663 177.177 162.663 178.607C162.663 179.998 161.935 180.934 160.843 180.934ZM165.295 182H166.829V172.12H165.295V182ZM170.205 182.143C171.245 182.143 172.077 181.753 172.519 181.051H172.545V182H174.014V181.142V180.323V177.931C174.014 175.682 172.909 174.98 171.154 174.98C168.853 174.98 168.255 176.176 168.229 177.203H169.711C169.737 176.748 170.062 176.202 171.128 176.202C172.116 176.202 172.467 176.709 172.467 177.476V177.84H172.09C170.179 177.84 169.243 178.1 168.658 178.529C168.138 178.919 167.878 179.452 167.878 180.089C167.878 181.09 168.502 182.143 170.205 182.143ZM170.673 180.999C169.867 180.999 169.412 180.648 169.412 180.05C169.412 179.049 170.634 178.802 172.116 178.802H172.48V179.751C172.48 180.206 171.895 180.999 170.673 180.999ZM178.148 182.208C180.072 182.208 181.151 180.934 181.281 179.621H179.76C179.617 180.375 179.032 180.934 178.161 180.934C177.004 180.934 176.38 180.024 176.38 178.581C176.38 177.138 177.004 176.241 178.161 176.241C179.032 176.241 179.604 176.696 179.76 177.671H181.268C181.164 176.059 179.916 174.967 178.135 174.967C176.055 174.967 174.859 176.462 174.859 178.581C174.859 180.648 176.016 182.208 178.148 182.208ZM185.435 182.208C187.359 182.208 188.438 180.934 188.568 179.907H187.047C186.904 180.388 186.332 180.934 185.461 180.934C184.408 180.934 183.797 180.206 183.693 179.062L188.555 179.049V178.087C188.555 176.163 187.203 174.967 185.383 174.967C183.355 174.967 182.146 176.462 182.146 178.568C182.146 180.648 183.303 182.208 185.435 182.208ZM183.706 177.983C183.706 176.8 184.46 176.241 185.396 176.241C186.306 176.241 187.047 176.8 187.047 177.983H183.706ZM195.202 182.143C196.242 182.143 197.074 181.753 197.516 181.051H197.542V182H199.011V181.142V180.323V177.931C199.011 175.682 197.906 174.98 196.151 174.98C193.85 174.98 193.252 176.176 193.226 177.203H194.708C194.734 176.748 195.059 176.202 196.125 176.202C197.113 176.202 197.464 176.709 197.464 177.476V177.84H197.087C195.176 177.84 194.24 178.1 193.655 178.529C193.135 178.919 192.875 179.452 192.875 180.089C192.875 181.09 193.499 182.143 195.202 182.143ZM195.67 180.999C194.864 180.999 194.409 180.648 194.409 180.05C194.409 179.049 195.631 178.802 197.113 178.802H197.477V179.751C197.477 180.206 196.892 180.999 195.67 180.999ZM200.233 182H201.767V178.412C201.767 177.06 202.573 176.241 203.548 176.241C204.458 176.241 204.991 176.93 204.991 178.256V182H206.525V177.762C206.525 176.098 205.589 174.967 204.029 174.967C203.223 174.967 202.313 175.279 201.767 176.202V175.175H200.233V182ZM213.108 172.12V176.059C212.601 175.396 211.782 174.967 210.976 174.967C209.13 174.967 207.908 176.41 207.908 178.568C207.908 180.752 209.117 182.208 210.937 182.208C211.782 182.208 212.692 181.792 213.147 181.168V182H214.642V172.12H213.108ZM213.108 178.854C213.108 180.102 212.38 180.934 211.288 180.934C210.17 180.934 209.429 179.985 209.429 178.555C209.429 177.164 210.157 176.241 211.262 176.241C212.38 176.241 213.108 177.021 213.108 178.191V178.854ZM222.078 182.13C222.442 182.13 222.689 182.117 223.001 182.078V180.752C222.832 180.765 222.702 180.765 222.559 180.765C221.766 180.765 221.441 180.544 221.441 179.686V176.514H222.884V175.175H221.441V173.42H219.985V174.2C219.985 174.98 219.803 175.318 219.036 175.318V176.514H219.907V180.076C219.907 181.415 220.453 182.13 222.078 182.13ZM224.202 173.667H225.84V172.12H224.202V173.667ZM224.254 182H225.788V175.175H224.254V182ZM235.981 174.967C235.071 174.967 234.135 175.279 233.407 176.345C233.043 175.422 232.289 174.967 231.223 174.967C230.287 174.967 229.455 175.305 228.909 176.202V175.175H227.375V182H228.909V178.412C228.909 177.06 229.676 176.241 230.755 176.241C231.457 176.241 232.133 176.605 232.133 178.152V182H233.667V178.412C233.667 177.06 234.434 176.241 235.513 176.241C236.215 176.241 236.891 176.605 236.891 178.152V182H238.425V177.866C238.425 175.916 237.528 174.967 235.981 174.967ZM242.932 182.208C244.856 182.208 245.935 180.934 246.065 179.907H244.544C244.401 180.388 243.829 180.934 242.958 180.934C241.905 180.934 241.294 180.206 241.19 179.062L246.052 179.049V178.087C246.052 176.163 244.7 174.967 242.88 174.967C240.852 174.967 239.643 176.462 239.643 178.568C239.643 180.648 240.8 182.208 242.932 182.208ZM241.203 177.983C241.203 176.8 241.957 176.241 242.893 176.241C243.803 176.241 244.544 176.8 244.544 177.983H241.203Z" fill="black"/>
<path d="M15.0719 201.013H22.3519V199.752H17.2169C18.6209 198.907 19.4399 198.335 20.1029 197.776C21.5589 196.541 22.2219 195.423 22.2219 194.058C22.2219 192.121 20.8699 190.912 18.5299 190.912C15.9949 190.912 14.5519 192.316 14.5519 194.513C14.5519 194.812 14.5779 194.981 14.6819 195.371H15.9559C15.8519 194.968 15.8259 194.825 15.8259 194.591C15.8259 193.096 16.8399 192.082 18.5559 192.082C20.0249 192.082 20.8829 192.836 20.8829 194.097C20.8829 195.033 20.4149 195.891 19.1799 196.944C18.3869 197.62 17.2819 198.374 15.0719 199.752V201.013ZM24.4184 201H25.8094L29.9954 192.381V191.12H23.7814V192.381H28.6434L24.4184 201Z" fill="black"/>
<path d="M487 336.8H1.5V471.3H487V336.8Z" fill="#9FC5EC"/>
<path d="M14.962 356H16.522V346.12H14.962V356ZM19.0515 350.475H19.8445L20.1435 347.992V346.237H18.7525V347.992L19.0515 350.475ZM30.7871 348.967C29.8771 348.967 28.9411 349.279 28.2131 350.345C27.8491 349.422 27.0951 348.967 26.0291 348.967C25.0931 348.967 24.2611 349.305 23.7151 350.202V349.175H22.1811V356H23.7151V352.412C23.7151 351.06 24.4821 350.241 25.5611 350.241C26.2631 350.241 26.9391 350.605 26.9391 352.152V356H28.4731V352.412C28.4731 351.06 29.2401 350.241 30.3191 350.241C31.0211 350.241 31.6971 350.605 31.6971 352.152V356H33.2311V351.866C33.2311 349.916 32.3341 348.967 30.7871 348.967ZM40.2172 356.143C41.2572 356.143 42.0892 355.753 42.5312 355.051H42.5572V356H44.0262V355.142V354.323V351.931C44.0262 349.682 42.9212 348.98 41.1662 348.98C38.8652 348.98 38.2672 350.176 38.2412 351.203H39.7232C39.7492 350.748 40.0742 350.202 41.1402 350.202C42.1282 350.202 42.4792 350.709 42.4792 351.476V351.84H42.1022C40.1912 351.84 39.2552 352.1 38.6702 352.529C38.1502 352.919 37.8902 353.452 37.8902 354.089C37.8902 355.09 38.5142 356.143 40.2172 356.143ZM40.6852 354.999C39.8792 354.999 39.4242 354.648 39.4242 354.05C39.4242 353.049 40.6462 352.802 42.1282 352.802H42.4922V353.751C42.4922 354.206 41.9072 354.999 40.6852 354.999ZM45.9818 356H47.5158V350.514H48.8938V349.175H47.5158V348.122C47.5158 347.511 47.8148 347.199 48.5688 347.199C48.8288 347.199 48.9068 347.225 48.9718 347.238V345.99C48.8938 345.977 48.5948 345.912 48.0618 345.912C46.5018 345.912 45.9818 346.835 45.9818 348.226V349.175H45.1108V350.514H45.9818V356ZM49.8822 356H51.4162V352.906C51.4162 351.489 52.2742 350.579 53.5742 350.579H53.8212V349.006C53.3012 349.006 52.9242 349.058 52.5472 349.227C52.0402 349.461 51.6242 349.929 51.3512 350.462V349.175H49.8822V356ZM56.6704 356.143C57.7104 356.143 58.5424 355.753 58.9844 355.051H59.0104V356H60.4794V355.142V354.323V351.931C60.4794 349.682 59.3744 348.98 57.6194 348.98C55.3184 348.98 54.7204 350.176 54.6944 351.203H56.1764C56.2024 350.748 56.5274 350.202 57.5934 350.202C58.5814 350.202 58.9324 350.709 58.9324 351.476V351.84H58.5554C56.6444 351.84 55.7084 352.1 55.1234 352.529C54.6034 352.919 54.3434 353.452 54.3434 354.089C54.3434 355.09 54.9674 356.143 56.6704 356.143ZM57.1384 354.999C56.3324 354.999 55.8774 354.648 55.8774 354.05C55.8774 353.049 57.0994 352.802 58.5814 352.802H58.9454V353.751C58.9454 354.206 58.3604 354.999 57.1384 354.999ZM61.7016 347.667H63.3396V346.12H61.7016V347.667ZM61.7536 356H63.2876V349.175H61.7536V356ZM69.537 346.12V350.059C69.03 349.396 68.211 348.967 67.405 348.967C65.559 348.967 64.337 350.41 64.337 352.568C64.337 354.752 65.546 356.208 67.366 356.208C68.211 356.208 69.121 355.792 69.576 355.168V356H71.071V346.12H69.537ZM69.537 352.854C69.537 354.102 68.809 354.934 67.717 354.934C66.599 354.934 65.858 353.985 65.858 352.555C65.858 351.164 66.586 350.241 67.691 350.241C68.809 350.241 69.537 351.021 69.537 352.191V352.854ZM76.1407 356H77.7007V346.12H76.1407V356ZM80.2302 350.475H81.0232L81.3222 347.992V346.237H79.9312V347.992L80.2302 350.475ZM83.3598 356H84.8938V346.12H83.3598V356ZM86.4193 356H87.9533V346.12H86.4193V356ZM93.2846 356H94.8186V350.514H96.1966V349.175H94.8186V348.122C94.8186 347.511 95.1176 347.199 95.8716 347.199C96.1316 347.199 96.2096 347.225 96.2746 347.238V345.99C96.1966 345.977 95.8976 345.912 95.3646 345.912C93.8046 345.912 93.2846 346.835 93.2846 348.226V349.175H92.4136V350.514H93.2846V356ZM99.8431 356.208C101.767 356.208 102.846 354.934 102.976 353.907H101.455C101.312 354.388 100.74 354.934 99.8691 354.934C98.8161 354.934 98.2051 354.206 98.1011 353.062L102.963 353.049V352.087C102.963 350.163 101.611 348.967 99.7911 348.967C97.7631 348.967 96.5541 350.462 96.5541 352.568C96.5541 354.648 97.7111 356.208 99.8431 356.208ZM98.1141 351.983C98.1141 350.8 98.8681 350.241 99.8041 350.241C100.714 350.241 101.455 350.8 101.455 351.983H98.1141ZM107.13 356.208C109.054 356.208 110.133 354.934 110.263 353.907H108.742C108.599 354.388 108.027 354.934 107.156 354.934C106.103 354.934 105.492 354.206 105.388 353.062L110.25 353.049V352.087C110.25 350.163 108.898 348.967 107.078 348.967C105.05 348.967 103.841 350.462 103.841 352.568C103.841 354.648 104.998 356.208 107.13 356.208ZM105.401 351.983C105.401 350.8 106.155 350.241 107.091 350.241C108.001 350.241 108.742 350.8 108.742 351.983H105.401ZM111.505 356H113.039V346.12H111.505V356ZM121.634 348.967C120.815 348.967 119.996 349.396 119.489 350.059V346.12H117.955V356H119.437V355.168C119.892 355.792 120.815 356.208 121.66 356.208C123.48 356.208 124.689 354.752 124.689 352.568C124.689 350.41 123.467 348.967 121.634 348.967ZM121.348 354.934C120.23 354.934 119.489 354.141 119.489 352.984V352.308C119.489 351.06 120.217 350.241 121.335 350.241C122.44 350.241 123.168 351.177 123.168 352.607C123.168 353.998 122.44 354.934 121.348 354.934ZM127.751 356.143C128.791 356.143 129.623 355.753 130.065 355.051H130.091V356H131.56V355.142V354.323V351.931C131.56 349.682 130.455 348.98 128.7 348.98C126.399 348.98 125.801 350.176 125.775 351.203H127.257C127.283 350.748 127.608 350.202 128.674 350.202C129.662 350.202 130.013 350.709 130.013 351.476V351.84H129.636C127.725 351.84 126.789 352.1 126.204 352.529C125.684 352.919 125.424 353.452 125.424 354.089C125.424 355.09 126.048 356.143 127.751 356.143ZM128.219 354.999C127.413 354.999 126.958 354.648 126.958 354.05C126.958 353.049 128.18 352.802 129.662 352.802H130.026V353.751C130.026 354.206 129.441 354.999 128.219 354.999ZM137.762 346.12V350.059C137.255 349.396 136.436 348.967 135.63 348.967C133.784 348.967 132.562 350.41 132.562 352.568C132.562 354.752 133.771 356.208 135.591 356.208C136.436 356.208 137.346 355.792 137.801 355.168V356H139.296V346.12H137.762ZM137.762 352.854C137.762 354.102 137.034 354.934 135.942 354.934C134.824 354.934 134.083 353.985 134.083 352.555C134.083 351.164 134.811 350.241 135.916 350.241C137.034 350.241 137.762 351.021 137.762 352.191V352.854Z" fill="black"/>
<path d="M15.0719 374.013H22.3519V372.752H17.2169C18.6209 371.907 19.4399 371.335 20.1029 370.776C21.5589 369.541 22.2219 368.423 22.2219 367.058C22.2219 365.121 20.8699 363.912 18.5299 363.912C15.9949 363.912 14.5519 365.316 14.5519 367.513C14.5519 367.812 14.5779 367.981 14.6819 368.371H15.9559C15.8519 367.968 15.8259 367.825 15.8259 367.591C15.8259 366.096 16.8399 365.082 18.5559 365.082C20.0249 365.082 20.8829 365.836 20.8829 367.097C20.8829 368.033 20.4149 368.891 19.1799 369.944C18.3869 370.62 17.2819 371.374 15.0719 372.752V374.013ZM25.3804 374H26.6414V364.12H23.4174V365.381H25.3804V374Z" fill="black"/>
<path d="M487 472.4H1.5V678.1H487V472.4Z" fill="#2D2AFF"/>
<path d="M19.538 492.208C22.515 492.208 24.374 490.076 24.374 487.06C24.374 484.044 22.515 481.912 19.538 481.912C16.548 481.912 14.676 484.044 14.676 487.06C14.676 490.076 16.548 492.208 19.538 492.208ZM19.525 490.765C17.549 490.765 16.34 489.166 16.34 487.06C16.34 484.954 17.549 483.355 19.525 483.355C21.514 483.355 22.71 484.954 22.71 487.06C22.71 489.166 21.514 490.765 19.525 490.765ZM28.3729 492.13C28.7369 492.13 28.9839 492.117 29.2959 492.078V490.752C29.1269 490.765 28.9969 490.765 28.8539 490.765C28.0609 490.765 27.7359 490.544 27.7359 489.686V486.514H29.1789V485.175H27.7359V483.42H26.2799V484.2C26.2799 484.98 26.0979 485.318 25.3309 485.318V486.514H26.2019V490.076C26.2019 491.415 26.7479 492.13 28.3729 492.13ZM30.4965 492H32.0305V488.412C32.0305 487.06 32.8365 486.241 33.8115 486.241C34.7215 486.241 35.2545 486.93 35.2545 488.256V492H36.7885V487.736C36.7885 486.059 35.8525 484.967 34.2925 484.967C33.4865 484.967 32.5765 485.279 32.0305 486.202V482.12H30.4965V492ZM41.178 492.208C43.102 492.208 44.181 490.934 44.311 489.907H42.79C42.647 490.388 42.075 490.934 41.204 490.934C40.151 490.934 39.54 490.206 39.436 489.062L44.298 489.049V488.087C44.298 486.163 42.946 484.967 41.126 484.967C39.098 484.967 37.889 486.462 37.889 488.568C37.889 490.648 39.046 492.208 41.178 492.208ZM39.449 487.983C39.449 486.8 40.203 486.241 41.139 486.241C42.049 486.241 42.79 486.8 42.79 487.983H39.449ZM45.5531 492H47.0871V488.906C47.0871 487.489 47.9451 486.579 49.2451 486.579H49.4921V485.006C48.9721 485.006 48.5951 485.058 48.2181 485.227C47.7111 485.461 47.2951 485.929 47.0221 486.462V485.175H45.5531V492Z" fill="white"/>
<path d="M18.3739 513.208C21.5589 513.208 22.4039 511.57 22.4039 509.997C22.4039 507.93 20.9609 506.812 18.6729 506.812H18.4779L21.6239 504.511V503.12H15.2279V504.381H20.1029L17.0089 506.695V507.917H17.9059C20.2329 507.917 21.1429 508.606 21.1429 510.036C21.1429 511.128 20.6099 512.051 18.4649 512.051C17.1389 512.051 16.1899 511.7 15.8779 510.829H14.5519C14.9289 512.389 16.3589 513.208 18.3739 513.208ZM24.3522 513.013H31.6322V511.752H26.4972C27.9012 510.907 28.7202 510.335 29.3832 509.776C30.8392 508.541 31.5022 507.423 31.5022 506.058C31.5022 504.121 30.1502 502.912 27.8102 502.912C25.2752 502.912 23.8322 504.316 23.8322 506.513C23.8322 506.812 23.8582 506.981 23.9622 507.371H25.2362C25.1322 506.968 25.1062 506.825 25.1062 506.591C25.1062 505.096 26.1202 504.082 27.8362 504.082C29.3052 504.082 30.1632 504.836 30.1632 506.097C30.1632 507.033 29.6952 507.891 28.4602 508.944C27.6672 509.62 26.5622 510.374 24.3522 511.752V513.013Z" fill="white"/>
<path d="M973.6 33.8999H488.1V135.6H973.6V33.8999Z" fill="#D11F5F"/>
<path d="M505.962 54H507.522V44.12H505.962V54ZM510.052 48.475H510.845L511.144 45.992V44.237H509.753V45.992L510.052 48.475ZM521.787 46.967C520.877 46.967 519.941 47.279 519.213 48.345C518.849 47.422 518.095 46.967 517.029 46.967C516.093 46.967 515.261 47.305 514.715 48.202V47.175H513.181V54H514.715V50.412C514.715 49.06 515.482 48.241 516.561 48.241C517.263 48.241 517.939 48.605 517.939 50.152V54H519.473V50.412C519.473 49.06 520.24 48.241 521.319 48.241C522.021 48.241 522.697 48.605 522.697 50.152V54H524.231V49.866C524.231 47.916 523.334 46.967 521.787 46.967ZM531.217 54.143C532.257 54.143 533.089 53.753 533.531 53.051H533.557V54H535.026V53.142V52.323V49.931C535.026 47.682 533.921 46.98 532.166 46.98C529.865 46.98 529.267 48.176 529.241 49.203H530.723C530.749 48.748 531.074 48.202 532.14 48.202C533.128 48.202 533.479 48.709 533.479 49.476V49.84H533.102C531.191 49.84 530.255 50.1 529.67 50.529C529.15 50.919 528.89 51.452 528.89 52.089C528.89 53.09 529.514 54.143 531.217 54.143ZM531.685 52.999C530.879 52.999 530.424 52.648 530.424 52.05C530.424 51.049 531.646 50.802 533.128 50.802H533.492V51.751C533.492 52.206 532.907 52.999 531.685 52.999ZM536.982 54H538.516V48.514H539.894V47.175H538.516V46.122C538.516 45.511 538.815 45.199 539.569 45.199C539.829 45.199 539.907 45.225 539.972 45.238V43.99C539.894 43.977 539.595 43.912 539.062 43.912C537.502 43.912 536.982 44.835 536.982 46.226V47.175H536.111V48.514H536.982V54ZM540.882 54H542.416V50.906C542.416 49.489 543.274 48.579 544.574 48.579H544.821V47.006C544.301 47.006 543.924 47.058 543.547 47.227C543.04 47.461 542.624 47.929 542.351 48.462V47.175H540.882V54ZM547.67 54.143C548.71 54.143 549.542 53.753 549.984 53.051H550.01V54H551.479V53.142V52.323V49.931C551.479 47.682 550.374 46.98 548.619 46.98C546.318 46.98 545.72 48.176 545.694 49.203H547.176C547.202 48.748 547.527 48.202 548.593 48.202C549.581 48.202 549.932 48.709 549.932 49.476V49.84H549.555C547.644 49.84 546.708 50.1 546.123 50.529C545.603 50.919 545.343 51.452 545.343 52.089C545.343 53.09 545.967 54.143 547.67 54.143ZM548.138 52.999C547.332 52.999 546.877 52.648 546.877 52.05C546.877 51.049 548.099 50.802 549.581 50.802H549.945V51.751C549.945 52.206 549.36 52.999 548.138 52.999ZM552.702 45.667H554.34V44.12H552.702V45.667ZM552.754 54H554.288V47.175H552.754V54ZM560.537 44.12V48.059C560.03 47.396 559.211 46.967 558.405 46.967C556.559 46.967 555.337 48.41 555.337 50.568C555.337 52.752 556.546 54.208 558.366 54.208C559.211 54.208 560.121 53.792 560.576 53.168V54H562.071V44.12H560.537ZM560.537 50.854C560.537 52.102 559.809 52.934 558.717 52.934C557.599 52.934 556.858 51.985 556.858 50.555C556.858 49.164 557.586 48.241 558.691 48.241C559.809 48.241 560.537 49.021 560.537 50.191V50.854ZM569.949 54.208C571.99 54.208 573.303 52.648 573.303 50.581C573.303 48.475 571.99 46.967 569.949 46.967C567.895 46.967 566.569 48.475 566.569 50.581C566.569 52.648 567.895 54.208 569.949 54.208ZM569.936 52.934C568.779 52.934 568.09 52.037 568.09 50.581C568.09 49.138 568.779 48.241 569.936 48.241C571.093 48.241 571.782 49.138 571.782 50.581C571.782 52.037 571.093 52.934 569.936 52.934ZM574.776 54H576.31V48.514H577.688V47.175H576.31V46.122C576.31 45.511 576.609 45.199 577.363 45.199C577.623 45.199 577.701 45.225 577.766 45.238V43.99C577.688 43.977 577.389 43.912 576.856 43.912C575.296 43.912 574.776 44.835 574.776 46.226V47.175H573.905V48.514H574.776V54ZM582.066 54H583.6V50.412C583.6 49.06 584.406 48.241 585.381 48.241C586.291 48.241 586.824 48.93 586.824 50.256V54H588.358V49.762C588.358 48.098 587.422 46.967 585.862 46.967C585.056 46.967 584.146 47.279 583.6 48.202V47.175H582.066V54ZM592.874 54.208C594.798 54.208 595.877 52.934 596.007 51.907H594.486C594.343 52.388 593.771 52.934 592.9 52.934C591.847 52.934 591.236 52.206 591.132 51.062L595.994 51.049V50.087C595.994 48.163 594.642 46.967 592.822 46.967C590.794 46.967 589.585 48.462 589.585 50.568C589.585 52.648 590.742 54.208 592.874 54.208ZM591.145 49.983C591.145 48.8 591.899 48.241 592.835 48.241C593.745 48.241 594.486 48.8 594.486 49.983H591.145ZM600.161 54.208C602.085 54.208 603.164 52.934 603.294 51.907H601.773C601.63 52.388 601.058 52.934 600.187 52.934C599.134 52.934 598.523 52.206 598.419 51.062L603.281 51.049V50.087C603.281 48.163 601.929 46.967 600.109 46.967C598.081 46.967 596.872 48.462 596.872 50.568C596.872 52.648 598.029 54.208 600.161 54.208ZM598.432 49.983C598.432 48.8 599.186 48.241 600.122 48.241C601.032 48.241 601.773 48.8 601.773 49.983H598.432ZM609.516 44.12V48.059C609.009 47.396 608.19 46.967 607.384 46.967C605.538 46.967 604.316 48.41 604.316 50.568C604.316 52.752 605.525 54.208 607.345 54.208C608.19 54.208 609.1 53.792 609.555 53.168V54H611.05V44.12H609.516ZM609.516 50.854C609.516 52.102 608.788 52.934 607.696 52.934C606.578 52.934 605.837 51.985 605.837 50.555C605.837 49.164 606.565 48.241 607.67 48.241C608.788 48.241 609.516 49.021 609.516 50.191V50.854ZM612.535 54H614.069V44.12H612.535V54ZM618.455 54.208C620.379 54.208 621.458 52.934 621.588 51.907H620.067C619.924 52.388 619.352 52.934 618.481 52.934C617.428 52.934 616.817 52.206 616.713 51.062L621.575 51.049V50.087C621.575 48.163 620.223 46.967 618.403 46.967C616.375 46.967 615.166 48.462 615.166 50.568C615.166 52.648 616.323 54.208 618.455 54.208ZM616.726 49.983C616.726 48.8 617.48 48.241 618.416 48.241C619.326 48.241 620.067 48.8 620.067 49.983H616.726ZM625.846 54.208C627.549 54.208 628.511 53.532 628.511 52.076C628.511 50.607 627.315 50.282 626.236 50.022C624.962 49.723 624.247 49.541 624.247 48.956C624.247 48.306 624.949 48.163 625.573 48.163C626.158 48.163 626.808 48.384 626.899 49.255H628.381C628.316 47.89 627.406 46.967 625.664 46.967C624.104 46.967 622.791 47.526 622.817 48.995C622.83 50.386 624.013 50.776 625.638 51.192C626.275 51.361 627.029 51.569 627.029 52.167C627.029 52.739 626.574 52.999 625.872 52.999C624.78 52.999 624.156 52.687 623.961 51.764H622.492C622.609 53.155 623.61 54.208 625.846 54.208Z" fill="white"/>
<path d="M507.314 72H508.575V62.12H505.351V63.381H507.314V72ZM514.242 72.195C516.491 72.195 517.921 70.817 517.921 68.698C517.921 66.683 516.595 65.344 514.658 65.344C513.41 65.344 512.448 65.903 511.889 66.813C512.071 64.564 513.033 63.056 514.463 63.056C515.243 63.056 515.958 63.524 516.075 64.291H517.427C517.271 62.861 516.101 61.938 514.515 61.938C512.11 61.938 510.615 64.239 510.615 67.554C510.615 70.362 511.668 72.195 514.242 72.195ZM514.32 71.038C512.929 71.038 512.006 70.128 512.006 68.763C512.006 67.385 512.942 66.501 514.32 66.501C515.698 66.501 516.634 67.398 516.634 68.763C516.634 70.141 515.685 71.038 514.32 71.038Z" fill="white"/>
<path d="M973.6 136.8H488.1V413.7H973.6V136.8Z" fill="#E7A1A0"/>
<path d="M505.962 156H507.522V146.12H505.962V156ZM511.807 156.13C512.171 156.13 512.418 156.117 512.73 156.078V154.752C512.561 154.765 512.431 154.765 512.288 154.765C511.495 154.765 511.17 154.544 511.17 153.686V150.514H512.613V149.175H511.17V147.42H509.714V148.2C509.714 148.98 509.532 149.318 508.765 149.318V150.514H509.636V154.076C509.636 155.415 510.182 156.13 511.807 156.13ZM514.635 150.475H515.428L515.727 147.992V146.237H514.336V147.992L514.635 150.475ZM520.78 156.208C522.483 156.208 523.445 155.532 523.445 154.076C523.445 152.607 522.249 152.282 521.17 152.022C519.896 151.723 519.181 151.541 519.181 150.956C519.181 150.306 519.883 150.163 520.507 150.163C521.092 150.163 521.742 150.384 521.833 151.255H523.315C523.25 149.89 522.34 148.967 520.598 148.967C519.038 148.967 517.725 149.526 517.751 150.995C517.764 152.386 518.947 152.776 520.572 153.192C521.209 153.361 521.963 153.569 521.963 154.167C521.963 154.739 521.508 154.999 520.806 154.999C519.714 154.999 519.09 154.687 518.895 153.764H517.426C517.543 155.155 518.544 156.208 520.78 156.208ZM533.09 146.12V150.059C532.583 149.396 531.764 148.967 530.958 148.967C529.112 148.967 527.89 150.41 527.89 152.568C527.89 154.752 529.099 156.208 530.919 156.208C531.764 156.208 532.674 155.792 533.129 155.168V156H534.624V146.12H533.09ZM533.09 152.854C533.09 154.102 532.362 154.934 531.27 154.934C530.152 154.934 529.411 153.985 529.411 152.555C529.411 151.164 530.139 150.241 531.244 150.241C532.362 150.241 533.09 151.021 533.09 152.191V152.854ZM536.134 147.667H537.772V146.12H536.134V147.667ZM536.186 156H537.72V149.175H536.186V156ZM539.724 156H541.258V150.514H542.636V149.175H541.258V148.122C541.258 147.511 541.557 147.199 542.311 147.199C542.571 147.199 542.649 147.225 542.714 147.238V145.99C542.636 145.977 542.337 145.912 541.804 145.912C540.244 145.912 539.724 146.835 539.724 148.226V149.175H538.853V150.514H539.724V156ZM544.04 156H545.574V150.514H546.952V149.175H545.574V148.122C545.574 147.511 545.873 147.199 546.627 147.199C546.887 147.199 546.965 147.225 547.03 147.238V145.99C546.952 145.977 546.653 145.912 546.12 145.912C544.56 145.912 544.04 146.835 544.04 148.226V149.175H543.169V150.514H544.04V156ZM547.941 147.667H549.579V146.12H547.941V147.667ZM547.993 156H549.527V149.175H547.993V156ZM553.709 156.208C555.633 156.208 556.712 154.934 556.842 153.621H555.321C555.178 154.375 554.593 154.934 553.722 154.934C552.565 154.934 551.941 154.024 551.941 152.581C551.941 151.138 552.565 150.241 553.722 150.241C554.593 150.241 555.165 150.696 555.321 151.671H556.829C556.725 150.059 555.477 148.967 553.696 148.967C551.616 148.967 550.42 150.462 550.42 152.581C550.42 154.648 551.577 156.208 553.709 156.208ZM560.385 156.208C561.321 156.208 562.153 155.87 562.699 154.869V156H564.233V149.175H562.699V152.75C562.699 154.115 561.919 154.934 560.853 154.934C560.151 154.934 559.475 154.57 559.475 153.023V149.175H557.941V153.309C557.941 155.259 558.838 156.208 560.385 156.208ZM565.752 156H567.286V146.12H565.752V156ZM571.373 156.13C571.737 156.13 571.984 156.117 572.296 156.078V154.752C572.127 154.765 571.997 154.765 571.854 154.765C571.061 154.765 570.736 154.544 570.736 153.686V150.514H572.179V149.175H570.736V147.42H569.28V148.2C569.28 148.98 569.098 149.318 568.331 149.318V150.514H569.202V154.076C569.202 155.415 569.748 156.13 571.373 156.13ZM579.447 156.13C579.811 156.13 580.058 156.117 580.37 156.078V154.752C580.201 154.765 580.071 154.765 579.928 154.765C579.135 154.765 578.81 154.544 578.81 153.686V150.514H580.253V149.175H578.81V147.42H577.354V148.2C577.354 148.98 577.172 149.318 576.405 149.318V150.514H577.276V154.076C577.276 155.415 577.822 156.13 579.447 156.13ZM584.421 156.208C586.462 156.208 587.775 154.648 587.775 152.581C587.775 150.475 586.462 148.967 584.421 148.967C582.367 148.967 581.041 150.475 581.041 152.581C581.041 154.648 582.367 156.208 584.421 156.208ZM584.408 154.934C583.251 154.934 582.562 154.037 582.562 152.581C582.562 151.138 583.251 150.241 584.408 150.241C585.565 150.241 586.254 151.138 586.254 152.581C586.254 154.037 585.565 154.934 584.408 154.934ZM595.327 156.208C597.368 156.208 598.681 154.648 598.681 152.581C598.681 150.475 597.368 148.967 595.327 148.967C593.273 148.967 591.947 150.475 591.947 152.581C591.947 154.648 593.273 156.208 595.327 156.208ZM595.314 154.934C594.157 154.934 593.468 154.037 593.468 152.581C593.468 151.138 594.157 150.241 595.314 150.241C596.471 150.241 597.16 151.138 597.16 152.581C597.16 154.037 596.471 154.934 595.314 154.934ZM599.839 156H601.373V152.906C601.373 151.489 602.231 150.579 603.531 150.579H603.778V149.006C603.258 149.006 602.881 149.058 602.504 149.227C601.997 149.461 601.581 149.929 601.308 150.462V149.175H599.839V156ZM609.448 149.175V150.15C608.928 149.318 608.135 148.967 607.199 148.967C605.21 148.967 604.248 150.553 604.248 152.529C604.248 154.674 605.366 156.208 607.277 156.208C608.2 156.208 608.941 155.844 609.448 155.077V155.519C609.435 157.157 609.006 157.872 607.745 157.872C606.874 157.872 606.211 157.521 606.016 156.754H604.508C604.833 158.379 605.99 159.12 607.823 159.12C609.773 159.12 610.982 158.275 610.982 155.363V149.175H609.448ZM609.448 152.854C609.448 154.193 608.681 154.934 607.602 154.934C606.406 154.934 605.704 154.011 605.704 152.555C605.704 151.125 606.393 150.241 607.576 150.241C608.642 150.241 609.448 150.969 609.448 152.191V152.854ZM614.511 156.143C615.551 156.143 616.383 155.753 616.825 155.051H616.851V156H618.32V155.142V154.323V151.931C618.32 149.682 617.215 148.98 615.46 148.98C613.159 148.98 612.561 150.176 612.535 151.203H614.017C614.043 150.748 614.368 150.202 615.434 150.202C616.422 150.202 616.773 150.709 616.773 151.476V151.84H616.396C614.485 151.84 613.549 152.1 612.964 152.529C612.444 152.919 612.184 153.452 612.184 154.089C612.184 155.09 612.808 156.143 614.511 156.143ZM614.979 154.999C614.173 154.999 613.718 154.648 613.718 154.05C613.718 153.049 614.94 152.802 616.422 152.802H616.786V153.751C616.786 154.206 616.201 154.999 614.979 154.999ZM619.542 156H621.076V152.412C621.076 151.06 621.882 150.241 622.857 150.241C623.767 150.241 624.3 150.93 624.3 152.256V156H625.834V151.762C625.834 150.098 624.898 148.967 623.338 148.967C622.532 148.967 621.622 149.279 621.076 150.202V149.175H619.542V156ZM627.439 147.667H629.077V146.12H627.439V147.667ZM627.491 156H629.025V149.175H627.491V156ZM632.03 154.726L636.359 150.449L636.346 149.175H630.379V150.449H634.617L630.301 154.726V156H636.632V154.726H632.03ZM640.685 156.208C642.609 156.208 643.688 154.934 643.818 153.907H642.297C642.154 154.388 641.582 154.934 640.711 154.934C639.658 154.934 639.047 154.206 638.943 153.062L643.805 153.049V152.087C643.805 150.163 642.453 148.967 640.633 148.967C638.605 148.967 637.396 150.462 637.396 152.568C637.396 154.648 638.553 156.208 640.685 156.208ZM638.956 151.983C638.956 150.8 639.71 150.241 640.646 150.241C641.556 150.241 642.297 150.8 642.297 151.983H638.956ZM652.129 148.967C651.31 148.967 650.452 149.396 649.945 150.059V149.175H648.45V159.12H649.984V155.168C650.439 155.792 651.31 156.208 652.155 156.208C653.975 156.208 655.184 154.752 655.184 152.568C655.184 150.41 653.962 148.967 652.129 148.967ZM651.843 154.934C650.725 154.934 649.984 154.141 649.984 152.984V152.308C649.984 151.06 650.712 150.241 651.83 150.241C652.935 150.241 653.663 151.177 653.663 152.607C653.663 153.998 652.935 154.934 651.843 154.934ZM656.295 156H657.829V146.12H656.295V156ZM661.205 156.143C662.245 156.143 663.077 155.753 663.519 155.051H663.545V156H665.014V155.142V154.323V151.931C665.014 149.682 663.909 148.98 662.154 148.98C659.853 148.98 659.255 150.176 659.229 151.203H660.711C660.737 150.748 661.062 150.202 662.128 150.202C663.116 150.202 663.467 150.709 663.467 151.476V151.84H663.09C661.179 151.84 660.243 152.1 659.658 152.529C659.138 152.919 658.878 153.452 658.878 154.089C658.878 155.09 659.502 156.143 661.205 156.143ZM661.673 154.999C660.867 154.999 660.412 154.648 660.412 154.05C660.412 153.049 661.634 152.802 663.116 152.802H663.48V153.751C663.48 154.206 662.895 154.999 661.673 154.999ZM669.148 156.208C671.072 156.208 672.151 154.934 672.281 153.621H670.76C670.617 154.375 670.032 154.934 669.161 154.934C668.004 154.934 667.38 154.024 667.38 152.581C667.38 151.138 668.004 150.241 669.161 150.241C670.032 150.241 670.604 150.696 670.76 151.671H672.268C672.164 150.059 670.916 148.967 669.135 148.967C667.055 148.967 665.859 150.462 665.859 152.581C665.859 154.648 667.016 156.208 669.148 156.208ZM676.435 156.208C678.359 156.208 679.438 154.934 679.568 153.907H678.047C677.904 154.388 677.332 154.934 676.461 154.934C675.408 154.934 674.797 154.206 674.693 153.062L679.555 153.049V152.087C679.555 150.163 678.203 148.967 676.383 148.967C674.355 148.967 673.146 150.462 673.146 152.568C673.146 154.648 674.303 156.208 676.435 156.208ZM674.706 151.983C674.706 150.8 675.46 150.241 676.396 150.241C677.306 150.241 678.047 150.8 678.047 151.983H674.706ZM686.202 156.143C687.242 156.143 688.074 155.753 688.516 155.051H688.542V156H690.011V155.142V154.323V151.931C690.011 149.682 688.906 148.98 687.151 148.98C684.85 148.98 684.252 150.176 684.226 151.203H685.708C685.734 150.748 686.059 150.202 687.125 150.202C688.113 150.202 688.464 150.709 688.464 151.476V151.84H688.087C686.176 151.84 685.24 152.1 684.655 152.529C684.135 152.919 683.875 153.452 683.875 154.089C683.875 155.09 684.499 156.143 686.202 156.143ZM686.67 154.999C685.864 154.999 685.409 154.648 685.409 154.05C685.409 153.049 686.631 152.802 688.113 152.802H688.477V153.751C688.477 154.206 687.892 154.999 686.67 154.999ZM691.233 156H692.767V152.412C692.767 151.06 693.573 150.241 694.548 150.241C695.458 150.241 695.991 150.93 695.991 152.256V156H697.525V151.762C697.525 150.098 696.589 148.967 695.029 148.967C694.223 148.967 693.313 149.279 692.767 150.202V149.175H691.233V156ZM704.108 146.12V150.059C703.601 149.396 702.782 148.967 701.976 148.967C700.13 148.967 698.908 150.41 698.908 152.568C698.908 154.752 700.117 156.208 701.937 156.208C702.782 156.208 703.692 155.792 704.147 155.168V156H705.642V146.12H704.108ZM704.108 152.854C704.108 154.102 703.38 154.934 702.288 154.934C701.17 154.934 700.429 153.985 700.429 152.555C700.429 151.164 701.157 150.241 702.262 150.241C703.38 150.241 704.108 151.021 704.108 152.191V152.854ZM713.078 156.13C713.442 156.13 713.689 156.117 714.001 156.078V154.752C713.832 154.765 713.702 154.765 713.559 154.765C712.766 154.765 712.441 154.544 712.441 153.686V150.514H713.884V149.175H712.441V147.42H710.985V148.2C710.985 148.98 710.803 149.318 710.036 149.318V150.514H710.907V154.076C710.907 155.415 711.453 156.13 713.078 156.13ZM715.202 147.667H716.84V146.12H715.202V147.667ZM715.254 156H716.788V149.175H715.254V156ZM726.981 148.967C726.071 148.967 725.135 149.279 724.407 150.345C724.043 149.422 723.289 148.967 722.223 148.967C721.287 148.967 720.455 149.305 719.909 150.202V149.175H718.375V156H719.909V152.412C719.909 151.06 720.676 150.241 721.755 150.241C722.457 150.241 723.133 150.605 723.133 152.152V156H724.667V152.412C724.667 151.06 725.434 150.241 726.513 150.241C727.215 150.241 727.891 150.605 727.891 152.152V156H729.425V151.866C729.425 149.916 728.528 148.967 726.981 148.967ZM733.932 156.208C735.856 156.208 736.935 154.934 737.065 153.907H735.544C735.401 154.388 734.829 154.934 733.958 154.934C732.905 154.934 732.294 154.206 732.19 153.062L737.052 153.049V152.087C737.052 150.163 735.7 148.967 733.88 148.967C731.852 148.967 730.643 150.462 730.643 152.568C730.643 154.648 731.8 156.208 733.932 156.208ZM732.203 151.983C732.203 150.8 732.957 150.241 733.893 150.241C734.803 150.241 735.544 150.8 735.544 151.983H732.203Z" fill="black"/>
<path d="M513.359 174.568H511.331V172.072H510.07V174.568H507.106L510.772 168.12H509.381L505.715 174.438V175.829H510.07V178H511.331V175.829H513.359V174.568ZM518.614 178.208C521.799 178.208 522.644 176.57 522.644 174.997C522.644 172.93 521.201 171.812 518.913 171.812H518.718L521.864 169.511V168.12H515.468V169.381H520.343L517.249 171.695V172.917H518.146C520.473 172.917 521.383 173.606 521.383 175.036C521.383 176.128 520.85 177.051 518.705 177.051C517.379 177.051 516.43 176.7 516.118 175.829H514.792C515.169 177.389 516.599 178.208 518.614 178.208Z" fill="black"/>
<path d="M973.6 414.7H488.1V535.6H973.6V414.7Z" fill="#9FC5EC"/>
<path d="M505.962 436H507.522V426.12H505.962V436ZM510.052 430.475H510.845L511.144 427.992V426.237H509.753V427.992L510.052 430.475ZM521.787 428.967C520.877 428.967 519.941 429.279 519.213 430.345C518.849 429.422 518.095 428.967 517.029 428.967C516.093 428.967 515.261 429.305 514.715 430.202V429.175H513.181V436H514.715V432.412C514.715 431.06 515.482 430.241 516.561 430.241C517.263 430.241 517.939 430.605 517.939 432.152V436H519.473V432.412C519.473 431.06 520.24 430.241 521.319 430.241C522.021 430.241 522.697 430.605 522.697 432.152V436H524.231V431.866C524.231 429.916 523.334 428.967 521.787 428.967ZM531.217 436.143C532.257 436.143 533.089 435.753 533.531 435.051H533.557V436H535.026V435.142V434.323V431.931C535.026 429.682 533.921 428.98 532.166 428.98C529.865 428.98 529.267 430.176 529.241 431.203H530.723C530.749 430.748 531.074 430.202 532.14 430.202C533.128 430.202 533.479 430.709 533.479 431.476V431.84H533.102C531.191 431.84 530.255 432.1 529.67 432.529C529.15 432.919 528.89 433.452 528.89 434.089C528.89 435.09 529.514 436.143 531.217 436.143ZM531.685 434.999C530.879 434.999 530.424 434.648 530.424 434.05C530.424 433.049 531.646 432.802 533.128 432.802H533.492V433.751C533.492 434.206 532.907 434.999 531.685 434.999ZM536.982 436H538.516V430.514H539.894V429.175H538.516V428.122C538.516 427.511 538.815 427.199 539.569 427.199C539.829 427.199 539.907 427.225 539.972 427.238V425.99C539.894 425.977 539.595 425.912 539.062 425.912C537.502 425.912 536.982 426.835 536.982 428.226V429.175H536.111V430.514H536.982V436ZM540.882 436H542.416V432.906C542.416 431.489 543.274 430.579 544.574 430.579H544.821V429.006C544.301 429.006 543.924 429.058 543.547 429.227C543.04 429.461 542.624 429.929 542.351 430.462V429.175H540.882V436ZM547.67 436.143C548.71 436.143 549.542 435.753 549.984 435.051H550.01V436H551.479V435.142V434.323V431.931C551.479 429.682 550.374 428.98 548.619 428.98C546.318 428.98 545.72 430.176 545.694 431.203H547.176C547.202 430.748 547.527 430.202 548.593 430.202C549.581 430.202 549.932 430.709 549.932 431.476V431.84H549.555C547.644 431.84 546.708 432.1 546.123 432.529C545.603 432.919 545.343 433.452 545.343 434.089C545.343 435.09 545.967 436.143 547.67 436.143ZM548.138 434.999C547.332 434.999 546.877 434.648 546.877 434.05C546.877 433.049 548.099 432.802 549.581 432.802H549.945V433.751C549.945 434.206 549.36 434.999 548.138 434.999ZM552.702 427.667H554.34V426.12H552.702V427.667ZM552.754 436H554.288V429.175H552.754V436ZM560.537 426.12V430.059C560.03 429.396 559.211 428.967 558.405 428.967C556.559 428.967 555.337 430.41 555.337 432.568C555.337 434.752 556.546 436.208 558.366 436.208C559.211 436.208 560.121 435.792 560.576 435.168V436H562.071V426.12H560.537ZM560.537 432.854C560.537 434.102 559.809 434.934 558.717 434.934C557.599 434.934 556.858 433.985 556.858 432.555C556.858 431.164 557.586 430.241 558.691 430.241C559.809 430.241 560.537 431.021 560.537 432.191V432.854ZM567.141 436H568.701V426.12H567.141V436ZM571.23 430.475H572.023L572.322 427.992V426.237H570.931V427.992L571.23 430.475ZM574.36 436H575.894V426.12H574.36V436ZM577.419 436H578.953V426.12H577.419V436ZM584.285 436H585.819V430.514H587.197V429.175H585.819V428.122C585.819 427.511 586.118 427.199 586.872 427.199C587.132 427.199 587.21 427.225 587.275 427.238V425.99C587.197 425.977 586.898 425.912 586.365 425.912C584.805 425.912 584.285 426.835 584.285 428.226V429.175H583.414V430.514H584.285V436ZM590.843 436.208C592.767 436.208 593.846 434.934 593.976 433.907H592.455C592.312 434.388 591.74 434.934 590.869 434.934C589.816 434.934 589.205 434.206 589.101 433.062L593.963 433.049V432.087C593.963 430.163 592.611 428.967 590.791 428.967C588.763 428.967 587.554 430.462 587.554 432.568C587.554 434.648 588.711 436.208 590.843 436.208ZM589.114 431.983C589.114 430.8 589.868 430.241 590.804 430.241C591.714 430.241 592.455 430.8 592.455 431.983H589.114ZM598.13 436.208C600.054 436.208 601.133 434.934 601.263 433.907H599.742C599.599 434.388 599.027 434.934 598.156 434.934C597.103 434.934 596.492 434.206 596.388 433.062L601.25 433.049V432.087C601.25 430.163 599.898 428.967 598.078 428.967C596.05 428.967 594.841 430.462 594.841 432.568C594.841 434.648 595.998 436.208 598.13 436.208ZM596.401 431.983C596.401 430.8 597.155 430.241 598.091 430.241C599.001 430.241 599.742 430.8 599.742 431.983H596.401ZM602.505 436H604.039V426.12H602.505V436ZM612.634 428.967C611.815 428.967 610.996 429.396 610.489 430.059V426.12H608.955V436H610.437V435.168C610.892 435.792 611.815 436.208 612.66 436.208C614.48 436.208 615.689 434.752 615.689 432.568C615.689 430.41 614.467 428.967 612.634 428.967ZM612.348 434.934C611.23 434.934 610.489 434.141 610.489 432.984V432.308C610.489 431.06 611.217 430.241 612.335 430.241C613.44 430.241 614.168 431.177 614.168 432.607C614.168 433.998 613.44 434.934 612.348 434.934ZM618.751 436.143C619.791 436.143 620.623 435.753 621.065 435.051H621.091V436H622.56V435.142V434.323V431.931C622.56 429.682 621.455 428.98 619.7 428.98C617.399 428.98 616.801 430.176 616.775 431.203H618.257C618.283 430.748 618.608 430.202 619.674 430.202C620.662 430.202 621.013 430.709 621.013 431.476V431.84H620.636C618.725 431.84 617.789 432.1 617.204 432.529C616.684 432.919 616.424 433.452 616.424 434.089C616.424 435.09 617.048 436.143 618.751 436.143ZM619.219 434.999C618.413 434.999 617.958 434.648 617.958 434.05C617.958 433.049 619.18 432.802 620.662 432.802H621.026V433.751C621.026 434.206 620.441 434.999 619.219 434.999ZM628.762 426.12V430.059C628.255 429.396 627.436 428.967 626.63 428.967C624.784 428.967 623.562 430.41 623.562 432.568C623.562 434.752 624.771 436.208 626.591 436.208C627.436 436.208 628.346 435.792 628.801 435.168V436H630.296V426.12H628.762ZM628.762 432.854C628.762 434.102 628.034 434.934 626.942 434.934C625.824 434.934 625.083 433.985 625.083 432.555C625.083 431.164 625.811 430.241 626.916 430.241C628.034 430.241 628.762 431.021 628.762 432.191V432.854Z" fill="black"/>
<path d="M507.314 455H508.575V445.12H505.351V446.381H507.314V455ZM514.102 455.208C516.533 455.208 518.158 453.011 518.158 449.722C518.158 446.303 516.598 444.912 514.258 444.912C512.022 444.912 510.488 446.29 510.488 448.344C510.488 450.372 511.866 451.724 513.868 451.724C515.038 451.724 516.26 451.178 516.897 450.359V450.593C516.897 452.686 515.701 454.077 514.063 454.077C512.867 454.077 512.009 453.609 511.905 452.907H510.54C510.722 454.285 512.152 455.208 514.102 455.208ZM514.232 450.554C512.698 450.554 511.684 449.683 511.684 448.37C511.684 446.992 512.698 446.082 514.232 446.082C515.779 446.082 516.806 446.992 516.806 448.37C516.806 449.683 515.779 450.554 514.232 450.554Z" fill="black"/>
<path d="M973.6 536.8H488.1V678H973.6V536.8Z" fill="#2D2AFF"/>
<path d="M510.538 557.208C513.515 557.208 515.374 555.076 515.374 552.06C515.374 549.044 513.515 546.912 510.538 546.912C507.548 546.912 505.676 549.044 505.676 552.06C505.676 555.076 507.548 557.208 510.538 557.208ZM510.525 555.765C508.549 555.765 507.34 554.166 507.34 552.06C507.34 549.954 508.549 548.355 510.525 548.355C512.514 548.355 513.71 549.954 513.71 552.06C513.71 554.166 512.514 555.765 510.525 555.765ZM519.373 557.13C519.737 557.13 519.984 557.117 520.296 557.078V555.752C520.127 555.765 519.997 555.765 519.854 555.765C519.061 555.765 518.736 555.544 518.736 554.686V551.514H520.179V550.175H518.736V548.42H517.28V549.2C517.28 549.98 517.098 550.318 516.331 550.318V551.514H517.202V555.076C517.202 556.415 517.748 557.13 519.373 557.13ZM521.496 557H523.03V553.412C523.03 552.06 523.836 551.241 524.811 551.241C525.721 551.241 526.254 551.93 526.254 553.256V557H527.788V552.736C527.788 551.059 526.852 549.967 525.292 549.967C524.486 549.967 523.576 550.279 523.03 551.202V547.12H521.496V557ZM532.178 557.208C534.102 557.208 535.181 555.934 535.311 554.907H533.79C533.647 555.388 533.075 555.934 532.204 555.934C531.151 555.934 530.54 555.206 530.436 554.062L535.298 554.049V553.087C535.298 551.163 533.946 549.967 532.126 549.967C530.098 549.967 528.889 551.462 528.889 553.568C528.889 555.648 530.046 557.208 532.178 557.208ZM530.449 552.983C530.449 551.8 531.203 551.241 532.139 551.241C533.049 551.241 533.79 551.8 533.79 552.983H530.449ZM536.553 557H538.087V553.906C538.087 552.489 538.945 551.579 540.245 551.579H540.492V550.006C539.972 550.006 539.595 550.058 539.218 550.227C538.711 550.461 538.295 550.929 538.022 551.462V550.175H536.553V557Z" fill="white"/>
<path d="M506.235 578.013H513.515V576.752H508.38C509.784 575.907 510.603 575.335 511.266 574.776C512.722 573.541 513.385 572.423 513.385 571.058C513.385 569.121 512.033 567.912 509.693 567.912C507.158 567.912 505.715 569.316 505.715 571.513C505.715 571.812 505.741 571.981 505.845 572.371H507.119C507.015 571.968 506.989 571.825 506.989 571.591C506.989 570.096 508.003 569.082 509.719 569.082C511.188 569.082 512.046 569.836 512.046 571.097C512.046 572.033 511.578 572.891 510.343 573.944C509.55 574.62 508.445 575.374 506.235 576.752V578.013ZM515.464 578.013H522.744V576.752H517.609C519.013 575.907 519.832 575.335 520.495 574.776C521.951 573.541 522.614 572.423 522.614 571.058C522.614 569.121 521.262 567.912 518.922 567.912C516.387 567.912 514.944 569.316 514.944 571.513C514.944 571.812 514.97 571.981 515.074 572.371H516.348C516.244 571.968 516.218 571.825 516.218 571.591C516.218 570.096 517.232 569.082 518.948 569.082C520.417 569.082 521.275 569.836 521.275 571.097C521.275 572.033 520.807 572.891 519.572 573.944C518.779 574.62 517.674 575.374 515.464 576.752V578.013Z" fill="white"/>
</svg>
