<svg width="348" height="348" viewBox="0 0 348 348" fill="none" xmlns="http://www.w3.org/2000/svg">
<path d="M98.851 185.432C105.871 185.432 109.516 180.518 109.516 174.74C109.516 168.935 105.871 164.048 98.851 164.048C91.831 164.048 88.186 168.935 88.186 174.74C88.186 180.518 91.831 185.432 98.851 185.432ZM98.851 181.058C95.233 181.058 93.667 177.629 93.667 174.74C93.667 171.851 95.233 168.422 98.851 168.422C102.469 168.422 104.035 171.851 104.035 174.74C104.035 177.629 102.469 181.058 98.851 181.058ZM121.421 185.432C127.469 185.432 130.304 182.759 130.304 177.197V164.48H125.228V174.767C125.228 178.628 125.066 181.058 121.421 181.058C117.776 181.058 117.614 178.628 117.614 174.767V164.48H112.565V177.197C112.565 182.543 115.292 185.432 121.421 185.432ZM149.669 169.529L149.642 164.48H132.335V169.529H138.491V185H143.54V169.529H149.669ZM161.097 185.432C167.793 185.432 171.195 181.112 171.627 176.495H166.2C165.768 178.655 164.229 181.058 161.097 181.058C157.668 181.058 156.156 178.115 156.156 174.767C156.156 171.419 157.641 168.422 161.124 168.422C164.148 168.422 165.741 170.717 166.2 172.985H171.627C171.249 168.476 167.766 164.048 161.232 164.048C154.482 164.048 150.729 168.8 150.729 174.929C150.729 180.599 153.996 185.432 161.097 185.432ZM184.624 185.432C191.644 185.432 195.289 180.518 195.289 174.74C195.289 168.935 191.644 164.048 184.624 164.048C177.604 164.048 173.959 168.935 173.959 174.74C173.959 180.518 177.604 185.432 184.624 185.432ZM184.624 181.058C181.006 181.058 179.44 177.629 179.44 174.74C179.44 171.851 181.006 168.422 184.624 168.422C188.242 168.422 189.808 171.851 189.808 174.74C189.808 177.629 188.242 181.058 184.624 181.058ZM198.285 185H203.334V174.335L207.33 185H212.001L215.97 174.335V185H221.019V164.48H215.457L209.679 179.276L203.847 164.48H198.285V185ZM229.753 179.951V176.954H239.068V172.391H229.753V169.529H239.878V164.48H224.758V185H240.337V179.951H229.753ZM251.025 185.432C255.912 185.432 258.909 183.38 258.909 179.249C258.909 174.605 255.48 173.741 253.806 173.174C251.565 172.418 250.836 172.175 250.161 171.905C248.73 171.338 248.055 170.852 248.055 169.907C248.055 168.53 249.324 168.179 250.215 168.179C251.511 168.179 252.726 168.746 252.942 170.906H258.531C258.315 166.775 255.534 164.048 250.458 164.048C246.489 164.048 242.466 165.722 242.466 170.177C242.466 173.12 244.302 174.632 246.678 175.766C247.839 176.306 249.108 176.738 250.458 177.197C251.997 177.737 253.509 178.358 253.509 179.465C253.509 180.572 252.645 181.247 251.025 181.247C248.973 181.247 247.785 180.383 247.272 178.358H241.791C242.169 182.651 245.193 185.432 251.025 185.432Z" fill="white"/>
<path fill-rule="evenodd" clip-rule="evenodd" d="M344.753 173.795L173.998 3.03997L3.24281 173.795L173.998 344.55L344.753 173.795ZM173.998 0L0.202839 173.795L173.998 347.59L347.793 173.795L173.998 0Z" fill="white"/>
<path fill-rule="evenodd" clip-rule="evenodd" d="M344.753 173.795L173.998 3.03997L3.24281 173.795L173.998 344.55L344.753 173.795ZM173.998 0L0.202839 173.795L173.998 347.59L347.793 173.795L173.998 0Z" fill="white"/>
<circle cx="173.976" cy="174.022" r="158.522" transform="rotate(90 173.976 174.022)" stroke="white" stroke-width="3"/>
</svg>
