<svg width="520" height="286" viewBox="0 0 520 286" fill="none" xmlns="http://www.w3.org/2000/svg">
<path d="M95.499 189.007C105.855 189.007 111.31 185.404 111.31 172.833C111.31 160.848 106.324 157.16 96.2235 157.16H81.8613V189.007H95.499ZM89.8309 182.219V163.949H94.604C100.315 163.949 102.787 165.206 102.787 173.126C102.787 181.088 100.272 182.219 94.604 182.219H89.8309Z" fill="white"/>
<path d="M112.109 189.007H120.888L123.104 182.806H134.867L137.083 189.007H145.862L133.077 157.16H124.937L112.109 189.007ZM125.576 175.724L128.986 166.086L132.438 175.724H125.576Z" fill="white"/>
<path d="M171.225 164.996L171.182 157.16H143.864V164.996H153.581V189.007H161.551V164.996H171.225Z" fill="white"/>
<path d="M169.21 189.007H177.989L180.206 182.806H191.968L194.184 189.007H202.963L190.178 157.16H182.038L169.21 189.007ZM182.677 175.724L186.087 166.086L189.539 175.724H182.677Z" fill="white"/>
<path d="M222.829 180.962V174.676H205.782V180.962H222.829Z" fill="white"/>
<path d="M235.662 181.171V157.16H227.777V189.007H251.217V181.171H235.662Z" fill="white"/>
<path d="M254.411 189.007H262.381V157.16H254.411V189.007Z" fill="white"/>
<path d="M291.629 164.996V157.16H268.189V189.007H276.116V176.52H290.308V169.438H276.116V164.996H291.629Z" fill="white"/>
<path d="M302.918 181.171V176.52H317.621V169.438H302.918V164.996H318.9V157.16H295.034V189.007H319.624V181.171H302.918Z" fill="white"/>
<path d="M335.858 189.049H362.025V181.171H348.259C352.095 178.867 355.121 176.897 357.294 174.886C360.15 172.288 361.599 169.69 361.599 166.254C361.599 160.806 357.891 156.49 348.899 156.49C338.926 156.49 334.92 161.728 334.92 168.391C334.92 169.354 335.005 169.857 335.218 170.863H343.742C343.572 170.025 343.358 169.48 343.358 168.391C343.358 164.158 346.342 163.278 348.515 163.278C351.115 163.278 353.203 164.536 353.203 166.631C353.203 168.433 351.584 170.234 348.643 172.497C345.617 174.844 341.228 177.61 335.858 181.171V189.049Z" fill="white"/>
<path d="M380.421 189.678C389.371 189.678 395.124 182.931 395.124 173.084C395.124 163.237 389.371 156.49 380.421 156.49C371.472 156.49 365.718 163.237 365.718 173.084C365.718 182.931 371.472 189.678 380.421 189.678ZM380.421 182.931C376.628 182.931 374.242 178.909 374.242 173.084C374.242 167.259 376.628 163.237 380.421 163.237C384.214 163.237 386.601 167.259 386.601 173.084C386.601 178.909 384.214 182.931 380.421 182.931Z" fill="white"/>
<path d="M399.743 189.049H425.91V181.171H412.145C415.98 178.867 419.006 176.897 421.18 174.886C424.035 172.288 425.484 169.69 425.484 166.254C425.484 160.806 421.776 156.49 412.784 156.49C402.811 156.49 398.805 161.728 398.805 168.391C398.805 169.354 398.89 169.857 399.104 170.863H407.627C407.457 170.025 407.244 169.48 407.244 168.391C407.244 164.158 410.227 163.278 412.4 163.278C415 163.278 417.088 164.536 417.088 166.631C417.088 168.433 415.469 170.234 412.528 172.497C409.502 174.844 405.113 177.61 399.743 181.171V189.049Z" fill="white"/>
<path d="M435.357 189.007H443.241V157.16H428.921V164.996H435.357V189.007Z" fill="white"/>
<path d="M518.747 258.75H1.25296C1.92615 116.421 117.513 1.25 260 1.25C402.487 1.25 518.074 116.421 518.747 258.75Z" stroke="white" stroke-width="2.5"/>
<path d="M502.747 284.75H17.2528C17.8844 142.346 126.397 27.25 260 27.25C393.603 27.25 502.116 142.346 502.747 284.75Z" stroke="white" stroke-width="2.5"/>
</svg>
