<svg width="755" height="420" viewBox="0 0 755 420" fill="none" xmlns="http://www.w3.org/2000/svg">
<path d="M165.868 361.134C122.143 361.134 80.2077 343.764 49.2888 312.845C18.37 281.927 1 239.992 1 196.266C1 152.54 18.37 110.605 49.2888 79.6863C80.2077 48.7675 122.143 31.3975 165.868 31.3975C209.594 31.3975 251.529 48.7675 282.448 79.6863C313.367 110.605 330.737 152.54 330.737 196.266C330.737 239.992 313.367 281.927 282.448 312.845C251.529 343.764 209.594 361.134 165.868 361.134V361.134Z" stroke="#CCCCCC"/>
<path d="M643.468 239.733C614.17 239.733 586.072 228.094 565.355 207.378C544.639 186.661 533 158.563 533 129.265C533 99.9676 544.639 71.8698 565.355 51.1531C586.072 30.4364 614.17 18.7979 643.468 18.7979C672.765 18.7979 700.863 30.4364 721.58 51.1531C742.297 71.8698 753.935 99.9676 753.935 129.265C753.935 158.563 742.297 186.661 721.58 207.378C700.863 228.094 672.765 239.733 643.468 239.733V239.733Z" stroke="#CCCCCC"/>
<path d="M438.58 396.16C412.966 396.16 388.4 385.985 370.288 367.873C352.175 349.76 342 325.195 342 299.58C342 273.966 352.175 249.4 370.288 231.288C388.4 213.175 412.966 203 438.58 203C464.195 203 488.76 213.175 506.873 231.288C524.985 249.4 535.16 273.966 535.16 299.58C535.16 325.195 524.985 349.76 506.873 367.873C488.76 385.985 464.195 396.16 438.58 396.16V396.16Z" stroke="#CCCCCC"/>
<path d="M144.833 338.164C107.2 338.164 71.1074 323.214 44.4964 296.603C17.8854 269.992 2.93555 233.9 2.93555 196.266C2.93555 158.632 17.8854 122.54 44.4964 95.9291C71.1074 69.3181 107.2 54.3682 144.833 54.3682C182.467 54.3682 218.559 69.3181 245.17 95.9291C271.781 122.54 286.731 158.632 286.731 196.266C286.731 233.9 271.781 269.992 245.17 296.603C218.559 323.214 182.467 338.164 144.833 338.164Z" fill="#E7A1A0"/>
<path d="M308.733 216.333C303.411 216.333 298.307 214.219 294.544 210.455C290.78 206.692 288.666 201.588 288.666 196.266C288.666 190.943 290.78 185.839 294.544 182.076C298.307 178.312 303.411 176.198 308.733 176.198C314.056 176.198 319.16 178.312 322.923 182.076C326.687 185.839 328.801 190.943 328.801 196.266C328.801 201.588 326.687 206.692 322.923 210.455C319.16 214.219 314.056 216.333 308.733 216.333Z" fill="#9FC5EC"/>
<path d="M593.465 187.795C577.942 187.795 563.055 181.629 552.078 170.652C541.102 159.676 534.936 144.789 534.936 129.266C534.936 113.742 541.102 98.8552 552.078 87.8788C563.055 76.9023 577.942 70.7358 593.465 70.7358C608.988 70.7358 623.876 76.9023 634.852 87.8788C645.828 98.8552 651.995 113.742 651.995 129.266C651.995 144.789 645.828 159.676 634.852 170.652C623.876 181.629 608.988 187.795 593.465 187.795Z" fill="#9FC5EC"/>
<path d="M702.965 178.3C689.96 178.3 677.488 173.134 668.293 163.938C659.097 154.743 653.931 142.27 653.931 129.266C653.931 116.261 659.097 103.789 668.293 94.5929C677.488 85.3971 689.96 80.231 702.965 80.231C715.97 80.231 728.442 85.3971 737.638 94.5929C746.834 103.789 752 116.261 752 129.266C752 142.27 746.834 154.743 737.638 163.938C728.442 173.134 715.97 178.3 702.965 178.3Z" fill="#E7A1A0"/>
<path d="M406.424 362.069C389.851 362.069 373.957 355.485 362.238 343.766C350.519 332.047 343.936 316.153 343.936 299.58C343.936 283.007 350.519 267.113 362.238 255.394C373.957 243.675 389.851 237.092 406.424 237.092C422.997 237.092 438.891 243.675 450.61 255.394C462.329 267.113 468.912 283.007 468.912 299.58C468.912 316.153 462.329 332.047 450.61 343.766C438.891 355.485 422.997 362.069 406.424 362.069Z" fill="#E7A1A0"/>
<path d="M502.036 330.769C493.765 330.769 485.832 327.483 479.983 321.634C474.134 315.785 470.848 307.852 470.848 299.58C470.848 291.308 474.134 283.376 479.983 277.527C485.832 271.678 493.765 268.392 502.036 268.392C510.308 268.392 518.241 271.678 524.09 277.527C529.939 283.376 533.225 291.308 533.225 299.58C533.225 307.852 529.939 315.785 524.09 321.634C518.241 327.483 510.308 330.769 502.036 330.769Z" fill="#9FC5EC"/>
<path d="M128.718 206.01H134.628V204.52H131.088C132.058 203.93 132.728 203.48 133.248 203.02C134.108 202.25 134.528 201.53 134.528 200.61C134.528 199.23 133.578 198.24 131.608 198.24C129.438 198.24 128.418 199.42 128.418 201.05C128.418 201.28 128.438 201.41 128.498 201.67H130.058C130.008 201.42 129.968 201.3 129.968 201.08C129.968 200.01 130.698 199.55 131.558 199.55C132.398 199.55 132.958 199.97 132.958 200.67C132.958 201.23 132.588 201.76 131.788 202.42C131.118 202.96 130.168 203.58 128.718 204.52V206.01ZM138.525 206.16C140.655 206.16 141.725 204.4 141.725 202C141.725 199.5 140.645 198.24 138.595 198.24C136.545 198.24 135.615 199.55 135.615 200.95C135.615 202.34 136.505 203.51 138.215 203.51C139.065 203.51 139.815 203.18 140.195 202.66V202.86C140.195 203.89 139.635 204.96 138.515 204.96C137.835 204.96 137.295 204.66 137.195 204.21H135.605C135.725 205.3 136.805 206.16 138.525 206.16ZM138.605 202.3C137.705 202.3 137.115 201.76 137.115 200.95C137.115 200.09 137.705 199.53 138.615 199.53C139.515 199.53 140.105 200.09 140.105 200.95C140.105 201.76 139.505 202.3 138.605 202.3ZM146.015 206.16C148.175 206.16 149.325 204.44 149.325 202.2C149.325 199.96 148.175 198.24 146.015 198.24C143.855 198.24 142.695 199.96 142.695 202.2C142.695 204.44 143.855 206.16 146.015 206.16ZM146.015 204.85C144.865 204.85 144.255 203.71 144.255 202.2C144.255 200.69 144.865 199.55 146.015 199.55C147.165 199.55 147.765 200.69 147.765 202.2C147.765 203.71 147.165 204.85 146.015 204.85ZM153.603 206.16C155.763 206.16 156.913 204.44 156.913 202.2C156.913 199.96 155.763 198.24 153.603 198.24C151.443 198.24 150.283 199.96 150.283 202.2C150.283 204.44 151.443 206.16 153.603 206.16ZM153.603 204.85C152.453 204.85 151.843 203.71 151.843 202.2C151.843 200.69 152.453 199.55 153.603 199.55C154.753 199.55 155.353 200.69 155.353 202.2C155.353 203.71 154.753 204.85 153.603 204.85ZM161.191 206.16C163.351 206.16 164.501 204.44 164.501 202.2C164.501 199.96 163.351 198.24 161.191 198.24C159.031 198.24 157.871 199.96 157.871 202.2C157.871 204.44 159.031 206.16 161.191 206.16ZM161.191 204.85C160.041 204.85 159.431 203.71 159.431 202.2C159.431 200.69 160.041 199.55 161.191 199.55C162.341 199.55 162.941 200.69 162.941 202.2C162.941 203.71 162.341 204.85 161.191 204.85Z" fill="black"/>
<path d="M131.695 27.165C132.925 27.165 133.81 26.67 134.26 25.95H134.305V27H136.45V26.055V25.035V22.35C136.45 19.755 135.16 18.885 132.97 18.885C130.24 18.885 129.49 20.235 129.445 21.585H131.575C131.605 21.105 131.905 20.535 132.94 20.535C133.87 20.535 134.215 21.03 134.215 21.84V22.245H133.735C131.785 22.245 130.675 22.515 129.985 23.01C129.37 23.46 129.07 24.075 129.07 24.825C129.07 26.04 129.835 27.165 131.695 27.165ZM132.535 25.665C131.785 25.665 131.305 25.35 131.305 24.705C131.305 23.76 132.445 23.4 133.9 23.4H134.23V24.42C134.23 24.885 133.705 25.665 132.535 25.665ZM139.796 27H142.001L144.986 19.125H142.691L141.176 23.91L140.921 24.72H140.891L140.621 23.91L139.106 19.125H136.811L139.796 27ZM145.91 17.715H148.235V15.6H145.91V17.715ZM145.955 27H148.175V19.125H145.955V27ZM153.435 27.24C155.475 27.24 156.69 26.415 156.69 24.735C156.69 23.145 155.505 22.725 154.26 22.38C152.91 22.02 151.83 21.825 151.83 21.225C151.83 20.685 152.46 20.505 153.12 20.505C153.735 20.505 154.38 20.73 154.47 21.525H156.57C156.465 19.92 155.37 18.885 153.21 18.885C151.305 18.885 149.82 19.56 149.835 21.24C149.85 22.8 151.125 23.37 152.895 23.85C153.585 24.045 154.545 24.24 154.545 24.81C154.545 25.335 154.095 25.59 153.39 25.59C152.31 25.59 151.74 25.245 151.56 24.42H149.505C149.655 26.1 150.885 27.24 153.435 27.24ZM157.892 27H160.112V23.085C160.112 21.585 160.892 20.64 161.897 20.64C162.797 20.64 163.382 21.345 163.382 22.995V27H165.602V22.2C165.602 20.145 164.537 18.885 162.707 18.885C161.717 18.885 160.742 19.26 160.112 20.31V19.125H157.892V27ZM169.502 27.165C170.732 27.165 171.617 26.67 172.067 25.95H172.112V27H174.257V26.055V25.035V22.35C174.257 19.755 172.967 18.885 170.777 18.885C168.047 18.885 167.297 20.235 167.252 21.585H169.382C169.412 21.105 169.712 20.535 170.747 20.535C171.677 20.535 172.022 21.03 172.022 21.84V22.245H171.542C169.592 22.245 168.482 22.515 167.792 23.01C167.177 23.46 166.877 24.075 166.877 24.825C166.877 26.04 167.642 27.165 169.502 27.165ZM170.342 25.665C169.592 25.665 169.112 25.35 169.112 24.705C169.112 23.76 170.252 23.4 171.707 23.4H172.037V24.42C172.037 24.885 171.512 25.665 170.342 25.665ZM178.085 25.215L182.735 20.91L182.72 19.125H175.745V20.91H180.275L175.625 25.215V27H183.065V25.215H178.085ZM184.362 17.715H186.687V15.6H184.362V17.715ZM184.407 27H186.627V19.125H184.407V27ZM191.682 27.24C194.127 27.24 195.657 25.47 195.657 23.055C195.657 20.61 194.127 18.885 191.682 18.885C189.222 18.885 187.677 20.61 187.677 23.055C187.677 25.47 189.222 27.24 191.682 27.24ZM191.667 25.485C190.587 25.485 189.852 24.615 189.852 23.055C189.852 21.51 190.587 20.64 191.667 20.64C192.747 20.64 193.482 21.51 193.482 23.055C193.482 24.615 192.747 25.485 191.667 25.485ZM196.872 27H199.092V23.085C199.092 21.585 199.872 20.64 200.877 20.64C201.777 20.64 202.362 21.345 202.362 22.995V27H204.582V22.2C204.582 20.145 203.517 18.885 201.687 18.885C200.697 18.885 199.722 19.26 199.092 20.31V19.125H196.872V27ZM208.482 27.165C209.712 27.165 210.597 26.67 211.047 25.95H211.092V27H213.237V26.055V25.035V22.35C213.237 19.755 211.947 18.885 209.757 18.885C207.027 18.885 206.277 20.235 206.232 21.585H208.362C208.392 21.105 208.692 20.535 209.727 20.535C210.657 20.535 211.002 21.03 211.002 21.84V22.245H210.522C208.572 22.245 207.462 22.515 206.772 23.01C206.157 23.46 205.857 24.075 205.857 24.825C205.857 26.04 206.622 27.165 208.482 27.165ZM209.322 25.665C208.572 25.665 208.092 25.35 208.092 24.705C208.092 23.76 209.232 23.4 210.687 23.4H211.017V24.42C211.017 24.885 210.492 25.665 209.322 25.665ZM214.713 27H216.933V15.6H214.713V27ZM221.972 27.24C224.222 27.24 225.617 25.755 225.752 24.405H223.577C223.442 24.96 222.887 25.485 222.047 25.485C221.042 25.485 220.442 24.78 220.322 23.655H225.737V22.71C225.737 20.28 224.072 18.885 221.927 18.885C219.542 18.885 218.117 20.595 218.117 23.055C218.117 25.485 219.512 27.24 221.972 27.24ZM220.337 22.29C220.337 21.21 221.042 20.64 221.972 20.64C222.857 20.64 223.547 21.225 223.547 22.29H220.337Z" fill="black"/>
<path d="M300.73 199.926C302.68 199.926 303.92 198.836 303.92 197.176C303.92 195.606 302.84 194.506 301.23 194.506C300.49 194.506 299.9 194.736 299.54 195.086L299.94 193.546H303.27V192.166H298.87L297.73 196.636H299.36C299.56 196.096 300.12 195.716 300.84 195.716C301.74 195.716 302.44 196.296 302.44 197.176C302.44 198.046 301.75 198.636 300.68 198.636C299.88 198.636 299.23 198.296 299.19 197.806H297.6C297.69 199.076 299.02 199.926 300.73 199.926ZM308.086 199.936C310.506 199.936 311.266 198.696 311.266 197.606C311.266 196.596 310.626 195.906 309.826 195.696C310.466 195.426 310.916 194.826 310.916 194.076C310.916 193.076 310.166 192.016 308.086 192.016C306.016 192.016 305.236 193.086 305.236 194.106C305.236 194.836 305.686 195.426 306.326 195.696C305.506 195.906 304.876 196.626 304.876 197.606C304.876 198.696 305.676 199.936 308.086 199.936ZM308.076 195.106C307.216 195.106 306.786 194.666 306.786 194.156C306.786 193.646 307.216 193.196 308.076 193.196C308.936 193.196 309.346 193.646 309.346 194.156C309.346 194.666 308.936 195.106 308.076 195.106ZM308.076 198.646C306.956 198.646 306.496 198.096 306.496 197.546C306.496 196.966 306.916 196.436 308.076 196.436C309.246 196.436 309.646 197.006 309.646 197.546C309.646 198.096 309.186 198.646 308.076 198.646ZM315.559 199.926C317.719 199.926 318.869 198.206 318.869 195.966C318.869 193.726 317.719 192.006 315.559 192.006C313.399 192.006 312.239 193.726 312.239 195.966C312.239 198.206 313.399 199.926 315.559 199.926ZM315.559 198.616C314.409 198.616 313.799 197.476 313.799 195.966C313.799 194.456 314.409 193.316 315.559 193.316C316.709 193.316 317.309 194.456 317.309 195.966C317.309 197.476 316.709 198.616 315.559 198.616Z" fill="black"/>
<path d="M584.567 133.1H583.267V131.44H581.797V133.1H580.027L582.637 128.4H580.957L578.337 133V134.58H581.797V136H583.267V134.58H584.567V133.1ZM588.465 136.16C590.595 136.16 591.665 134.4 591.665 132C591.665 129.5 590.585 128.24 588.535 128.24C586.485 128.24 585.555 129.55 585.555 130.95C585.555 132.34 586.445 133.51 588.155 133.51C589.005 133.51 589.755 133.18 590.135 132.66V132.86C590.135 133.89 589.575 134.96 588.455 134.96C587.775 134.96 587.235 134.66 587.135 134.21H585.545C585.665 135.3 586.745 136.16 588.465 136.16ZM588.545 132.3C587.645 132.3 587.055 131.76 587.055 130.95C587.055 130.09 587.645 129.53 588.555 129.53C589.455 129.53 590.045 130.09 590.045 130.95C590.045 131.76 589.445 132.3 588.545 132.3ZM595.804 136.16C598.134 136.16 599.054 135.01 599.044 133.62C599.044 132.15 598.034 131.28 596.484 131.28L596.404 131.27L598.544 129.98V128.4H593.114V129.78H596.834L594.544 131.19V132.34H595.604C597.034 132.34 597.564 132.82 597.564 133.6C597.564 134.32 597.074 134.87 595.824 134.87C595.014 134.87 594.394 134.63 594.224 134.04H592.634C592.884 135.4 594.004 136.16 595.804 136.16ZM606.237 133.1H604.937V131.44H603.467V133.1H601.697L604.307 128.4H602.627L600.007 133V134.58H603.467V136H604.937V134.58H606.237V133.1Z" fill="black"/>
<path d="M691.92 132.16C694.25 132.16 695.17 131.01 695.16 129.62C695.16 128.15 694.15 127.28 692.6 127.28L692.52 127.27L694.66 125.98V124.4H689.23V125.78H692.95L690.66 127.19V128.34H691.72C693.15 128.34 693.68 128.82 693.68 129.6C693.68 130.32 693.19 130.87 691.94 130.87C691.13 130.87 690.51 130.63 690.34 130.04H688.75C689 131.4 690.12 132.16 691.92 132.16ZM702.353 129.1H701.053V127.44H699.583V129.1H697.813L700.423 124.4H698.743L696.123 129V130.58H699.583V132H701.053V130.58H702.353V129.1ZM706.42 132.16C708.22 132.16 709.44 131.07 709.44 129.4C709.44 127.9 708.43 126.87 706.94 126.87C705.99 126.87 705.22 127.3 704.85 127.96C704.91 126.45 705.53 125.47 706.47 125.47C706.96 125.47 707.41 125.74 707.54 126.27H709.08C708.91 125.03 707.96 124.25 706.58 124.25C704.6 124.25 703.31 126.01 703.31 128.5C703.31 130.77 704.39 132.16 706.42 132.16ZM706.4 130.87C705.55 130.87 704.99 130.32 704.99 129.48C704.99 128.64 705.56 128.08 706.4 128.08C707.24 128.08 707.8 128.64 707.8 129.48C707.8 130.33 707.23 130.87 706.4 130.87ZM713.58 132.16C715.91 132.16 716.83 131.01 716.82 129.62C716.82 128.15 715.81 127.28 714.26 127.28L714.18 127.27L716.32 125.98V124.4H710.89V125.78H714.61L712.32 127.19V128.34H713.38C714.81 128.34 715.34 128.82 715.34 129.6C715.34 130.32 714.85 130.87 713.6 130.87C712.79 130.87 712.17 130.63 712 130.04H710.41C710.66 131.4 711.78 132.16 713.58 132.16Z" fill="black"/>
<path d="M594.816 13H597.036V9.085C597.036 7.585 597.816 6.64 598.821 6.64C599.721 6.64 600.306 7.345 600.306 8.995V13H602.526V8.2C602.526 6.145 601.461 4.885 599.631 4.885C598.641 4.885 597.666 5.26 597.036 6.31V5.125H594.816V13ZM604.844 16.6H607.079L608.564 12.46L611.354 5.125H609.059L607.529 9.985L607.289 10.75H607.259L607.004 9.985L605.474 5.125H603.179L606.164 12.985L604.844 16.6ZM616.837 4.885C615.952 4.885 615.067 5.35 614.497 6.1V1.6H612.277V13H614.437V12.1C614.947 12.79 615.937 13.24 616.822 13.24C618.877 13.24 620.257 11.56 620.257 9.04C620.257 6.55 618.892 4.885 616.837 4.885ZM616.297 11.47C615.217 11.47 614.497 10.66 614.497 9.415V8.785C614.497 7.495 615.217 6.64 616.282 6.64C617.377 6.64 618.082 7.615 618.082 9.07C618.082 10.51 617.377 11.47 616.297 11.47ZM621.447 13H623.667V1.6H621.447V13ZM628.855 13.24C631.3 13.24 632.83 11.47 632.83 9.055C632.83 6.61 631.3 4.885 628.855 4.885C626.395 4.885 624.85 6.61 624.85 9.055C624.85 11.47 626.395 13.24 628.855 13.24ZM628.84 11.485C627.76 11.485 627.025 10.615 627.025 9.055C627.025 7.51 627.76 6.64 628.84 6.64C629.92 6.64 630.655 7.51 630.655 9.055C630.655 10.615 629.92 11.485 628.84 11.485ZM637.937 13.24C640.382 13.24 641.912 11.47 641.912 9.055C641.912 6.61 640.382 4.885 637.937 4.885C635.477 4.885 633.932 6.61 633.932 9.055C633.932 11.47 635.477 13.24 637.937 13.24ZM637.922 11.485C636.842 11.485 636.107 10.615 636.107 9.055C636.107 7.51 636.842 6.64 637.922 6.64C639.002 6.64 639.737 7.51 639.737 9.055C639.737 10.615 639.002 11.485 637.922 11.485ZM648.969 1.6V6.1C648.399 5.35 647.529 4.885 646.644 4.885C644.574 4.885 643.209 6.55 643.209 9.04C643.209 11.56 644.589 13.24 646.644 13.24C647.529 13.24 648.504 12.79 649.014 12.1V13H651.189V1.6H648.969ZM648.969 9.325C648.969 10.63 648.264 11.47 647.199 11.47C646.104 11.47 645.384 10.51 645.384 9.04C645.384 7.6 646.104 6.655 647.184 6.655C648.264 6.655 648.969 7.465 648.969 8.695V9.325ZM656.2 13.24C658.45 13.24 659.845 11.755 659.98 10.03H657.805C657.67 10.915 657.07 11.485 656.245 11.485C655.18 11.485 654.52 10.6 654.52 9.055C654.52 7.51 655.18 6.64 656.245 6.64C657.07 6.64 657.655 7.135 657.79 8.125H659.965C659.83 6.205 658.33 4.885 656.2 4.885C653.755 4.885 652.345 6.595 652.345 9.055C652.345 11.47 653.74 13.24 656.2 13.24ZM664.77 13.24C667.02 13.24 668.415 11.755 668.55 10.405H666.375C666.24 10.96 665.685 11.485 664.845 11.485C663.84 11.485 663.24 10.78 663.12 9.655H668.535V8.71C668.535 6.28 666.87 4.885 664.725 4.885C662.34 4.885 660.915 6.595 660.915 9.055C660.915 11.485 662.31 13.24 664.77 13.24ZM663.135 8.29C663.135 7.21 663.84 6.64 664.77 6.64C665.655 6.64 666.345 7.225 666.345 8.29H663.135ZM669.889 13H672.109V9.085C672.109 7.585 672.889 6.64 673.894 6.64C674.794 6.64 675.379 7.345 675.379 8.995V13H677.599V8.2C677.599 6.145 676.534 4.885 674.704 4.885C673.714 4.885 672.739 5.26 672.109 6.31V5.125H669.889V13ZM682.473 13.15C683.118 13.15 683.433 13.12 683.793 13.075V11.095H683.313C682.458 11.095 682.038 10.885 682.038 9.955V7.09H683.598V5.125H682.038V3.1H679.923V4.075C679.923 4.945 679.683 5.32 678.873 5.32V7.09H679.818V10.6C679.818 12.235 680.493 13.135 682.473 13.15ZM688.368 13.24C690.618 13.24 692.013 11.755 692.148 10.405H689.973C689.838 10.96 689.283 11.485 688.443 11.485C687.438 11.485 686.838 10.78 686.718 9.655H692.133V8.71C692.133 6.28 690.468 4.885 688.323 4.885C685.938 4.885 684.513 6.595 684.513 9.055C684.513 11.485 685.908 13.24 688.368 13.24ZM686.733 8.29C686.733 7.21 687.438 6.64 688.368 6.64C689.253 6.64 689.943 7.225 689.943 8.29H686.733ZM693.488 13H695.708V9.895C695.708 8.26 696.578 7.165 698.243 7.165H698.483V4.93C697.853 4.93 697.403 4.99 696.968 5.185C696.398 5.44 695.948 5.995 695.633 6.61V5.125H693.488V13Z" fill="black"/>
<path d="M393.94 307.977C395.89 307.977 397.13 306.887 397.13 305.227C397.13 303.657 396.05 302.557 394.44 302.557C393.7 302.557 393.11 302.787 392.75 303.137L393.15 301.597H396.48V300.217H392.08L390.94 304.687H392.57C392.77 304.147 393.33 303.767 394.05 303.767C394.95 303.767 395.65 304.347 395.65 305.227C395.65 306.097 394.96 306.687 393.89 306.687C393.09 306.687 392.44 306.347 392.4 305.857H390.81C390.9 307.127 392.23 307.977 393.94 307.977ZM401.195 307.977C402.995 307.977 404.215 306.887 404.215 305.217C404.215 303.717 403.205 302.687 401.715 302.687C400.765 302.687 399.995 303.117 399.625 303.777C399.685 302.267 400.305 301.287 401.245 301.287C401.735 301.287 402.185 301.557 402.315 302.087H403.855C403.685 300.847 402.735 300.067 401.355 300.067C399.375 300.067 398.085 301.827 398.085 304.317C398.085 306.587 399.165 307.977 401.195 307.977ZM401.175 306.687C400.325 306.687 399.765 306.137 399.765 305.297C399.765 304.457 400.335 303.897 401.175 303.897C402.015 303.897 402.575 304.457 402.575 305.297C402.575 306.147 402.005 306.687 401.175 306.687ZM405.485 307.827H411.395V306.337H407.855C408.825 305.747 409.495 305.297 410.015 304.837C410.875 304.067 411.295 303.347 411.295 302.427C411.295 301.047 410.345 300.057 408.375 300.057C406.205 300.057 405.185 301.237 405.185 302.867C405.185 303.097 405.205 303.227 405.265 303.487H406.825C406.775 303.237 406.735 303.117 406.735 302.897C406.735 301.827 407.465 301.367 408.325 301.367C409.165 301.367 409.725 301.787 409.725 302.487C409.725 303.047 409.355 303.577 408.555 304.237C407.885 304.777 406.935 305.397 405.485 306.337V307.827ZM418.583 304.917H417.283V303.257H415.813V304.917H414.043L416.653 300.217H414.973L412.353 304.817V306.397H415.813V307.817H417.283V306.397H418.583V304.917Z" fill="black"/>
<path d="M492.308 304.081H493.778V296.481H490.798V297.961H492.308V304.081ZM501.359 301.181H500.059V299.521H498.589V301.181H496.819L499.429 296.481H497.749L495.129 301.081V302.661H498.589V304.081H500.059V302.661H501.359V301.181ZM505.637 304.241C507.797 304.241 508.947 302.521 508.947 300.281C508.947 298.041 507.797 296.321 505.637 296.321C503.477 296.321 502.317 298.041 502.317 300.281C502.317 302.521 503.477 304.241 505.637 304.241ZM505.637 302.931C504.487 302.931 503.877 301.791 503.877 300.281C503.877 298.771 504.487 297.631 505.637 297.631C506.787 297.631 507.387 298.771 507.387 300.281C507.387 301.791 506.787 302.931 505.637 302.931ZM511.205 304.081H512.675V296.481H509.695V297.961H511.205V304.081Z" fill="black"/>
<path d="M393.587 414.817H395.807V408.907H397.367V406.942H395.807V406.042C395.807 405.397 396.137 404.992 397.022 404.992C397.307 404.992 397.412 405.022 397.487 405.037V403.267C397.382 403.237 397.052 403.177 396.287 403.177C394.172 403.177 393.587 404.467 393.587 406.027V406.942H392.642V408.907H393.587V414.817ZM398.453 405.532H400.778V403.417H398.453V405.532ZM398.498 414.817H400.718V406.942H398.498V414.817ZM407.723 403.417V407.917C407.153 407.167 406.283 406.702 405.398 406.702C403.328 406.702 401.963 408.367 401.963 410.857C401.963 413.377 403.343 415.057 405.398 415.057C406.283 415.057 407.258 414.607 407.768 413.917V414.817H409.943V403.417H407.723ZM407.723 411.142C407.723 412.447 407.018 413.287 405.953 413.287C404.858 413.287 404.138 412.327 404.138 410.857C404.138 409.417 404.858 408.472 405.938 408.472C407.018 408.472 407.723 409.282 407.723 410.512V411.142ZM413.564 414.982C414.794 414.982 415.679 414.487 416.129 413.767H416.174V414.817H418.319V413.872V412.852V410.167C418.319 407.572 417.029 406.702 414.839 406.702C412.109 406.702 411.359 408.052 411.314 409.402H413.444C413.474 408.922 413.774 408.352 414.809 408.352C415.739 408.352 416.084 408.847 416.084 409.657V410.062H415.604C413.654 410.062 412.544 410.332 411.854 410.827C411.239 411.277 410.939 411.892 410.939 412.642C410.939 413.857 411.704 414.982 413.564 414.982ZM414.404 413.482C413.654 413.482 413.174 413.167 413.174 412.522C413.174 411.577 414.314 411.217 415.769 411.217H416.099V412.237C416.099 412.702 415.574 413.482 414.404 413.482ZM423.307 415.057C425.347 415.057 426.562 414.232 426.562 412.552C426.562 410.962 425.377 410.542 424.132 410.197C422.782 409.837 421.702 409.642 421.702 409.042C421.702 408.502 422.332 408.322 422.992 408.322C423.607 408.322 424.252 408.547 424.342 409.342H426.442C426.337 407.737 425.242 406.702 423.082 406.702C421.177 406.702 419.692 407.377 419.707 409.057C419.722 410.617 420.997 411.187 422.767 411.667C423.457 411.862 424.417 412.057 424.417 412.627C424.417 413.152 423.967 413.407 423.262 413.407C422.182 413.407 421.612 413.062 421.432 412.237H419.377C419.527 413.917 420.757 415.057 423.307 415.057ZM427.764 414.817H429.984V410.902C429.984 409.402 430.764 408.457 431.769 408.457C432.669 408.457 433.254 409.162 433.254 410.812V414.817H435.474V410.017C435.474 407.962 434.409 406.702 432.579 406.702C431.589 406.702 430.614 407.077 429.984 408.127V406.942H427.764V414.817ZM439.374 414.982C440.604 414.982 441.489 414.487 441.939 413.767H441.984V414.817H444.129V413.872V412.852V410.167C444.129 407.572 442.839 406.702 440.649 406.702C437.919 406.702 437.169 408.052 437.124 409.402H439.254C439.284 408.922 439.584 408.352 440.619 408.352C441.549 408.352 441.894 408.847 441.894 409.657V410.062H441.414C439.464 410.062 438.354 410.332 437.664 410.827C437.049 411.277 436.749 411.892 436.749 412.642C436.749 413.857 437.514 414.982 439.374 414.982ZM440.214 413.482C439.464 413.482 438.984 413.167 438.984 412.522C438.984 411.577 440.124 411.217 441.579 411.217H441.909V412.237C441.909 412.702 441.384 413.482 440.214 413.482ZM447.957 413.032L452.607 408.727L452.592 406.942H445.617V408.727H450.147L445.497 413.032V414.817H452.937V413.032H447.957ZM454.234 405.532H456.559V403.417H454.234V405.532ZM454.279 414.817H456.499V406.942H454.279V414.817ZM461.555 415.057C464 415.057 465.53 413.287 465.53 410.872C465.53 408.427 464 406.702 461.555 406.702C459.095 406.702 457.55 408.427 457.55 410.872C457.55 413.287 459.095 415.057 461.555 415.057ZM461.54 413.302C460.46 413.302 459.725 412.432 459.725 410.872C459.725 409.327 460.46 408.457 461.54 408.457C462.62 408.457 463.355 409.327 463.355 410.872C463.355 412.432 462.62 413.302 461.54 413.302ZM466.744 414.817H468.964V410.902C468.964 409.402 469.744 408.457 470.749 408.457C471.649 408.457 472.234 409.162 472.234 410.812V414.817H474.454V410.017C474.454 407.962 473.389 406.702 471.559 406.702C470.569 406.702 469.594 407.077 468.964 408.127V406.942H466.744V414.817ZM478.354 414.982C479.584 414.982 480.469 414.487 480.919 413.767H480.964V414.817H483.109V413.872V412.852V410.167C483.109 407.572 481.819 406.702 479.629 406.702C476.899 406.702 476.149 408.052 476.104 409.402H478.234C478.264 408.922 478.564 408.352 479.599 408.352C480.529 408.352 480.874 408.847 480.874 409.657V410.062H480.394C478.444 410.062 477.334 410.332 476.644 410.827C476.029 411.277 475.729 411.892 475.729 412.642C475.729 413.857 476.494 414.982 478.354 414.982ZM479.194 413.482C478.444 413.482 477.964 413.167 477.964 412.522C477.964 411.577 479.104 411.217 480.559 411.217H480.889V412.237C480.889 412.702 480.364 413.482 479.194 413.482ZM484.585 414.817H486.805V403.417H484.585V414.817ZM491.844 415.057C494.094 415.057 495.489 413.572 495.624 412.222H493.449C493.314 412.777 492.759 413.302 491.919 413.302C490.914 413.302 490.314 412.597 490.194 411.472H495.609V410.527C495.609 408.097 493.944 406.702 491.799 406.702C489.414 406.702 487.989 408.412 487.989 410.872C487.989 413.302 489.384 415.057 491.844 415.057ZM490.209 410.107C490.209 409.027 490.914 408.457 491.844 408.457C492.729 408.457 493.419 409.042 493.419 410.107H490.209Z" fill="black"/>
</svg>
