<svg width="1070" height="602" viewBox="0 0 1070 602" fill="none" xmlns="http://www.w3.org/2000/svg">
<path d="M201.094 15.5V579" stroke="black"/>
<path d="M89 15.5V579" stroke="black"/>
<path d="M314 15.5V579" stroke="black"/>
<path d="M426.906 15.5V579" stroke="black"/>
<path d="M539.812 15.5V579" stroke="black"/>
<path d="M652.719 15.5V579" stroke="black"/>
<path d="M765.625 15.5V579" stroke="black"/>
<path d="M878.531 15.5V579" stroke="black"/>
<path d="M991.438 15.5V579" stroke="black"/>
<path d="M89 272.133C101.819 272.567 114.637 273 127.456 273C139.034 273 150.612 272.565 162.19 272.422C174.991 272.265 187.793 272.133 200.594 272.133C212.999 272.133 225.404 272.327 237.809 272.422C250.628 272.52 263.446 272.711 276.265 272.711C288.67 272.711 301.075 272.422 313.48 272.422C326.299 272.422 339.117 272.615 351.936 272.711C364.754 272.807 377.573 273 390.391 273C402.796 273 415.201 272.422 427.607 272.422C440.442 272.422 453.278 273 466.114 273C478.519 273 490.924 272.178 503.329 271.844C516.148 271.5 528.966 270.978 541.785 270.978C554.603 270.978 567.422 272.711 580.241 272.711C592.232 272.711 604.224 208.578 616.215 208.578C629.017 208.578 641.818 210.6 654.619 214.644C667.024 218.564 679.429 245.42 691.834 254.511C704.653 263.905 717.472 268.249 730.29 269.244C742.695 270.207 755.1 270.689 767.505 270.689C780.324 270.689 793.142 270.4 805.961 270.4C818.78 270.4 831.598 271.555 844.417 271.555C856.822 271.555 869.227 271.459 881.632 271.267C894.468 271.067 907.303 263.706 920.139 262.311C932.544 260.963 944.949 261.044 957.354 260.289C970.173 259.509 982.992 258.363 995.81 257.689C1008.63 257.015 1021.45 256.244 1034.27 256.244C1045.84 256.244 1057.42 260.578 1069 264.911V273C1057.42 273 1045.84 273 1034.27 273C1021.45 273 1008.63 273 995.81 273C982.992 273 970.173 273 957.354 273C944.949 273 932.544 273 920.139 273C907.303 273 894.468 273 881.632 273C869.227 273 856.822 273 844.417 273C831.598 273 818.78 273 805.961 273C793.142 273 780.324 273 767.505 273C755.1 273 742.695 273 730.29 273C717.472 273 704.653 273 691.834 273C679.429 273 667.024 273 654.619 273C641.818 273 629.017 273 616.215 273C604.224 273 592.232 273 580.241 273C567.422 273 554.603 273 541.785 273C528.966 273 516.148 273 503.329 273C490.924 273 478.519 273 466.114 273C453.278 273 440.442 273 427.607 273C415.201 273 402.796 273 390.391 273C377.573 273 364.754 273 351.936 273C339.117 273 326.299 273 313.48 273C301.075 273 288.67 273 276.265 273C263.446 273 250.628 273 237.809 273C225.404 273 212.999 273 200.594 273C187.793 273 174.991 273 162.19 273C150.612 273 139.034 273 127.456 273C114.637 273 101.819 273 89 273V272.133Z" fill="#E7A1A0"/>
<path d="M89 260C101.819 260.581 114.637 261.161 127.456 262.311C139.034 263.35 150.612 266.355 162.19 266.355C174.991 266.355 187.793 264.044 200.594 264.044C212.999 264.044 225.404 265.489 237.809 265.489C250.628 265.489 263.446 265.489 276.265 265.489C288.67 265.489 301.075 265.033 313.48 264.333C326.299 263.61 339.117 261.155 351.936 261.155C364.754 261.155 377.573 264.333 390.391 264.333C402.796 264.333 415.201 264.333 427.607 264.333C440.442 264.333 453.278 264.014 466.114 263.467C478.519 262.938 490.924 261.528 503.329 261.155C516.148 260.77 528.966 260.578 541.785 260.578C554.603 260.578 567.422 263.178 580.241 263.178C592.232 263.178 604.224 194.746 616.215 193.844C629.017 192.881 641.818 192.4 654.619 192.4C667.024 192.4 679.429 223.78 691.834 233.711C704.653 243.973 717.472 249.016 730.29 252.2C742.695 255.281 755.1 256.822 767.505 256.822C780.324 256.822 793.142 252.585 805.961 250.755C818.78 248.926 831.598 246.839 844.417 245.844C856.822 244.881 869.227 245.363 881.632 244.4C894.468 243.404 907.303 242.57 920.139 238.911C932.544 235.375 944.949 218.689 957.354 218.689C970.173 218.689 982.992 222.493 995.81 225.044C1008.63 227.596 1021.45 229.166 1034.27 234C1045.84 238.366 1057.42 244.994 1069 251.622V264.911C1057.42 260.578 1045.84 256.244 1034.27 256.244C1021.45 256.244 1008.63 257.015 995.81 257.689C982.992 258.363 970.173 259.509 957.354 260.289C944.949 261.044 932.544 260.963 920.139 262.311C907.303 263.706 894.468 271.067 881.632 271.267C869.227 271.459 856.822 271.555 844.417 271.555C831.598 271.555 818.78 270.4 805.961 270.4C793.142 270.4 780.324 270.689 767.505 270.689C755.1 270.689 742.695 270.207 730.29 269.244C717.472 268.249 704.653 263.905 691.834 254.511C679.429 245.42 667.024 218.564 654.619 214.644C641.818 210.6 629.017 208.578 616.215 208.578C604.224 208.578 592.232 272.711 580.241 272.711C567.422 272.711 554.603 270.978 541.785 270.978C528.966 270.978 516.148 271.5 503.329 271.844C490.924 272.178 478.519 273 466.114 273C453.278 273 440.442 272.422 427.607 272.422C415.201 272.422 402.796 273 390.391 273C377.573 273 364.754 272.807 351.936 272.711C339.117 272.615 326.299 272.422 313.48 272.422C301.075 272.422 288.67 272.711 276.265 272.711C263.446 272.711 250.628 272.52 237.809 272.422C225.404 272.327 212.999 272.133 200.594 272.133C187.793 272.133 174.991 272.265 162.19 272.422C150.612 272.565 139.034 273 127.456 273C114.637 273 101.819 272.567 89 272.133V260Z" fill="#D11F5F"/>
<path d="M89 260C101.819 260.581 114.637 261.161 127.456 262.311C139.034 263.35 150.612 266.356 162.19 266.356C174.991 266.356 187.793 264.044 200.594 264.044C212.999 264.044 225.404 265.489 237.809 265.489C250.628 265.489 263.446 265.489 276.265 265.489C288.67 265.489 301.075 265.033 313.48 264.333C326.299 263.61 339.117 261.156 351.936 261.156C364.754 261.156 377.573 264.333 390.391 264.333C402.796 264.333 415.201 264.333 427.607 264.333C440.442 264.333 453.278 264.014 466.114 263.467C478.519 262.938 490.924 261.528 503.329 261.156C516.148 260.77 528.966 260.578 541.785 260.578C554.603 260.578 567.422 263.178 580.241 263.178C592.232 263.178 604.224 191.894 616.215 191.533C629.017 191.148 641.818 190.956 654.619 190.956C667.024 190.956 679.429 223.295 691.834 233.422C704.653 243.887 717.472 248.528 730.29 251.911C742.695 255.185 755.1 256.822 767.505 256.822C780.324 256.822 793.142 252.585 805.961 250.756C818.78 248.926 831.598 246.84 844.417 245.844C856.822 244.882 869.227 245.363 881.632 244.4C894.468 243.404 907.303 242.474 920.139 238.622C932.544 234.9 944.949 217.533 957.354 217.533C970.173 217.533 982.992 220.278 995.81 222.444C1008.63 224.611 1021.45 225.501 1034.27 230.533C1045.84 235.079 1057.42 242.484 1069 249.889V251.622C1057.42 244.994 1045.84 238.366 1034.27 234C1021.45 229.166 1008.63 227.596 995.81 225.044C982.992 222.493 970.173 218.689 957.354 218.689C944.949 218.689 932.544 235.375 920.139 238.911C907.303 242.57 894.468 243.404 881.632 244.4C869.227 245.363 856.822 244.882 844.417 245.844C831.598 246.84 818.78 248.926 805.961 250.756C793.142 252.585 780.324 256.822 767.505 256.822C755.1 256.822 742.695 255.281 730.29 252.2C717.472 249.016 704.653 243.973 691.834 233.711C679.429 223.78 667.024 192.4 654.619 192.4C641.818 192.4 629.017 192.882 616.215 193.844C604.224 194.747 592.232 263.178 580.241 263.178C567.422 263.178 554.603 260.578 541.785 260.578C528.966 260.578 516.148 260.77 503.329 261.156C490.924 261.528 478.519 262.938 466.114 263.467C453.278 264.014 440.442 264.333 427.607 264.333C415.201 264.333 402.796 264.333 390.391 264.333C377.573 264.333 364.754 261.156 351.936 261.156C339.117 261.156 326.299 263.61 313.48 264.333C301.075 265.033 288.67 265.489 276.265 265.489C263.446 265.489 250.628 265.489 237.809 265.489C225.404 265.489 212.999 264.044 200.594 264.044C187.793 264.044 174.991 266.356 162.19 266.356C150.612 266.356 139.034 263.35 127.456 262.311C114.637 261.161 101.819 260.581 89 260Z" fill="#9FC5EC"/>
<path d="M89 260C101.819 260.581 114.637 261.161 127.456 262.311C139.034 263.35 150.612 266.356 162.19 266.356C174.991 266.356 187.793 264.044 200.594 264.044C212.999 264.044 225.404 265.489 237.809 265.489C250.628 265.489 263.446 265.489 276.265 265.489C288.67 265.489 301.075 265.033 313.48 264.333C326.299 263.61 339.117 261.156 351.936 261.156C364.754 261.156 377.573 264.333 390.391 264.333C402.796 264.333 415.201 264.333 427.607 264.333C440.442 264.333 453.278 264.014 466.114 263.467C478.519 262.938 490.924 261.528 503.329 261.156C516.148 260.77 528.966 260.578 541.785 260.578C554.603 260.578 567.422 263.178 580.241 263.178C592.232 263.178 604.224 191.894 616.215 191.533C629.017 191.148 641.818 190.956 654.619 190.956C667.024 190.956 679.429 223.295 691.834 233.422C704.653 243.887 717.472 248.528 730.29 251.911C742.695 255.185 755.1 256.822 767.505 256.822C780.324 256.822 793.142 252.585 805.961 250.756C818.78 248.926 831.598 246.84 844.417 245.844C856.822 244.882 869.227 245.363 881.632 244.4C894.468 243.404 907.303 242.474 920.139 238.622C932.544 234.9 944.949 217.533 957.354 217.533C970.173 217.533 982.992 220.278 995.81 222.444C1008.63 224.611 1021.45 225.501 1034.27 230.533C1045.84 235.079 1057.42 242.484 1069 249.889C1057.42 242.484 1045.84 235.079 1034.27 230.533C1021.45 225.501 1008.63 224.611 995.81 222.444C982.992 220.278 970.173 217.533 957.354 217.533C944.949 217.533 932.544 234.9 920.139 238.622C907.303 242.474 894.468 243.404 881.632 244.4C869.227 245.363 856.822 244.882 844.417 245.844C831.598 246.84 818.78 248.926 805.961 250.756C793.142 252.585 780.324 256.822 767.505 256.822C755.1 256.822 742.695 255.185 730.29 251.911C717.472 248.528 704.653 243.887 691.834 233.422C679.429 223.295 667.024 190.956 654.619 190.956C641.818 190.956 629.017 191.148 616.215 191.533C604.224 191.894 592.232 263.178 580.241 263.178C567.422 263.178 554.603 260.578 541.785 260.578C528.966 260.578 516.148 260.77 503.329 261.156C490.924 261.528 478.519 262.938 466.114 263.467C453.278 264.014 440.442 264.333 427.607 264.333C415.201 264.333 402.796 264.333 390.391 264.333C377.573 264.333 364.754 261.156 351.936 261.156C339.117 261.156 326.299 263.61 313.48 264.333C301.075 265.033 288.67 265.489 276.265 265.489C263.446 265.489 250.628 265.489 237.809 265.489C225.404 265.489 212.999 264.044 200.594 264.044C187.793 264.044 174.991 266.356 162.19 266.356C150.612 266.356 139.034 263.35 127.456 262.311C114.637 261.161 101.819 260.581 89 260Z" fill="#9FC5EC"/>
<path d="M89 260C101.819 260.581 114.637 261.161 127.456 262.311C139.034 263.35 150.612 266.356 162.19 266.356C174.991 266.356 187.793 264.044 200.594 264.044C212.999 264.044 225.404 265.489 237.809 265.489C250.628 265.489 263.446 265.489 276.265 265.489C288.67 265.489 301.075 265.033 313.48 264.333C326.299 263.61 339.117 261.156 351.936 261.156C364.754 261.156 377.573 264.333 390.391 264.333C402.796 264.333 415.201 264.333 427.607 264.333C440.442 264.333 453.278 264.014 466.114 263.467C478.519 262.938 490.924 261.528 503.329 261.156C516.148 260.77 528.966 260.578 541.785 260.578C554.603 260.578 567.422 263.178 580.241 263.178C592.232 263.178 604.224 191.894 616.215 191.533C629.017 191.148 641.818 190.956 654.619 190.956C667.024 190.956 679.429 223.295 691.834 233.422C704.653 243.887 717.472 248.528 730.29 251.911C742.695 255.185 755.1 256.822 767.505 256.822C780.324 256.822 793.142 252.585 805.961 250.756C818.78 248.926 831.598 246.84 844.417 245.844C856.822 244.882 869.227 245.363 881.632 244.4C894.468 243.404 907.303 242.474 920.139 238.622C932.544 234.9 944.949 217.533 957.354 217.533C970.173 217.533 982.992 220.278 995.81 222.444C1008.63 224.611 1021.45 225.501 1034.27 230.533C1045.84 235.079 1057.42 242.484 1069 249.889C1057.42 242.484 1045.84 235.079 1034.27 230.533C1021.45 225.501 1008.63 224.611 995.81 222.444C982.992 220.278 970.173 217.533 957.354 217.533C944.949 217.533 932.544 234.9 920.139 238.622C907.303 242.474 894.468 243.404 881.632 244.4C869.227 245.363 856.822 244.882 844.417 245.844C831.598 246.84 818.78 248.926 805.961 250.756C793.142 252.585 780.324 256.822 767.505 256.822C755.1 256.822 742.695 255.185 730.29 251.911C717.472 248.528 704.653 243.887 691.834 233.422C679.429 223.295 667.024 190.956 654.619 190.956C641.818 190.956 629.017 191.148 616.215 191.533C604.224 191.894 592.232 263.178 580.241 263.178C567.422 263.178 554.603 260.578 541.785 260.578C528.966 260.578 516.148 260.77 503.329 261.156C490.924 261.528 478.519 262.938 466.114 263.467C453.278 264.014 440.442 264.333 427.607 264.333C415.201 264.333 402.796 264.333 390.391 264.333C377.573 264.333 364.754 261.156 351.936 261.156C339.117 261.156 326.299 263.61 313.48 264.333C301.075 265.033 288.67 265.489 276.265 265.489C263.446 265.489 250.628 265.489 237.809 265.489C225.404 265.489 212.999 264.044 200.594 264.044C187.793 264.044 174.991 266.356 162.19 266.356C150.612 266.356 139.034 263.35 127.456 262.311C114.637 261.161 101.819 260.581 89 260Z" fill="#D11F5F"/>
<path d="M89.5 273.5H1069.5" stroke="black"/>
<path d="M89.5 273.5V13.5" stroke="black"/>
<path d="M89 273.5H83" stroke="black"/>
<path d="M76.346 275.86C78.586 275.86 79.426 273.97 79.426 271.9C79.426 269.83 78.586 267.94 76.346 267.94C74.096 267.94 73.236 269.83 73.236 271.9C73.236 273.97 74.096 275.86 76.346 275.86ZM76.326 275.03C74.756 275.03 74.086 273.6 74.086 271.9C74.086 270.2 74.756 268.77 76.326 268.77C77.906 268.77 78.576 270.2 78.576 271.9C78.576 273.6 77.906 275.03 76.326 275.03Z" fill="black"/>
<path d="M89 244.611H83" stroke="black"/>
<path d="M62.0376 239.211V240.061H63.5476V246.811H64.3976V239.211H62.0376ZM69.012 246.971C71.252 246.971 72.092 245.081 72.092 243.011C72.092 240.941 71.252 239.051 69.012 239.051C66.762 239.051 65.902 240.941 65.902 243.011C65.902 245.081 66.762 246.971 69.012 246.971ZM68.992 246.141C67.422 246.141 66.752 244.711 66.752 243.011C66.752 241.311 67.422 239.881 68.992 239.881C70.572 239.881 71.242 241.311 71.242 243.011C71.242 244.711 70.572 246.141 68.992 246.141ZM76.346 246.971C78.586 246.971 79.426 245.081 79.426 243.011C79.426 240.941 78.586 239.051 76.346 239.051C74.096 239.051 73.236 240.941 73.236 243.011C73.236 245.081 74.096 246.971 76.346 246.971ZM76.326 246.141C74.756 246.141 74.086 244.711 74.086 243.011C74.086 241.311 74.756 239.881 76.326 239.881C77.906 239.881 78.576 241.311 78.576 243.011C78.576 244.711 77.906 246.141 76.326 246.141Z" fill="black"/>
<path d="M89 215.722H83" stroke="black"/>
<path d="M59.242 217.082V217.932H64.772V217.082H60.722C61.832 216.422 62.452 215.982 62.952 215.562C64.142 214.562 64.672 213.672 64.672 212.592C64.672 211.082 63.602 210.162 61.852 210.162C59.952 210.162 58.822 211.222 58.822 212.922C58.822 213.152 58.842 213.282 58.922 213.592H59.762C59.682 213.272 59.662 213.162 59.662 212.992C59.662 211.822 60.452 210.962 61.882 210.962C63.082 210.962 63.762 211.582 63.762 212.612C63.762 213.372 63.412 214.062 62.422 214.912C61.822 215.422 61.002 215.992 59.242 217.082ZM69.012 218.082C71.252 218.082 72.092 216.192 72.092 214.122C72.092 212.052 71.252 210.162 69.012 210.162C66.762 210.162 65.902 212.052 65.902 214.122C65.902 216.192 66.762 218.082 69.012 218.082ZM68.992 217.252C67.422 217.252 66.752 215.822 66.752 214.122C66.752 212.422 67.422 210.992 68.992 210.992C70.572 210.992 71.242 212.422 71.242 214.122C71.242 215.822 70.572 217.252 68.992 217.252ZM76.346 218.082C78.586 218.082 79.426 216.192 79.426 214.122C79.426 212.052 78.586 210.162 76.346 210.162C74.096 210.162 73.236 212.052 73.236 214.122C73.236 216.192 74.096 218.082 76.346 218.082ZM76.326 217.252C74.756 217.252 74.086 215.822 74.086 214.122C74.086 212.422 74.756 210.992 76.326 210.992C77.906 210.992 78.576 212.422 78.576 214.122C78.576 215.822 77.906 217.252 76.326 217.252Z" fill="black"/>
<path d="M89 186.833H83" stroke="black"/>
<path d="M61.702 189.193C64.182 189.193 64.772 187.903 64.772 186.743C64.772 185.123 63.642 184.263 61.832 184.263H61.662L64.152 182.383V181.433H59.352V182.303H63.102L60.702 184.173V185.063H61.312C63.182 185.063 63.922 185.603 63.922 186.783C63.922 187.653 63.532 188.393 61.782 188.393C60.722 188.393 59.962 188.123 59.702 187.433H58.822C59.122 188.593 60.212 189.193 61.702 189.193ZM69.012 189.193C71.252 189.193 72.092 187.303 72.092 185.233C72.092 183.163 71.252 181.273 69.012 181.273C66.762 181.273 65.902 183.163 65.902 185.233C65.902 187.303 66.762 189.193 69.012 189.193ZM68.992 188.363C67.422 188.363 66.752 186.933 66.752 185.233C66.752 183.533 67.422 182.103 68.992 182.103C70.572 182.103 71.242 183.533 71.242 185.233C71.242 186.933 70.572 188.363 68.992 188.363ZM76.346 189.193C78.586 189.193 79.426 187.303 79.426 185.233C79.426 183.163 78.586 181.273 76.346 181.273C74.096 181.273 73.236 183.163 73.236 185.233C73.236 187.303 74.096 189.193 76.346 189.193ZM76.326 188.363C74.756 188.363 74.086 186.933 74.086 185.233C74.086 183.533 74.756 182.103 76.326 182.103C77.906 182.103 78.576 183.533 78.576 185.233C78.576 186.933 77.906 188.363 76.326 188.363Z" fill="black"/>
<path d="M89 157.944H83" stroke="black"/>
<path d="M63.1384 160.145V158.415H64.7584V157.565H63.1384V155.585H62.2884V157.565H59.8884L62.7584 152.545H61.8284L58.9684 157.465V158.415H62.2884V160.145H63.1384ZM69.012 160.305C71.252 160.305 72.092 158.415 72.092 156.345C72.092 154.275 71.252 152.385 69.012 152.385C66.762 152.385 65.902 154.275 65.902 156.345C65.902 158.415 66.762 160.305 69.012 160.305ZM68.992 159.475C67.422 159.475 66.752 158.045 66.752 156.345C66.752 154.645 67.422 153.215 68.992 153.215C70.572 153.215 71.242 154.645 71.242 156.345C71.242 158.045 70.572 159.475 68.992 159.475ZM76.346 160.305C78.586 160.305 79.426 158.415 79.426 156.345C79.426 154.275 78.586 152.385 76.346 152.385C74.096 152.385 73.236 154.275 73.236 156.345C73.236 158.415 74.096 160.305 76.346 160.305ZM76.326 159.475C74.756 159.475 74.086 158.045 74.086 156.345C74.086 154.645 74.756 153.215 76.326 153.215C77.906 153.215 78.576 154.645 78.576 156.345C78.576 158.045 77.906 159.475 76.326 159.475Z" fill="black"/>
<path d="M89 129.056H83" stroke="black"/>
<path d="M61.6703 131.416C63.5803 131.416 64.7603 130.346 64.7603 128.716C64.7603 127.116 63.6503 125.986 62.0003 125.986C61.2603 125.986 60.5403 126.216 60.2003 126.566L60.7203 124.526H64.1103V123.656H60.1203L59.0203 127.916H60.0203C60.2503 127.306 60.8903 126.816 61.8303 126.816C63.0303 126.816 63.9003 127.586 63.9003 128.736C63.9003 129.856 63.0603 130.606 61.6403 130.606C60.7003 130.606 59.8603 130.276 59.8103 129.756H58.8903C58.9803 130.736 60.1303 131.416 61.6703 131.416ZM69.012 131.416C71.252 131.416 72.092 129.526 72.092 127.456C72.092 125.386 71.252 123.496 69.012 123.496C66.762 123.496 65.902 125.386 65.902 127.456C65.902 129.526 66.762 131.416 69.012 131.416ZM68.992 130.586C67.422 130.586 66.752 129.156 66.752 127.456C66.752 125.756 67.422 124.326 68.992 124.326C70.572 124.326 71.242 125.756 71.242 127.456C71.242 129.156 70.572 130.586 68.992 130.586ZM76.346 131.416C78.586 131.416 79.426 129.526 79.426 127.456C79.426 125.386 78.586 123.496 76.346 123.496C74.096 123.496 73.236 125.386 73.236 127.456C73.236 129.526 74.096 131.416 76.346 131.416ZM76.326 130.586C74.756 130.586 74.086 129.156 74.086 127.456C74.086 125.756 74.756 124.326 76.326 124.326C77.906 124.326 78.576 125.756 78.576 127.456C78.576 129.156 77.906 130.586 76.326 130.586Z" fill="black"/>
<path d="M89 100.167H83" stroke="black"/>
<path d="M61.9812 102.517C63.6912 102.517 64.7712 101.457 64.7712 99.8367C64.7712 98.2767 63.7412 97.2467 62.2512 97.2467C61.2912 97.2467 60.5612 97.6767 60.1112 98.3867C60.2712 96.6067 61.0412 95.4067 62.1812 95.4067C62.8112 95.4067 63.3812 95.7867 63.4612 96.3867H64.3812C64.2712 95.3267 63.3812 94.6267 62.2012 94.6267C60.3812 94.6267 59.2712 96.3967 59.2712 98.9667C59.2712 101.097 60.0112 102.517 61.9812 102.517ZM62.0612 101.717C60.9412 101.717 60.1912 100.987 60.1912 99.8867C60.1912 98.7767 60.9512 98.0667 62.0612 98.0667C63.1712 98.0667 63.9312 98.7867 63.9312 99.8867C63.9312 100.997 63.1612 101.717 62.0612 101.717ZM69.012 102.527C71.252 102.527 72.092 100.637 72.092 98.5667C72.092 96.4967 71.252 94.6067 69.012 94.6067C66.762 94.6067 65.902 96.4967 65.902 98.5667C65.902 100.637 66.762 102.527 69.012 102.527ZM68.992 101.697C67.422 101.697 66.752 100.267 66.752 98.5667C66.752 96.8667 67.422 95.4367 68.992 95.4367C70.572 95.4367 71.242 96.8667 71.242 98.5667C71.242 100.267 70.572 101.697 68.992 101.697ZM76.346 102.527C78.586 102.527 79.426 100.637 79.426 98.5667C79.426 96.4967 78.586 94.6067 76.346 94.6067C74.096 94.6067 73.236 96.4967 73.236 98.5667C73.236 100.637 74.096 102.527 76.346 102.527ZM76.326 101.697C74.756 101.697 74.086 100.267 74.086 98.5667C74.086 96.8667 74.756 95.4367 76.326 95.4367C77.906 95.4367 78.576 96.8667 78.576 98.5667C78.576 100.267 77.906 101.697 76.326 101.697Z" fill="black"/>
<path d="M89 71.2778H83" stroke="black"/>
<path d="M60.5212 65.8775V66.7275H64.2912L61.0112 73.4775H61.9312L65.1912 66.7275V65.8775H60.5212ZM69.012 73.6375C71.252 73.6375 72.092 71.7475 72.092 69.6775C72.092 67.6075 71.252 65.7175 69.012 65.7175C66.762 65.7175 65.902 67.6075 65.902 69.6775C65.902 71.7475 66.762 73.6375 69.012 73.6375ZM68.992 72.8075C67.422 72.8075 66.752 71.3775 66.752 69.6775C66.752 67.9775 67.422 66.5475 68.992 66.5475C70.572 66.5475 71.242 67.9775 71.242 69.6775C71.242 71.3775 70.572 72.8075 68.992 72.8075ZM76.346 73.6375C78.586 73.6375 79.426 71.7475 79.426 69.6775C79.426 67.6075 78.586 65.7175 76.346 65.7175C74.096 65.7175 73.236 67.6075 73.236 69.6775C73.236 71.7475 74.096 73.6375 76.346 73.6375ZM76.326 72.8075C74.756 72.8075 74.086 71.3775 74.086 69.6775C74.086 67.9775 74.756 66.5475 76.326 66.5475C77.906 66.5475 78.576 67.9775 78.576 69.6775C78.576 71.3775 77.906 72.8075 76.326 72.8075Z" fill="black"/>
<path d="M89 42.3887H83" stroke="black"/>
<path d="M61.821 44.7689C64.001 44.7689 64.761 43.5089 64.761 42.4289C64.761 41.5989 64.381 40.9089 63.371 40.5289C64.201 40.0389 64.411 39.4389 64.411 38.9189C64.411 37.9589 63.681 36.8589 61.821 36.8589C60.021 36.8589 59.221 37.9689 59.221 38.9789C59.221 39.4489 59.421 40.0389 60.261 40.5289C59.241 40.9089 58.861 41.6189 58.861 42.4289C58.861 43.5089 59.661 44.7689 61.821 44.7689ZM61.811 40.1789C60.551 40.1789 60.091 39.5889 60.091 38.9389C60.091 38.2989 60.551 37.6589 61.811 37.6589C63.071 37.6589 63.501 38.2989 63.501 38.9389C63.501 39.5889 63.071 40.1789 61.811 40.1789ZM61.811 43.9789C60.181 43.9789 59.711 43.1289 59.711 42.4889C59.711 41.6989 60.221 41.0089 61.811 41.0089C63.441 41.0089 63.901 41.7889 63.901 42.4889C63.901 43.1289 63.431 43.9789 61.811 43.9789ZM69.012 44.7489C71.252 44.7489 72.092 42.8589 72.092 40.7889C72.092 38.7189 71.252 36.8289 69.012 36.8289C66.762 36.8289 65.902 38.7189 65.902 40.7889C65.902 42.8589 66.762 44.7489 69.012 44.7489ZM68.992 43.9189C67.422 43.9189 66.752 42.4889 66.752 40.7889C66.752 39.0889 67.422 37.6589 68.992 37.6589C70.572 37.6589 71.242 39.0889 71.242 40.7889C71.242 42.4889 70.572 43.9189 68.992 43.9189ZM76.346 44.7489C78.586 44.7489 79.426 42.8589 79.426 40.7889C79.426 38.7189 78.586 36.8289 76.346 36.8289C74.096 36.8289 73.236 38.7189 73.236 40.7889C73.236 42.8589 74.096 44.7489 76.346 44.7489ZM76.326 43.9189C74.756 43.9189 74.086 42.4889 74.086 40.7889C74.086 39.0889 74.756 37.6589 76.326 37.6589C77.906 37.6589 78.576 39.0889 78.576 40.7889C78.576 42.4889 77.906 43.9189 76.326 43.9189Z" fill="black"/>
<path d="M89 13.5H83" stroke="black"/>
<path d="M61.6694 15.8602C63.4794 15.8602 64.7694 14.1902 64.7694 11.6302C64.7694 8.9602 63.5394 7.9402 61.7994 7.9402C60.1594 7.9402 58.9194 8.94019 58.9194 10.5602C58.9194 12.1602 60.0194 13.1702 61.5194 13.1702C62.4294 13.1702 63.4094 12.7302 63.9294 12.0802V12.2502C63.9294 14.0002 62.9294 15.0702 61.6294 15.0702C60.6594 15.0702 59.9694 14.6902 59.8894 14.1302H58.9694C59.1194 15.1802 60.2194 15.8602 61.6694 15.8602ZM61.7694 12.3502C60.5294 12.3502 59.6994 11.6502 59.6994 10.5902C59.6994 9.48019 60.5294 8.75019 61.7694 8.75019C63.0294 8.75019 63.8694 9.48019 63.8694 10.5902C63.8694 11.6502 63.0294 12.3502 61.7694 12.3502ZM69.012 15.8602C71.252 15.8602 72.092 13.9702 72.092 11.9002C72.092 9.8302 71.252 7.9402 69.012 7.9402C66.762 7.9402 65.902 9.8302 65.902 11.9002C65.902 13.9702 66.762 15.8602 69.012 15.8602ZM68.992 15.0302C67.422 15.0302 66.752 13.6002 66.752 11.9002C66.752 10.2002 67.422 8.7702 68.992 8.7702C70.572 8.7702 71.242 10.2002 71.242 11.9002C71.242 13.6002 70.572 15.0302 68.992 15.0302ZM76.346 15.8602C78.586 15.8602 79.426 13.9702 79.426 11.9002C79.426 9.8302 78.586 7.9402 76.346 7.9402C74.096 7.9402 73.236 9.8302 73.236 11.9002C73.236 13.9702 74.096 15.8602 76.346 15.8602ZM76.326 15.0302C74.756 15.0302 74.086 13.6002 74.086 11.9002C74.086 10.2002 74.756 8.7702 76.326 8.7702C77.906 8.7702 78.576 10.2002 78.576 11.9002C78.576 13.6002 77.906 15.0302 76.326 15.0302Z" fill="black"/>
<path d="M1003.08 261.777H1004.83L1006.32 266.195L1007.78 261.777H1009.48L1007.28 267.766L1006.89 268.85C1006.75 269.213 1006.61 269.49 1006.47 269.682C1006.35 269.873 1006.2 270.027 1006.02 270.145C1005.86 270.266 1005.65 270.359 1005.4 270.426C1005.15 270.492 1004.87 270.525 1004.56 270.525C1004.24 270.525 1003.93 270.492 1003.63 270.426L1003.48 269.137C1003.74 269.188 1003.97 269.213 1004.18 269.213C1004.56 269.213 1004.84 269.1 1005.03 268.873C1005.21 268.65 1005.35 268.365 1005.45 268.018L1003.08 261.777ZM1014.14 266.02L1015.79 266.295C1015.57 266.896 1015.24 267.355 1014.78 267.672C1014.33 267.984 1013.76 268.141 1013.08 268.141C1012 268.141 1011.2 267.787 1010.68 267.08C1010.27 266.514 1010.06 265.799 1010.06 264.936C1010.06 263.904 1010.33 263.098 1010.87 262.516C1011.41 261.93 1012.09 261.637 1012.91 261.637C1013.84 261.637 1014.57 261.943 1015.11 262.557C1015.64 263.166 1015.9 264.102 1015.87 265.363H1011.75C1011.76 265.852 1011.89 266.232 1012.15 266.506C1012.4 266.775 1012.72 266.91 1013.1 266.91C1013.35 266.91 1013.57 266.84 1013.75 266.699C1013.92 266.559 1014.05 266.332 1014.14 266.02ZM1014.24 264.355C1014.23 263.879 1014.1 263.518 1013.87 263.271C1013.63 263.021 1013.35 262.896 1013.01 262.896C1012.65 262.896 1012.36 263.027 1012.12 263.289C1011.89 263.551 1011.77 263.906 1011.78 264.355H1014.24ZM1018.45 263.676L1016.96 263.406C1017.12 262.805 1017.41 262.359 1017.82 262.07C1018.23 261.781 1018.84 261.637 1019.65 261.637C1020.39 261.637 1020.93 261.725 1021.29 261.9C1021.65 262.072 1021.9 262.293 1022.05 262.562C1022.2 262.828 1022.27 263.318 1022.27 264.033L1022.25 265.955C1022.25 266.502 1022.28 266.906 1022.33 267.168C1022.38 267.426 1022.48 267.703 1022.63 268H1021C1020.96 267.891 1020.9 267.729 1020.84 267.514C1020.81 267.416 1020.79 267.352 1020.78 267.32C1020.5 267.594 1020.2 267.799 1019.88 267.936C1019.56 268.072 1019.22 268.141 1018.86 268.141C1018.21 268.141 1017.71 267.967 1017.34 267.619C1016.97 267.271 1016.79 266.832 1016.79 266.301C1016.79 265.949 1016.87 265.637 1017.04 265.363C1017.21 265.086 1017.44 264.875 1017.74 264.73C1018.05 264.582 1018.48 264.453 1019.05 264.344C1019.82 264.199 1020.36 264.064 1020.65 263.939V263.775C1020.65 263.459 1020.58 263.234 1020.42 263.102C1020.26 262.965 1019.97 262.896 1019.54 262.896C1019.24 262.896 1019.01 262.955 1018.85 263.072C1018.69 263.186 1018.55 263.387 1018.45 263.676ZM1020.65 265.012C1020.44 265.082 1020.11 265.166 1019.65 265.264C1019.2 265.361 1018.9 265.457 1018.76 265.551C1018.54 265.703 1018.43 265.896 1018.43 266.131C1018.43 266.361 1018.52 266.561 1018.69 266.729C1018.86 266.896 1019.08 266.98 1019.35 266.98C1019.64 266.98 1019.93 266.883 1020.2 266.688C1020.4 266.539 1020.53 266.357 1020.59 266.143C1020.63 266.002 1020.65 265.734 1020.65 265.34V265.012ZM1025.48 268H1023.83V261.777H1025.36V262.662C1025.62 262.244 1025.86 261.969 1026.06 261.836C1026.27 261.703 1026.51 261.637 1026.78 261.637C1027.15 261.637 1027.51 261.74 1027.86 261.947L1027.35 263.383C1027.07 263.203 1026.82 263.113 1026.58 263.113C1026.35 263.113 1026.15 263.178 1025.99 263.307C1025.83 263.432 1025.71 263.66 1025.61 263.992C1025.52 264.324 1025.48 265.02 1025.48 266.078V268ZM1028.39 265.709V264.062H1031.62V265.709H1028.39ZM1032.45 261.777H1033.97V262.627C1034.51 261.967 1035.16 261.637 1035.91 261.637C1036.3 261.637 1036.65 261.719 1036.94 261.883C1037.24 262.047 1037.48 262.295 1037.66 262.627C1037.94 262.295 1038.23 262.047 1038.55 261.883C1038.87 261.719 1039.2 261.637 1039.56 261.637C1040.02 261.637 1040.41 261.73 1040.72 261.918C1041.04 262.102 1041.28 262.373 1041.43 262.732C1041.54 262.998 1041.6 263.428 1041.6 264.021V268H1039.96V264.443C1039.96 263.826 1039.9 263.428 1039.79 263.248C1039.63 263.014 1039.4 262.896 1039.08 262.896C1038.85 262.896 1038.63 262.967 1038.43 263.107C1038.23 263.248 1038.08 263.455 1037.99 263.729C1037.9 263.998 1037.86 264.426 1037.86 265.012V268H1036.21V264.59C1036.21 263.984 1036.18 263.594 1036.12 263.418C1036.06 263.242 1035.97 263.111 1035.85 263.025C1035.73 262.939 1035.56 262.896 1035.35 262.896C1035.1 262.896 1034.87 262.965 1034.66 263.102C1034.46 263.238 1034.31 263.436 1034.22 263.693C1034.14 263.951 1034.1 264.379 1034.1 264.977V268H1032.45V261.777ZM1042.87 264.801C1042.87 264.254 1043 263.725 1043.27 263.213C1043.54 262.701 1043.92 262.311 1044.41 262.041C1044.91 261.771 1045.46 261.637 1046.07 261.637C1047.01 261.637 1047.79 261.943 1048.39 262.557C1048.99 263.166 1049.29 263.938 1049.29 264.871C1049.29 265.812 1048.98 266.594 1048.38 267.215C1047.77 267.832 1047.01 268.141 1046.08 268.141C1045.51 268.141 1044.97 268.012 1044.45 267.754C1043.93 267.496 1043.54 267.119 1043.27 266.623C1043 266.123 1042.87 265.516 1042.87 264.801ZM1044.55 264.889C1044.55 265.506 1044.7 265.979 1044.99 266.307C1045.29 266.635 1045.65 266.799 1046.08 266.799C1046.51 266.799 1046.87 266.635 1047.16 266.307C1047.45 265.979 1047.6 265.502 1047.6 264.877C1047.6 264.268 1047.45 263.799 1047.16 263.471C1046.87 263.143 1046.51 262.979 1046.08 262.979C1045.65 262.979 1045.29 263.143 1044.99 263.471C1044.7 263.799 1044.55 264.271 1044.55 264.889ZM1056.24 268H1054.6V264.824C1054.6 264.152 1054.56 263.719 1054.49 263.523C1054.42 263.324 1054.31 263.17 1054.15 263.061C1053.99 262.951 1053.8 262.896 1053.58 262.896C1053.29 262.896 1053.04 262.975 1052.81 263.131C1052.58 263.287 1052.43 263.494 1052.34 263.752C1052.26 264.01 1052.22 264.486 1052.22 265.182V268H1050.57V261.777H1052.1V262.691C1052.64 261.988 1053.33 261.637 1054.15 261.637C1054.52 261.637 1054.85 261.703 1055.15 261.836C1055.45 261.965 1055.68 262.131 1055.83 262.334C1055.98 262.537 1056.09 262.768 1056.15 263.025C1056.21 263.283 1056.24 263.652 1056.24 264.133V268ZM1060.77 261.777V263.09H1059.65V265.598C1059.65 266.105 1059.66 266.402 1059.68 266.488C1059.7 266.57 1059.75 266.639 1059.82 266.693C1059.9 266.748 1060 266.775 1060.11 266.775C1060.26 266.775 1060.48 266.723 1060.77 266.617L1060.91 267.895C1060.53 268.059 1060.09 268.141 1059.61 268.141C1059.31 268.141 1059.04 268.092 1058.8 267.994C1058.57 267.893 1058.39 267.764 1058.28 267.607C1058.17 267.447 1058.09 267.232 1058.05 266.963C1058.01 266.771 1058 266.385 1058 265.803V263.09H1057.24V261.777H1058V260.541L1059.65 259.58V261.777H1060.77ZM1063.56 259.41V262.568C1064.09 261.947 1064.72 261.637 1065.46 261.637C1065.84 261.637 1066.18 261.707 1066.49 261.848C1066.79 261.988 1067.02 262.168 1067.17 262.387C1067.33 262.605 1067.43 262.848 1067.49 263.113C1067.55 263.379 1067.58 263.791 1067.58 264.35V268H1065.93V264.713C1065.93 264.061 1065.9 263.646 1065.84 263.471C1065.77 263.295 1065.66 263.156 1065.5 263.055C1065.35 262.949 1065.15 262.896 1064.91 262.896C1064.64 262.896 1064.39 262.963 1064.18 263.096C1063.96 263.229 1063.8 263.43 1063.7 263.699C1063.61 263.965 1063.56 264.359 1063.56 264.883V268H1061.91V259.41H1063.56Z" fill="#7B7B7B"/>
<path d="M93.8906 12V3.41016H95.5781L99.0938 9.14648V3.41016H100.705V12H98.9648L95.502 6.39844V12H93.8906ZM106.629 12V11.0684C106.402 11.4004 106.104 11.6621 105.732 11.8535C105.365 12.0449 104.977 12.1406 104.566 12.1406C104.148 12.1406 103.773 12.0488 103.441 11.8652C103.109 11.6816 102.869 11.4238 102.721 11.0918C102.572 10.7598 102.498 10.3008 102.498 9.71484V5.77734H104.145V8.63672C104.145 9.51172 104.174 10.0488 104.232 10.248C104.295 10.4434 104.406 10.5996 104.566 10.7168C104.727 10.8301 104.93 10.8867 105.176 10.8867C105.457 10.8867 105.709 10.8105 105.932 10.6582C106.154 10.502 106.307 10.3105 106.389 10.084C106.471 9.85352 106.512 9.29297 106.512 8.40234V5.77734H108.158V12H106.629ZM109.746 5.77734H111.264V6.62695C111.807 5.9668 112.453 5.63672 113.203 5.63672C113.602 5.63672 113.947 5.71875 114.24 5.88281C114.533 6.04688 114.773 6.29492 114.961 6.62695C115.234 6.29492 115.529 6.04688 115.846 5.88281C116.162 5.71875 116.5 5.63672 116.859 5.63672C117.316 5.63672 117.703 5.73047 118.02 5.91797C118.336 6.10156 118.572 6.37305 118.729 6.73242C118.842 6.99805 118.898 7.42773 118.898 8.02148V12H117.252V8.44336C117.252 7.82617 117.195 7.42773 117.082 7.24805C116.93 7.01367 116.695 6.89648 116.379 6.89648C116.148 6.89648 115.932 6.9668 115.729 7.10742C115.525 7.24805 115.379 7.45508 115.289 7.72852C115.199 7.99805 115.154 8.42578 115.154 9.01172V12H113.508V8.58984C113.508 7.98438 113.479 7.59375 113.42 7.41797C113.361 7.24219 113.27 7.11133 113.145 7.02539C113.023 6.93945 112.857 6.89648 112.646 6.89648C112.393 6.89648 112.164 6.96484 111.961 7.10156C111.758 7.23828 111.611 7.43555 111.521 7.69336C111.436 7.95117 111.393 8.37891 111.393 8.97656V12H109.746V5.77734ZM120.475 12V3.41016H122.121V6.50391C122.629 5.92578 123.23 5.63672 123.926 5.63672C124.684 5.63672 125.311 5.91211 125.807 6.46289C126.303 7.00977 126.551 7.79688 126.551 8.82422C126.551 9.88672 126.297 10.7051 125.789 11.2793C125.285 11.8535 124.672 12.1406 123.949 12.1406C123.594 12.1406 123.242 12.0527 122.895 11.877C122.551 11.6973 122.254 11.4336 122.004 11.0859V12H120.475ZM122.109 8.75391C122.109 9.39844 122.211 9.875 122.414 10.1836C122.699 10.6211 123.078 10.8398 123.551 10.8398C123.914 10.8398 124.223 10.6855 124.477 10.377C124.734 10.0645 124.863 9.57422 124.863 8.90625C124.863 8.19531 124.734 7.68359 124.477 7.37109C124.219 7.05469 123.889 6.89648 123.486 6.89648C123.092 6.89648 122.764 7.05078 122.502 7.35938C122.24 7.66406 122.109 8.12891 122.109 8.75391ZM131.484 10.0195L133.125 10.2949C132.914 10.8965 132.58 11.3555 132.123 11.6719C131.67 11.9844 131.102 12.1406 130.418 12.1406C129.336 12.1406 128.535 11.7871 128.016 11.0801C127.605 10.5137 127.4 9.79883 127.4 8.93555C127.4 7.9043 127.67 7.09766 128.209 6.51562C128.748 5.92969 129.43 5.63672 130.254 5.63672C131.18 5.63672 131.91 5.94336 132.445 6.55664C132.98 7.16602 133.236 8.10156 133.213 9.36328H129.088C129.1 9.85156 129.232 10.2324 129.486 10.5059C129.74 10.7754 130.057 10.9102 130.436 10.9102C130.693 10.9102 130.91 10.8398 131.086 10.6992C131.262 10.5586 131.395 10.332 131.484 10.0195ZM131.578 8.35547C131.566 7.87891 131.443 7.51758 131.209 7.27148C130.975 7.02148 130.689 6.89648 130.354 6.89648C129.994 6.89648 129.697 7.02734 129.463 7.28906C129.229 7.55078 129.113 7.90625 129.117 8.35547H131.578ZM136.137 12H134.49V5.77734H136.02V6.66211C136.281 6.24414 136.516 5.96875 136.723 5.83594C136.934 5.70312 137.172 5.63672 137.438 5.63672C137.812 5.63672 138.174 5.74023 138.521 5.94727L138.012 7.38281C137.734 7.20312 137.477 7.11328 137.238 7.11328C137.008 7.11328 136.812 7.17773 136.652 7.30664C136.492 7.43164 136.365 7.66016 136.271 7.99219C136.182 8.32422 136.137 9.01953 136.137 10.0781V12ZM142.195 8.80078C142.195 8.25391 142.33 7.72461 142.6 7.21289C142.869 6.70117 143.25 6.31055 143.742 6.04102C144.238 5.77148 144.791 5.63672 145.4 5.63672C146.342 5.63672 147.113 5.94336 147.715 6.55664C148.316 7.16602 148.617 7.9375 148.617 8.87109C148.617 9.8125 148.312 10.5938 147.703 11.2148C147.098 11.832 146.334 12.1406 145.412 12.1406C144.842 12.1406 144.297 12.0117 143.777 11.7539C143.262 11.4961 142.869 11.1191 142.6 10.623C142.33 10.123 142.195 9.51562 142.195 8.80078ZM143.883 8.88867C143.883 9.50586 144.029 9.97852 144.322 10.3066C144.615 10.6348 144.977 10.7988 145.406 10.7988C145.836 10.7988 146.195 10.6348 146.484 10.3066C146.777 9.97852 146.924 9.50195 146.924 8.87695C146.924 8.26758 146.777 7.79883 146.484 7.4707C146.195 7.14258 145.836 6.97852 145.406 6.97852C144.977 6.97852 144.615 7.14258 144.322 7.4707C144.029 7.79883 143.883 8.27148 143.883 8.88867ZM149.191 5.77734H150.105V5.30859C150.105 4.78516 150.16 4.39453 150.27 4.13672C150.383 3.87891 150.588 3.66992 150.885 3.50977C151.186 3.3457 151.564 3.26367 152.021 3.26367C152.49 3.26367 152.949 3.33398 153.398 3.47461L153.176 4.62305C152.914 4.56055 152.662 4.5293 152.42 4.5293C152.182 4.5293 152.01 4.58594 151.904 4.69922C151.803 4.80859 151.752 5.02148 151.752 5.33789V5.77734H152.982V7.07227H151.752V12H150.105V7.07227H149.191V5.77734ZM157.236 12V3.41016H159.832L161.391 9.26953L162.932 3.41016H165.533V12H163.922V5.23828L162.217 12H160.547L158.848 5.23828V12H157.236ZM170.848 10.0195L172.488 10.2949C172.277 10.8965 171.943 11.3555 171.486 11.6719C171.033 11.9844 170.465 12.1406 169.781 12.1406C168.699 12.1406 167.898 11.7871 167.379 11.0801C166.969 10.5137 166.764 9.79883 166.764 8.93555C166.764 7.9043 167.033 7.09766 167.572 6.51562C168.111 5.92969 168.793 5.63672 169.617 5.63672C170.543 5.63672 171.273 5.94336 171.809 6.55664C172.344 7.16602 172.6 8.10156 172.576 9.36328H168.451C168.463 9.85156 168.596 10.2324 168.85 10.5059C169.104 10.7754 169.42 10.9102 169.799 10.9102C170.057 10.9102 170.273 10.8398 170.449 10.6992C170.625 10.5586 170.758 10.332 170.848 10.0195ZM170.941 8.35547C170.93 7.87891 170.807 7.51758 170.572 7.27148C170.338 7.02148 170.053 6.89648 169.717 6.89648C169.357 6.89648 169.061 7.02734 168.826 7.28906C168.592 7.55078 168.477 7.90625 168.48 8.35547H170.941ZM179.584 12H177.938V8.82422C177.938 8.15234 177.902 7.71875 177.832 7.52344C177.762 7.32422 177.646 7.16992 177.486 7.06055C177.33 6.95117 177.141 6.89648 176.918 6.89648C176.633 6.89648 176.377 6.97461 176.15 7.13086C175.924 7.28711 175.768 7.49414 175.682 7.75195C175.6 8.00977 175.559 8.48633 175.559 9.18164V12H173.912V5.77734H175.441V6.69141C175.984 5.98828 176.668 5.63672 177.492 5.63672C177.855 5.63672 178.188 5.70312 178.488 5.83594C178.789 5.96484 179.016 6.13086 179.168 6.33398C179.324 6.53711 179.432 6.76758 179.49 7.02539C179.553 7.2832 179.584 7.65234 179.584 8.13281V12ZM184.113 5.77734V7.08984H182.988V9.59766C182.988 10.1055 182.998 10.4023 183.018 10.4883C183.041 10.5703 183.09 10.6387 183.164 10.6934C183.242 10.748 183.336 10.7754 183.445 10.7754C183.598 10.7754 183.818 10.7227 184.107 10.6172L184.248 11.8945C183.865 12.0586 183.432 12.1406 182.947 12.1406C182.65 12.1406 182.383 12.0918 182.145 11.9941C181.906 11.8926 181.73 11.7637 181.617 11.6074C181.508 11.4473 181.432 11.2324 181.389 10.9629C181.354 10.7715 181.336 10.3848 181.336 9.80273V7.08984H180.58V5.77734H181.336V4.54102L182.988 3.58008V5.77734H184.113ZM185.256 4.93359V3.41016H186.902V4.93359H185.256ZM185.256 12V5.77734H186.902V12H185.256ZM188.215 8.80078C188.215 8.25391 188.35 7.72461 188.619 7.21289C188.889 6.70117 189.27 6.31055 189.762 6.04102C190.258 5.77148 190.811 5.63672 191.42 5.63672C192.361 5.63672 193.133 5.94336 193.734 6.55664C194.336 7.16602 194.637 7.9375 194.637 8.87109C194.637 9.8125 194.332 10.5938 193.723 11.2148C193.117 11.832 192.354 12.1406 191.432 12.1406C190.861 12.1406 190.316 12.0117 189.797 11.7539C189.281 11.4961 188.889 11.1191 188.619 10.623C188.35 10.123 188.215 9.51562 188.215 8.80078ZM189.902 8.88867C189.902 9.50586 190.049 9.97852 190.342 10.3066C190.635 10.6348 190.996 10.7988 191.426 10.7988C191.855 10.7988 192.215 10.6348 192.504 10.3066C192.797 9.97852 192.943 9.50195 192.943 8.87695C192.943 8.26758 192.797 7.79883 192.504 7.4707C192.215 7.14258 191.855 6.97852 191.426 6.97852C190.996 6.97852 190.635 7.14258 190.342 7.4707C190.049 7.79883 189.902 8.27148 189.902 8.88867ZM201.592 12H199.945V8.82422C199.945 8.15234 199.91 7.71875 199.84 7.52344C199.77 7.32422 199.654 7.16992 199.494 7.06055C199.338 6.95117 199.148 6.89648 198.926 6.89648C198.641 6.89648 198.385 6.97461 198.158 7.13086C197.932 7.28711 197.775 7.49414 197.689 7.75195C197.607 8.00977 197.566 8.48633 197.566 9.18164V12H195.92V5.77734H197.449V6.69141C197.992 5.98828 198.676 5.63672 199.5 5.63672C199.863 5.63672 200.195 5.70312 200.496 5.83594C200.797 5.96484 201.023 6.13086 201.176 6.33398C201.332 6.53711 201.439 6.76758 201.498 7.02539C201.561 7.2832 201.592 7.65234 201.592 8.13281V12ZM202.688 10.2246L204.34 9.97266C204.41 10.293 204.553 10.5371 204.768 10.7051C204.982 10.8691 205.283 10.9512 205.67 10.9512C206.096 10.9512 206.416 10.873 206.631 10.7168C206.775 10.6074 206.848 10.4609 206.848 10.2773C206.848 10.1523 206.809 10.0488 206.73 9.9668C206.648 9.88867 206.465 9.81641 206.18 9.75C204.852 9.45703 204.01 9.18945 203.654 8.94727C203.162 8.61133 202.916 8.14453 202.916 7.54688C202.916 7.00781 203.129 6.55469 203.555 6.1875C203.98 5.82031 204.641 5.63672 205.535 5.63672C206.387 5.63672 207.02 5.77539 207.434 6.05273C207.848 6.33008 208.133 6.74023 208.289 7.2832L206.736 7.57031C206.67 7.32812 206.543 7.14258 206.355 7.01367C206.172 6.88477 205.908 6.82031 205.564 6.82031C205.131 6.82031 204.82 6.88086 204.633 7.00195C204.508 7.08789 204.445 7.19922 204.445 7.33594C204.445 7.45312 204.5 7.55273 204.609 7.63477C204.758 7.74414 205.27 7.89844 206.145 8.09766C207.023 8.29688 207.637 8.54102 207.984 8.83008C208.328 9.12305 208.5 9.53125 208.5 10.0547C208.5 10.625 208.262 11.1152 207.785 11.5254C207.309 11.9355 206.604 12.1406 205.67 12.1406C204.822 12.1406 204.15 11.9688 203.654 11.625C203.162 11.2812 202.84 10.8145 202.688 10.2246Z" fill="#7B7B7B"/>
<path d="M93.8906 324V315.41H95.5781L99.0938 321.146V315.41H100.705V324H98.9648L95.502 318.398V324H93.8906ZM106.629 324V323.068C106.402 323.4 106.104 323.662 105.732 323.854C105.365 324.045 104.977 324.141 104.566 324.141C104.148 324.141 103.773 324.049 103.441 323.865C103.109 323.682 102.869 323.424 102.721 323.092C102.572 322.76 102.498 322.301 102.498 321.715V317.777H104.145V320.637C104.145 321.512 104.174 322.049 104.232 322.248C104.295 322.443 104.406 322.6 104.566 322.717C104.727 322.83 104.93 322.887 105.176 322.887C105.457 322.887 105.709 322.811 105.932 322.658C106.154 322.502 106.307 322.311 106.389 322.084C106.471 321.854 106.512 321.293 106.512 320.402V317.777H108.158V324H106.629ZM109.746 317.777H111.264V318.627C111.807 317.967 112.453 317.637 113.203 317.637C113.602 317.637 113.947 317.719 114.24 317.883C114.533 318.047 114.773 318.295 114.961 318.627C115.234 318.295 115.529 318.047 115.846 317.883C116.162 317.719 116.5 317.637 116.859 317.637C117.316 317.637 117.703 317.73 118.02 317.918C118.336 318.102 118.572 318.373 118.729 318.732C118.842 318.998 118.898 319.428 118.898 320.021V324H117.252V320.443C117.252 319.826 117.195 319.428 117.082 319.248C116.93 319.014 116.695 318.896 116.379 318.896C116.148 318.896 115.932 318.967 115.729 319.107C115.525 319.248 115.379 319.455 115.289 319.729C115.199 319.998 115.154 320.426 115.154 321.012V324H113.508V320.59C113.508 319.984 113.479 319.594 113.42 319.418C113.361 319.242 113.27 319.111 113.145 319.025C113.023 318.939 112.857 318.896 112.646 318.896C112.393 318.896 112.164 318.965 111.961 319.102C111.758 319.238 111.611 319.436 111.521 319.693C111.436 319.951 111.393 320.379 111.393 320.977V324H109.746V317.777ZM120.475 324V315.41H122.121V318.504C122.629 317.926 123.23 317.637 123.926 317.637C124.684 317.637 125.311 317.912 125.807 318.463C126.303 319.01 126.551 319.797 126.551 320.824C126.551 321.887 126.297 322.705 125.789 323.279C125.285 323.854 124.672 324.141 123.949 324.141C123.594 324.141 123.242 324.053 122.895 323.877C122.551 323.697 122.254 323.434 122.004 323.086V324H120.475ZM122.109 320.754C122.109 321.398 122.211 321.875 122.414 322.184C122.699 322.621 123.078 322.84 123.551 322.84C123.914 322.84 124.223 322.686 124.477 322.377C124.734 322.064 124.863 321.574 124.863 320.906C124.863 320.195 124.734 319.684 124.477 319.371C124.219 319.055 123.889 318.896 123.486 318.896C123.092 318.896 122.764 319.051 122.502 319.359C122.24 319.664 122.109 320.129 122.109 320.754ZM131.484 322.02L133.125 322.295C132.914 322.896 132.58 323.355 132.123 323.672C131.67 323.984 131.102 324.141 130.418 324.141C129.336 324.141 128.535 323.787 128.016 323.08C127.605 322.514 127.4 321.799 127.4 320.936C127.4 319.904 127.67 319.098 128.209 318.516C128.748 317.93 129.43 317.637 130.254 317.637C131.18 317.637 131.91 317.943 132.445 318.557C132.98 319.166 133.236 320.102 133.213 321.363H129.088C129.1 321.852 129.232 322.232 129.486 322.506C129.74 322.775 130.057 322.91 130.436 322.91C130.693 322.91 130.91 322.84 131.086 322.699C131.262 322.559 131.395 322.332 131.484 322.02ZM131.578 320.355C131.566 319.879 131.443 319.518 131.209 319.271C130.975 319.021 130.689 318.896 130.354 318.896C129.994 318.896 129.697 319.027 129.463 319.289C129.229 319.551 129.113 319.906 129.117 320.355H131.578ZM136.137 324H134.49V317.777H136.02V318.662C136.281 318.244 136.516 317.969 136.723 317.836C136.934 317.703 137.172 317.637 137.438 317.637C137.812 317.637 138.174 317.74 138.521 317.947L138.012 319.383C137.734 319.203 137.477 319.113 137.238 319.113C137.008 319.113 136.812 319.178 136.652 319.307C136.492 319.432 136.365 319.66 136.271 319.992C136.182 320.324 136.137 321.02 136.137 322.078V324ZM142.195 320.801C142.195 320.254 142.33 319.725 142.6 319.213C142.869 318.701 143.25 318.311 143.742 318.041C144.238 317.771 144.791 317.637 145.4 317.637C146.342 317.637 147.113 317.943 147.715 318.557C148.316 319.166 148.617 319.938 148.617 320.871C148.617 321.812 148.312 322.594 147.703 323.215C147.098 323.832 146.334 324.141 145.412 324.141C144.842 324.141 144.297 324.012 143.777 323.754C143.262 323.496 142.869 323.119 142.6 322.623C142.33 322.123 142.195 321.516 142.195 320.801ZM143.883 320.889C143.883 321.506 144.029 321.979 144.322 322.307C144.615 322.635 144.977 322.799 145.406 322.799C145.836 322.799 146.195 322.635 146.484 322.307C146.777 321.979 146.924 321.502 146.924 320.877C146.924 320.268 146.777 319.799 146.484 319.471C146.195 319.143 145.836 318.979 145.406 318.979C144.977 318.979 144.615 319.143 144.322 319.471C144.029 319.799 143.883 320.271 143.883 320.889ZM149.191 317.777H150.105V317.309C150.105 316.785 150.16 316.395 150.27 316.137C150.383 315.879 150.588 315.67 150.885 315.51C151.186 315.346 151.564 315.264 152.021 315.264C152.49 315.264 152.949 315.334 153.398 315.475L153.176 316.623C152.914 316.561 152.662 316.529 152.42 316.529C152.182 316.529 152.01 316.586 151.904 316.699C151.803 316.809 151.752 317.021 151.752 317.338V317.777H152.982V319.072H151.752V324H150.105V319.072H149.191V317.777ZM157.236 324V315.41H159.832L161.391 321.27L162.932 315.41H165.533V324H163.922V317.238L162.217 324H160.547L158.848 317.238V324H157.236ZM170.848 322.02L172.488 322.295C172.277 322.896 171.943 323.355 171.486 323.672C171.033 323.984 170.465 324.141 169.781 324.141C168.699 324.141 167.898 323.787 167.379 323.08C166.969 322.514 166.764 321.799 166.764 320.936C166.764 319.904 167.033 319.098 167.572 318.516C168.111 317.93 168.793 317.637 169.617 317.637C170.543 317.637 171.273 317.943 171.809 318.557C172.344 319.166 172.6 320.102 172.576 321.363H168.451C168.463 321.852 168.596 322.232 168.85 322.506C169.104 322.775 169.42 322.91 169.799 322.91C170.057 322.91 170.273 322.84 170.449 322.699C170.625 322.559 170.758 322.332 170.848 322.02ZM170.941 320.355C170.93 319.879 170.807 319.518 170.572 319.271C170.338 319.021 170.053 318.896 169.717 318.896C169.357 318.896 169.061 319.027 168.826 319.289C168.592 319.551 168.477 319.906 168.48 320.355H170.941ZM179.584 324H177.938V320.824C177.938 320.152 177.902 319.719 177.832 319.523C177.762 319.324 177.646 319.17 177.486 319.061C177.33 318.951 177.141 318.896 176.918 318.896C176.633 318.896 176.377 318.975 176.15 319.131C175.924 319.287 175.768 319.494 175.682 319.752C175.6 320.01 175.559 320.486 175.559 321.182V324H173.912V317.777H175.441V318.691C175.984 317.988 176.668 317.637 177.492 317.637C177.855 317.637 178.188 317.703 178.488 317.836C178.789 317.965 179.016 318.131 179.168 318.334C179.324 318.537 179.432 318.768 179.49 319.025C179.553 319.283 179.584 319.652 179.584 320.133V324ZM184.113 317.777V319.09H182.988V321.598C182.988 322.105 182.998 322.402 183.018 322.488C183.041 322.57 183.09 322.639 183.164 322.693C183.242 322.748 183.336 322.775 183.445 322.775C183.598 322.775 183.818 322.723 184.107 322.617L184.248 323.895C183.865 324.059 183.432 324.141 182.947 324.141C182.65 324.141 182.383 324.092 182.145 323.994C181.906 323.893 181.73 323.764 181.617 323.607C181.508 323.447 181.432 323.232 181.389 322.963C181.354 322.771 181.336 322.385 181.336 321.803V319.09H180.58V317.777H181.336V316.541L182.988 315.58V317.777H184.113ZM185.256 316.934V315.41H186.902V316.934H185.256ZM185.256 324V317.777H186.902V324H185.256ZM188.215 320.801C188.215 320.254 188.35 319.725 188.619 319.213C188.889 318.701 189.27 318.311 189.762 318.041C190.258 317.771 190.811 317.637 191.42 317.637C192.361 317.637 193.133 317.943 193.734 318.557C194.336 319.166 194.637 319.938 194.637 320.871C194.637 321.812 194.332 322.594 193.723 323.215C193.117 323.832 192.354 324.141 191.432 324.141C190.861 324.141 190.316 324.012 189.797 323.754C189.281 323.496 188.889 323.119 188.619 322.623C188.35 322.123 188.215 321.516 188.215 320.801ZM189.902 320.889C189.902 321.506 190.049 321.979 190.342 322.307C190.635 322.635 190.996 322.799 191.426 322.799C191.855 322.799 192.215 322.635 192.504 322.307C192.797 321.979 192.943 321.502 192.943 320.877C192.943 320.268 192.797 319.799 192.504 319.471C192.215 319.143 191.855 318.979 191.426 318.979C190.996 318.979 190.635 319.143 190.342 319.471C190.049 319.799 189.902 320.271 189.902 320.889ZM201.592 324H199.945V320.824C199.945 320.152 199.91 319.719 199.84 319.523C199.77 319.324 199.654 319.17 199.494 319.061C199.338 318.951 199.148 318.896 198.926 318.896C198.641 318.896 198.385 318.975 198.158 319.131C197.932 319.287 197.775 319.494 197.689 319.752C197.607 320.01 197.566 320.486 197.566 321.182V324H195.92V317.777H197.449V318.691C197.992 317.988 198.676 317.637 199.5 317.637C199.863 317.637 200.195 317.703 200.496 317.836C200.797 317.965 201.023 318.131 201.176 318.334C201.332 318.537 201.439 318.768 201.498 319.025C201.561 319.283 201.592 319.652 201.592 320.133V324ZM202.688 322.225L204.34 321.973C204.41 322.293 204.553 322.537 204.768 322.705C204.982 322.869 205.283 322.951 205.67 322.951C206.096 322.951 206.416 322.873 206.631 322.717C206.775 322.607 206.848 322.461 206.848 322.277C206.848 322.152 206.809 322.049 206.73 321.967C206.648 321.889 206.465 321.816 206.18 321.75C204.852 321.457 204.01 321.189 203.654 320.947C203.162 320.611 202.916 320.145 202.916 319.547C202.916 319.008 203.129 318.555 203.555 318.188C203.98 317.82 204.641 317.637 205.535 317.637C206.387 317.637 207.02 317.775 207.434 318.053C207.848 318.33 208.133 318.74 208.289 319.283L206.736 319.57C206.67 319.328 206.543 319.143 206.355 319.014C206.172 318.885 205.908 318.82 205.564 318.82C205.131 318.82 204.82 318.881 204.633 319.002C204.508 319.088 204.445 319.199 204.445 319.336C204.445 319.453 204.5 319.553 204.609 319.635C204.758 319.744 205.27 319.898 206.145 320.098C207.023 320.297 207.637 320.541 207.984 320.83C208.328 321.123 208.5 321.531 208.5 322.055C208.5 322.625 208.262 323.115 207.785 323.525C207.309 323.936 206.604 324.141 205.67 324.141C204.822 324.141 204.15 323.969 203.654 323.625C203.162 323.281 202.84 322.814 202.688 322.225Z" fill="#7B7B7B"/>
<path d="M89 547.578C101.819 546.932 114.637 546.285 127.456 544.978C139.034 543.797 150.612 540.356 162.19 540.356C174.991 540.356 187.793 554.511 200.594 554.511C212.999 554.511 225.404 550.887 237.809 545.844C250.628 540.633 263.446 523.311 276.265 523.311C288.67 523.311 301.075 543.44 313.48 546.422C326.299 549.504 339.117 551.044 351.936 551.044C364.754 551.044 377.573 548.017 390.391 547C402.796 546.016 415.201 545.732 427.607 544.978C440.442 544.197 453.278 544.111 466.114 542.378C478.519 540.703 490.924 343.911 503.329 343.911C516.148 343.911 528.966 547.867 541.785 547.867C554.603 547.867 567.422 544.882 580.241 538.911C592.232 533.326 604.224 369.044 616.215 369.044C629.017 369.044 641.818 525.35 654.619 527.933C667.024 530.437 679.429 530.457 691.834 531.689C704.653 532.962 717.472 532.941 730.29 535.444C742.695 537.867 755.1 558.844 767.505 558.844C780.324 558.844 793.142 530.533 805.961 530.533C818.78 530.533 831.598 540.127 844.417 543.822C856.822 547.399 869.227 552.489 881.632 552.489C894.468 552.489 907.303 542.956 920.139 542.956C932.544 542.956 944.949 546.725 957.354 548.156C970.173 549.634 982.992 551.622 995.81 551.622C1008.63 551.622 1021.45 546.711 1034.27 546.711C1045.84 546.711 1057.42 554.367 1069 562.022V573C1057.42 573 1045.84 573 1034.27 573C1021.45 573 1008.63 573 995.81 573C982.992 573 970.173 573 957.354 573C944.949 573 932.544 573 920.139 573C907.303 573 894.468 573 881.632 573C869.227 573 856.822 573 844.417 573C831.598 573 818.78 573 805.961 573C793.142 573 780.324 573 767.505 573C755.1 573 742.695 573 730.29 573C717.472 573 704.653 573 691.834 573C679.429 573 667.024 573 654.619 573C641.818 573 629.017 573 616.215 573C604.224 573 592.232 573 580.241 573C567.422 573 554.603 573 541.785 573C528.966 573 516.148 573 503.329 573C490.924 573 478.519 573 466.114 573C453.278 573 440.442 573 427.607 573C415.201 573 402.796 573 390.391 573C377.573 573 364.754 573 351.936 573C339.117 573 326.299 573 313.48 573C301.075 573 288.67 573 276.265 573C263.446 573 250.628 573 237.809 573C225.404 573 212.999 573 200.594 573C187.793 573 174.991 573 162.19 573C150.612 573 139.034 573 127.456 573C114.637 573 101.819 573 89 573V547.578Z" fill="#E7A1A0"/>
<path d="M89 547.578C101.819 546.932 114.637 546.285 127.456 544.978C139.034 543.797 150.612 540.356 162.19 540.356C174.991 540.356 187.793 554.511 200.594 554.511C212.999 554.511 225.404 550.887 237.809 545.844C250.628 540.633 263.446 523.311 276.265 523.311C288.67 523.311 301.075 543.44 313.48 546.422C326.299 549.504 339.117 551.044 351.936 551.044C364.754 551.044 377.573 548.017 390.391 547C402.796 546.016 415.201 545.732 427.607 544.978C440.442 544.197 453.278 544.111 466.114 542.378C478.519 540.703 490.924 343.911 503.329 343.911C516.148 343.911 528.966 547.867 541.785 547.867C554.603 547.867 567.422 544.882 580.241 538.911C592.232 533.326 604.224 369.044 616.215 369.044C629.017 369.044 641.818 525.35 654.619 527.933C667.024 530.437 679.429 530.457 691.834 531.689C704.653 532.962 717.472 532.941 730.29 535.444C742.695 537.867 755.1 558.844 767.505 558.844C780.324 558.844 793.142 530.533 805.961 530.533C818.78 530.533 831.598 540.127 844.417 543.822C856.822 547.399 869.227 552.489 881.632 552.489C894.468 552.489 907.303 542.956 920.139 542.956C932.544 542.956 944.949 546.725 957.354 548.156C970.173 549.634 982.992 551.622 995.81 551.622C1008.63 551.622 1021.45 546.711 1034.27 546.711C1045.84 546.711 1057.42 554.367 1069 562.022C1057.42 554.367 1045.84 546.711 1034.27 546.711C1021.45 546.711 1008.63 551.622 995.81 551.622C982.992 551.622 970.173 549.634 957.354 548.156C944.949 546.725 932.544 542.956 920.139 542.956C907.303 542.956 894.468 552.489 881.632 552.489C869.227 552.489 856.822 547.399 844.417 543.822C831.598 540.127 818.78 530.533 805.961 530.533C793.142 530.533 780.324 558.844 767.505 558.844C755.1 558.844 742.695 537.867 730.29 535.444C717.472 532.941 704.653 532.962 691.834 531.689C679.429 530.457 667.024 530.437 654.619 527.933C641.818 525.35 629.017 369.044 616.215 369.044C604.224 369.044 592.232 533.326 580.241 538.911C567.422 544.882 554.603 547.867 541.785 547.867C528.966 547.867 516.148 343.911 503.329 343.911C490.924 343.911 478.519 540.703 466.114 542.378C453.278 544.111 440.442 544.197 427.607 544.978C415.201 545.732 402.796 546.016 390.391 547C377.573 548.017 364.754 551.044 351.936 551.044C339.117 551.044 326.299 549.504 313.48 546.422C301.075 543.44 288.67 523.311 276.265 523.311C263.446 523.311 250.628 540.633 237.809 545.844C225.404 550.887 212.999 554.511 200.594 554.511C187.793 554.511 174.991 540.356 162.19 540.356C150.612 540.356 139.034 543.797 127.456 544.978C114.637 546.285 101.819 546.932 89 547.578Z" fill="#D11F5F"/>
<path d="M89 547.578C101.819 546.932 114.637 546.285 127.456 544.978C139.034 543.797 150.612 540.356 162.19 540.356C174.991 540.356 187.793 554.511 200.594 554.511C212.999 554.511 225.404 550.887 237.809 545.844C250.628 540.633 263.446 523.311 276.265 523.311C288.67 523.311 301.075 543.44 313.48 546.422C326.299 549.504 339.117 551.044 351.936 551.044C364.754 551.044 377.573 548.017 390.391 547C402.796 546.016 415.201 545.732 427.607 544.978C440.442 544.197 453.278 544.111 466.114 542.378C478.519 540.703 490.924 343.911 503.329 343.911C516.148 343.911 528.966 547.867 541.785 547.867C554.603 547.867 567.422 544.882 580.241 538.911C592.232 533.326 604.224 369.044 616.215 369.044C629.017 369.044 641.818 525.35 654.619 527.933C667.024 530.437 679.429 530.457 691.834 531.689C704.653 532.962 717.472 532.941 730.29 535.444C742.695 537.867 755.1 558.844 767.505 558.844C780.324 558.844 793.142 530.533 805.961 530.533C818.78 530.533 831.598 540.127 844.417 543.822C856.822 547.399 869.227 552.489 881.632 552.489C894.468 552.489 907.303 542.956 920.139 542.956C932.544 542.956 944.949 546.725 957.354 548.156C970.173 549.634 982.992 551.622 995.81 551.622C1008.63 551.622 1021.45 546.711 1034.27 546.711C1045.84 546.711 1057.42 554.367 1069 562.022C1057.42 554.367 1045.84 546.711 1034.27 546.711C1021.45 546.711 1008.63 551.622 995.81 551.622C982.992 551.622 970.173 549.634 957.354 548.156C944.949 546.725 932.544 542.956 920.139 542.956C907.303 542.956 894.468 552.489 881.632 552.489C869.227 552.489 856.822 547.399 844.417 543.822C831.598 540.127 818.78 530.533 805.961 530.533C793.142 530.533 780.324 558.844 767.505 558.844C755.1 558.844 742.695 537.867 730.29 535.444C717.472 532.941 704.653 532.962 691.834 531.689C679.429 530.457 667.024 530.437 654.619 527.933C641.818 525.35 629.017 369.044 616.215 369.044C604.224 369.044 592.232 533.326 580.241 538.911C567.422 544.882 554.603 547.867 541.785 547.867C528.966 547.867 516.148 343.911 503.329 343.911C490.924 343.911 478.519 540.703 466.114 542.378C453.278 544.111 440.442 544.197 427.607 544.978C415.201 545.732 402.796 546.016 390.391 547C377.573 548.017 364.754 551.044 351.936 551.044C339.117 551.044 326.299 549.504 313.48 546.422C301.075 543.44 288.67 523.311 276.265 523.311C263.446 523.311 250.628 540.633 237.809 545.844C225.404 550.887 212.999 554.511 200.594 554.511C187.793 554.511 174.991 540.356 162.19 540.356C150.612 540.356 139.034 543.797 127.456 544.978C114.637 546.285 101.819 546.932 89 547.578Z" fill="#9FC5EC"/>
<path d="M89 546.711C101.819 546.374 114.637 546.037 127.456 544.689C139.034 543.471 150.612 539.2 162.19 539.2C174.991 539.2 187.793 553.645 200.594 553.645C212.999 553.645 225.404 550.684 237.809 545.556C250.628 540.256 263.446 521.867 276.265 521.867C288.67 521.867 301.075 543.627 313.48 546.422C326.299 549.311 339.117 550.756 351.936 550.756C364.754 550.756 377.573 548.122 390.391 547C402.796 545.915 415.201 544.875 427.607 544.111C440.442 543.321 453.278 543.533 466.114 542.378C478.519 541.261 490.924 343.333 503.329 343.333C516.148 343.333 528.966 547.867 541.785 547.867C554.603 547.867 567.422 544.593 580.241 538.045C592.232 531.919 604.224 367.6 616.215 367.6C629.017 367.6 641.818 524.086 654.619 527.067C667.024 529.956 679.429 530.208 691.834 531.4C704.653 532.632 717.472 532.363 730.29 534.289C742.695 536.153 755.1 558.556 767.505 558.556C780.324 558.556 793.142 530.534 805.961 530.534C818.78 530.534 831.598 540.279 844.417 543.822C856.822 547.252 869.227 551.622 881.632 551.622C894.468 551.622 907.303 541.511 920.139 541.511C932.544 541.511 944.949 545.189 957.354 546.711C970.173 548.285 982.992 550.756 995.81 550.756C1008.63 550.756 1021.45 545.845 1034.27 545.845C1045.84 545.845 1057.42 553.934 1069 562.022C1057.42 554.367 1045.84 546.711 1034.27 546.711C1021.45 546.711 1008.63 551.622 995.81 551.622C982.992 551.622 970.173 549.634 957.354 548.156C944.949 546.725 932.544 542.956 920.139 542.956C907.303 542.956 894.468 552.489 881.632 552.489C869.227 552.489 856.822 547.399 844.417 543.822C831.598 540.127 818.78 530.534 805.961 530.534C793.142 530.534 780.324 558.845 767.505 558.845C755.1 558.845 742.695 537.868 730.29 535.445C717.472 532.941 704.653 532.962 691.834 531.689C679.429 530.457 667.024 530.437 654.619 527.934C641.818 525.35 629.017 369.045 616.215 369.045C604.224 369.045 592.232 533.326 580.241 538.911C567.422 544.882 554.603 547.867 541.785 547.867C528.966 547.867 516.148 343.911 503.329 343.911C490.924 343.911 478.519 540.703 466.114 542.378C453.278 544.111 440.442 544.197 427.607 544.978C415.201 545.732 402.796 546.016 390.391 547C377.573 548.017 364.754 551.045 351.936 551.045C339.117 551.045 326.299 549.504 313.48 546.422C301.075 543.44 288.67 523.311 276.265 523.311C263.446 523.311 250.628 540.634 237.809 545.845C225.404 550.888 212.999 554.511 200.594 554.511C187.793 554.511 174.991 540.356 162.19 540.356C150.612 540.356 139.034 543.797 127.456 544.978C114.637 546.286 101.819 546.932 89 547.578V546.711Z" fill="#9FC5EC"/>
<path d="M89 543.822C101.819 543.533 114.637 543.245 127.456 542.089C139.034 541.045 150.612 536.022 162.19 536.022C174.991 536.022 187.793 551.622 200.594 551.622C212.999 551.622 225.404 547.829 237.809 542.089C250.628 536.158 263.446 516.089 276.265 516.089C288.67 516.089 301.075 538.939 313.48 542.667C326.299 546.519 339.117 548.445 351.936 548.445C364.754 548.445 377.573 545.277 390.391 544.111C402.796 542.983 415.201 541.697 427.607 541.511C440.442 541.319 453.278 541.415 466.114 541.222C478.519 541.036 490.924 339.289 503.329 339.289C516.148 339.289 528.966 544.111 541.785 544.111C554.603 544.111 567.422 541.511 580.241 536.311C592.232 531.447 604.224 355.756 616.215 355.756C629.017 355.756 641.818 514.931 654.619 518.111C667.024 521.193 679.429 520.942 691.834 522.734C704.653 524.585 717.472 524.852 730.29 529.089C742.695 533.189 755.1 554.222 767.505 554.222C780.324 554.222 793.142 526.2 805.961 526.2C818.78 526.2 831.598 536.097 844.417 539.489C856.822 542.772 869.227 546.422 881.632 546.422C894.468 546.422 907.303 539.106 920.139 535.734C932.544 532.474 944.949 526.489 957.354 526.489C970.173 526.489 982.992 539.682 995.81 541.222C1008.63 542.763 1021.45 541.993 1034.27 543.534C1045.84 544.925 1057.42 552.318 1069 559.711V562.022C1057.42 553.934 1045.84 545.845 1034.27 545.845C1021.45 545.845 1008.63 550.756 995.81 550.756C982.992 550.756 970.173 548.285 957.354 546.711C944.949 545.189 932.544 541.511 920.139 541.511C907.303 541.511 894.468 551.622 881.632 551.622C869.227 551.622 856.822 547.252 844.417 543.822C831.598 540.279 818.78 530.534 805.961 530.534C793.142 530.534 780.324 558.556 767.505 558.556C755.1 558.556 742.695 536.153 730.29 534.289C717.472 532.363 704.653 532.632 691.834 531.4C679.429 530.208 667.024 529.956 654.619 527.067C641.818 524.086 629.017 367.6 616.215 367.6C604.224 367.6 592.232 531.919 580.241 538.045C567.422 544.593 554.603 547.867 541.785 547.867C528.966 547.867 516.148 343.334 503.329 343.334C490.924 343.334 478.519 541.261 466.114 542.378C453.278 543.533 440.442 543.321 427.607 544.111C415.201 544.875 402.796 545.915 390.391 547C377.573 548.122 364.754 550.756 351.936 550.756C339.117 550.756 326.299 549.311 313.48 546.422C301.075 543.627 288.67 521.867 276.265 521.867C263.446 521.867 250.628 540.256 237.809 545.556C225.404 550.684 212.999 553.645 200.594 553.645C187.793 553.645 174.991 539.2 162.19 539.2C150.612 539.2 139.034 543.471 127.456 544.689C114.637 546.037 101.819 546.374 89 546.711V543.822Z" fill="#D11F5F"/>
<path d="M89.5 573.5H1069.5" stroke="black"/>
<path d="M89.5 573V579" stroke="black"/>
<path d="M78.0144 597.26V598.11H83.5444V597.26H79.4944C80.6044 596.6 81.2244 596.16 81.7244 595.74C82.9144 594.74 83.4444 593.85 83.4444 592.77C83.4444 591.26 82.3744 590.34 80.6244 590.34C78.7244 590.34 77.5944 591.4 77.5944 593.1C77.5944 593.33 77.6144 593.46 77.6944 593.77H78.5344C78.4544 593.45 78.4344 593.34 78.4344 593.17C78.4344 592 79.2244 591.14 80.6544 591.14C81.8544 591.14 82.5344 591.76 82.5344 592.79C82.5344 593.55 82.1844 594.24 81.1944 595.09C80.5944 595.6 79.7744 596.17 78.0144 597.26ZM87.7845 598.26C90.0245 598.26 90.8645 596.37 90.8645 594.3C90.8645 592.23 90.0245 590.34 87.7845 590.34C85.5345 590.34 84.6745 592.23 84.6745 594.3C84.6745 596.37 85.5345 598.26 87.7845 598.26ZM87.7645 597.43C86.1945 597.43 85.5245 596 85.5245 594.3C85.5245 592.6 86.1945 591.17 87.7645 591.17C89.3445 591.17 90.0145 592.6 90.0145 594.3C90.0145 596 89.3445 597.43 87.7645 597.43ZM91.7085 590.5V591.35H93.2185V598.1H94.0685V590.5H91.7085ZM98.3129 598.26C100.123 598.26 101.413 596.59 101.413 594.03C101.413 591.36 100.183 590.34 98.4429 590.34C96.8029 590.34 95.5629 591.34 95.5629 592.96C95.5629 594.56 96.6629 595.57 98.1629 595.57C99.0729 595.57 100.053 595.13 100.573 594.48V594.65C100.573 596.4 99.5729 597.47 98.2729 597.47C97.3029 597.47 96.6129 597.09 96.5329 596.53H95.6129C95.7629 597.58 96.8629 598.26 98.3129 598.26ZM98.4129 594.75C97.1729 594.75 96.3429 594.05 96.3429 592.99C96.3429 591.88 97.1729 591.15 98.4129 591.15C99.6729 591.15 100.513 591.88 100.513 592.99C100.513 594.05 99.6729 594.75 98.4129 594.75Z" fill="black"/>
<path d="M197.209 598.1L194.199 590.5H193.229L190.219 598.1H191.179L192.069 595.8H195.369L196.249 598.1H197.209ZM192.399 594.93L193.719 591.57L195.039 594.93H192.399ZM200.738 592.69C200.068 592.69 199.368 593.04 198.948 593.57V592.85H198.128V600.5H198.978V597.43C199.338 597.92 200.068 598.26 200.788 598.26C202.208 598.26 203.148 597.14 203.148 595.46C203.148 593.8 202.178 592.69 200.738 592.69ZM200.668 597.49C199.658 597.49 198.978 596.83 198.978 595.85V595.23C198.978 594.16 199.648 593.45 200.648 593.45C201.638 593.45 202.288 594.26 202.288 595.49C202.288 596.69 201.638 597.49 200.668 597.49ZM204.915 593.79V592.85H204.115V598.1H204.965V595.38C204.965 594.29 205.735 593.62 206.595 593.62H206.815V592.72C206.445 592.72 206.155 592.76 205.865 592.89C205.475 593.07 205.125 593.38 204.915 593.79ZM208.483 591.44V590.5H207.523V591.44H208.483ZM208.423 598.1V592.85H207.573V598.1H208.423ZM210.609 598.1V590.5H209.759V598.1H210.609Z" fill="black"/>
<path d="M313.98 573V579" stroke="black"/>
<path d="M307.355 598.26C309.575 598.26 309.605 596.51 309.605 594.2V590.5H308.695V594.3C308.695 596.34 308.645 597.4 307.285 597.4C306.335 597.4 305.815 596.89 305.685 595.89H304.805C304.915 597.44 305.845 598.26 307.355 598.26ZM312.707 598.26C313.427 598.26 314.097 598 314.517 597.2V598.1H315.367V592.85H314.517V595.77C314.517 596.87 313.827 597.5 312.877 597.5C312.297 597.5 311.707 597.25 311.707 596.08V592.85H310.857V596.06C310.857 597.56 311.547 598.26 312.707 598.26ZM317.502 598.1V590.5H316.652V598.1H317.502ZM319.348 592.85H318.388L320.388 598.1L319.578 600.5H320.388L321.358 597.6L323.198 592.85H322.238L320.988 596.54L320.808 597.02H320.788L320.608 596.54L319.348 592.85Z" fill="black"/>
<path d="M428.106 573V579" stroke="black"/>
<path d="M413.41 598.26C415.55 598.26 417.02 596.7 417.02 594.3C417.02 591.9 415.55 590.34 413.41 590.34C411.25 590.34 409.77 591.9 409.77 594.3C409.77 596.7 411.25 598.26 413.41 598.26ZM413.4 597.4C411.78 597.4 410.69 596.19 410.69 594.3C410.69 592.41 411.78 591.2 413.4 591.2C415.01 591.2 416.1 592.41 416.1 594.3C416.1 596.19 415.01 597.4 413.4 597.4ZM420.399 598.26C421.849 598.26 422.579 597.29 422.679 596.44H421.839C421.679 597.01 421.189 597.5 420.389 597.5C419.299 597.5 418.769 596.66 418.769 595.47C418.769 594.28 419.309 593.45 420.389 593.45C421.189 593.45 421.689 593.83 421.839 594.68H422.679C422.599 593.48 421.699 592.69 420.379 592.69C418.799 592.69 417.909 593.84 417.909 595.47C417.909 597.03 418.769 598.26 420.399 598.26ZM425.557 598.2C425.667 598.2 425.837 598.19 426.067 598.17V597.48C425.907 597.5 425.797 597.5 425.717 597.5C425.057 597.5 424.837 597.3 424.837 596.6V593.57H426.037V592.85H424.837V591.5H424.027V592.04C424.027 592.67 423.907 592.94 423.267 592.94V593.57H423.987V596.75C423.987 597.71 424.387 598.2 425.557 598.2ZM429.13 598.26C430.64 598.26 431.63 597.03 431.63 595.47C431.63 593.85 430.64 592.69 429.13 592.69C427.63 592.69 426.61 593.85 426.61 595.47C426.61 597.03 427.63 598.26 429.13 598.26ZM429.12 597.5C428.04 597.5 427.47 596.67 427.47 595.47C427.47 594.28 428.04 593.45 429.12 593.45C430.2 593.45 430.78 594.28 430.78 595.47C430.78 596.67 430.2 597.5 429.12 597.5ZM435.165 592.69C434.495 592.69 433.825 593.04 433.405 593.57V590.5H432.555V598.1H433.365V597.43C433.725 597.92 434.495 598.26 435.215 598.26C436.635 598.26 437.575 597.14 437.575 595.46C437.575 593.8 436.605 592.69 435.165 592.69ZM435.095 597.49C434.085 597.49 433.405 596.83 433.405 595.85V595.23C433.405 594.16 434.075 593.45 435.075 593.45C436.065 593.45 436.715 594.26 436.715 595.49C436.715 596.69 436.065 597.49 435.095 597.49ZM440.917 598.26C442.367 598.26 443.097 597.29 443.197 596.63H442.357C442.197 597 441.697 597.5 440.897 597.5C439.937 597.5 439.397 596.83 439.307 595.81L443.197 595.8V594.93C443.197 593.6 442.237 592.69 440.867 592.69C439.327 592.69 438.427 593.84 438.427 595.46C438.427 597.04 439.287 598.26 440.917 598.26ZM442.357 595.06H439.317C439.317 593.94 440.037 593.45 440.847 593.45C441.677 593.45 442.357 593.94 442.357 595.06ZM445.035 593.79V592.85H444.235V598.1H445.085V595.38C445.085 594.29 445.855 593.62 446.715 593.62H446.935V592.72C446.565 592.72 446.275 592.76 445.985 592.89C445.595 593.07 445.245 593.38 445.035 593.79Z" fill="black"/>
<path d="M542.285 573V579" stroke="black"/>
<path d="M528.861 597.26V598.11H534.391V597.26H530.341C531.451 596.6 532.071 596.16 532.571 595.74C533.761 594.74 534.291 593.85 534.291 592.77C534.291 591.26 533.221 590.34 531.471 590.34C529.571 590.34 528.441 591.4 528.441 593.1C528.441 593.33 528.461 593.46 528.541 593.77H529.381C529.301 593.45 529.281 593.34 529.281 593.17C529.281 592 530.071 591.14 531.501 591.14C532.701 591.14 533.381 591.76 533.381 592.79C533.381 593.55 533.031 594.24 532.041 595.09C531.441 595.6 530.621 596.17 528.861 597.26ZM538.631 598.26C540.871 598.26 541.711 596.37 541.711 594.3C541.711 592.23 540.871 590.34 538.631 590.34C536.381 590.34 535.521 592.23 535.521 594.3C535.521 596.37 536.381 598.26 538.631 598.26ZM538.611 597.43C537.041 597.43 536.371 596 536.371 594.3C536.371 592.6 537.041 591.17 538.611 591.17C540.191 591.17 540.861 592.6 540.861 594.3C540.861 596 540.191 597.43 538.611 597.43ZM543.275 597.26V598.11H548.805V597.26H544.755C545.865 596.6 546.485 596.16 546.985 595.74C548.175 594.74 548.705 593.85 548.705 592.77C548.705 591.26 547.635 590.34 545.885 590.34C543.985 590.34 542.855 591.4 542.855 593.1C542.855 593.33 542.875 593.46 542.955 593.77H543.795C543.715 593.45 543.695 593.34 543.695 593.17C543.695 592 544.485 591.14 545.915 591.14C547.115 591.14 547.795 591.76 547.795 592.79C547.795 593.55 547.445 594.24 546.455 595.09C545.855 595.6 545.035 596.17 543.275 597.26ZM553.045 598.26C555.285 598.26 556.125 596.37 556.125 594.3C556.125 592.23 555.285 590.34 553.045 590.34C550.795 590.34 549.935 592.23 549.935 594.3C549.935 596.37 550.795 598.26 553.045 598.26ZM553.025 597.43C551.455 597.43 550.785 596 550.785 594.3C550.785 592.6 551.455 591.17 553.025 591.17C554.605 591.17 555.275 592.6 555.275 594.3C555.275 596 554.605 597.43 553.025 597.43Z" fill="black"/>
<path d="M655.119 573V579" stroke="black"/>
<path d="M651.235 598.1L648.225 590.5H647.255L644.245 598.1H645.205L646.095 595.8H649.395L650.275 598.1H651.235ZM646.425 594.93L647.745 591.57L649.065 594.93H646.425ZM654.764 592.69C654.094 592.69 653.394 593.04 652.974 593.57V592.85H652.154V600.5H653.004V597.43C653.364 597.92 654.094 598.26 654.814 598.26C656.234 598.26 657.174 597.14 657.174 595.46C657.174 593.8 656.204 592.69 654.764 592.69ZM654.694 597.49C653.684 597.49 653.004 596.83 653.004 595.85V595.23C653.004 594.16 653.674 593.45 654.674 593.45C655.664 593.45 656.314 594.26 656.314 595.49C656.314 596.69 655.664 597.49 654.694 597.49ZM658.94 593.79V592.85H658.14V598.1H658.99V595.38C658.99 594.29 659.76 593.62 660.62 593.62H660.84V592.72C660.47 592.72 660.18 592.76 659.89 592.89C659.5 593.07 659.15 593.38 658.94 593.79ZM662.508 591.44V590.5H661.548V591.44H662.508ZM662.448 598.1V592.85H661.598V598.1H662.448ZM664.635 598.1V590.5H663.785V598.1H664.635Z" fill="black"/>
<path d="M768.005 573V579" stroke="black"/>
<path d="M761.379 598.26C763.599 598.26 763.629 596.51 763.629 594.2V590.5H762.719V594.3C762.719 596.34 762.669 597.4 761.309 597.4C760.359 597.4 759.839 596.89 759.709 595.89H758.829C758.939 597.44 759.869 598.26 761.379 598.26ZM766.731 598.26C767.451 598.26 768.121 598 768.541 597.2V598.1H769.391V592.85H768.541V595.77C768.541 596.87 767.851 597.5 766.901 597.5C766.321 597.5 765.731 597.25 765.731 596.08V592.85H764.881V596.06C764.881 597.56 765.571 598.26 766.731 598.26ZM771.526 598.1V590.5H770.676V598.1H771.526ZM773.372 592.85H772.412L774.412 598.1L773.602 600.5H774.412L775.382 597.6L777.222 592.85H776.262L775.012 596.54L774.832 597.02H774.812L774.632 596.54L773.372 592.85Z" fill="black"/>
<path d="M882.132 573V579" stroke="black"/>
<path d="M867.435 598.26C869.575 598.26 871.045 596.7 871.045 594.3C871.045 591.9 869.575 590.34 867.435 590.34C865.275 590.34 863.795 591.9 863.795 594.3C863.795 596.7 865.275 598.26 867.435 598.26ZM867.425 597.4C865.805 597.4 864.715 596.19 864.715 594.3C864.715 592.41 865.805 591.2 867.425 591.2C869.035 591.2 870.125 592.41 870.125 594.3C870.125 596.19 869.035 597.4 867.425 597.4ZM874.424 598.26C875.874 598.26 876.604 597.29 876.704 596.44H875.864C875.704 597.01 875.214 597.5 874.414 597.5C873.324 597.5 872.794 596.66 872.794 595.47C872.794 594.28 873.334 593.45 874.414 593.45C875.214 593.45 875.714 593.83 875.864 594.68H876.704C876.624 593.48 875.724 592.69 874.404 592.69C872.824 592.69 871.934 593.84 871.934 595.47C871.934 597.03 872.794 598.26 874.424 598.26ZM879.583 598.2C879.693 598.2 879.863 598.19 880.093 598.17V597.48C879.933 597.5 879.823 597.5 879.743 597.5C879.083 597.5 878.863 597.3 878.863 596.6V593.57H880.063V592.85H878.863V591.5H878.053V592.04C878.053 592.67 877.933 592.94 877.293 592.94V593.57H878.013V596.75C878.013 597.71 878.413 598.2 879.583 598.2ZM883.156 598.26C884.666 598.26 885.656 597.03 885.656 595.47C885.656 593.85 884.666 592.69 883.156 592.69C881.656 592.69 880.636 593.85 880.636 595.47C880.636 597.03 881.656 598.26 883.156 598.26ZM883.146 597.5C882.066 597.5 881.496 596.67 881.496 595.47C881.496 594.28 882.066 593.45 883.146 593.45C884.226 593.45 884.806 594.28 884.806 595.47C884.806 596.67 884.226 597.5 883.146 597.5ZM889.19 592.69C888.52 592.69 887.85 593.04 887.43 593.57V590.5H886.58V598.1H887.39V597.43C887.75 597.92 888.52 598.26 889.24 598.26C890.66 598.26 891.6 597.14 891.6 595.46C891.6 593.8 890.63 592.69 889.19 592.69ZM889.12 597.49C888.11 597.49 887.43 596.83 887.43 595.85V595.23C887.43 594.16 888.1 593.45 889.1 593.45C890.09 593.45 890.74 594.26 890.74 595.49C890.74 596.69 890.09 597.49 889.12 597.49ZM894.942 598.26C896.392 598.26 897.122 597.29 897.222 596.63H896.382C896.222 597 895.722 597.5 894.922 597.5C893.962 597.5 893.422 596.83 893.332 595.81L897.222 595.8V594.93C897.222 593.6 896.262 592.69 894.892 592.69C893.352 592.69 892.452 593.84 892.452 595.46C892.452 597.04 893.312 598.26 894.942 598.26ZM896.382 595.06H893.342C893.342 593.94 894.062 593.45 894.872 593.45C895.702 593.45 896.382 593.94 896.382 595.06ZM899.06 593.79V592.85H898.26V598.1H899.11V595.38C899.11 594.29 899.88 593.62 900.74 593.62H900.96V592.72C900.59 592.72 900.3 592.76 900.01 592.89C899.62 593.07 899.27 593.38 899.06 593.79Z" fill="black"/>
<path d="M996.311 573V579" stroke="black"/>
<path d="M984.271 597.26V598.11H989.801V597.26H985.751C986.861 596.6 987.481 596.16 987.981 595.74C989.171 594.74 989.701 593.85 989.701 592.77C989.701 591.26 988.631 590.34 986.881 590.34C984.981 590.34 983.851 591.4 983.851 593.1C983.851 593.33 983.871 593.46 983.951 593.77H984.791C984.711 593.45 984.691 593.34 984.691 593.17C984.691 592 985.481 591.14 986.911 591.14C988.111 591.14 988.791 591.76 988.791 592.79C988.791 593.55 988.441 594.24 987.451 595.09C986.851 595.6 986.031 596.17 984.271 597.26ZM994.041 598.26C996.281 598.26 997.121 596.37 997.121 594.3C997.121 592.23 996.281 590.34 994.041 590.34C991.791 590.34 990.931 592.23 990.931 594.3C990.931 596.37 991.791 598.26 994.041 598.26ZM994.021 597.43C992.451 597.43 991.781 596 991.781 594.3C991.781 592.6 992.451 591.17 994.021 591.17C995.601 591.17 996.271 592.6 996.271 594.3C996.271 596 995.601 597.43 994.021 597.43ZM998.685 597.26V598.11H1004.22V597.26H1000.17C1001.28 596.6 1001.9 596.16 1002.4 595.74C1003.59 594.74 1004.12 593.85 1004.12 592.77C1004.12 591.26 1003.05 590.34 1001.3 590.34C999.395 590.34 998.265 591.4 998.265 593.1C998.265 593.33 998.285 593.46 998.365 593.77H999.205C999.125 593.45 999.105 593.34 999.105 593.17C999.105 592 999.895 591.14 1001.33 591.14C1002.53 591.14 1003.21 591.76 1003.21 592.79C1003.21 593.55 1002.86 594.24 1001.87 595.09C1001.27 595.6 1000.45 596.17 998.685 597.26ZM1005.05 590.5V591.35H1006.56V598.1H1007.41V590.5H1005.05Z" fill="black"/>
<path d="M89.5 573.5V313.5" stroke="black"/>
<path d="M89 573.5H83" stroke="black"/>
<path d="M76.346 575.86C78.586 575.86 79.426 573.97 79.426 571.9C79.426 569.83 78.586 567.94 76.346 567.94C74.096 567.94 73.236 569.83 73.236 571.9C73.236 573.97 74.096 575.86 76.346 575.86ZM76.326 575.03C74.756 575.03 74.086 573.6 74.086 571.9C74.086 570.2 74.756 568.77 76.326 568.77C77.906 568.77 78.576 570.2 78.576 571.9C78.576 573.6 77.906 575.03 76.326 575.03Z" fill="black"/>
<path d="M89 544.611H83" stroke="black"/>
<path d="M62.0376 539.211V540.061H63.5476V546.811H64.3976V539.211H62.0376ZM69.012 546.971C71.252 546.971 72.092 545.081 72.092 543.011C72.092 540.941 71.252 539.051 69.012 539.051C66.762 539.051 65.902 540.941 65.902 543.011C65.902 545.081 66.762 546.971 69.012 546.971ZM68.992 546.141C67.422 546.141 66.752 544.711 66.752 543.011C66.752 541.311 67.422 539.881 68.992 539.881C70.572 539.881 71.242 541.311 71.242 543.011C71.242 544.711 70.572 546.141 68.992 546.141ZM76.346 546.971C78.586 546.971 79.426 545.081 79.426 543.011C79.426 540.941 78.586 539.051 76.346 539.051C74.096 539.051 73.236 540.941 73.236 543.011C73.236 545.081 74.096 546.971 76.346 546.971ZM76.326 546.141C74.756 546.141 74.086 544.711 74.086 543.011C74.086 541.311 74.756 539.881 76.326 539.881C77.906 539.881 78.576 541.311 78.576 543.011C78.576 544.711 77.906 546.141 76.326 546.141Z" fill="black"/>
<path d="M89 515.722H83" stroke="black"/>
<path d="M59.242 517.082V517.932H64.772V517.082H60.722C61.832 516.422 62.452 515.982 62.952 515.562C64.142 514.562 64.672 513.672 64.672 512.592C64.672 511.082 63.602 510.162 61.852 510.162C59.952 510.162 58.822 511.222 58.822 512.922C58.822 513.152 58.842 513.282 58.922 513.592H59.762C59.682 513.272 59.662 513.162 59.662 512.992C59.662 511.822 60.452 510.962 61.882 510.962C63.082 510.962 63.762 511.582 63.762 512.612C63.762 513.372 63.412 514.062 62.422 514.912C61.822 515.422 61.002 515.992 59.242 517.082ZM69.012 518.082C71.252 518.082 72.092 516.192 72.092 514.122C72.092 512.052 71.252 510.162 69.012 510.162C66.762 510.162 65.902 512.052 65.902 514.122C65.902 516.192 66.762 518.082 69.012 518.082ZM68.992 517.252C67.422 517.252 66.752 515.822 66.752 514.122C66.752 512.422 67.422 510.992 68.992 510.992C70.572 510.992 71.242 512.422 71.242 514.122C71.242 515.822 70.572 517.252 68.992 517.252ZM76.346 518.082C78.586 518.082 79.426 516.192 79.426 514.122C79.426 512.052 78.586 510.162 76.346 510.162C74.096 510.162 73.236 512.052 73.236 514.122C73.236 516.192 74.096 518.082 76.346 518.082ZM76.326 517.252C74.756 517.252 74.086 515.822 74.086 514.122C74.086 512.422 74.756 510.992 76.326 510.992C77.906 510.992 78.576 512.422 78.576 514.122C78.576 515.822 77.906 517.252 76.326 517.252Z" fill="black"/>
<path d="M89 486.833H83" stroke="black"/>
<path d="M61.702 489.193C64.182 489.193 64.772 487.903 64.772 486.743C64.772 485.123 63.642 484.263 61.832 484.263H61.662L64.152 482.383V481.433H59.352V482.303H63.102L60.702 484.173V485.063H61.312C63.182 485.063 63.922 485.603 63.922 486.783C63.922 487.653 63.532 488.393 61.782 488.393C60.722 488.393 59.962 488.123 59.702 487.433H58.822C59.122 488.593 60.212 489.193 61.702 489.193ZM69.012 489.193C71.252 489.193 72.092 487.303 72.092 485.233C72.092 483.163 71.252 481.273 69.012 481.273C66.762 481.273 65.902 483.163 65.902 485.233C65.902 487.303 66.762 489.193 69.012 489.193ZM68.992 488.363C67.422 488.363 66.752 486.933 66.752 485.233C66.752 483.533 67.422 482.103 68.992 482.103C70.572 482.103 71.242 483.533 71.242 485.233C71.242 486.933 70.572 488.363 68.992 488.363ZM76.346 489.193C78.586 489.193 79.426 487.303 79.426 485.233C79.426 483.163 78.586 481.273 76.346 481.273C74.096 481.273 73.236 483.163 73.236 485.233C73.236 487.303 74.096 489.193 76.346 489.193ZM76.326 488.363C74.756 488.363 74.086 486.933 74.086 485.233C74.086 483.533 74.756 482.103 76.326 482.103C77.906 482.103 78.576 483.533 78.576 485.233C78.576 486.933 77.906 488.363 76.326 488.363Z" fill="black"/>
<path d="M89 457.944H83" stroke="black"/>
<path d="M63.1384 460.145V458.415H64.7584V457.565H63.1384V455.585H62.2884V457.565H59.8884L62.7584 452.545H61.8284L58.9684 457.465V458.415H62.2884V460.145H63.1384ZM69.012 460.305C71.252 460.305 72.092 458.415 72.092 456.345C72.092 454.275 71.252 452.385 69.012 452.385C66.762 452.385 65.902 454.275 65.902 456.345C65.902 458.415 66.762 460.305 69.012 460.305ZM68.992 459.475C67.422 459.475 66.752 458.045 66.752 456.345C66.752 454.645 67.422 453.215 68.992 453.215C70.572 453.215 71.242 454.645 71.242 456.345C71.242 458.045 70.572 459.475 68.992 459.475ZM76.346 460.305C78.586 460.305 79.426 458.415 79.426 456.345C79.426 454.275 78.586 452.385 76.346 452.385C74.096 452.385 73.236 454.275 73.236 456.345C73.236 458.415 74.096 460.305 76.346 460.305ZM76.326 459.475C74.756 459.475 74.086 458.045 74.086 456.345C74.086 454.645 74.756 453.215 76.326 453.215C77.906 453.215 78.576 454.645 78.576 456.345C78.576 458.045 77.906 459.475 76.326 459.475Z" fill="black"/>
<path d="M89 429.056H83" stroke="black"/>
<path d="M61.6703 431.416C63.5803 431.416 64.7603 430.346 64.7603 428.716C64.7603 427.116 63.6503 425.986 62.0003 425.986C61.2603 425.986 60.5403 426.216 60.2003 426.566L60.7203 424.526H64.1103V423.656H60.1203L59.0203 427.916H60.0203C60.2503 427.306 60.8903 426.816 61.8303 426.816C63.0303 426.816 63.9003 427.586 63.9003 428.736C63.9003 429.856 63.0603 430.606 61.6403 430.606C60.7003 430.606 59.8603 430.276 59.8103 429.756H58.8903C58.9803 430.736 60.1303 431.416 61.6703 431.416ZM69.012 431.416C71.252 431.416 72.092 429.526 72.092 427.456C72.092 425.386 71.252 423.496 69.012 423.496C66.762 423.496 65.902 425.386 65.902 427.456C65.902 429.526 66.762 431.416 69.012 431.416ZM68.992 430.586C67.422 430.586 66.752 429.156 66.752 427.456C66.752 425.756 67.422 424.326 68.992 424.326C70.572 424.326 71.242 425.756 71.242 427.456C71.242 429.156 70.572 430.586 68.992 430.586ZM76.346 431.416C78.586 431.416 79.426 429.526 79.426 427.456C79.426 425.386 78.586 423.496 76.346 423.496C74.096 423.496 73.236 425.386 73.236 427.456C73.236 429.526 74.096 431.416 76.346 431.416ZM76.326 430.586C74.756 430.586 74.086 429.156 74.086 427.456C74.086 425.756 74.756 424.326 76.326 424.326C77.906 424.326 78.576 425.756 78.576 427.456C78.576 429.156 77.906 430.586 76.326 430.586Z" fill="black"/>
<path d="M89 400.167H83" stroke="black"/>
<path d="M61.9812 402.517C63.6912 402.517 64.7712 401.457 64.7712 399.837C64.7712 398.277 63.7412 397.247 62.2512 397.247C61.2912 397.247 60.5612 397.677 60.1112 398.387C60.2712 396.607 61.0412 395.407 62.1812 395.407C62.8112 395.407 63.3812 395.787 63.4612 396.387H64.3812C64.2712 395.327 63.3812 394.627 62.2012 394.627C60.3812 394.627 59.2712 396.397 59.2712 398.967C59.2712 401.097 60.0112 402.517 61.9812 402.517ZM62.0612 401.717C60.9412 401.717 60.1912 400.987 60.1912 399.887C60.1912 398.777 60.9512 398.067 62.0612 398.067C63.1712 398.067 63.9312 398.787 63.9312 399.887C63.9312 400.997 63.1612 401.717 62.0612 401.717ZM69.012 402.527C71.252 402.527 72.092 400.637 72.092 398.567C72.092 396.497 71.252 394.607 69.012 394.607C66.762 394.607 65.902 396.497 65.902 398.567C65.902 400.637 66.762 402.527 69.012 402.527ZM68.992 401.697C67.422 401.697 66.752 400.267 66.752 398.567C66.752 396.867 67.422 395.437 68.992 395.437C70.572 395.437 71.242 396.867 71.242 398.567C71.242 400.267 70.572 401.697 68.992 401.697ZM76.346 402.527C78.586 402.527 79.426 400.637 79.426 398.567C79.426 396.497 78.586 394.607 76.346 394.607C74.096 394.607 73.236 396.497 73.236 398.567C73.236 400.637 74.096 402.527 76.346 402.527ZM76.326 401.697C74.756 401.697 74.086 400.267 74.086 398.567C74.086 396.867 74.756 395.437 76.326 395.437C77.906 395.437 78.576 396.867 78.576 398.567C78.576 400.267 77.906 401.697 76.326 401.697Z" fill="black"/>
<path d="M89 371.278H83" stroke="black"/>
<path d="M60.5212 365.878V366.728H64.2912L61.0112 373.478H61.9312L65.1912 366.728V365.878H60.5212ZM69.012 373.638C71.252 373.638 72.092 371.748 72.092 369.678C72.092 367.608 71.252 365.718 69.012 365.718C66.762 365.718 65.902 367.608 65.902 369.678C65.902 371.748 66.762 373.638 69.012 373.638ZM68.992 372.808C67.422 372.808 66.752 371.378 66.752 369.678C66.752 367.978 67.422 366.548 68.992 366.548C70.572 366.548 71.242 367.978 71.242 369.678C71.242 371.378 70.572 372.808 68.992 372.808ZM76.346 373.638C78.586 373.638 79.426 371.748 79.426 369.678C79.426 367.608 78.586 365.718 76.346 365.718C74.096 365.718 73.236 367.608 73.236 369.678C73.236 371.748 74.096 373.638 76.346 373.638ZM76.326 372.808C74.756 372.808 74.086 371.378 74.086 369.678C74.086 367.978 74.756 366.548 76.326 366.548C77.906 366.548 78.576 367.978 78.576 369.678C78.576 371.378 77.906 372.808 76.326 372.808Z" fill="black"/>
<path d="M89 342.389H83" stroke="black"/>
<path d="M61.821 344.769C64.001 344.769 64.761 343.509 64.761 342.429C64.761 341.599 64.381 340.909 63.371 340.529C64.201 340.039 64.411 339.439 64.411 338.919C64.411 337.959 63.681 336.859 61.821 336.859C60.021 336.859 59.221 337.969 59.221 338.979C59.221 339.449 59.421 340.039 60.261 340.529C59.241 340.909 58.861 341.619 58.861 342.429C58.861 343.509 59.661 344.769 61.821 344.769ZM61.811 340.179C60.551 340.179 60.091 339.589 60.091 338.939C60.091 338.299 60.551 337.659 61.811 337.659C63.071 337.659 63.501 338.299 63.501 338.939C63.501 339.589 63.071 340.179 61.811 340.179ZM61.811 343.979C60.181 343.979 59.711 343.129 59.711 342.489C59.711 341.699 60.221 341.009 61.811 341.009C63.441 341.009 63.901 341.789 63.901 342.489C63.901 343.129 63.431 343.979 61.811 343.979ZM69.012 344.749C71.252 344.749 72.092 342.859 72.092 340.789C72.092 338.719 71.252 336.829 69.012 336.829C66.762 336.829 65.902 338.719 65.902 340.789C65.902 342.859 66.762 344.749 69.012 344.749ZM68.992 343.919C67.422 343.919 66.752 342.489 66.752 340.789C66.752 339.089 67.422 337.659 68.992 337.659C70.572 337.659 71.242 339.089 71.242 340.789C71.242 342.489 70.572 343.919 68.992 343.919ZM76.346 344.749C78.586 344.749 79.426 342.859 79.426 340.789C79.426 338.719 78.586 336.829 76.346 336.829C74.096 336.829 73.236 338.719 73.236 340.789C73.236 342.859 74.096 344.749 76.346 344.749ZM76.326 343.919C74.756 343.919 74.086 342.489 74.086 340.789C74.086 339.089 74.756 337.659 76.326 337.659C77.906 337.659 78.576 339.089 78.576 340.789C78.576 342.489 77.906 343.919 76.326 343.919Z" fill="black"/>
<path d="M89 313.5H83" stroke="black"/>
<path d="M61.6694 315.86C63.4794 315.86 64.7694 314.19 64.7694 311.63C64.7694 308.96 63.5394 307.94 61.7994 307.94C60.1594 307.94 58.9194 308.94 58.9194 310.56C58.9194 312.16 60.0194 313.17 61.5194 313.17C62.4294 313.17 63.4094 312.73 63.9294 312.08V312.25C63.9294 314 62.9294 315.07 61.6294 315.07C60.6594 315.07 59.9694 314.69 59.8894 314.13H58.9694C59.1194 315.18 60.2194 315.86 61.6694 315.86ZM61.7694 312.35C60.5294 312.35 59.6994 311.65 59.6994 310.59C59.6994 309.48 60.5294 308.75 61.7694 308.75C63.0294 308.75 63.8694 309.48 63.8694 310.59C63.8694 311.65 63.0294 312.35 61.7694 312.35ZM69.012 315.86C71.252 315.86 72.092 313.97 72.092 311.9C72.092 309.83 71.252 307.94 69.012 307.94C66.762 307.94 65.902 309.83 65.902 311.9C65.902 313.97 66.762 315.86 69.012 315.86ZM68.992 315.03C67.422 315.03 66.752 313.6 66.752 311.9C66.752 310.2 67.422 308.77 68.992 308.77C70.572 308.77 71.242 310.2 71.242 311.9C71.242 313.6 70.572 315.03 68.992 315.03ZM76.346 315.86C78.586 315.86 79.426 313.97 79.426 311.9C79.426 309.83 78.586 307.94 76.346 307.94C74.096 307.94 73.236 309.83 73.236 311.9C73.236 313.97 74.096 315.86 76.346 315.86ZM76.326 315.03C74.756 315.03 74.086 313.6 74.086 311.9C74.086 310.2 74.756 308.77 76.326 308.77C77.906 308.77 78.576 310.2 78.576 311.9C78.576 313.6 77.906 315.03 76.326 315.03Z" fill="black"/>
<path d="M160 61H140V81H160V61Z" fill="#D11F5F"/>
<path d="M234 61H214V81H234V61Z" fill="#9FC5EC"/>
<path d="M315 61H295V81H315V61Z" fill="#E7A1A0"/>
<path d="M170.014 76.1299H171.802V70.1539L175.666 76.1299H177.454V67.0099H175.654V73.2019L171.742 67.0099H170.014V76.1299ZM181.813 76.1299H183.601V72.9499L186.769 67.0099H184.777L182.713 71.3419L180.637 67.0099H178.645L181.813 72.9499V76.1299ZM187.967 76.1299H191.819C193.763 76.1299 195.047 75.1579 195.047 73.4659C195.047 72.2899 194.339 71.3659 193.283 71.1739C194.063 70.9939 194.567 70.2619 194.567 69.3739C194.567 67.7539 193.247 67.0099 191.387 67.0099H187.967V76.1299ZM189.755 70.6819V68.5699H191.219C192.179 68.5699 192.695 68.9899 192.695 69.6739C192.695 70.3579 192.107 70.6819 191.111 70.6819H189.755ZM189.755 74.5699V72.0019H191.339C192.443 72.0019 193.175 72.4339 193.175 73.2859C193.175 74.1859 192.407 74.5699 191.387 74.5699H189.755ZM200.637 76.3219C203.277 76.3219 204.837 74.6299 205.065 72.5659H203.157C202.941 73.7179 202.077 74.7259 200.637 74.7259C198.969 74.7259 198.069 73.3579 198.069 71.5819C198.069 69.7939 198.957 68.4139 200.625 68.4139C202.041 68.4139 202.941 69.3979 203.157 70.5619H205.065C204.849 68.5459 203.265 66.8179 200.697 66.8179C197.853 66.8179 196.161 68.8579 196.161 71.6299C196.161 74.2819 197.721 76.3219 200.637 76.3219Z" fill="black"/>
<path d="M249.437 68.865V67.089H243.101V76.209H244.877V72.357H248.969V70.701H244.877V68.865H249.437ZM250.469 76.209H252.257V67.089H250.469V76.209ZM257.789 76.209C260.597 76.221 262.013 74.865 262.013 71.625C262.013 68.313 260.513 67.089 257.813 67.089H254.081V76.209H257.789ZM255.869 74.613V68.685H257.537C259.313 68.685 260.105 69.465 260.105 71.649C260.105 73.965 259.205 74.613 257.537 74.613H255.869ZM262.385 76.209H264.353L265.145 74.061H268.709L269.489 76.209H271.457L267.857 67.089H265.997L262.385 76.209ZM265.721 72.405L266.921 69.153L268.121 72.405H265.721ZM275.759 76.401C277.931 76.401 279.167 75.537 279.167 73.713C279.167 71.649 277.439 71.265 276.695 71.049C275.819 70.785 275.483 70.689 275.051 70.533C274.367 70.269 274.031 70.005 274.031 69.477C274.031 68.589 274.919 68.433 275.399 68.433C276.119 68.433 276.923 68.721 277.031 69.945H278.963C278.891 68.133 277.703 66.897 275.519 66.897C273.875 66.897 272.087 67.629 272.087 69.609C272.087 70.917 272.903 71.529 273.983 71.985C274.643 72.249 275.279 72.417 275.879 72.609C276.539 72.813 277.319 73.113 277.319 73.821C277.319 74.505 276.755 74.865 275.843 74.865C274.691 74.865 273.911 74.457 273.623 73.257H271.691C271.859 75.081 273.119 76.401 275.759 76.401Z" fill="black"/>
<path d="M323.393 75.3467H325.361L326.153 73.1987H329.717L330.497 75.3467H332.465L328.865 66.2267H327.005L323.393 75.3467ZM326.729 71.5427L327.929 68.2907L329.129 71.5427H326.729ZM335.123 75.3467H336.983L340.583 66.2267H338.603L336.047 73.2827L333.491 66.2267H331.511L335.123 75.3467ZM341.582 75.3467H343.37V66.2267H341.582V75.3467ZM348.392 75.5387C350.564 75.5387 351.8 74.6747 351.8 72.8507C351.8 70.7867 350.072 70.4027 349.328 70.1867C348.452 69.9227 348.116 69.8267 347.684 69.6707C347 69.4067 346.664 69.1427 346.664 68.6147C346.664 67.7267 347.552 67.5707 348.032 67.5707C348.752 67.5707 349.556 67.8587 349.664 69.0827H351.596C351.524 67.2707 350.336 66.0347 348.152 66.0347C346.508 66.0347 344.72 66.7667 344.72 68.7467C344.72 70.0547 345.536 70.6667 346.616 71.1227C347.276 71.3867 347.912 71.5547 348.512 71.7467C349.172 71.9507 349.952 72.2507 349.952 72.9587C349.952 73.6427 349.388 74.0027 348.476 74.0027C347.324 74.0027 346.544 73.5947 346.256 72.3947H344.324C344.492 74.2187 345.752 75.5387 348.392 75.5387Z" fill="black"/>
<path d="M11 183.18L2.41016 183.18L2.41016 181.445L11 181.445L11 183.18ZM11 179.77L2.41016 179.77L2.41016 178.082L8.14648 174.566L2.41016 174.566L2.41016 172.955L11 172.955L11 174.695L5.39844 178.158L11 178.158L11 179.77ZM8.20508 171.555L8.04102 169.867C8.60742 169.766 9.02344 169.561 9.28906 169.252C9.55469 168.939 9.6875 168.52 9.6875 167.992C9.6875 167.434 9.57031 167.014 9.33594 166.732C9.09766 166.447 8.82031 166.305 8.50391 166.305C8.30078 166.305 8.12891 166.365 7.98828 166.486C7.84375 166.604 7.71875 166.811 7.61328 167.107C7.54297 167.311 7.41797 167.773 7.23828 168.496C7.00781 169.426 6.72461 170.078 6.38867 170.453C5.91602 170.98 5.33984 171.244 4.66016 171.244C4.22266 171.244 3.81445 171.121 3.43555 170.875C3.05273 170.625 2.76172 170.268 2.5625 169.803C2.36328 169.334 2.26367 168.77 2.26367 168.109C2.26367 167.031 2.5 166.221 2.97266 165.678C3.44531 165.131 4.07617 164.844 4.86523 164.816L4.94141 166.551C4.5 166.625 4.18359 166.785 3.99219 167.031C3.79687 167.273 3.69922 167.639 3.69922 168.127C3.69922 168.631 3.80273 169.025 4.00976 169.311C4.14258 169.494 4.32031 169.586 4.54297 169.586C4.74609 169.586 4.91992 169.5 5.06445 169.328C5.24805 169.109 5.43945 168.578 5.63867 167.734C5.83789 166.891 6.04492 166.268 6.25976 165.865C6.4707 165.459 6.76172 165.143 7.13281 164.916C7.5 164.686 7.95508 164.57 8.49805 164.57C8.99023 164.57 9.45117 164.707 9.88086 164.98C10.3105 165.254 10.6309 165.641 10.8418 166.141C11.0488 166.641 11.1523 167.264 11.1523 168.01C11.1523 169.096 10.9023 169.93 10.4023 170.512C9.89844 171.094 9.16602 171.441 8.20508 171.555ZM11 161.178L3.86328 161.178L3.86328 163.727L2.41016 163.727L2.41016 156.9L3.86328 156.9L3.86328 159.443L11 159.443L11 161.178ZM11 148.92L11 150.807L9.04883 151.557L9.04883 154.99L11 155.699L11 157.539L2.41015 154.193L2.41015 152.359L11 148.92ZM7.60156 152.113L4.41406 153.297L7.60156 154.457L7.60156 152.113ZM7.8418 143.998L6.39453 143.998L6.39453 140.26L9.8164 140.26C10.168 140.623 10.4785 141.15 10.748 141.842C11.0137 142.529 11.1465 143.227 11.1465 143.934C11.1465 144.832 10.959 145.615 10.584 146.283C10.2051 146.951 9.66601 147.453 8.9668 147.789C8.26367 148.125 7.5 148.293 6.67578 148.293C5.78125 148.293 4.98633 148.105 4.29101 147.73C3.5957 147.355 3.0625 146.807 2.6914 146.084C2.40625 145.533 2.26367 144.848 2.26367 144.027C2.26367 142.961 2.48828 142.129 2.9375 141.531C3.38281 140.93 4 140.543 4.78906 140.371L5.11133 142.094C4.68945 142.215 4.35742 142.443 4.11523 142.779C3.86914 143.111 3.74609 143.527 3.74609 144.027C3.74609 144.785 3.98633 145.389 4.4668 145.838C4.94726 146.283 5.66015 146.506 6.60547 146.506C7.625 146.506 8.39062 146.279 8.90234 145.826C9.41015 145.373 9.66406 144.779 9.66406 144.045C9.66406 143.682 9.59375 143.318 9.45312 142.955C9.30859 142.588 9.13476 142.273 8.93164 142.012L7.8418 142.012L7.8418 143.998ZM11 138.648L2.41015 138.648L2.41015 134.998C2.41015 134.08 2.48828 133.414 2.64453 133C2.79687 132.582 3.07031 132.248 3.46484 131.998C3.85937 131.748 4.31054 131.623 4.81836 131.623C5.46289 131.623 5.99609 131.812 6.41797 132.191C6.83594 132.57 7.09961 133.137 7.20898 133.891C7.42773 133.516 7.66797 133.207 7.92969 132.965C8.1914 132.719 8.65625 132.389 9.32422 131.975L11 130.926L11 133L9.13086 134.254C8.46289 134.699 8.04297 135.004 7.87109 135.168C7.69531 135.332 7.57617 135.506 7.51367 135.689C7.44726 135.873 7.41406 136.164 7.41406 136.562L7.41406 136.914L11 136.914L11 138.648ZM6.04297 136.914L6.04297 135.631C6.04297 134.799 6.00781 134.279 5.9375 134.072C5.86719 133.865 5.74609 133.703 5.57422 133.586C5.40234 133.469 5.1875 133.41 4.92969 133.41C4.64062 133.41 4.4082 133.488 4.23242 133.645C4.05273 133.797 3.93945 134.014 3.89258 134.295C3.87304 134.436 3.86328 134.857 3.86328 135.561L3.86328 136.914L6.04297 136.914ZM11 122.236L11 124.123L9.04883 124.873L9.04883 128.307L11 129.016L11 130.855L2.41015 127.51L2.41015 125.676L11 122.236ZM7.60156 125.43L4.41406 126.613L7.60156 127.773L7.60156 125.43ZM11 121.334L2.41015 121.334L2.41015 118.738L8.26953 117.18L2.41015 115.639L2.41015 113.037L11 113.037L11 114.648L4.23828 114.648L11 116.354L11 118.023L4.23828 119.723L11 119.723L11 121.334Z" fill="black"/>
<path d="M11 458.193L3.86328 458.193L3.86328 460.742L2.41016 460.742L2.41016 453.916L3.86328 453.916L3.86328 456.459L11 456.459L11 458.193ZM11 451.572L2.41016 453.623L2.41016 451.848L8.31055 450.553L2.41016 448.982L2.41016 446.92L8.41016 445.414L2.41016 444.096L2.41016 442.35L11 444.436L11 446.275L4.57812 447.986L11 449.691L11 451.572ZM11 441.512L2.41016 441.512L2.41016 439.777L11 439.777L11 441.512ZM11 436.186L3.86328 436.186L3.86328 438.734L2.41016 438.734L2.41015 431.908L3.86328 431.908L3.86328 434.451L11 434.451L11 436.186ZM11 428.85L3.86328 428.85L3.86328 431.398L2.41015 431.398L2.41015 424.572L3.86328 424.572L3.86328 427.115L11 427.115L11 428.85ZM11 423.447L2.41015 423.447L2.41015 417.078L3.86328 417.078L3.86328 421.713L5.76758 421.713L5.76758 417.4L7.21484 417.4L7.21484 421.713L9.55273 421.713L9.55273 416.914L11 416.914L11 423.447ZM11 415.437L2.41015 415.437L2.41015 411.787C2.41015 410.869 2.48828 410.203 2.64453 409.789C2.79687 409.371 3.07031 409.037 3.46484 408.787C3.85937 408.537 4.31054 408.412 4.81836 408.412C5.46289 408.412 5.99609 408.602 6.41797 408.98C6.83594 409.359 7.09961 409.926 7.20898 410.68C7.42773 410.305 7.66797 409.996 7.92969 409.754C8.1914 409.508 8.65625 409.178 9.32422 408.764L11 407.715L11 409.789L9.13086 411.043C8.46289 411.488 8.04297 411.793 7.87109 411.957C7.69531 412.121 7.57617 412.295 7.51367 412.479C7.44726 412.662 7.41406 412.953 7.41406 413.352L7.41406 413.703L11 413.703L11 415.437ZM6.04297 413.703L6.04297 412.42C6.04297 411.588 6.00781 411.068 5.9375 410.861C5.86719 410.654 5.74609 410.492 5.57422 410.375C5.40234 410.258 5.1875 410.199 4.92969 410.199C4.64062 410.199 4.4082 410.277 4.23242 410.434C4.05273 410.586 3.93945 410.803 3.89258 411.084C3.87304 411.225 3.86328 411.646 3.86328 412.35L3.86328 413.703L6.04297 413.703Z" fill="black"/>
<path d="M43 1H25V276H43" stroke="black"/>
<path d="M43 290H25V576H43" stroke="black"/>
</svg>
