<svg width="26" height="15" viewBox="0 0 26 15" fill="none" xmlns="http://www.w3.org/2000/svg">
<path d="M3.06066 0.93934C2.47487 0.353553 1.52513 0.353553 0.93934 0.93934C0.353553 1.52513 0.353553 2.47487 0.93934 3.06066L3.06066 0.93934ZM13 13L11.9393 14.0607C12.5251 14.6464 13.4749 14.6464 14.0607 14.0607L13 13ZM25.0607 3.06066C25.6464 2.47487 25.6464 1.52513 25.0607 0.93934C24.4749 0.353553 23.5251 0.353553 22.9393 0.93934L25.0607 3.06066ZM0.93934 3.06066L11.9393 14.0607L14.0607 11.9393L3.06066 0.93934L0.93934 3.06066ZM14.0607 14.0607L25.0607 3.06066L22.9393 0.93934L11.9393 11.9393L14.0607 14.0607Z" fill="#707070"/>
</svg>
