<svg width="26" height="15" viewBox="0 0 26 15" fill="none" xmlns="http://www.w3.org/2000/svg">
<path d="M22.9393 14.0607C23.5251 14.6464 24.4749 14.6464 25.0607 14.0607C25.6464 13.4749 25.6464 12.5251 25.0607 11.9393L22.9393 14.0607ZM13 2L14.0607 0.939339C13.4749 0.353552 12.5251 0.353552 11.9393 0.939339L13 2ZM0.939339 11.9393C0.353554 12.5251 0.353554 13.4749 0.939339 14.0607C1.52513 14.6464 2.47487 14.6464 3.06066 14.0607L0.939339 11.9393ZM25.0607 11.9393L14.0607 0.939339L11.9393 3.06066L22.9393 14.0607L25.0607 11.9393ZM11.9393 0.939339L0.939339 11.9393L3.06066 14.0607L14.0607 3.06066L11.9393 0.939339Z" fill="#707070"/>
</svg>
