<svg width="872" height="300" viewBox="0 0 872 300" fill="none" xmlns="http://www.w3.org/2000/svg">
<path d="M48.5 79L60.5 48L72 52L83.5 148L107 176L131 186.5L142.5 181L156.5 177.5L166 174L178 177L188.5 173L202.5 173.5L224.5 178.5L236.5 185.5L247.5 195.5L259.5 191L270.5 194.5L283.5 189.5L295 192.5L318.5 185.5L329.5 174L341 165.5L354 162.5L367 162L377.5 160L388.5 160.5L411 143.5L422.5 130.5L469.5 97L483.5 92.5L494.5 91.5L505.5 84H517.5L529 89L540.5 85.5L552 96.5L564 97L575.5 111.5L587.5 112.5L599 121.5L610.5 120.5L622.5 158.5L657 172L681 197L693 202L705 215.5L717 222.5L740 227.5L763.5 242.5L775.5 246.5L786.5 248.5L813 256L833.5 257.5L843 259.5L856 262" stroke="#C3C7CA" stroke-width="2"/>
<path d="M48 104.5L60 85.5L72 111.5L83.5 182L95.5 192.5L118.5 196.5L130.5 194L142.5 184L154.5 181L165.5 174.5L177.5 185.5L188.5 183L200.5 185.5L223.5 177.5L235.5 177L257.5 186.5L271.5 187L292.5 197.5L306 201.5L318.5 198.5L330 200L341.5 197L353.5 196.5L376.5 183L389 180L400 173.5L411.5 177.5L438 172L447 164L458.5 159.5L470 143L494.5 129.5L517.5 126L528.5 119L541 115L553 116L575.5 124.5L587 119L610 124L622.5 139.5H635L657 152.5L669 180.5L682 188L692.5 192L704 202L718.5 211.5L729.5 215L741.5 225.5L763 239L786 244.5L798.5 252L815.5 256L827.5 257L841 258.5L857 262" stroke="#A7C1E4" stroke-width="2"/>
<path d="M47.5 128L60 115L72 130.5L83.5 201L95 212L107.5 215.5L130 208L142.5 198.5L154 193.5L159.75 189.75L165.5 186L176.5 182L188.5 180.5L212.5 173L224.5 177L235.5 173L248 178H261L283 172L295.5 175.5L305.5 176L319 184L330 185.5L342 192L353.5 193L365 191L376.5 195L400.5 189.5L411.5 184L424 173H447L459 177.5L470.5 169.5L482 175L494 163L506 162L516.5 154L529.5 149.5L540.5 142L552 139L564 146.5L576 133.5L587.5 142L599 136L611 135L622.5 145.5L634.5 143.5L646 149.5H657.5L669.5 170.5H681.5L693 176.5L705 175.5L716.5 201L728.5 212L751 225.5L763.5 228.5L796 248L832.5 258L846.5 259L857 262" stroke="#E2A4A5" stroke-width="2"/>
<path d="M36 49.5H866M36 103.5H866M36 158H866M36 212H866M36 266H43M866 266H850.5M43 294.5V266M43 266H54M159.5 294.5V266M276.5 294.5V266M393.5 294.5V266M511.5 294.5V266M628.5 294.5V266M745.5 294.5V266M863 294.5V266M850.5 266H54M850.5 266V272M54 266V272M65.5 266V272M77.5 266V272M89 266V272M101 266V272M112.5 266V272M124 266V272M136 266V272M147.5 266V272M171 266V272M183 266V272M194.5 266V272M206.5 266V272M218 266V272M229.5 266V272M241.5 266V272M253 266V272M265 266V272M288 266V272M300 266V272M311.5 266V272M323.5 266V272M335 266V272M347 266V272M358.5 266V272M370.5 266V272M382 266V272M405.5 266V272M417 266V272M428.5 266V272M440.5 266V272M452.5 266V272M464 266V272M475.5 266V272M487.5 266V272M499 266V272M522.5 266V272M534.5 266V272M546 266V272M557.5 266V272M569.5 266V272M581 266V272M593 266V272M604.5 266V272M616 266V272M639.5 266V272M651.5 266V272M663 266V272M675 266V272M686.5 266V272M698.5 266V272M710 266V272M722 266V272M734 266V272M757 266V272M769 266V272M780.5 266V272M792 266V272M804 266V272M815.5 266V272M827.5 266V272M839 266V272" stroke="#C3C7CA"/>
<path d="M22.888 271.256C26.472 271.256 27.816 268.232 27.816 264.92C27.816 261.608 26.472 258.584 22.888 258.584C19.288 258.584 17.912 261.608 17.912 264.92C17.912 268.232 19.288 271.256 22.888 271.256ZM22.856 269.928C20.344 269.928 19.272 267.64 19.272 264.92C19.272 262.2 20.344 259.912 22.856 259.912C25.384 259.912 26.456 262.2 26.456 264.92C26.456 267.64 25.384 269.928 22.856 269.928Z" fill="black"/>
<path d="M24.584 163V160.232H27.176V158.872H24.584V155.704H23.224V158.872H19.384L23.976 150.84H22.488L17.912 158.712V160.232H23.224V163H24.584Z" fill="black"/>
<path d="M22.648 55.288C26.136 55.288 27.352 53.272 27.352 51.544C27.352 50.216 26.744 49.112 25.128 48.504C26.456 47.72 26.792 46.76 26.792 45.928C26.792 44.392 25.624 42.632 22.648 42.632C19.768 42.632 18.488 44.408 18.488 46.024C18.488 46.776 18.808 47.72 20.152 48.504C18.52 49.112 17.912 50.248 17.912 51.544C17.912 53.272 19.192 55.288 22.648 55.288ZM22.632 47.944C20.616 47.944 19.88 47 19.88 45.96C19.88 44.936 20.616 43.912 22.632 43.912C24.648 43.912 25.336 44.936 25.336 45.96C25.336 47 24.648 47.944 22.632 47.944ZM22.632 54.024C20.024 54.024 19.272 52.664 19.272 51.64C19.272 50.376 20.088 49.272 22.632 49.272C25.24 49.272 25.976 50.52 25.976 51.64C25.976 52.664 25.224 54.024 22.632 54.024Z" fill="black"/>
<path d="M66.632 295L61.816 282.84H60.264L55.448 295H56.984L58.408 291.32H63.688L65.096 295H66.632ZM58.936 289.928L61.048 284.552L63.16 289.928H58.936ZM75.6541 294.584V286.6H74.2941V287.928C73.5901 286.744 72.5021 286.344 71.3181 286.344C68.6621 286.344 67.6061 288.344 67.6061 290.712C67.6061 293.336 68.9341 295.256 71.3981 295.256C72.5821 295.256 73.6381 294.808 74.2941 293.736V294.232C74.2941 296.52 73.7181 297.576 71.8141 297.576C70.5821 297.576 69.6061 297.144 69.3021 296.024H67.9261C68.3741 298.056 69.7501 298.84 71.8621 298.84C73.9421 298.84 75.6541 298.104 75.6541 294.584ZM74.2941 290.184V291.176C74.2941 292.952 73.2221 294.024 71.6061 294.024C69.8141 294.024 68.8701 292.68 68.8701 290.76C68.8701 288.872 69.7981 287.576 71.5741 287.576C73.1581 287.576 74.2941 288.616 74.2941 290.184ZM80.9964 295.256C83.3164 295.256 84.4844 293.704 84.6444 292.648H83.3004C83.0444 293.24 82.2444 294.04 80.9644 294.04C79.4284 294.04 78.5644 292.968 78.4204 291.336L84.6444 291.32V289.928C84.6444 287.8 83.1084 286.344 80.9164 286.344C78.4524 286.344 77.0124 288.184 77.0124 290.776C77.0124 293.304 78.3884 295.256 80.9964 295.256ZM83.3004 290.136H78.4364C78.4364 288.344 79.5884 287.56 80.8844 287.56C82.2124 287.56 83.3004 288.344 83.3004 290.136ZM89.9053 295.256C91.9053 295.256 92.9933 294.472 92.9933 292.696C92.9933 290.776 91.2653 290.424 89.9373 290.136C88.2413 289.768 87.6493 289.544 87.6493 288.728C87.6493 287.688 88.7053 287.544 89.5693 287.544C90.3533 287.544 91.2973 287.832 91.4093 289.16H92.7853C92.7213 287.512 91.6493 286.344 89.6973 286.344C87.9213 286.344 86.2573 287 86.2893 288.84C86.3213 290.584 87.8573 290.936 89.9852 291.448C90.8333 291.656 91.6653 291.96 91.6653 292.824C91.6653 293.672 91.0253 294.072 90.0333 294.072C88.4813 294.072 87.5373 293.656 87.2173 292.248H85.8413C85.9693 293.88 87.1053 295.256 89.9053 295.256Z" fill="black"/>
<path d="M97.432 282.84V284.2H99.848V295H101.208V282.84H97.432ZM108.063 295.256C111.119 295.256 113.007 293.544 113.007 290.936C113.007 288.376 111.231 286.568 108.591 286.568C107.407 286.568 106.255 286.936 105.711 287.496L106.543 284.232H111.967V282.84H105.583L103.823 289.656H105.423C105.791 288.68 106.815 287.896 108.319 287.896C110.239 287.896 111.631 289.128 111.631 290.968C111.631 292.76 110.287 293.96 108.015 293.96C106.511 293.96 105.167 293.432 105.087 292.6H103.615C103.759 294.168 105.599 295.256 108.063 295.256ZM121.346 290.216H114.946V291.48H121.346V290.216ZM123.959 293.656V295.016H132.807V293.656H126.327C128.103 292.6 129.095 291.896 129.895 291.224C131.799 289.624 132.647 288.2 132.647 286.472C132.647 284.056 130.935 282.584 128.135 282.584C125.095 282.584 123.287 284.28 123.287 287C123.287 287.368 123.319 287.576 123.447 288.072H124.791C124.663 287.56 124.631 287.384 124.631 287.112C124.631 285.24 125.895 283.864 128.183 283.864C130.103 283.864 131.191 284.856 131.191 286.504C131.191 287.72 130.631 288.824 129.047 290.184C128.087 291 126.775 291.912 123.959 293.656ZM141.287 295V292.232H143.879V290.872H141.287V287.704H139.927V290.872H136.087L140.679 282.84H139.191L134.615 290.712V292.232H139.927V295H141.287Z" fill="black"/>
<path d="M192.584 293.656V295.016H201.432V293.656H194.952C196.728 292.6 197.72 291.896 198.52 291.224C200.424 289.624 201.272 288.2 201.272 286.472C201.272 284.056 199.56 282.584 196.76 282.584C193.72 282.584 191.912 284.28 191.912 287C191.912 287.368 191.944 287.576 192.072 288.072H193.416C193.288 287.56 193.256 287.384 193.256 287.112C193.256 285.24 194.52 283.864 196.808 283.864C198.728 283.864 199.816 284.856 199.816 286.504C199.816 287.72 199.256 288.824 197.672 290.184C196.712 291 195.4 291.912 192.584 293.656ZM207.688 295.256C210.744 295.256 212.632 293.544 212.632 290.936C212.632 288.376 210.856 286.568 208.216 286.568C207.032 286.568 205.88 286.936 205.336 287.496L206.168 284.232H211.592V282.84H205.208L203.448 289.656H205.048C205.416 288.68 206.44 287.896 207.944 287.896C209.864 287.896 211.256 289.128 211.256 290.968C211.256 292.76 209.912 293.96 207.64 293.96C206.136 293.96 204.792 293.432 204.712 292.6H203.24C203.384 294.168 205.224 295.256 207.688 295.256ZM220.971 290.216H214.571V291.48H220.971V290.216ZM227.52 295.256C231.488 295.256 232.432 293.192 232.432 291.336C232.432 288.744 230.624 287.368 227.728 287.368H227.456L231.44 284.36V282.84H223.76V284.232H229.76L225.92 287.224V288.648H226.896C229.888 288.648 231.072 289.512 231.072 291.4C231.072 292.792 230.448 293.976 227.648 293.976C225.952 293.976 224.736 293.544 224.32 292.44H222.912C223.392 294.296 225.136 295.256 227.52 295.256ZM240.912 295V292.232H243.504V290.872H240.912V287.704H239.552V290.872H235.712L240.304 282.84H238.816L234.24 290.712V292.232H239.552V295H240.912Z" fill="black"/>
<path d="M314.52 295.256C318.488 295.256 319.432 293.192 319.432 291.336C319.432 288.744 317.624 287.368 314.728 287.368H314.456L318.44 284.36V282.84H310.76V284.232H316.76L312.92 287.224V288.648H313.896C316.888 288.648 318.072 289.512 318.072 291.4C318.072 292.792 317.448 293.976 314.648 293.976C312.952 293.976 311.736 293.544 311.32 292.44H309.912C310.392 294.296 312.136 295.256 314.52 295.256ZM325.688 295.256C328.744 295.256 330.632 293.544 330.632 290.936C330.632 288.376 328.856 286.568 326.216 286.568C325.032 286.568 323.88 286.936 323.336 287.496L324.168 284.232H329.592V282.84H323.208L321.448 289.656H323.048C323.416 288.68 324.44 287.896 325.944 287.896C327.864 287.896 329.256 289.128 329.256 290.968C329.256 292.76 327.912 293.96 325.64 293.96C324.136 293.96 322.792 293.432 322.712 292.6H321.24C321.384 294.168 323.224 295.256 325.688 295.256ZM338.971 290.216H332.571V291.48H338.971V290.216ZM347.584 295V292.232H350.176V290.872H347.584V287.704H346.224V290.872H342.384L346.976 282.84H345.488L340.912 290.712V292.232H346.224V295H347.584ZM358.678 295V292.232H361.27V290.872H358.678V287.704H357.318V290.872H353.478L358.07 282.84H356.582L352.006 290.712V292.232H357.318V295H358.678Z" fill="black"/>
<path d="M434.584 295V292.232H437.176V290.872H434.584V287.704H433.224V290.872H429.384L433.976 282.84H432.488L427.912 290.712V292.232H433.224V295H434.584ZM443.454 295.256C446.51 295.256 448.398 293.544 448.398 290.936C448.398 288.376 446.622 286.568 443.982 286.568C442.798 286.568 441.646 286.936 441.102 287.496L441.934 284.232H447.358V282.84H440.974L439.214 289.656H440.814C441.182 288.68 442.206 287.896 443.71 287.896C445.63 287.896 447.022 289.128 447.022 290.968C447.022 292.76 445.678 293.96 443.406 293.96C441.902 293.96 440.558 293.432 440.478 292.6H439.006C439.15 294.168 440.99 295.256 443.454 295.256ZM456.737 290.216H450.337V291.48H456.737V290.216ZM463.126 295.256C466.182 295.256 468.07 293.544 468.07 290.936C468.07 288.376 466.294 286.568 463.654 286.568C462.47 286.568 461.318 286.936 460.774 287.496L461.606 284.232H467.03V282.84H460.646L458.886 289.656H460.486C460.854 288.68 461.878 287.896 463.382 287.896C465.302 287.896 466.694 289.128 466.694 290.968C466.694 292.76 465.35 293.96 463.078 293.96C461.574 293.96 460.23 293.432 460.15 292.6H458.678C458.822 294.168 460.662 295.256 463.126 295.256ZM476.568 295V292.232H479.16V290.872H476.568V287.704H475.208V290.872H471.368L475.96 282.84H474.472L469.896 290.712V292.232H475.208V295H476.568Z" fill="black"/>
<path d="M550.36 295.256C553.416 295.256 555.304 293.544 555.304 290.936C555.304 288.376 553.528 286.568 550.888 286.568C549.704 286.568 548.552 286.936 548.008 287.496L548.84 284.232H554.264V282.84H547.88L546.12 289.656H547.72C548.088 288.68 549.112 287.896 550.616 287.896C552.536 287.896 553.928 289.128 553.928 290.968C553.928 292.76 552.584 293.96 550.312 293.96C548.808 293.96 547.464 293.432 547.384 292.6H545.912C546.056 294.168 547.896 295.256 550.36 295.256ZM561.579 295.256C564.635 295.256 566.523 293.544 566.523 290.936C566.523 288.376 564.747 286.568 562.107 286.568C560.923 286.568 559.771 286.936 559.227 287.496L560.059 284.232H565.483V282.84H559.099L557.339 289.656H558.939C559.307 288.68 560.331 287.896 561.835 287.896C563.755 287.896 565.147 289.128 565.147 290.968C565.147 292.76 563.803 293.96 561.531 293.96C560.027 293.96 558.683 293.432 558.603 292.6H557.131C557.275 294.168 559.115 295.256 561.579 295.256ZM574.862 290.216H568.462V291.48H574.862V290.216ZM581.139 295.24C583.875 295.24 585.603 293.544 585.603 290.952C585.603 288.456 583.955 286.808 581.571 286.808C580.035 286.808 578.867 287.496 578.147 288.632C578.403 285.784 579.635 283.864 581.459 283.864C582.467 283.864 583.379 284.472 583.507 285.432H584.979C584.803 283.736 583.379 282.616 581.491 282.616C578.579 282.616 576.803 285.448 576.803 289.56C576.803 292.968 577.987 295.24 581.139 295.24ZM581.267 293.96C579.475 293.96 578.275 292.792 578.275 291.032C578.275 289.256 579.491 288.12 581.267 288.12C583.043 288.12 584.259 289.272 584.259 291.032C584.259 292.808 583.027 293.96 581.267 293.96ZM594.084 295V292.232H596.676V290.872H594.084V287.704H592.724V290.872H588.884L593.476 282.84H591.988L587.412 290.712V292.232H592.724V295H594.084Z" fill="black"/>
<path d="M667.248 295.24C669.984 295.24 671.712 293.544 671.712 290.952C671.712 288.456 670.064 286.808 667.68 286.808C666.144 286.808 664.976 287.496 664.256 288.632C664.512 285.784 665.744 283.864 667.568 283.864C668.576 283.864 669.488 284.472 669.616 285.432H671.088C670.912 283.736 669.488 282.616 667.6 282.616C664.688 282.616 662.912 285.448 662.912 289.56C662.912 292.968 664.096 295.24 667.248 295.24ZM667.376 293.96C665.584 293.96 664.384 292.792 664.384 291.032C664.384 289.256 665.6 288.12 667.376 288.12C669.152 288.12 670.368 289.272 670.368 291.032C670.368 292.808 669.136 293.96 667.376 293.96ZM677.969 295.256C681.025 295.256 682.913 293.544 682.913 290.936C682.913 288.376 681.137 286.568 678.497 286.568C677.313 286.568 676.161 286.936 675.617 287.496L676.449 284.232H681.873V282.84H675.489L673.729 289.656H675.329C675.697 288.68 676.721 287.896 678.225 287.896C680.145 287.896 681.537 289.128 681.537 290.968C681.537 292.76 680.193 293.96 677.921 293.96C676.417 293.96 675.073 293.432 674.993 292.6H673.521C673.665 294.168 675.505 295.256 677.969 295.256ZM691.252 290.216H684.852V291.48H691.252V290.216ZM693.193 282.84V284.2H699.225L693.977 295H695.449L700.665 284.2V282.84H693.193ZM707.459 295V292.232H710.051V290.872H707.459V287.704H706.099V290.872H702.259L706.851 282.84H705.363L700.787 290.712V292.232H706.099V295H707.459Z" fill="black"/>
<path d="M782.912 282.84V284.2H788.944L783.696 295H785.168L790.384 284.2V282.84H782.912ZM796.641 295.256C799.697 295.256 801.585 293.544 801.585 290.936C801.585 288.376 799.809 286.568 797.169 286.568C795.985 286.568 794.833 286.936 794.289 287.496L795.121 284.232H800.545V282.84H794.161L792.401 289.656H794.001C794.369 288.68 795.393 287.896 796.897 287.896C798.817 287.896 800.209 289.128 800.209 290.968C800.209 292.76 798.865 293.96 796.593 293.96C795.089 293.96 793.745 293.432 793.665 292.6H792.193C792.337 294.168 794.177 295.256 796.641 295.256ZM809.924 290.216H803.524V291.48H809.924V290.216ZM816.601 295.288C820.089 295.288 821.305 293.272 821.305 291.544C821.305 290.216 820.697 289.112 819.081 288.504C820.409 287.72 820.745 286.76 820.745 285.928C820.745 284.392 819.577 282.632 816.601 282.632C813.721 282.632 812.441 284.408 812.441 286.024C812.441 286.776 812.761 287.72 814.105 288.504C812.473 289.112 811.865 290.248 811.865 291.544C811.865 293.272 813.145 295.288 816.601 295.288ZM816.585 287.944C814.569 287.944 813.833 287 813.833 285.96C813.833 284.936 814.569 283.912 816.585 283.912C818.601 283.912 819.289 284.936 819.289 285.96C819.289 287 818.601 287.944 816.585 287.944ZM816.585 294.024C813.977 294.024 813.225 292.664 813.225 291.64C813.225 290.376 814.041 289.272 816.585 289.272C819.193 289.272 819.929 290.52 819.929 291.64C819.929 292.664 819.177 294.024 816.585 294.024ZM829.803 295V292.232H832.395V290.872H829.803V287.704H828.443V290.872H824.603L829.195 282.84H827.707L823.131 290.712V292.232H828.443V295H829.803Z" fill="black"/>
<path d="M4.192 14H5.6V3.184H9.328L9.312 1.84H0.448V3.184H4.192V14ZM12.0913 14.256C14.5073 14.256 16.0913 12.288 16.0913 9.792C16.0913 7.2 14.5073 5.344 12.0913 5.344C9.69125 5.344 8.05925 7.2 8.05925 9.792C8.05925 12.288 9.69125 14.256 12.0913 14.256ZM12.0753 13.04C10.3473 13.04 9.43525 11.712 9.43525 9.792C9.43525 7.888 10.3473 6.56 12.0753 6.56C13.8033 6.56 14.7313 7.888 14.7313 9.792C14.7313 11.712 13.8033 13.04 12.0753 13.04ZM20.6086 14.16C20.7846 14.16 21.0566 14.144 21.4246 14.112V13.008C21.1686 13.04 20.9926 13.04 20.8646 13.04C19.8086 13.04 19.4566 12.72 19.4566 11.6V6.752H21.3766V5.6H19.4566V3.44H18.1606V4.304C18.1606 5.312 17.9686 5.744 16.9446 5.744V6.752H18.0966V11.84C18.0966 13.376 18.7366 14.16 20.6086 14.16ZM25.3024 14.176C26.4864 14.176 27.7504 13.6 28.3424 12.832H28.3584C28.4704 13.648 29.3184 14.176 30.4864 14.128H30.4704V12.896C29.7344 12.944 29.5584 12.752 29.5584 11.968V8.944C29.5584 6.16 28.1984 5.36 26.2464 5.36C23.5104 5.36 22.8224 6.88 22.7904 7.968H24.1344C24.1664 7.344 24.6464 6.592 26.2144 6.592C27.6704 6.592 28.1824 7.312 28.1824 8.352V8.848H27.7504C25.1104 8.848 23.9904 9.184 23.2864 9.728C22.6624 10.208 22.3584 10.864 22.3584 11.616C22.3584 12.784 23.0624 14.176 25.3024 14.176ZM25.4944 12.992C24.2784 12.992 23.6864 12.464 23.6864 11.648C23.6864 10.176 25.5104 9.92 27.6864 9.92H28.1984V11.216C28.1984 11.84 27.3024 12.992 25.4944 12.992ZM33.5246 14V1.84H32.1646V14H33.5246ZM42.5405 14.256C43.6925 14.256 44.7645 13.84 45.4365 12.56V14H46.7965V5.6H45.4365V10.272C45.4365 12.032 44.3325 13.04 42.8125 13.04C41.8845 13.04 40.9405 12.64 40.9405 10.768V5.6H39.5805V10.736C39.5805 13.136 40.6845 14.256 42.5405 14.256ZM50.2121 6.864V5.6H48.8521V14H50.2121V9.328C50.2121 7.568 51.3801 6.56 52.7241 6.56C54.0201 6.56 54.7081 7.536 54.7081 9.024V14H56.0681V8.688C56.0681 6.768 54.9161 5.344 53.0441 5.344C52.1001 5.344 50.9001 5.712 50.2121 6.864ZM59.7163 3.344V1.84H58.1803V3.344H59.7163ZM59.6203 14V5.6H58.2603V14H59.6203ZM64.7024 14.16C64.8784 14.16 65.1504 14.144 65.5184 14.112V13.008C65.2624 13.04 65.0864 13.04 64.9584 13.04C63.9024 13.04 63.5504 12.72 63.5504 11.6V6.752H65.4704V5.6H63.5504V3.44H62.2544V4.304C62.2544 5.312 62.0624 5.744 61.0384 5.744V6.752H62.1904V11.84C62.1904 13.376 62.8304 14.16 64.7024 14.16ZM70.4678 14.256C72.4678 14.256 73.5558 13.472 73.5558 11.696C73.5558 9.776 71.8278 9.424 70.4998 9.136C68.8038 8.768 68.2118 8.544 68.2118 7.728C68.2118 6.688 69.2678 6.544 70.1318 6.544C70.9158 6.544 71.8598 6.832 71.9718 8.16H73.3478C73.2838 6.512 72.2118 5.344 70.2598 5.344C68.4838 5.344 66.8198 6 66.8518 7.84C66.8838 9.584 68.4198 9.936 70.5477 10.448C71.3958 10.656 72.2278 10.96 72.2278 11.824C72.2278 12.672 71.5878 13.072 70.5958 13.072C69.0438 13.072 68.0998 12.656 67.7798 11.248H66.4038C66.5318 12.88 67.6678 14.256 70.4678 14.256ZM82.9964 14.256C85.3164 14.256 86.4844 12.704 86.6444 11.344H85.3004C85.0444 12.256 84.2604 13.04 82.9804 13.04C81.2364 13.04 80.3884 11.696 80.3884 9.792C80.3884 7.888 81.2524 6.56 82.9804 6.56C84.2604 6.56 85.0604 7.168 85.3004 8.528H86.6444C86.5164 6.608 85.0764 5.344 82.9644 5.344C80.4364 5.344 79.0124 7.184 79.0124 9.792C79.0124 12.288 80.3884 14.256 82.9964 14.256ZM91.8413 14.256C94.2573 14.256 95.8413 12.288 95.8413 9.792C95.8413 7.2 94.2573 5.344 91.8413 5.344C89.4413 5.344 87.8092 7.2 87.8092 9.792C87.8092 12.288 89.4413 14.256 91.8413 14.256ZM91.8253 13.04C90.0973 13.04 89.1853 11.712 89.1853 9.792C89.1853 7.888 90.0973 6.56 91.8253 6.56C93.5533 6.56 94.4813 7.888 94.4813 9.792C94.4813 11.712 93.5533 13.04 91.8253 13.04ZM98.6809 14V1.84H97.3209V14H98.6809ZM102.087 14V1.84H100.727V14H102.087ZM107.528 14.256C109.848 14.256 111.016 12.704 111.176 11.648H109.832C109.576 12.24 108.776 13.04 107.496 13.04C105.96 13.04 105.096 11.968 104.952 10.336L111.176 10.32V8.928C111.176 6.8 109.64 5.344 107.448 5.344C104.984 5.344 103.544 7.184 103.544 9.776C103.544 12.304 104.92 14.256 107.528 14.256ZM109.832 9.136H104.968C104.968 7.344 106.12 6.56 107.416 6.56C108.744 6.56 109.832 7.344 109.832 9.136ZM116.325 14.256C118.645 14.256 119.812 12.704 119.973 11.344H118.629C118.373 12.256 117.589 13.04 116.309 13.04C114.565 13.04 113.717 11.696 113.717 9.792C113.717 7.888 114.581 6.56 116.309 6.56C117.589 6.56 118.389 7.168 118.629 8.528H119.973C119.845 6.608 118.405 5.344 116.293 5.344C113.765 5.344 112.34 7.184 112.34 9.792C112.34 12.288 113.717 14.256 116.325 14.256ZM124.577 14.16C124.753 14.16 125.025 14.144 125.393 14.112V13.008C125.137 13.04 124.961 13.04 124.833 13.04C123.777 13.04 123.425 12.72 123.425 11.6V6.752H125.345V5.6H123.425V3.44H122.129V4.304C122.129 5.312 121.937 5.744 120.913 5.744V6.752H122.065V11.84C122.065 13.376 122.705 14.16 124.577 14.16ZM130.246 14.256C132.566 14.256 133.734 12.704 133.894 11.648H132.55C132.294 12.24 131.494 13.04 130.214 13.04C128.678 13.04 127.814 11.968 127.67 10.336L133.894 10.32V8.928C133.894 6.8 132.358 5.344 130.166 5.344C127.702 5.344 126.262 7.184 126.262 9.776C126.262 12.304 127.638 14.256 130.246 14.256ZM132.55 9.136H127.686C127.686 7.344 128.838 6.56 130.134 6.56C131.462 6.56 132.55 7.344 132.55 9.136ZM141.971 14H143.283V1.84H141.923V6.752C141.251 5.904 140.195 5.344 139.139 5.344C136.803 5.344 135.251 7.12 135.251 9.776C135.251 12.464 136.755 14.256 139.027 14.256C140.179 14.256 141.395 13.712 141.971 12.928V14ZM141.923 9.184V10.176C141.923 11.888 140.883 13.024 139.283 13.024C137.683 13.024 136.627 11.728 136.627 9.76C136.627 7.84 137.667 6.576 139.251 6.576C140.867 6.576 141.923 7.616 141.923 9.184ZM153.684 5.344C152.612 5.344 151.54 5.904 150.868 6.752V1.84H149.508V14H150.804V12.928C151.38 13.712 152.612 14.256 153.764 14.256C156.036 14.256 157.54 12.464 157.54 9.776C157.54 7.12 155.988 5.344 153.684 5.344ZM153.572 13.024C151.956 13.024 150.868 11.968 150.868 10.4V9.408C150.868 7.696 151.94 6.56 153.54 6.56C155.124 6.56 156.164 7.856 156.164 9.824C156.164 11.744 155.124 13.024 153.572 13.024ZM159.432 5.6H157.896L161.096 14L159.8 17.84H161.096L162.648 13.2L165.592 5.6H164.056L162.056 11.504L161.768 12.272H161.736L161.448 11.504L159.432 5.6ZM173.646 14.176C174.83 14.176 176.094 13.6 176.686 12.832H176.702C176.814 13.648 177.662 14.176 178.83 14.128H178.814V12.896C178.078 12.944 177.902 12.752 177.902 11.968V8.944C177.902 6.16 176.542 5.36 174.59 5.36C171.854 5.36 171.166 6.88 171.134 7.968H172.478C172.51 7.344 172.99 6.592 174.558 6.592C176.014 6.592 176.526 7.312 176.526 8.352V8.848H176.094C173.454 8.848 172.334 9.184 171.63 9.728C171.006 10.208 170.702 10.864 170.702 11.616C170.702 12.784 171.406 14.176 173.646 14.176ZM173.838 12.992C172.622 12.992 172.03 12.464 172.03 11.648C172.03 10.176 173.854 9.92 176.03 9.92H176.542V11.216C176.542 11.84 175.646 12.992 173.838 12.992ZM188.42 13.584V5.6H187.06V6.928C186.356 5.744 185.268 5.344 184.084 5.344C181.428 5.344 180.372 7.344 180.372 9.712C180.372 12.336 181.7 14.256 184.164 14.256C185.348 14.256 186.404 13.808 187.06 12.736V13.232C187.06 15.52 186.484 16.576 184.58 16.576C183.348 16.576 182.372 16.144 182.068 15.024H180.692C181.14 17.056 182.516 17.84 184.628 17.84C186.708 17.84 188.42 17.104 188.42 13.584ZM187.06 9.184V10.176C187.06 11.952 185.988 13.024 184.372 13.024C182.58 13.024 181.636 11.68 181.636 9.76C181.636 7.872 182.564 6.576 184.34 6.576C185.924 6.576 187.06 7.616 187.06 9.184ZM193.762 14.256C196.082 14.256 197.25 12.704 197.41 11.648H196.066C195.81 12.24 195.01 13.04 193.73 13.04C192.194 13.04 191.33 11.968 191.186 10.336L197.41 10.32V8.928C197.41 6.8 195.874 5.344 193.682 5.344C191.218 5.344 189.778 7.184 189.778 9.776C189.778 12.304 191.154 14.256 193.762 14.256ZM196.066 9.136H191.202C191.202 7.344 192.354 6.56 193.65 6.56C194.978 6.56 196.066 7.344 196.066 9.136ZM198.707 12.352V14H199.331L198.707 15.648H199.635L200.435 14V12.352H198.707ZM209.484 14.16C209.66 14.16 209.932 14.144 210.3 14.112V13.008C210.044 13.04 209.868 13.04 209.74 13.04C208.684 13.04 208.332 12.72 208.332 11.6V6.752H210.252V5.6H208.332V3.44H207.036V4.304C207.036 5.312 206.844 5.744 205.82 5.744V6.752H206.972V11.84C206.972 13.376 207.612 14.16 209.484 14.16ZM213.165 6.864V1.84H211.805V14H213.165V9.328C213.165 7.568 214.333 6.56 215.677 6.56C216.973 6.56 217.661 7.536 217.661 9.024V14H219.021V8.704C219.021 6.784 217.869 5.344 215.997 5.344C215.053 5.344 213.853 5.712 213.165 6.864ZM224.513 14.256C226.929 14.256 228.513 12.288 228.513 9.792C228.513 7.2 226.929 5.344 224.513 5.344C222.113 5.344 220.481 7.2 220.481 9.792C220.481 12.288 222.113 14.256 224.513 14.256ZM224.497 13.04C222.769 13.04 221.857 11.712 221.857 9.792C221.857 7.888 222.769 6.56 224.497 6.56C226.225 6.56 227.153 7.888 227.153 9.792C227.153 11.712 226.225 13.04 224.497 13.04ZM232.65 14.256C233.802 14.256 234.874 13.84 235.546 12.56V14H236.906V5.6H235.546V10.272C235.546 12.032 234.442 13.04 232.922 13.04C231.994 13.04 231.05 12.64 231.05 10.768V5.6H229.69V10.736C229.69 13.136 230.794 14.256 232.65 14.256ZM242.562 14.256C244.562 14.256 245.65 13.472 245.65 11.696C245.65 9.776 243.922 9.424 242.594 9.136C240.898 8.768 240.306 8.544 240.306 7.728C240.306 6.688 241.362 6.544 242.226 6.544C243.01 6.544 243.954 6.832 244.066 8.16H245.442C245.378 6.512 244.306 5.344 242.354 5.344C240.578 5.344 238.914 6 238.946 7.84C238.978 9.584 240.514 9.936 242.641 10.448C243.49 10.656 244.322 10.96 244.322 11.824C244.322 12.672 243.682 13.072 242.69 13.072C241.138 13.072 240.194 12.656 239.874 11.248H238.498C238.626 12.88 239.762 14.256 242.562 14.256ZM249.709 14.176C250.893 14.176 252.157 13.6 252.749 12.832H252.765C252.877 13.648 253.725 14.176 254.893 14.128H254.877V12.896C254.141 12.944 253.965 12.752 253.965 11.968V8.944C253.965 6.16 252.605 5.36 250.653 5.36C247.917 5.36 247.229 6.88 247.197 7.968H248.541C248.573 7.344 249.053 6.592 250.621 6.592C252.077 6.592 252.589 7.312 252.589 8.352V8.848H252.157C249.517 8.848 248.397 9.184 247.693 9.728C247.069 10.208 246.765 10.864 246.765 11.616C246.765 12.784 247.469 14.176 249.709 14.176ZM249.901 12.992C248.685 12.992 248.093 12.464 248.093 11.648C248.093 10.176 249.917 9.92 252.093 9.92H252.605V11.216C252.605 11.84 251.709 12.992 249.901 12.992ZM257.743 6.864V5.6H256.383V14H257.743V9.328C257.743 7.568 258.911 6.56 260.255 6.56C261.551 6.56 262.239 7.536 262.239 9.024V14H263.599V8.688C263.599 6.768 262.447 5.344 260.575 5.344C259.631 5.344 258.431 5.712 257.743 6.864ZM272.128 14H273.44V1.84H272.08V6.752C271.408 5.904 270.352 5.344 269.296 5.344C266.96 5.344 265.408 7.12 265.408 9.776C265.408 12.464 266.912 14.256 269.184 14.256C270.336 14.256 271.552 13.712 272.128 12.928V14ZM272.08 9.184V10.176C272.08 11.888 271.04 13.024 269.44 13.024C267.84 13.024 266.784 11.728 266.784 9.76C266.784 7.84 267.824 6.576 269.408 6.576C271.024 6.576 272.08 7.616 272.08 9.184ZM278.999 14.256C280.999 14.256 282.087 13.472 282.087 11.696C282.087 9.776 280.359 9.424 279.031 9.136C277.335 8.768 276.743 8.544 276.743 7.728C276.743 6.688 277.799 6.544 278.663 6.544C279.447 6.544 280.391 6.832 280.503 8.16H281.879C281.815 6.512 280.743 5.344 278.791 5.344C277.015 5.344 275.351 6 275.383 7.84C275.415 9.584 276.951 9.936 279.079 10.448C279.927 10.656 280.759 10.96 280.759 11.824C280.759 12.672 280.119 13.072 279.127 13.072C277.575 13.072 276.631 12.656 276.311 11.248H274.935C275.063 12.88 276.199 14.256 278.999 14.256Z" fill="black"/>
<path d="M654.584 15.656V17.016H663.432V15.656H656.952C658.728 14.6 659.72 13.896 660.52 13.224C662.424 11.624 663.272 10.2 663.272 8.472C663.272 6.056 661.56 4.584 658.76 4.584C655.72 4.584 653.912 6.28 653.912 9C653.912 9.368 653.944 9.576 654.072 10.072H655.416C655.288 9.56 655.256 9.384 655.256 9.112C655.256 7.24 656.52 5.864 658.808 5.864C660.728 5.864 661.816 6.856 661.816 8.504C661.816 9.72 661.256 10.824 659.672 12.184C658.712 13 657.4 13.912 654.584 15.656ZM670.216 17.256C673.8 17.256 675.144 14.232 675.144 10.92C675.144 7.608 673.8 4.584 670.216 4.584C666.616 4.584 665.24 7.608 665.24 10.92C665.24 14.232 666.616 17.256 670.216 17.256ZM670.184 15.928C667.672 15.928 666.6 13.64 666.6 10.92C666.6 8.2 667.672 5.912 670.184 5.912C672.712 5.912 673.784 8.2 673.784 10.92C673.784 13.64 672.712 15.928 670.184 15.928ZM676.495 4.84V6.2H678.911V17H680.271V4.84H676.495ZM682.198 4.84V6.2H684.614V17H685.974V4.84H682.198Z" fill="black"/>
<path d="M743.584 15.656V17.016H752.432V15.656H745.952C747.728 14.6 748.72 13.896 749.52 13.224C751.424 11.624 752.272 10.2 752.272 8.472C752.272 6.056 750.56 4.584 747.76 4.584C744.72 4.584 742.912 6.28 742.912 9C742.912 9.368 742.944 9.576 743.072 10.072H744.416C744.288 9.56 744.256 9.384 744.256 9.112C744.256 7.24 745.52 5.864 747.808 5.864C749.728 5.864 750.816 6.856 750.816 8.504C750.816 9.72 750.256 10.824 748.672 12.184C747.712 13 746.4 13.912 743.584 15.656ZM759.216 17.256C762.8 17.256 764.144 14.232 764.144 10.92C764.144 7.608 762.8 4.584 759.216 4.584C755.616 4.584 754.24 7.608 754.24 10.92C754.24 14.232 755.616 17.256 759.216 17.256ZM759.184 15.928C756.672 15.928 755.6 13.64 755.6 10.92C755.6 8.2 756.672 5.912 759.184 5.912C761.712 5.912 762.784 8.2 762.784 10.92C762.784 13.64 761.712 15.928 759.184 15.928ZM765.495 4.84V6.2H767.911V17H769.271V4.84H765.495ZM776.126 17.256C779.182 17.256 781.07 15.544 781.07 12.936C781.07 10.376 779.294 8.568 776.654 8.568C775.47 8.568 774.318 8.936 773.774 9.496L774.606 6.232H780.03V4.84H773.646L771.886 11.656H773.486C773.854 10.68 774.878 9.896 776.382 9.896C778.302 9.896 779.694 11.128 779.694 12.968C779.694 14.76 778.35 15.96 776.078 15.96C774.574 15.96 773.23 15.432 773.15 14.6H771.678C771.822 16.168 773.662 17.256 776.126 17.256Z" fill="black"/>
<path d="M833.584 15.656V17.016H842.432V15.656H835.952C837.728 14.6 838.72 13.896 839.52 13.224C841.424 11.624 842.272 10.2 842.272 8.472C842.272 6.056 840.56 4.584 837.76 4.584C834.72 4.584 832.912 6.28 832.912 9C832.912 9.368 832.944 9.576 833.072 10.072H834.416C834.288 9.56 834.256 9.384 834.256 9.112C834.256 7.24 835.52 5.864 837.808 5.864C839.728 5.864 840.816 6.856 840.816 8.504C840.816 9.72 840.256 10.824 838.672 12.184C837.712 13 836.4 13.912 833.584 15.656ZM849.216 17.256C852.8 17.256 854.144 14.232 854.144 10.92C854.144 7.608 852.8 4.584 849.216 4.584C845.616 4.584 844.24 7.608 844.24 10.92C844.24 14.232 845.616 17.256 849.216 17.256ZM849.184 15.928C846.672 15.928 845.6 13.64 845.6 10.92C845.6 8.2 846.672 5.912 849.184 5.912C851.712 5.912 852.784 8.2 852.784 10.92C852.784 13.64 851.712 15.928 849.184 15.928ZM855.495 4.84V6.2H857.911V17H859.271V4.84H855.495ZM866.062 17.256C868.958 17.256 871.022 14.584 871.022 10.488C871.022 6.216 869.054 4.584 866.27 4.584C863.646 4.584 861.662 6.184 861.662 8.776C861.662 11.336 863.422 12.952 865.822 12.952C867.278 12.952 868.846 12.248 869.678 11.208V11.48C869.678 14.28 868.078 15.992 865.998 15.992C864.446 15.992 863.342 15.384 863.214 14.488H861.742C861.982 16.168 863.742 17.256 866.062 17.256ZM866.222 11.64C864.238 11.64 862.91 10.52 862.91 8.824C862.91 7.048 864.238 5.88 866.222 5.88C868.238 5.88 869.582 7.048 869.582 8.824C869.582 10.52 868.238 11.64 866.222 11.64Z" fill="black"/>
<path d="M802.5 12H826" stroke="#E2A4A5" stroke-width="3"/>
<path d="M711 12H734.5" stroke="#A7C1E4" stroke-width="3"/>
<path d="M619.5 12H643" stroke="#C3C7CA" stroke-width="3"/>
</svg>
