<svg width="348" height="364" viewBox="0 0 348 364" fill="none" xmlns="http://www.w3.org/2000/svg">
<path d="M58 190.697H61.6212V185.621H63.4802C66.6367 185.621 69.096 184.163 69.096 180.924C69.096 177.894 66.9465 176.303 63.8288 176.303H58V190.697ZM61.6212 182.572V179.352H63.0542C64.1193 179.352 65.2231 179.807 65.2231 181.019C65.2231 182.212 64.1967 182.572 63.0542 182.572H61.6212Z" fill="white"/>
<path d="M71.1998 190.697H74.821V185.545L78.9263 190.697H83.3028L78.7133 185.204C80.979 184.731 82.2958 182.988 82.2958 180.735C82.2958 177.894 80.1463 176.303 76.9899 176.303H71.1998V190.697ZM74.821 182.534V179.352H76.254C77.3191 179.352 78.4229 179.788 78.4229 181C78.4229 182.174 77.3772 182.534 76.2927 182.534H74.821Z" fill="white"/>
<path d="M91.9806 191C97.0154 191 99.6297 187.553 99.6297 183.5C99.6297 179.428 97.0154 176 91.9806 176C86.9458 176 84.3315 179.428 84.3315 183.5C84.3315 187.553 86.9458 191 91.9806 191ZM91.9806 187.932C89.3857 187.932 88.2626 185.526 88.2626 183.5C88.2626 181.473 89.3857 179.068 91.9806 179.068C94.5755 179.068 95.6986 181.473 95.6986 183.5C95.6986 185.526 94.5755 187.932 91.9806 187.932Z" fill="white"/>
<path d="M101.779 190.697H108.092C111.19 190.697 113.649 189.219 113.649 186.416C113.649 184.693 112.72 183.197 110.803 182.818C112.197 182.553 112.875 181.36 112.875 179.977C112.875 177.439 110.706 176.303 107.569 176.303H101.779V190.697ZM105.4 182.022V179.352H107.123C108.247 179.352 109.002 179.826 109.002 180.754C109.002 181.606 108.324 182.022 107.085 182.022H105.4ZM105.4 187.647V184.39H107.317C108.653 184.39 109.776 184.844 109.776 186.038C109.776 187.212 108.711 187.647 107.336 187.647H105.4Z" fill="white"/>
<path d="M119.336 187.155V176.303H115.754V190.697H126.404V187.155H119.336Z" fill="white"/>
<path d="M131.477 187.155V185.053H138.158V181.852H131.477V179.844H138.739V176.303H127.895V190.697H139.068V187.155H131.477Z" fill="white"/>
<path d="M140.943 190.697H144.564V183.216L147.43 190.697H150.78L153.627 183.216V190.697H157.248V176.303H153.259L149.115 186.682L144.932 176.303H140.943V190.697Z" fill="white"/>
<path d="M170.524 191C174.029 191 176.178 189.56 176.178 186.663C176.178 183.405 173.719 182.799 172.518 182.401C170.911 181.871 170.388 181.701 169.904 181.511C168.878 181.113 168.393 180.772 168.393 180.11C168.393 179.144 169.304 178.897 169.943 178.897C170.872 178.897 171.744 179.295 171.898 180.81H175.907C175.752 177.913 173.757 176 170.117 176C167.27 176 164.385 177.174 164.385 180.299C164.385 182.363 165.702 183.424 167.406 184.219C168.239 184.598 169.149 184.901 170.117 185.223C171.221 185.602 172.305 186.038 172.305 186.814C172.305 187.591 171.685 188.064 170.524 188.064C169.052 188.064 168.2 187.458 167.832 186.038H163.901C164.172 189.049 166.341 191 170.524 191Z" fill="white"/>
<path d="M189.453 179.844L189.434 176.303H177.021V179.844H181.436V190.697H185.057V179.844H189.453Z" fill="white"/>
<path d="M188.538 190.697H192.527L193.534 187.894H198.878L199.885 190.697H203.875L198.065 176.303H194.366L188.538 190.697ZM194.657 184.693L196.206 180.337L197.775 184.693H194.657Z" fill="white"/>
<path d="M215.399 179.844L215.379 176.303H202.967V179.844H207.382V190.697H211.003V179.844H215.399Z" fill="white"/>
<path d="M220.661 187.155V185.053H227.342V181.852H220.661V179.844H227.923V176.303H217.078V190.697H228.252V187.155H220.661Z" fill="white"/>
<path d="M230.127 190.697H233.748V183.216L236.614 190.697H239.964L242.811 183.216V190.697H246.432V176.303H242.443L238.299 186.682L234.116 176.303H230.127V190.697Z" fill="white"/>
<path d="M252.696 187.155V185.053H259.377V181.852H252.696V179.844H259.958V176.303H249.113V190.697H260.287V187.155H252.696Z" fill="white"/>
<path d="M262.162 190.697H265.783V182.439L271.36 190.697H274.885V176.303H271.244V184.788L265.609 176.303H262.162V190.697Z" fill="white"/>
<path d="M289 179.844L288.981 176.303H276.568V179.844H280.983V190.697H284.604V179.844H289Z" fill="white"/>
<path fill-rule="evenodd" clip-rule="evenodd" d="M173.795 19.434L3.03997 190.189L173.795 360.944L344.55 190.189L173.795 19.434ZM0 190.189L173.795 363.984L347.59 190.189L173.795 16.394L0 190.189Z" fill="white"/>
<path fill-rule="evenodd" clip-rule="evenodd" d="M173.795 3.03994L3.03997 173.795L173.795 344.55L344.55 173.795L173.795 3.03994ZM0 173.795L173.795 347.59L347.59 173.795L173.795 -2.72229e-05L0 173.795Z" fill="white"/>
</svg>
