<svg width="903" height="632" viewBox="0 0 903 632" fill="none" xmlns="http://www.w3.org/2000/svg">
<path d="M16.2385 604.779C24.2754 604.779 32.3123 604.779 40.3491 604.779C47.6457 604.779 54.9424 604.779 62.1333 604.779C70.1701 604.779 78.207 604.779 86.2438 604.779C94.0692 604.779 101.789 438.429 109.614 438.429C117.651 438.429 125.688 547.63 133.725 570.945C141.55 593.501 149.27 604.779 157.095 604.779C165.132 604.779 173.169 604.779 181.206 604.779C189.243 604.779 197.279 604.779 205.316 604.779C213.142 604.779 220.861 604.779 228.687 604.779C236.724 604.779 244.866 604.779 252.903 604.779C260.728 604.779 268.448 604.779 276.273 604.779C284.31 604.779 292.347 604.779 300.384 604.779C308.421 604.779 316.458 604.779 324.495 604.779C332.003 604.779 339.617 604.779 347.125 604.779C355.162 604.779 363.198 91.5247 371.235 54.2208C379.061 18.0013 386.78 0 394.606 0C402.642 0 410.679 308.408 418.716 337.253C426.542 365.123 434.261 366.749 442.087 379.112C450.123 391.908 458.16 390.173 466.197 412.403C474.234 434.634 482.271 587.753 490.308 594.043C498.133 600.116 505.853 602.501 513.678 603.261C521.715 604.02 529.858 604.128 537.894 604.345C545.72 604.562 553.439 604.779 561.265 604.779C569.302 604.779 577.339 604.779 585.375 604.779C593.412 604.779 601.449 604.779 609.486 604.779C616.783 604.779 624.079 604.887 631.27 604.887C639.307 604.887 647.344 604.779 655.381 604.67C663.206 604.562 670.926 604.237 678.751 604.237C686.788 604.237 694.825 604.345 702.862 604.453C710.687 604.562 718.407 604.887 726.232 604.887C734.269 604.887 742.306 604.887 750.343 604.887C758.38 604.887 766.416 604.67 774.453 604.67C782.279 604.67 789.998 604.887 797.824 604.887C805.86 604.887 814.003 604.887 822.04 604.887C829.865 604.887 837.585 604.779 845.41 604.779V604.887C837.585 604.887 829.865 604.887 822.04 604.887C814.003 604.887 805.86 604.887 797.824 604.887C789.998 604.887 782.279 604.887 774.453 604.887C766.416 604.887 758.38 604.887 750.343 604.887C742.306 604.887 734.269 604.887 726.232 604.887C718.407 604.887 710.687 604.887 702.862 604.887C694.825 604.887 686.788 604.887 678.751 604.887C670.926 604.887 663.206 604.887 655.381 604.887C647.344 604.887 639.307 604.887 631.27 604.887C623.974 604.887 616.677 604.887 609.486 604.887C601.449 604.887 593.412 604.887 585.375 604.887C577.339 604.887 569.302 604.887 561.265 604.887C553.439 604.887 545.72 604.887 537.894 604.887C529.858 604.887 521.715 604.887 513.678 604.887C505.853 604.887 498.133 604.887 490.308 604.887C482.271 604.887 474.234 590.573 466.197 585.042C458.16 579.512 450.123 576.15 442.087 571.596C434.261 567.149 426.542 564.872 418.716 558.257C410.679 551.317 402.642 548.823 394.606 530.496C386.78 512.712 379.061 451.551 371.235 451.551C363.198 451.551 355.162 604.996 347.125 604.996C339.617 604.996 332.003 604.996 324.495 604.996C316.458 604.996 308.421 604.996 300.384 604.996C292.347 604.996 284.31 604.996 276.273 604.996C268.448 604.996 260.728 604.996 252.903 604.996C244.866 604.996 236.724 604.996 228.687 604.996C220.861 604.996 213.142 604.996 205.316 604.996C197.279 604.996 189.243 604.996 181.206 604.996C173.169 604.996 165.132 604.996 157.095 604.996C149.27 604.996 141.55 604.996 133.725 604.996C125.688 604.996 117.651 604.996 109.614 604.996C101.789 604.996 94.0692 604.996 86.2438 604.996C78.207 604.996 70.1701 604.996 62.1333 604.996C54.8366 604.996 47.54 604.996 40.3491 604.996C32.3123 604.779 24.2754 604.779 16.2385 604.779Z" fill="#E7A1A0"/>
<path d="M404.758 417.608H333.167C330.311 417.608 327.985 415.222 327.985 412.295V398.956C327.985 396.028 330.311 393.643 333.167 393.643H404.652C407.508 393.643 409.834 396.028 409.834 398.956V412.295C409.834 415.222 407.508 417.608 404.758 417.608Z" fill="white" stroke="#3D3D3D" stroke-width="0.8634" stroke-miterlimit="10"/>
<path d="M379.167 368.268H309.69C306.835 368.268 304.615 365.882 304.615 363.063V349.616C304.615 346.688 306.941 344.411 309.69 344.411H379.167C382.022 344.411 384.243 346.796 384.243 349.616V363.063C384.243 365.991 382.022 368.268 379.167 368.268Z" fill="white" stroke="#3D3D3D" stroke-width="0.852" stroke-miterlimit="10"/>
<path d="M264.746 306.131H195.481C192.308 306.131 189.77 303.528 189.77 300.275V281.948C189.77 278.695 192.308 276.092 195.481 276.092H264.746C267.918 276.092 270.456 278.695 270.456 281.948V300.275C270.456 303.528 267.918 306.131 264.746 306.131Z" fill="white" stroke="#3D3D3D" stroke-width="0.9637" stroke-miterlimit="10"/>
<path d="M16.2393 593.284C24.2761 597.188 32.313 601.2 40.3499 601.2C47.6465 601.309 54.9431 601.309 62.134 601.309C70.1709 601.309 78.2077 600.767 86.2446 599.682C94.0699 598.598 101.79 291.816 109.615 269.152C117.652 245.729 125.689 234.017 133.726 234.017C141.551 234.017 149.271 396.463 157.096 442.333C165.133 489.831 173.17 507.181 181.206 513.58C189.243 519.978 197.28 516.724 205.317 523.122C213.142 529.304 220.862 562.92 228.687 562.92C236.724 562.92 244.867 520.086 252.904 509.784C260.729 499.807 268.449 494.819 276.274 494.819C284.311 494.819 292.348 500.024 300.385 506.748C308.422 513.471 316.458 535.051 324.495 535.051C332.003 535.051 339.617 531.906 347.125 525.725C355.162 519.11 363.199 452.202 371.236 452.202C379.061 452.202 386.781 513.363 394.606 531.147C402.643 549.474 410.68 552.076 418.717 558.908C426.542 565.632 434.262 567.909 442.087 572.246C450.124 576.801 458.161 585.693 466.198 585.693C474.235 585.693 482.272 540.473 490.308 540.473C498.134 540.473 505.854 587.537 513.679 590.79C521.716 594.26 529.858 595.887 537.895 595.887C545.721 595.887 553.44 593.284 561.266 593.284C569.302 593.284 577.339 595.128 585.376 595.128C593.413 595.128 601.45 593.609 609.487 593.609C616.783 593.609 624.08 594.26 631.271 595.128C639.308 596.104 647.345 599.357 655.381 599.357C663.207 599.357 670.926 500.567 678.752 500.567C686.789 500.567 694.826 569.319 702.862 581.03C710.688 592.308 718.407 596.212 726.233 597.947C734.27 599.682 742.307 600.116 750.343 600.55C758.38 600.875 766.417 601.092 774.454 601.092C782.279 601.092 789.999 600.767 797.824 600.55C805.861 600.441 814.004 600.224 822.041 600.116C829.866 600.007 837.586 599.899 845.411 599.682V603.152C837.586 603.152 829.866 603.152 822.041 603.261C814.004 603.369 805.861 604.345 797.824 604.345C789.999 604.345 782.279 603.044 774.454 603.044C766.417 603.044 758.38 603.152 750.343 603.261C742.307 603.478 734.27 604.345 726.233 604.345C718.407 604.345 710.688 603.044 702.862 602.827C694.826 602.61 686.789 602.61 678.752 602.61C670.926 602.61 663.207 602.935 655.381 603.044C647.345 603.152 639.308 603.261 631.271 603.261C623.974 603.261 616.678 603.152 609.487 603.152C601.45 603.152 593.413 603.152 585.376 603.152C577.339 603.152 569.302 603.152 561.266 603.152C553.44 603.152 545.721 602.935 537.895 602.719C529.858 602.502 521.716 602.393 513.679 601.634C505.854 600.983 498.134 592.417 490.308 592.417C482.272 592.417 474.235 604.345 466.198 604.345C458.161 604.345 450.124 604.345 442.087 604.345C434.262 604.345 426.542 604.345 418.717 604.345C410.68 604.345 402.643 604.345 394.606 604.345C386.781 604.345 379.061 604.345 371.236 604.345C363.199 604.345 355.162 603.261 347.125 603.261C339.617 603.261 332.003 604.345 324.495 604.345C316.458 604.345 308.422 604.345 300.385 604.345C292.348 604.345 284.311 604.345 276.274 604.345C268.449 604.345 260.729 604.345 252.904 604.345C244.867 604.345 236.724 604.345 228.687 604.345C220.862 604.345 213.142 604.345 205.317 604.345C197.28 604.345 189.243 604.345 181.206 604.345C173.17 604.345 165.133 604.345 157.096 604.345C149.271 604.345 141.551 592.742 133.726 569.427C125.689 545.353 117.652 436.911 109.615 436.911C101.79 436.911 94.0699 602.61 86.2446 603.261C78.2077 604.02 70.1709 604.345 62.134 604.345C54.8374 604.345 47.5407 604.345 40.3499 604.345C32.313 604.345 24.2761 604.345 16.2393 604.345V593.284Z" fill="#9FC5EC"/>
<path d="M16.769 605.321H846.893" stroke="black"/>
<path d="M16.769 604.779V611.285" stroke="black"/>
<path d="M0.99 624.519V625.369H6.52V624.519H2.47C3.58 623.859 4.2 623.419 4.7 622.999C5.89 621.999 6.42 621.109 6.42 620.029C6.42 618.519 5.35 617.599 3.6 617.599C1.7 617.599 0.57 618.659 0.57 620.359C0.57 620.589 0.59 620.719 0.67 621.029H1.51C1.43 620.709 1.41 620.599 1.41 620.429C1.41 619.259 2.2 618.399 3.63 618.399C4.83 618.399 5.51 619.019 5.51 620.049C5.51 620.809 5.16 621.499 4.17 622.349C3.57 622.859 2.75 623.429 0.99 624.519ZM10.7601 625.519C13.0001 625.519 13.8401 623.629 13.8401 621.559C13.8401 619.489 13.0001 617.599 10.7601 617.599C8.51008 617.599 7.65008 619.489 7.65008 621.559C7.65008 623.629 8.51008 625.519 10.7601 625.519ZM10.7401 624.689C9.17008 624.689 8.50008 623.259 8.50008 621.559C8.50008 619.859 9.17008 618.429 10.7401 618.429C12.3201 618.429 12.9901 619.859 12.9901 621.559C12.9901 623.259 12.3201 624.689 10.7401 624.689ZM14.6841 617.759V618.609H16.1941V625.359H17.0441V617.759H14.6841ZM21.3285 625.519C23.2385 625.519 24.4185 624.449 24.4185 622.819C24.4185 621.219 23.3085 620.089 21.6585 620.089C20.9185 620.089 20.1985 620.319 19.8585 620.669L20.3785 618.629H23.7685V617.759H19.7785L18.6785 622.019H19.6785C19.9085 621.409 20.5485 620.919 21.4885 620.919C22.6885 620.919 23.5585 621.689 23.5585 622.839C23.5585 623.959 22.7185 624.709 21.2985 624.709C20.3585 624.709 19.5185 624.379 19.4685 623.859H18.5485C18.6385 624.839 19.7885 625.519 21.3285 625.519Z" fill="black"/>
<path d="M86.8872 604.779V611.285" stroke="black"/>
<path d="M78.5735 625.359L75.5635 617.759H74.5935L71.5835 625.359H72.5435L73.4335 623.059H76.7335L77.6135 625.359H78.5735ZM73.7635 622.189L75.0835 618.829L76.4035 622.189H73.7635ZM82.1023 619.949C81.4323 619.949 80.7323 620.299 80.3123 620.829V620.109H79.4923V627.759H80.3423V624.689C80.7023 625.179 81.4323 625.519 82.1523 625.519C83.5723 625.519 84.5123 624.399 84.5123 622.719C84.5123 621.059 83.5423 619.949 82.1023 619.949ZM82.0323 624.749C81.0223 624.749 80.3423 624.089 80.3423 623.109V622.489C80.3423 621.419 81.0123 620.709 82.0123 620.709C83.0023 620.709 83.6523 621.519 83.6523 622.749C83.6523 623.949 83.0023 624.749 82.0323 624.749ZM86.2786 621.049V620.109H85.4786V625.359H86.3286V622.639C86.3286 621.549 87.0986 620.879 87.9586 620.879H88.1786V619.979C87.8086 619.979 87.5186 620.019 87.2286 620.149C86.8386 620.329 86.4886 620.639 86.2786 621.049ZM89.8468 618.699V617.759H88.8868V618.699H89.8468ZM89.7868 625.359V620.109H88.9368V625.359H89.7868ZM91.9732 625.359V617.759H91.1232V625.359H91.9732Z" fill="black"/>
<path d="M157.816 604.779V611.285" stroke="black"/>
<path d="M146.139 625.519C148.359 625.519 148.389 623.769 148.389 621.459V617.759H147.479V621.559C147.479 623.599 147.429 624.659 146.069 624.659C145.119 624.659 144.599 624.149 144.469 623.149H143.589C143.699 624.699 144.629 625.519 146.139 625.519ZM151.491 625.519C152.211 625.519 152.881 625.259 153.301 624.459V625.359H154.151V620.109H153.301V623.029C153.301 624.129 152.611 624.759 151.661 624.759C151.081 624.759 150.491 624.509 150.491 623.339V620.109H149.641V623.319C149.641 624.819 150.331 625.519 151.491 625.519ZM156.285 625.359V617.759H155.435V625.359H156.285ZM158.132 620.109H157.172L159.172 625.359L158.362 627.759H159.172L160.142 624.859L161.982 620.109H161.022L159.772 623.799L159.592 624.279H159.572L159.392 623.799L158.132 620.109Z" fill="black"/>
<path d="M229.527 604.779V611.285" stroke="black"/>
<path d="M209.914 625.519C212.054 625.519 213.524 623.959 213.524 621.559C213.524 619.159 212.054 617.599 209.914 617.599C207.754 617.599 206.274 619.159 206.274 621.559C206.274 623.959 207.754 625.519 209.914 625.519ZM209.904 624.659C208.284 624.659 207.194 623.449 207.194 621.559C207.194 619.669 208.284 618.459 209.904 618.459C211.514 618.459 212.604 619.669 212.604 621.559C212.604 623.449 211.514 624.659 209.904 624.659ZM216.903 625.519C218.353 625.519 219.083 624.549 219.183 623.699H218.343C218.183 624.269 217.693 624.759 216.893 624.759C215.803 624.759 215.273 623.919 215.273 622.729C215.273 621.539 215.813 620.709 216.893 620.709C217.693 620.709 218.193 621.089 218.343 621.939H219.183C219.103 620.739 218.203 619.949 216.883 619.949C215.303 619.949 214.413 621.099 214.413 622.729C214.413 624.289 215.273 625.519 216.903 625.519ZM222.061 625.459C222.171 625.459 222.341 625.449 222.571 625.429V624.739C222.411 624.759 222.301 624.759 222.221 624.759C221.561 624.759 221.341 624.559 221.341 623.859V620.829H222.541V620.109H221.341V618.759H220.531V619.299C220.531 619.929 220.411 620.199 219.771 620.199V620.829H220.491V624.009C220.491 624.969 220.891 625.459 222.061 625.459ZM225.634 625.519C227.144 625.519 228.134 624.289 228.134 622.729C228.134 621.109 227.144 619.949 225.634 619.949C224.134 619.949 223.114 621.109 223.114 622.729C223.114 624.289 224.134 625.519 225.634 625.519ZM225.624 624.759C224.544 624.759 223.974 623.929 223.974 622.729C223.974 621.539 224.544 620.709 225.624 620.709C226.704 620.709 227.284 621.539 227.284 622.729C227.284 623.929 226.704 624.759 225.624 624.759ZM231.669 619.949C230.999 619.949 230.329 620.299 229.909 620.829V617.759H229.059V625.359H229.869V624.689C230.229 625.179 230.999 625.519 231.719 625.519C233.139 625.519 234.079 624.399 234.079 622.719C234.079 621.059 233.109 619.949 231.669 619.949ZM231.599 624.749C230.589 624.749 229.909 624.089 229.909 623.109V622.489C229.909 621.419 230.579 620.709 231.579 620.709C232.569 620.709 233.219 621.519 233.219 622.749C233.219 623.949 232.569 624.749 231.599 624.749ZM237.42 625.519C238.87 625.519 239.6 624.549 239.7 623.889H238.86C238.7 624.259 238.2 624.759 237.4 624.759C236.44 624.759 235.9 624.089 235.81 623.069L239.7 623.059V622.189C239.7 620.859 238.74 619.949 237.37 619.949C235.83 619.949 234.93 621.099 234.93 622.719C234.93 624.299 235.79 625.519 237.42 625.519ZM238.86 622.319H235.82C235.82 621.199 236.54 620.709 237.35 620.709C238.18 620.709 238.86 621.199 238.86 622.319ZM241.538 621.049V620.109H240.738V625.359H241.588V622.639C241.588 621.549 242.358 620.879 243.218 620.879H243.438V619.979C243.068 619.979 242.778 620.019 242.488 620.149C242.098 620.329 241.748 620.639 241.538 621.049Z" fill="black"/>
<path d="M301.27 604.779V611.285" stroke="black"/>
<path d="M285.492 624.519V625.369H291.022V624.519H286.972C288.082 623.859 288.702 623.419 289.202 622.999C290.392 621.999 290.922 621.109 290.922 620.029C290.922 618.519 289.852 617.599 288.102 617.599C286.202 617.599 285.072 618.659 285.072 620.359C285.072 620.589 285.092 620.719 285.172 621.029H286.012C285.932 620.709 285.912 620.599 285.912 620.429C285.912 619.259 286.702 618.399 288.132 618.399C289.332 618.399 290.012 619.019 290.012 620.049C290.012 620.809 289.662 621.499 288.672 622.349C288.072 622.859 287.252 623.429 285.492 624.519ZM295.262 625.519C297.502 625.519 298.342 623.629 298.342 621.559C298.342 619.489 297.502 617.599 295.262 617.599C293.012 617.599 292.152 619.489 292.152 621.559C292.152 623.629 293.012 625.519 295.262 625.519ZM295.242 624.689C293.672 624.689 293.002 623.259 293.002 621.559C293.002 619.859 293.672 618.429 295.242 618.429C296.822 618.429 297.492 619.859 297.492 621.559C297.492 623.259 296.822 624.689 295.242 624.689ZM299.186 617.759V618.609H300.696V625.359H301.546V617.759H299.186ZM305.858 625.509C307.568 625.509 308.648 624.449 308.648 622.829C308.648 621.269 307.618 620.239 306.128 620.239C305.168 620.239 304.438 620.669 303.988 621.379C304.148 619.599 304.918 618.399 306.058 618.399C306.688 618.399 307.258 618.779 307.338 619.379H308.258C308.148 618.319 307.258 617.619 306.078 617.619C304.258 617.619 303.148 619.389 303.148 621.959C303.148 624.089 303.888 625.509 305.858 625.509ZM305.938 624.709C304.818 624.709 304.068 623.979 304.068 622.879C304.068 621.769 304.828 621.059 305.938 621.059C307.048 621.059 307.808 621.779 307.808 622.879C307.808 623.989 307.038 624.709 305.938 624.709Z" fill="black"/>
<path d="M372.168 604.779V611.285" stroke="black"/>
<path d="M363.855 625.359L360.845 617.759H359.875L356.865 625.359H357.825L358.715 623.059H362.015L362.895 625.359H363.855ZM359.045 622.189L360.365 618.829L361.685 622.189H359.045ZM367.384 619.949C366.714 619.949 366.014 620.299 365.594 620.829V620.109H364.774V627.759H365.624V624.689C365.984 625.179 366.714 625.519 367.434 625.519C368.854 625.519 369.794 624.399 369.794 622.719C369.794 621.059 368.824 619.949 367.384 619.949ZM367.314 624.749C366.304 624.749 365.624 624.089 365.624 623.109V622.489C365.624 621.419 366.294 620.709 367.294 620.709C368.284 620.709 368.934 621.519 368.934 622.749C368.934 623.949 368.284 624.749 367.314 624.749ZM371.56 621.049V620.109H370.76V625.359H371.61V622.639C371.61 621.549 372.38 620.879 373.24 620.879H373.46V619.979C373.09 619.979 372.8 620.019 372.51 620.149C372.12 620.329 371.77 620.639 371.56 621.049ZM375.128 618.699V617.759H374.168V618.699H375.128ZM375.068 625.359V620.109H374.218V625.359H375.068ZM377.254 625.359V617.759H376.404V625.359H377.254Z" fill="black"/>
<path d="M443.099 604.779V611.285" stroke="black"/>
<path d="M431.42 625.519C433.64 625.519 433.67 623.769 433.67 621.459V617.759H432.76V621.559C432.76 623.599 432.71 624.659 431.35 624.659C430.4 624.659 429.88 624.149 429.75 623.149H428.87C428.98 624.699 429.91 625.519 431.42 625.519ZM436.772 625.519C437.492 625.519 438.162 625.259 438.582 624.459V625.359H439.432V620.109H438.582V623.029C438.582 624.129 437.892 624.759 436.942 624.759C436.362 624.759 435.772 624.509 435.772 623.339V620.109H434.922V623.319C434.922 624.819 435.612 625.519 436.772 625.519ZM441.567 625.359V617.759H440.717V625.359H441.567ZM443.413 620.109H442.453L444.453 625.359L443.643 627.759H444.453L445.423 624.859L447.263 620.109H446.303L445.053 623.799L444.873 624.279H444.853L444.673 623.799L443.413 620.109Z" fill="black"/>
<path d="M514.809 604.779V611.285" stroke="black"/>
<path d="M495.196 625.519C497.336 625.519 498.806 623.959 498.806 621.559C498.806 619.159 497.336 617.599 495.196 617.599C493.036 617.599 491.556 619.159 491.556 621.559C491.556 623.959 493.036 625.519 495.196 625.519ZM495.186 624.659C493.566 624.659 492.476 623.449 492.476 621.559C492.476 619.669 493.566 618.459 495.186 618.459C496.796 618.459 497.886 619.669 497.886 621.559C497.886 623.449 496.796 624.659 495.186 624.659ZM502.185 625.519C503.635 625.519 504.365 624.549 504.465 623.699H503.625C503.465 624.269 502.975 624.759 502.175 624.759C501.085 624.759 500.555 623.919 500.555 622.729C500.555 621.539 501.095 620.709 502.175 620.709C502.975 620.709 503.475 621.089 503.625 621.939H504.465C504.385 620.739 503.485 619.949 502.165 619.949C500.585 619.949 499.695 621.099 499.695 622.729C499.695 624.289 500.555 625.519 502.185 625.519ZM507.343 625.459C507.453 625.459 507.623 625.449 507.853 625.429V624.739C507.693 624.759 507.583 624.759 507.503 624.759C506.843 624.759 506.623 624.559 506.623 623.859V620.829H507.823V620.109H506.623V618.759H505.813V619.299C505.813 619.929 505.693 620.199 505.053 620.199V620.829H505.773V624.009C505.773 624.969 506.173 625.459 507.343 625.459ZM510.916 625.519C512.426 625.519 513.416 624.289 513.416 622.729C513.416 621.109 512.426 619.949 510.916 619.949C509.416 619.949 508.396 621.109 508.396 622.729C508.396 624.289 509.416 625.519 510.916 625.519ZM510.906 624.759C509.826 624.759 509.256 623.929 509.256 622.729C509.256 621.539 509.826 620.709 510.906 620.709C511.986 620.709 512.566 621.539 512.566 622.729C512.566 623.929 511.986 624.759 510.906 624.759ZM516.951 619.949C516.281 619.949 515.611 620.299 515.191 620.829V617.759H514.341V625.359H515.151V624.689C515.511 625.179 516.281 625.519 517.001 625.519C518.421 625.519 519.361 624.399 519.361 622.719C519.361 621.059 518.391 619.949 516.951 619.949ZM516.881 624.749C515.871 624.749 515.191 624.089 515.191 623.109V622.489C515.191 621.419 515.861 620.709 516.861 620.709C517.851 620.709 518.501 621.519 518.501 622.749C518.501 623.949 517.851 624.749 516.881 624.749ZM522.703 625.519C524.153 625.519 524.883 624.549 524.983 623.889H524.143C523.983 624.259 523.483 624.759 522.683 624.759C521.723 624.759 521.183 624.089 521.093 623.069L524.983 623.059V622.189C524.983 620.859 524.023 619.949 522.653 619.949C521.113 619.949 520.213 621.099 520.213 622.719C520.213 624.299 521.073 625.519 522.703 625.519ZM524.143 622.319H521.103C521.103 621.199 521.823 620.709 522.633 620.709C523.463 620.709 524.143 621.199 524.143 622.319ZM526.821 621.049V620.109H526.021V625.359H526.871V622.639C526.871 621.549 527.641 620.879 528.501 620.879H528.721V619.979C528.351 619.979 528.061 620.019 527.771 620.149C527.381 620.329 527.031 620.639 526.821 621.049Z" fill="black"/>
<path d="M586.552 604.779V611.285" stroke="black"/>
<path d="M570.774 624.519V625.369H576.304V624.519H572.254C573.364 623.859 573.984 623.419 574.484 622.999C575.674 621.999 576.204 621.109 576.204 620.029C576.204 618.519 575.134 617.599 573.384 617.599C571.484 617.599 570.354 618.659 570.354 620.359C570.354 620.589 570.374 620.719 570.454 621.029H571.294C571.214 620.709 571.194 620.599 571.194 620.429C571.194 619.259 571.984 618.399 573.414 618.399C574.614 618.399 575.294 619.019 575.294 620.049C575.294 620.809 574.944 621.499 573.954 622.349C573.354 622.859 572.534 623.429 570.774 624.519ZM580.544 625.519C582.784 625.519 583.624 623.629 583.624 621.559C583.624 619.489 582.784 617.599 580.544 617.599C578.294 617.599 577.434 619.489 577.434 621.559C577.434 623.629 578.294 625.519 580.544 625.519ZM580.524 624.689C578.954 624.689 578.284 623.259 578.284 621.559C578.284 619.859 578.954 618.429 580.524 618.429C582.104 618.429 582.774 619.859 582.774 621.559C582.774 623.259 582.104 624.689 580.524 624.689ZM584.468 617.759V618.609H585.978V625.359H586.828V617.759H584.468ZM588.333 617.759V618.609H592.103L588.823 625.359H589.743L593.003 618.609V617.759H588.333Z" fill="black"/>
<path d="M656.67 604.779V611.285" stroke="black"/>
<path d="M648.358 625.359L645.348 617.759H644.378L641.368 625.359H642.328L643.218 623.059H646.518L647.398 625.359H648.358ZM643.548 622.189L644.868 618.829L646.188 622.189H643.548ZM651.886 619.949C651.216 619.949 650.516 620.299 650.096 620.829V620.109H649.276V627.759H650.126V624.689C650.486 625.179 651.216 625.519 651.936 625.519C653.356 625.519 654.296 624.399 654.296 622.719C654.296 621.059 653.326 619.949 651.886 619.949ZM651.816 624.749C650.806 624.749 650.126 624.089 650.126 623.109V622.489C650.126 621.419 650.796 620.709 651.796 620.709C652.786 620.709 653.436 621.519 653.436 622.749C653.436 623.949 652.786 624.749 651.816 624.749ZM656.063 621.049V620.109H655.263V625.359H656.113V622.639C656.113 621.549 656.883 620.879 657.743 620.879H657.963V619.979C657.593 619.979 657.303 620.019 657.013 620.149C656.623 620.329 656.273 620.639 656.063 621.049ZM659.631 618.699V617.759H658.671V618.699H659.631ZM659.571 625.359V620.109H658.721V625.359H659.571ZM661.757 625.359V617.759H660.907V625.359H661.757Z" fill="black"/>
<path d="M727.6 604.779V611.285" stroke="black"/>
<path d="M715.923 625.519C718.143 625.519 718.173 623.769 718.173 621.459V617.759H717.263V621.559C717.263 623.599 717.213 624.659 715.853 624.659C714.903 624.659 714.383 624.149 714.253 623.149H713.373C713.483 624.699 714.413 625.519 715.923 625.519ZM721.275 625.519C721.995 625.519 722.665 625.259 723.085 624.459V625.359H723.935V620.109H723.085V623.029C723.085 624.129 722.395 624.759 721.445 624.759C720.865 624.759 720.275 624.509 720.275 623.339V620.109H719.425V623.319C719.425 624.819 720.115 625.519 721.275 625.519ZM726.07 625.359V617.759H725.22V625.359H726.07ZM727.916 620.109H726.956L728.956 625.359L728.146 627.759H728.956L729.926 624.859L731.766 620.109H730.806L729.556 623.799L729.376 624.279H729.356L729.176 623.799L727.916 620.109Z" fill="black"/>
<path d="M799.311 604.779V611.285" stroke="black"/>
<path d="M779.699 625.519C781.839 625.519 783.309 623.959 783.309 621.559C783.309 619.159 781.839 617.599 779.699 617.599C777.539 617.599 776.059 619.159 776.059 621.559C776.059 623.959 777.539 625.519 779.699 625.519ZM779.689 624.659C778.069 624.659 776.979 623.449 776.979 621.559C776.979 619.669 778.069 618.459 779.689 618.459C781.299 618.459 782.389 619.669 782.389 621.559C782.389 623.449 781.299 624.659 779.689 624.659ZM786.688 625.519C788.138 625.519 788.868 624.549 788.968 623.699H788.128C787.968 624.269 787.478 624.759 786.678 624.759C785.588 624.759 785.058 623.919 785.058 622.729C785.058 621.539 785.598 620.709 786.678 620.709C787.478 620.709 787.978 621.089 788.128 621.939H788.968C788.888 620.739 787.988 619.949 786.668 619.949C785.088 619.949 784.198 621.099 784.198 622.729C784.198 624.289 785.058 625.519 786.688 625.519ZM791.846 625.459C791.956 625.459 792.126 625.449 792.356 625.429V624.739C792.196 624.759 792.086 624.759 792.006 624.759C791.346 624.759 791.126 624.559 791.126 623.859V620.829H792.326V620.109H791.126V618.759H790.316V619.299C790.316 619.929 790.196 620.199 789.556 620.199V620.829H790.276V624.009C790.276 624.969 790.676 625.459 791.846 625.459ZM795.419 625.519C796.929 625.519 797.919 624.289 797.919 622.729C797.919 621.109 796.929 619.949 795.419 619.949C793.919 619.949 792.899 621.109 792.899 622.729C792.899 624.289 793.919 625.519 795.419 625.519ZM795.409 624.759C794.329 624.759 793.759 623.929 793.759 622.729C793.759 621.539 794.329 620.709 795.409 620.709C796.489 620.709 797.069 621.539 797.069 622.729C797.069 623.929 796.489 624.759 795.409 624.759ZM801.454 619.949C800.784 619.949 800.114 620.299 799.694 620.829V617.759H798.844V625.359H799.654V624.689C800.014 625.179 800.784 625.519 801.504 625.519C802.924 625.519 803.864 624.399 803.864 622.719C803.864 621.059 802.894 619.949 801.454 619.949ZM801.384 624.749C800.374 624.749 799.694 624.089 799.694 623.109V622.489C799.694 621.419 800.364 620.709 801.364 620.709C802.354 620.709 803.004 621.519 803.004 622.749C803.004 623.949 802.354 624.749 801.384 624.749ZM807.206 625.519C808.656 625.519 809.386 624.549 809.486 623.889H808.646C808.486 624.259 807.986 624.759 807.186 624.759C806.226 624.759 805.686 624.089 805.596 623.069L809.486 623.059V622.189C809.486 620.859 808.526 619.949 807.156 619.949C805.616 619.949 804.716 621.099 804.716 622.719C804.716 624.299 805.576 625.519 807.206 625.519ZM808.646 622.319H805.606C805.606 621.199 806.326 620.709 807.136 620.709C807.966 620.709 808.646 621.199 808.646 622.319ZM811.324 621.049V620.109H810.524V625.359H811.374V622.639C811.374 621.549 812.144 620.879 813.004 620.879H813.224V619.979C812.854 619.979 812.564 620.019 812.274 620.149C811.884 620.329 811.534 620.639 811.324 621.049Z" fill="black"/>
<path d="M134.148 605.321V318.71C134.148 303.42 146.203 291.058 161.114 291.058H187.34" stroke="#3D3D3D" stroke-miterlimit="10" stroke-linecap="round"/>
<path d="M189.667 293.443C190.952 293.443 191.993 292.375 191.993 291.058C191.993 289.74 190.952 288.672 189.667 288.672C188.382 288.672 187.34 289.74 187.34 291.058C187.34 292.375 188.382 293.443 189.667 293.443Z" fill="#3D3D3D"/>
<path d="M197.808 282.057H200.135C201.404 282.057 202.25 282.599 202.25 283.792C202.25 284.442 201.826 284.985 201.298 285.093C201.932 285.201 202.567 285.852 202.567 286.72C202.567 287.912 201.827 288.563 200.452 288.563H197.808V282.057ZM199.923 284.768C200.769 284.768 201.298 284.442 201.298 283.9C201.298 283.358 200.875 282.924 200.029 282.924H198.654V284.768H199.923ZM200.24 287.804C201.086 287.804 201.721 287.479 201.721 286.611C201.721 285.961 201.192 285.527 200.24 285.527H198.76V287.804H200.24Z" fill="#3D3D3D"/>
<path d="M203.519 282.057H204.365V288.672H203.519V282.057Z" fill="#3D3D3D"/>
<path d="M205.104 286.395C205.104 284.985 205.95 284.009 207.325 284.009C208.7 284.009 209.44 284.985 209.44 286.395C209.44 287.804 208.594 288.78 207.325 288.78C206.056 288.78 205.104 287.804 205.104 286.395ZM208.594 286.395C208.594 285.419 208.171 284.768 207.325 284.768C206.479 284.768 206.056 285.419 206.056 286.395C206.056 287.37 206.479 288.021 207.325 288.021C208.065 288.021 208.594 287.37 208.594 286.395Z" fill="#3D3D3D"/>
<path d="M214.199 284.117V288.346C214.199 290.298 213.353 290.732 212.19 290.732C211.027 290.732 210.287 290.298 210.075 289.214H210.921C211.027 289.756 211.556 289.973 212.084 289.973C212.93 289.973 213.248 289.43 213.248 288.346V288.021C212.93 288.563 212.402 288.78 211.767 288.78C210.498 288.78 209.758 287.695 209.758 286.286C209.758 284.984 210.392 283.9 211.661 283.9C212.296 283.9 212.825 284.117 213.142 284.767V284.117H214.199ZM213.353 286.069C213.353 285.201 212.825 284.767 212.084 284.767C211.238 284.767 210.815 285.418 210.815 286.394C210.815 287.37 211.238 288.021 212.084 288.021C212.825 288.021 213.353 287.478 213.353 286.611V286.069Z" fill="#3D3D3D"/>
<path d="M219.592 286.395C219.592 287.804 218.746 288.78 217.583 288.78C217.054 288.78 216.42 288.455 216.103 288.13V290.732H215.257V284.117H216.103V284.768C216.42 284.334 217.054 284.009 217.583 284.009C218.746 284.009 219.592 284.985 219.592 286.395ZM218.746 286.395C218.746 285.419 218.218 284.768 217.477 284.768C216.737 284.768 216.208 285.31 216.208 286.178V286.611C216.208 287.371 216.737 287.913 217.477 287.913C218.218 288.021 218.746 287.37 218.746 286.395Z" fill="#3D3D3D"/>
<path d="M220.332 286.395C220.332 284.985 221.178 284.009 222.553 284.009C223.927 284.009 224.668 284.985 224.668 286.395C224.668 287.804 223.822 288.78 222.553 288.78C221.284 288.78 220.332 287.804 220.332 286.395ZM223.716 286.395C223.716 285.419 223.293 284.768 222.447 284.768C221.601 284.768 221.178 285.419 221.178 286.395C221.178 287.37 221.601 288.021 222.447 288.021C223.293 288.021 223.716 287.37 223.716 286.395Z" fill="#3D3D3D"/>
<path d="M225.197 287.154H226.043C226.149 287.804 226.678 288.021 227.418 288.021C227.947 288.021 228.264 287.804 228.264 287.371C228.264 286.937 227.841 286.828 227.312 286.72C226.255 286.395 225.409 286.178 225.409 285.31C225.409 284.334 226.255 284.009 227.207 284.009C228.264 284.009 228.899 284.659 228.899 285.527H228.053C228.053 284.876 227.524 284.768 227.101 284.768C226.678 284.768 226.149 284.876 226.149 285.31C226.149 285.744 226.572 285.852 227.418 286.069C228.158 286.286 229.004 286.395 229.004 287.479C229.004 288.455 228.37 288.889 227.312 288.889C225.832 288.78 225.197 288.13 225.197 287.154Z" fill="#3D3D3D"/>
<path d="M229.956 287.479V284.985H229.321V284.334C229.85 284.334 229.956 284.117 229.956 283.575V283.033H230.802V284.226H231.753V284.985H230.802V287.262C230.802 287.804 231.013 288.021 231.542 288.021C231.648 288.021 231.753 288.021 231.859 288.021V288.78C231.648 288.78 231.542 288.78 231.33 288.78C230.273 288.78 229.956 288.346 229.956 287.479Z" fill="#3D3D3D"/>
<path d="M234.609 286.395C234.609 284.985 235.455 284.009 236.83 284.009C238.205 284.009 238.945 284.985 238.945 286.395C238.945 287.804 238.099 288.78 236.83 288.78C235.561 288.78 234.609 287.804 234.609 286.395ZM238.099 286.395C238.099 285.419 237.676 284.768 236.83 284.768C235.984 284.768 235.561 285.419 235.561 286.395C235.561 287.37 235.984 288.021 236.83 288.021C237.57 288.021 238.099 287.37 238.099 286.395Z" fill="#3D3D3D"/>
<path d="M239.684 284.117H240.53V284.767C240.847 284.117 241.481 283.9 242.01 283.9C243.068 283.9 243.596 284.659 243.596 285.743V288.563H242.75V285.96C242.75 285.093 242.433 284.659 241.799 284.659C241.164 284.659 240.53 285.201 240.53 286.177V288.671H239.684V284.117Z" fill="#3D3D3D"/>
<path d="M202.673 291.816V298.431H201.721V295.395H198.654V298.431H197.808V291.816H198.76V294.527H201.827V291.816H202.673Z" fill="#3D3D3D"/>
<path d="M203.943 296.696V293.985H204.789V296.696C204.789 297.672 205.212 297.997 205.741 297.997C206.481 297.997 207.01 297.455 207.01 296.479V293.985H207.856V298.539H207.01V297.78C206.692 298.431 206.058 298.648 205.529 298.648C204.472 298.539 203.943 297.889 203.943 296.696Z" fill="#3D3D3D"/>
<path d="M215.996 295.612V298.432H215.15V295.721C215.15 294.745 214.727 294.419 214.198 294.419C213.458 294.419 212.929 294.961 212.929 295.937V298.432H212.083V295.721C212.083 294.745 211.66 294.419 211.132 294.419C210.391 294.419 209.863 294.961 209.863 295.937V298.432H209.017V293.877H209.863V294.528C210.18 293.877 210.814 293.66 211.343 293.66C211.978 293.66 212.506 293.985 212.718 294.528C213.141 293.877 213.775 293.66 214.41 293.66C215.467 293.769 215.996 294.311 215.996 295.612Z" fill="#3D3D3D"/>
<path d="M216.842 297.13C216.842 296.696 217.053 296.371 217.37 296.045C217.793 295.72 218.322 295.612 219.697 295.612H219.908V295.395C219.908 294.852 219.697 294.527 218.957 294.527C218.216 294.527 218.005 294.961 218.005 295.178H217.159C217.159 294.527 217.582 293.768 219.062 293.768C220.12 293.768 220.86 294.202 220.86 295.72V297.347V297.889V298.431H220.014V297.78C219.697 298.214 219.168 298.54 218.534 298.54C217.265 298.54 216.842 297.78 216.842 297.13ZM219.908 296.913V296.262H219.697C218.639 296.262 217.793 296.371 217.793 297.13C217.793 297.564 218.111 297.78 218.639 297.78C219.485 297.78 219.908 297.238 219.908 296.913Z" fill="#3D3D3D"/>
<path d="M221.497 293.877H222.343V294.528C222.66 293.877 223.294 293.66 223.823 293.66C224.881 293.66 225.409 294.419 225.409 295.504V298.323H224.563V295.721C224.563 294.853 224.246 294.419 223.612 294.419C222.977 294.419 222.343 294.961 222.343 295.937V298.432H221.497V293.877Z" fill="#3D3D3D"/>
<path d="M226.36 296.913H227.206C227.312 297.564 227.841 297.78 228.581 297.78C229.11 297.78 229.427 297.564 229.427 297.13C229.427 296.696 229.004 296.588 228.475 296.479C227.418 296.154 226.572 295.937 226.572 295.069C226.572 294.093 227.418 293.768 228.37 293.768C229.427 293.768 230.062 294.419 230.062 295.286H229.216C229.216 294.636 228.687 294.527 228.264 294.527C227.841 294.527 227.312 294.636 227.312 295.069C227.312 295.503 227.735 295.612 228.581 295.828C229.321 296.045 230.167 296.154 230.167 297.238C230.167 298.214 229.533 298.648 228.475 298.648C227.101 298.539 226.466 297.889 226.36 296.913Z" fill="#3D3D3D"/>
<path d="M233.023 296.262H233.975C234.187 297.347 234.927 297.672 235.984 297.672C236.83 297.672 237.359 297.347 237.359 296.696C237.359 296.045 236.725 295.828 236.302 295.611C235.879 295.503 235.35 295.395 234.821 295.178C234.081 294.852 233.446 294.527 233.446 293.551C233.446 292.141 234.715 291.599 235.773 291.599C237.253 291.599 238.099 292.467 238.099 293.768H237.148C237.042 292.684 236.302 292.467 235.667 292.467C235.244 292.467 234.398 292.575 234.398 293.443C234.398 293.876 234.61 294.093 235.138 294.31C235.561 294.419 235.773 294.527 236.302 294.636C236.83 294.744 238.205 295.069 238.205 296.587C238.205 297.889 237.359 298.539 235.879 298.539C233.975 298.539 233.129 297.563 233.023 296.262Z" fill="#3D3D3D"/>
<path d="M238.839 296.154C238.839 294.744 239.685 293.768 241.059 293.768C242.434 293.768 243.174 294.744 243.174 296.154C243.174 297.564 242.328 298.54 241.059 298.54C239.79 298.54 238.839 297.564 238.839 296.154ZM242.223 296.154C242.223 295.178 241.8 294.527 240.954 294.527C240.108 294.527 239.685 295.178 239.685 296.154C239.685 297.13 240.108 297.78 240.954 297.78C241.8 297.78 242.223 297.13 242.223 296.154Z" fill="#3D3D3D"/>
<path d="M243.808 296.154C243.808 294.744 244.548 293.768 245.923 293.768C247.086 293.768 247.826 294.527 247.932 295.503H247.086C246.98 294.852 246.557 294.527 246.028 294.527C245.182 294.527 244.759 295.178 244.759 296.154C244.759 297.13 245.182 297.78 246.028 297.78C246.663 297.78 246.98 297.347 247.192 296.913H248.038C247.932 297.78 247.297 298.54 246.028 298.54C244.548 298.54 243.808 297.564 243.808 296.154Z" fill="#3D3D3D"/>
<path d="M248.779 291.816H249.731V292.792H248.779V291.816ZM248.779 293.877H249.625V298.431H248.779V293.877Z" fill="#3D3D3D"/>
<path d="M250.259 296.154C250.259 294.744 250.999 293.768 252.374 293.768C253.537 293.768 254.383 294.527 254.383 295.828V296.479H251.211C251.317 297.238 251.74 297.78 252.48 297.78C253.114 297.78 253.431 297.347 253.643 297.021H254.489C254.383 297.672 253.749 298.54 252.48 298.54C250.999 298.54 250.259 297.564 250.259 296.154ZM253.537 295.72C253.537 294.853 253.008 294.419 252.374 294.419C251.74 294.419 251.211 294.853 251.211 295.72H253.537Z" fill="#3D3D3D"/>
<path d="M255.546 297.239V294.744H254.911V294.094C255.44 294.094 255.546 293.877 255.546 293.335V292.792H256.392V293.985H257.343V294.744H256.392V297.022C256.392 297.564 256.603 297.781 257.132 297.781C257.238 297.781 257.343 297.781 257.449 297.781V298.54C257.238 298.54 257.132 298.54 256.92 298.54C255.863 298.54 255.546 298.106 255.546 297.239Z" fill="#3D3D3D"/>
<path d="M259.459 298.431L257.767 293.876H258.719L259.776 296.913L259.882 297.347L259.988 296.913L260.939 293.876H261.891L260.305 297.997L259.459 300.491H258.613L259.459 298.431Z" fill="#3D3D3D"/>
<path d="M255.018 605.321V383.775C255.018 368.485 267.073 356.123 281.984 356.123H304.614" stroke="#3D3D3D" stroke-miterlimit="10" stroke-linecap="round"/>
<path d="M304.613 358.725C305.898 358.725 306.94 357.656 306.94 356.339C306.94 355.021 305.898 353.953 304.613 353.953C303.328 353.953 302.287 355.021 302.287 356.339C302.287 357.656 303.328 358.725 304.613 358.725Z" fill="#3D3D3D"/>
<path d="M312.862 356.122C312.862 353.303 314.554 351.351 317.092 351.351C319.207 351.351 320.793 352.76 321.111 354.821H319.842C319.63 353.519 318.573 352.543 317.092 352.543C315.4 352.543 314.237 353.953 314.237 356.014C314.237 358.074 315.4 359.484 317.092 359.484C318.573 359.484 319.63 358.508 319.842 357.206H321.111C320.793 359.267 319.313 360.677 317.092 360.677C314.449 360.785 312.862 358.833 312.862 356.122Z" fill="#3D3D3D"/>
<path d="M322.38 351.459H323.649L327.879 358.508V351.459H329.148V360.569H327.879L323.649 353.845V360.569H322.38V351.459Z" fill="#3D3D3D"/>
<path d="M331.262 351.459H332.531L336.761 358.508V351.459H338.03V360.569H336.761L332.531 353.845V360.569H331.262V351.459Z" fill="#3D3D3D"/>
<path d="M345.961 351.459H347.336L350.825 360.569H349.451L348.499 357.966H344.798L343.846 360.569H342.471L345.961 351.459ZM348.076 356.773L346.701 352.978L345.326 356.773H348.076Z" fill="#3D3D3D"/>
<path d="M351.46 354.279H352.623V355.472C352.835 354.93 353.258 354.604 353.681 354.387C353.998 354.279 354.315 354.17 354.844 354.17V355.472H354.633C353.575 355.472 352.729 356.231 352.729 357.532V360.568H351.46V354.279Z" fill="#3D3D3D"/>
<path d="M356.009 358.833V355.363H355.163V354.387C355.903 354.387 356.009 354.062 356.009 353.303V352.652H357.172V354.278H358.547V355.363H357.172V358.508C357.172 359.267 357.489 359.484 358.229 359.484C358.335 359.484 358.441 359.484 358.652 359.484V360.568C358.335 360.568 358.124 360.568 357.912 360.568C356.537 360.677 356.009 360.026 356.009 358.833Z" fill="#3D3D3D"/>
<path d="M359.708 351.459H361.083V352.761H359.708V351.459ZM359.814 354.279H361.083V360.569H359.814V354.279Z" fill="#3D3D3D"/>
<path d="M361.824 357.423C361.824 355.471 362.882 354.062 364.785 354.062C366.371 354.062 367.429 355.038 367.535 356.447H366.371C366.266 355.471 365.737 355.037 364.891 355.037C363.728 355.037 363.199 355.905 363.199 357.315C363.199 358.725 363.833 359.592 364.891 359.592C365.737 359.592 366.266 359.05 366.477 358.399H367.64C367.535 359.484 366.583 360.676 364.891 360.676C362.776 360.785 361.824 359.375 361.824 357.423Z" fill="#3D3D3D"/>
<path d="M368.592 351.459H369.861V360.569H368.592V351.459Z" fill="#3D3D3D"/>
<path d="M370.812 357.424C370.812 355.472 371.869 354.17 373.667 354.17C375.253 354.17 376.416 355.255 376.416 356.99V357.966H371.975C372.081 359.05 372.609 359.809 373.667 359.809C374.513 359.809 375.042 359.267 375.253 358.833H376.416C376.311 359.701 375.359 360.894 373.667 360.894C371.869 360.785 370.812 359.376 370.812 357.424ZM375.253 356.881C375.253 355.689 374.513 355.146 373.667 355.146C372.821 355.146 372.081 355.689 372.081 356.881H375.253Z" fill="#3D3D3D"/>
<path d="M279.34 604.779V433.983C279.34 418.693 291.395 406.331 306.305 406.331H328.09" stroke="#3D3D3D" stroke-miterlimit="10" stroke-linecap="round"/>
<path d="M328.09 408.825C329.375 408.825 330.417 407.757 330.417 406.439C330.417 405.121 329.375 404.053 328.09 404.053C326.805 404.053 325.764 405.121 325.764 406.439C325.764 407.757 326.805 408.825 328.09 408.825Z" fill="#3D3D3D"/>
<path d="M438.915 604.779V433.983C438.915 418.693 450.97 406.331 465.881 406.331H487.559" stroke="#3D3D3D" stroke-miterlimit="10" stroke-linecap="round"/>
<path d="M487.559 408.825C488.844 408.825 489.886 407.757 489.886 406.439C489.886 405.121 488.844 404.053 487.559 404.053C486.274 404.053 485.233 405.121 485.233 406.439C485.233 407.757 486.274 408.825 487.559 408.825Z" fill="#3D3D3D"/>
<path d="M338.137 401.993H339.088L341.626 408.608H340.675L340.04 406.765H337.291L336.656 408.608H335.705L338.137 401.993ZM339.723 405.897L338.666 403.186L337.608 405.897H339.723Z" fill="#3D3D3D"/>
<path d="M342.155 404.054H343.001V404.704C343.318 404.054 343.952 403.837 344.481 403.837C345.539 403.837 346.067 404.596 346.067 405.68V408.5H345.221V405.897C345.221 405.03 344.904 404.596 344.27 404.596C343.635 404.596 343.001 405.138 343.001 406.114V408.608H342.155V404.054Z" fill="#3D3D3D"/>
<path d="M347.23 401.993H348.182V402.969H347.23V401.993ZM347.23 404.054H348.076V408.608H347.23V404.054Z" fill="#3D3D3D"/>
<path d="M356.326 405.897V408.717H355.374V406.006C355.374 405.03 354.951 404.704 354.422 404.704C353.682 404.704 353.153 405.247 353.153 406.223V408.717H352.307V406.006C352.307 405.03 351.884 404.704 351.356 404.704C350.615 404.704 350.087 405.247 350.087 406.223V408.717H349.241V404.054H350.087V404.704C350.404 404.054 351.038 403.837 351.567 403.837C352.202 403.837 352.73 404.162 352.942 404.704C353.365 404.054 353.999 403.837 354.634 403.837C355.691 403.945 356.326 404.596 356.326 405.897Z" fill="#3D3D3D"/>
<path d="M357.172 407.307C357.172 406.873 357.383 406.548 357.701 406.223C358.124 405.897 358.652 405.789 360.027 405.789H360.239V405.572C360.239 405.03 360.027 404.704 359.287 404.704C358.547 404.704 358.335 405.138 358.335 405.355H357.489C357.489 404.704 357.912 403.945 359.393 403.945C360.45 403.945 361.19 404.379 361.19 405.897V407.524V408.066V408.608H360.344V407.958C360.027 408.391 359.498 408.717 358.864 408.717C357.489 408.717 357.172 408.066 357.172 407.307ZM360.133 407.09V406.439H359.921C358.864 406.439 358.018 406.548 358.018 407.307C358.018 407.741 358.335 407.958 358.864 407.958C359.71 408.066 360.133 407.415 360.133 407.09Z" fill="#3D3D3D"/>
<path d="M361.931 401.993H362.777V408.608H361.931V401.993Z" fill="#3D3D3D"/>
<path d="M364.15 407.741C365.525 406.873 366.265 406.331 366.794 405.897C367.534 405.246 367.851 404.704 367.851 404.054C367.851 403.294 367.322 402.752 366.371 402.752C365.313 402.752 364.679 403.403 364.679 404.379C364.679 404.596 364.679 404.596 364.785 404.921H363.833C363.727 404.704 363.727 404.596 363.727 404.379C363.727 402.969 364.679 401.993 366.371 401.993C367.957 401.993 368.803 402.861 368.803 404.054C368.803 404.921 368.38 405.68 367.428 406.439C367.005 406.873 366.476 407.198 365.525 407.741H368.803V408.608H364.044V407.741H364.15Z" fill="#3D3D3D"/>
<path d="M374.832 407.198H373.563V408.608H372.717V407.198H369.862V406.222L372.189 401.993H373.14L370.814 406.222H372.717V404.596H373.563V406.222H374.832V407.198Z" fill="#3D3D3D"/>
<path d="M380.224 401.993H381.176L383.714 408.608H382.762L382.127 406.765H379.378L378.743 408.608H377.792L380.224 401.993ZM381.81 405.897L380.753 403.186L379.695 405.897H381.81Z" fill="#3D3D3D"/>
<path d="M384.243 404.054H385.089V404.921C385.301 404.596 385.512 404.271 385.829 404.054C386.041 403.945 386.358 403.945 386.675 403.945V404.921H386.464C385.618 404.921 385.089 405.464 385.089 406.439V408.608H384.243V404.054Z" fill="#3D3D3D"/>
<path d="M387.521 407.415V404.921H386.886V404.27C387.415 404.27 387.521 404.053 387.521 403.511V402.969H388.366V404.162H389.318V404.921H388.366V407.198C388.366 407.74 388.578 407.957 389.107 407.957C389.212 407.957 389.318 407.957 389.424 407.957V408.716C389.212 408.716 389.107 408.716 388.895 408.716C387.943 408.716 387.521 408.282 387.521 407.415Z" fill="#3D3D3D"/>
<path d="M390.269 401.993H391.22V402.969H390.269V401.993ZM390.269 404.054H391.115V408.608H390.269V404.054Z" fill="#3D3D3D"/>
<path d="M391.752 406.331C391.752 404.921 392.493 403.945 393.867 403.945C395.031 403.945 395.771 404.704 395.877 405.68H395.031C394.925 405.03 394.502 404.704 393.973 404.704C393.127 404.704 392.704 405.355 392.704 406.331C392.704 407.307 393.127 407.958 393.973 407.958C394.608 407.958 394.925 407.524 395.136 407.09H395.982C395.877 407.958 395.242 408.717 393.973 408.717C392.493 408.825 391.752 407.741 391.752 406.331Z" fill="#3D3D3D"/>
<path d="M396.721 401.993H397.567V408.608H396.721V401.993Z" fill="#3D3D3D"/>
<path d="M398.306 406.331C398.306 404.921 399.046 403.945 400.421 403.945C401.584 403.945 402.43 404.704 402.43 406.006V406.656H399.258C399.364 407.415 399.787 407.958 400.527 407.958C401.161 407.958 401.479 407.524 401.69 407.199H402.536C402.43 407.849 401.796 408.717 400.527 408.717C399.046 408.825 398.306 407.741 398.306 406.331ZM401.584 406.006C401.584 405.138 401.056 404.704 400.421 404.704C399.787 404.704 399.258 405.138 399.258 406.006H401.584Z" fill="#3D3D3D"/>
<path d="M650.2 298.648H569.62C566.024 298.648 563.169 295.612 563.169 292.033V272.189C563.169 268.502 566.13 265.574 569.62 265.574H650.2C653.795 265.574 656.65 268.61 656.65 272.189V292.033C656.65 295.721 653.795 298.648 650.2 298.648Z" fill="white" stroke="#3D3D3D" stroke-width="1.0871" stroke-miterlimit="10"/>
<path d="M514.312 604.779V310.36C514.312 295.07 526.368 282.708 541.278 282.708H563.062" stroke="#3D3D3D" stroke-miterlimit="10" stroke-linecap="round"/>
<path d="M563.061 285.202C564.346 285.202 565.388 284.134 565.388 282.816C565.388 281.498 564.346 280.43 563.061 280.43C561.776 280.43 560.735 281.498 560.735 282.816C560.735 284.134 561.776 285.202 563.061 285.202Z" fill="#3D3D3D"/>
<path d="M570.994 270.887H572.263L576.493 277.936V270.887H577.762V279.996H576.387L572.157 273.273V279.996H570.888V270.887H570.994Z" fill="#3D3D3D"/>
<path d="M579.031 276.742C579.031 274.791 580.089 273.489 581.887 273.489C583.473 273.489 584.636 274.574 584.636 276.309V277.285H580.195C580.3 278.369 580.829 279.128 581.887 279.128C582.733 279.128 583.261 278.586 583.473 278.152H584.636C584.53 279.02 583.579 280.213 581.887 280.213C579.983 280.104 579.031 278.694 579.031 276.742ZM583.473 276.2C583.473 275.007 582.733 274.465 581.887 274.465C581.041 274.465 580.3 275.007 580.3 276.2H583.473Z" fill="#3D3D3D"/>
<path d="M585.268 273.598H586.643L588.229 278.37L589.604 273.598H590.873L592.248 278.37L593.834 273.598H595.209L592.882 279.888H591.719L590.238 275.008L588.758 279.888H587.595L585.268 273.598Z" fill="#3D3D3D"/>
<path d="M598.592 276.744L595.526 270.779H596.9L599.227 275.551L601.553 270.779H602.928L599.861 276.744V279.888H598.592V276.744Z" fill="#3D3D3D"/>
<path d="M602.084 276.743C602.084 274.791 603.247 273.381 605.045 273.381C606.842 273.381 608.006 274.791 608.006 276.743C608.006 278.587 606.842 280.105 605.045 280.105C603.247 280.105 602.084 278.695 602.084 276.743ZM606.842 276.743C606.842 275.333 606.208 274.466 605.045 274.466C603.881 274.466 603.247 275.333 603.247 276.743C603.247 278.153 603.881 279.02 605.045 279.02C606.208 279.02 606.842 278.153 606.842 276.743Z" fill="#3D3D3D"/>
<path d="M609.063 273.598H610.227V274.791C610.438 274.248 610.861 273.923 611.284 273.706C611.601 273.598 611.919 273.489 612.447 273.489V274.791H612.236C611.178 274.791 610.332 275.55 610.332 276.851V279.887H609.063V273.598Z" fill="#3D3D3D"/>
<path d="M616.677 279.888L614.456 277.177V279.888H613.188V270.779H614.456V276.31L616.466 273.599H617.84L615.514 276.744L618.052 279.888H616.677Z" fill="#3D3D3D"/>
<path d="M622.386 270.887H625.664C627.356 270.887 628.414 271.755 628.414 273.49C628.414 275.008 627.462 275.984 625.664 275.984H623.549V279.996H622.28V270.887H622.386ZM625.453 274.791C626.51 274.791 627.25 274.357 627.25 273.381C627.25 272.514 626.722 271.972 625.453 271.972H623.655V274.791H625.453Z" fill="#3D3D3D"/>
<path d="M628.945 276.743C628.945 274.791 630.108 273.381 631.906 273.381C633.703 273.381 634.867 274.791 634.867 276.743C634.867 278.587 633.703 280.105 631.906 280.105C630.108 280.105 628.945 278.695 628.945 276.743ZM633.703 276.743C633.703 275.333 633.069 274.466 631.906 274.466C630.743 274.466 630.108 275.333 630.108 276.743C630.108 278.153 630.743 279.02 631.906 279.02C633.069 279.02 633.703 278.153 633.703 276.743Z" fill="#3D3D3D"/>
<path d="M635.605 277.827H636.768C636.98 278.803 637.614 279.02 638.566 279.02C639.2 279.02 639.623 278.695 639.623 278.153C639.623 277.611 638.989 277.394 638.354 277.177C636.874 276.743 635.816 276.526 635.816 275.225C635.816 273.815 636.98 273.381 638.354 273.381C639.835 273.381 640.681 274.249 640.681 275.442H639.518C639.412 274.574 638.777 274.357 638.249 274.357C637.72 274.357 636.98 274.466 636.98 275.116C636.98 275.659 637.508 275.876 638.672 276.092C639.623 276.309 640.787 276.635 640.787 277.936C640.787 279.237 639.941 279.888 638.46 279.888C636.557 280.105 635.711 279.129 635.605 277.827Z" fill="#3D3D3D"/>
<path d="M642.269 278.153V274.683H641.423V273.707C642.163 273.707 642.269 273.381 642.269 272.622V271.972H643.432V273.598H644.807V274.683H643.432V277.828C643.432 278.587 643.75 278.803 644.49 278.803C644.596 278.803 644.701 278.803 644.913 278.803V279.888C644.596 279.888 644.384 279.888 644.173 279.888C642.692 279.996 642.269 279.346 642.269 278.153Z" fill="#3D3D3D"/>
<path d="M573.744 283.033H575.118L578.608 292.142H577.233L576.282 289.539H572.58L571.629 292.142H570.254L573.744 283.033ZM575.753 288.238L574.378 284.442L573.003 288.238H575.753Z" fill="#3D3D3D"/>
<path d="M579.242 285.744H580.405V286.937C580.616 286.394 581.039 286.069 581.462 285.852C581.78 285.744 582.097 285.635 582.626 285.635V286.937H582.414C581.357 286.937 580.511 287.696 580.511 288.997V292.033H579.242V285.744Z" fill="#3D3D3D"/>
<path d="M583.683 290.298V286.828H582.837V285.852C583.577 285.852 583.683 285.526 583.683 284.767V284.117H584.846V285.743H586.221V286.828H584.846V289.973C584.846 290.732 585.164 290.949 585.904 290.949C586.01 290.949 586.115 290.949 586.327 290.949V292.033C586.01 292.033 585.798 292.033 585.587 292.033C584.212 292.141 583.683 291.491 583.683 290.298Z" fill="#3D3D3D"/>
<path d="M587.384 283.033H588.759V284.334H587.384V283.033ZM587.49 285.744H588.759V292.033H587.49V285.744Z" fill="#3D3D3D"/>
<path d="M589.5 288.889C589.5 286.937 590.557 285.527 592.461 285.527C594.047 285.527 595.105 286.503 595.21 287.913H594.047C593.941 286.937 593.413 286.503 592.567 286.503C591.403 286.503 590.875 287.37 590.875 288.78C590.875 290.19 591.403 291.057 592.567 291.057C593.413 291.057 593.941 290.515 594.153 289.865H595.316C595.211 290.949 594.259 292.142 592.567 292.142C590.557 292.25 589.5 290.84 589.5 288.889Z" fill="#3D3D3D"/>
<path d="M596.372 283.033H597.641V292.142H596.372V283.033Z" fill="#3D3D3D"/>
<path d="M598.594 288.888C598.594 286.937 599.652 285.635 601.449 285.635C603.036 285.635 604.199 286.72 604.199 288.455V289.431H599.757C599.863 290.515 600.392 291.274 601.449 291.274C602.295 291.274 602.824 290.732 603.036 290.298H604.199C604.093 291.166 603.141 292.359 601.449 292.359C599.546 292.25 598.594 290.84 598.594 288.888ZM603.036 288.346C603.036 287.153 602.295 286.611 601.449 286.611C600.603 286.611 599.863 287.153 599.863 288.346H603.036Z" fill="#3D3D3D"/>
<path d="M587.067 422.164H494.538C490.731 422.164 487.664 419.019 487.664 415.115V396.138C487.664 392.234 490.731 389.089 494.538 389.089H587.067C590.874 389.089 593.941 392.234 593.941 396.138V415.115C594.047 419.019 590.874 422.164 587.067 422.164Z" fill="white" stroke="#3D3D3D" stroke-width="1.1592" stroke-miterlimit="10"/>
<path d="M494.643 394.944H496.017L497.709 402.535L499.93 394.944H501.516L503.737 402.535L505.429 394.944H506.804L504.477 404.053H503.102L500.776 396.354L498.449 404.053H497.075L494.643 394.944Z" fill="#3D3D3D"/>
<path d="M507.121 402.319C507.121 401.776 507.332 401.234 507.755 400.909C508.284 400.475 509.13 400.258 510.928 400.258H511.245V399.933C511.245 399.174 510.928 398.74 509.976 398.74C508.919 398.74 508.601 399.282 508.601 399.716H507.438C507.438 398.849 507.967 397.764 509.976 397.764C511.457 397.764 512.514 398.415 512.514 400.475V402.644V403.403V404.162H511.351V403.295C510.928 403.945 510.188 404.271 509.236 404.271C507.65 404.162 507.121 403.186 507.121 402.319ZM511.351 401.993V401.126H511.034C509.659 401.126 508.39 401.343 508.39 402.319C508.39 402.861 508.813 403.295 509.553 403.295C510.716 403.186 511.351 402.427 511.351 401.993Z" fill="#3D3D3D"/>
<path d="M513.361 401.993H514.524C514.735 402.969 515.37 403.186 516.321 403.186C516.956 403.186 517.379 402.861 517.379 402.318C517.379 401.776 516.744 401.559 516.11 401.342C514.63 400.909 513.572 400.692 513.572 399.39C513.572 397.981 514.735 397.547 516.11 397.547C517.59 397.547 518.436 398.414 518.436 399.607H517.273C517.167 398.74 516.533 398.523 516.004 398.523C515.476 398.523 514.735 398.631 514.735 399.282C514.735 399.824 515.264 400.041 516.427 400.258C517.379 400.475 518.542 400.8 518.542 402.101C518.542 403.403 517.696 404.053 516.216 404.053C514.418 404.27 513.466 403.294 513.361 401.993Z" fill="#3D3D3D"/>
<path d="M519.918 394.944H521.187V398.74C521.716 397.872 522.562 397.655 523.196 397.655C524.571 397.655 525.417 398.74 525.417 400.149V404.053H524.148V400.475C524.148 399.282 523.619 398.631 522.773 398.631C521.821 398.631 521.081 399.39 521.081 400.692V404.053H519.812V394.944H519.918Z" fill="#3D3D3D"/>
<path d="M526.684 394.944H528.059V396.246H526.684V394.944ZM526.79 397.764H528.059V404.053H526.79V397.764Z" fill="#3D3D3D"/>
<path d="M529.434 397.764H530.703V398.74C531.232 397.872 532.078 397.655 532.712 397.655C534.087 397.655 534.933 398.74 534.933 400.149V404.053H533.664V400.475C533.664 399.282 533.135 398.631 532.289 398.631C531.338 398.631 530.597 399.39 530.597 400.692V404.053H529.328V397.764H529.434Z" fill="#3D3D3D"/>
<path d="M542.018 397.764V403.511C542.018 406.114 540.855 406.873 539.163 406.873C537.577 406.873 536.519 406.222 536.202 404.704H537.365C537.577 405.463 538.211 405.788 539.057 405.788C540.326 405.788 540.643 405.029 540.643 403.511V403.077C540.22 403.836 539.48 404.162 538.634 404.162C536.942 404.162 535.885 402.752 535.885 400.8C535.885 398.957 536.731 397.547 538.528 397.547C539.374 397.547 540.115 397.872 540.643 398.631V397.655H542.018V397.764ZM540.855 400.583C540.855 399.39 540.115 398.74 539.057 398.74C537.894 398.74 537.259 399.607 537.259 400.909C537.259 402.318 537.894 403.186 539.057 403.186C540.115 403.186 540.855 402.427 540.855 401.234V400.583Z" fill="#3D3D3D"/>
<path d="M543.817 402.318V398.848H542.971V397.872C543.711 397.872 543.817 397.547 543.817 396.788V396.137H544.98V397.764H546.355V398.848H544.98V401.993C544.98 402.752 545.297 402.969 546.038 402.969C546.143 402.969 546.249 402.969 546.461 402.969V404.053C546.143 404.053 545.932 404.053 545.72 404.053C544.24 404.162 543.817 403.511 543.817 402.318Z" fill="#3D3D3D"/>
<path d="M546.988 400.909C546.988 398.957 548.151 397.547 549.949 397.547C551.747 397.547 552.91 398.957 552.91 400.909C552.91 402.752 551.747 404.27 549.949 404.27C548.151 404.27 546.988 402.861 546.988 400.909ZM551.747 400.909C551.747 399.499 551.112 398.631 549.949 398.631C548.786 398.631 548.151 399.499 548.151 400.909C548.151 402.318 548.786 403.186 549.949 403.186C551.112 403.186 551.747 402.318 551.747 400.909Z" fill="#3D3D3D"/>
<path d="M554.073 397.764H555.342V398.74C555.87 397.872 556.716 397.655 557.351 397.655C558.726 397.655 559.572 398.74 559.572 400.149V404.053H558.303V400.475C558.303 399.282 557.774 398.631 556.928 398.631C555.976 398.631 555.236 399.39 555.236 400.692V404.053H553.967V397.764H554.073Z" fill="#3D3D3D"/>
<path d="M564.436 394.944H567.714C569.406 394.944 570.464 395.812 570.464 397.547C570.464 399.065 569.512 400.041 567.714 400.041H565.599V404.053H564.33V394.944H564.436ZM567.503 398.957C568.56 398.957 569.301 398.523 569.301 397.547C569.301 396.679 568.772 396.137 567.503 396.137H565.705V398.957H567.503Z" fill="#3D3D3D"/>
<path d="M570.994 400.909C570.994 398.957 572.157 397.547 573.955 397.547C575.752 397.547 576.916 398.957 576.916 400.909C576.916 402.752 575.752 404.27 573.955 404.27C572.157 404.27 570.994 402.861 570.994 400.909ZM575.752 400.909C575.752 399.499 575.118 398.631 573.955 398.631C572.791 398.631 572.157 399.499 572.157 400.909C572.157 402.318 572.791 403.186 573.955 403.186C575.118 403.186 575.752 402.318 575.752 400.909Z" fill="#3D3D3D"/>
<path d="M577.762 401.993H578.925C579.137 402.969 579.771 403.186 580.829 403.186C581.463 403.186 581.886 402.861 581.886 402.318C581.886 401.776 581.252 401.559 580.617 401.342C579.136 400.909 578.079 400.692 578.079 399.39C578.079 397.981 579.242 397.547 580.617 397.547C582.098 397.547 582.944 398.414 582.944 399.607H581.675C581.569 398.74 580.934 398.523 580.405 398.523C579.771 398.523 579.136 398.631 579.136 399.282C579.136 399.824 579.665 400.041 580.829 400.258C581.78 400.475 582.944 400.8 582.944 402.101C582.944 403.403 582.098 404.053 580.617 404.053C578.713 404.27 577.867 403.294 577.762 401.993Z" fill="#3D3D3D"/>
<path d="M584.318 402.318V398.848H583.472V397.872C584.212 397.872 584.318 397.547 584.318 396.788V396.137H585.481V397.764H586.856V398.848H585.481V401.993C585.481 402.752 585.798 402.969 586.538 402.969C586.644 402.969 586.75 402.969 586.961 402.969V404.053C586.644 404.053 586.433 404.053 586.221 404.053C584.741 404.162 584.318 403.511 584.318 402.318Z" fill="#3D3D3D"/>
<path d="M498.239 407.089H499.613L503.103 416.198H501.728L500.777 413.596H497.076L496.124 416.198H494.749L498.239 407.089ZM500.354 412.403L498.979 408.608L497.604 412.403H500.354Z" fill="#3D3D3D"/>
<path d="M503.737 409.909H504.9V411.102C505.112 410.559 505.535 410.234 505.958 410.017C506.275 409.909 506.592 409.8 507.121 409.8V411.102H506.909C505.852 411.102 505.006 411.861 505.006 413.162V416.198H503.737V409.909Z" fill="#3D3D3D"/>
<path d="M508.283 414.464V410.994H507.438V410.018C508.178 410.018 508.283 409.692 508.283 408.933V408.283H509.447V409.909H510.821V410.994H509.447V414.139C509.447 414.898 509.764 415.115 510.504 415.115C510.61 415.115 510.716 415.115 510.927 415.115V416.199C510.61 416.199 510.398 416.199 510.187 416.199C508.706 416.307 508.283 415.657 508.283 414.464Z" fill="#3D3D3D"/>
<path d="M511.987 407.089H513.362V408.391H511.987V407.089ZM511.987 409.909H513.256V416.198H511.987V409.909Z" fill="#3D3D3D"/>
<path d="M513.995 413.054C513.995 411.102 515.053 409.692 516.956 409.692C518.542 409.692 519.6 410.668 519.706 412.078H518.542C518.437 411.102 517.908 410.668 517.062 410.668C515.899 410.668 515.37 411.536 515.37 412.946C515.37 414.355 516.005 415.223 517.062 415.223C517.908 415.223 518.437 414.681 518.648 414.03H519.811C519.706 415.114 518.754 416.307 517.062 416.307C515.053 416.416 513.995 415.006 513.995 413.054Z" fill="#3D3D3D"/>
<path d="M520.87 407.089H522.139V416.198H520.87V407.089Z" fill="#3D3D3D"/>
<path d="M523.09 413.054C523.09 411.102 524.147 409.8 525.945 409.8C527.531 409.8 528.694 410.885 528.694 412.62V413.596H524.253C524.359 414.68 524.887 415.439 525.945 415.439C526.791 415.439 527.32 414.897 527.531 414.463H528.694C528.589 415.331 527.637 416.524 525.945 416.524C524.147 416.415 523.09 415.005 523.09 413.054ZM527.531 412.511C527.531 411.318 526.791 410.776 525.945 410.776C525.099 410.776 524.359 411.318 524.359 412.511H527.531Z" fill="#3D3D3D"/>
<path d="M891.747 354.755H754.466C748.836 354.755 744.289 350.207 744.289 344.576V223.722C744.289 218.091 748.836 213.542 754.466 213.542H891.747C897.377 213.542 901.924 218.091 901.924 223.722V344.684C901.924 350.207 897.377 354.755 891.747 354.755Z" fill="white" stroke="#3D3D3D" stroke-width="1.2248" stroke-miterlimit="10"/>
<path d="M694.379 605.668V311.655C694.379 296.386 706.721 284.041 721.987 284.041H744.289" stroke="#3D3D3D" stroke-miterlimit="10" stroke-linecap="round"/>
<path d="M744.29 286.531C745.605 286.531 746.672 285.465 746.672 284.149C746.672 282.833 745.605 281.767 744.29 281.767C742.975 281.767 741.908 282.833 741.908 284.149C741.908 285.465 742.975 286.531 744.29 286.531Z" fill="#3D3D3D"/>
<path d="M752.41 290.863H753.709L758.04 297.902V290.863H759.339V299.959H758.04L753.709 293.245V299.959H752.41V290.863Z" fill="#3D3D3D"/>
<path d="M760.637 296.819C760.637 294.869 761.72 293.57 763.56 293.57C765.184 293.57 766.375 294.653 766.375 296.385V297.36H761.828C761.936 298.443 762.478 299.201 763.56 299.201C764.426 299.201 764.968 298.66 765.184 298.226H766.375C766.267 299.093 765.293 300.284 763.56 300.284C761.72 300.176 760.637 298.768 760.637 296.819ZM765.184 296.277C765.184 295.086 764.426 294.544 763.56 294.544C762.694 294.544 761.936 295.086 761.936 296.277H765.184Z" fill="#3D3D3D"/>
<path d="M767.025 293.679H768.433L770.057 298.444L771.464 293.679H772.763L774.171 298.444L775.795 293.679H777.202L774.82 299.96H773.629L772.114 295.086L770.598 299.96H769.407L767.025 293.679Z" fill="#3D3D3D"/>
<path d="M780.667 296.819L777.527 290.863H778.935L781.317 295.628L783.698 290.863H785.106L781.966 296.819V299.959H780.667V296.819Z" fill="#3D3D3D"/>
<path d="M784.24 296.819C784.24 294.87 785.431 293.462 787.271 293.462C789.112 293.462 790.303 294.87 790.303 296.819C790.303 298.66 789.112 300.176 787.271 300.176C785.431 300.176 784.24 298.66 784.24 296.819ZM789.112 296.819C789.112 295.411 788.462 294.545 787.271 294.545C786.08 294.545 785.431 295.411 785.431 296.819C785.431 298.227 786.08 299.093 787.271 299.093C788.462 299.093 789.112 298.227 789.112 296.819Z" fill="#3D3D3D"/>
<path d="M791.386 293.678H792.577V294.869C792.793 294.328 793.226 294.003 793.66 293.786C793.984 293.678 794.309 293.57 794.85 293.57V294.869H794.634C793.551 294.869 792.685 295.627 792.685 296.927V299.959H791.386V293.678Z" fill="#3D3D3D"/>
<path d="M799.181 299.959L796.907 297.252V299.959H795.608V290.863H796.907V296.386L798.964 293.678H800.372L797.99 296.819L800.588 299.959H799.181Z" fill="#3D3D3D"/>
<path d="M808.275 292.162V299.959H806.976V292.162H804.269V290.971H811.09V292.162H808.275Z" fill="#3D3D3D"/>
<path d="M811.848 290.863H813.255V292.162H811.848V290.863ZM811.848 293.678H813.147V299.959H811.848V293.678Z" fill="#3D3D3D"/>
<path d="M824.623 296.17V299.96H823.324V296.278C823.324 294.87 822.674 294.545 822.025 294.545C820.942 294.545 820.184 295.303 820.184 296.603V299.96H818.885V296.278C818.885 294.87 818.236 294.545 817.586 294.545C816.503 294.545 815.745 295.303 815.745 296.603V299.96H814.446V293.679H815.745V294.653C816.287 293.787 817.045 293.571 817.911 293.571C818.885 293.571 819.535 294.004 819.86 294.87C820.509 293.895 821.375 293.571 822.241 293.571C823.757 293.462 824.623 294.329 824.623 296.17Z" fill="#3D3D3D"/>
<path d="M825.814 296.819C825.814 294.869 826.897 293.57 828.737 293.57C830.361 293.57 831.552 294.653 831.552 296.385V297.36H827.005C827.113 298.443 827.655 299.201 828.737 299.201C829.603 299.201 830.145 298.66 830.361 298.226H831.552C831.444 299.093 830.47 300.284 828.737 300.284C826.789 300.176 825.814 298.768 825.814 296.819ZM830.361 296.277C830.361 295.086 829.603 294.544 828.737 294.544C827.871 294.544 827.113 295.086 827.113 296.277H830.361Z" fill="#3D3D3D"/>
<path d="M832.418 297.902H833.609C833.825 298.877 834.475 299.093 835.557 299.093C836.207 299.093 836.64 298.768 836.64 298.227C836.64 297.685 835.991 297.469 835.341 297.252C833.825 296.819 832.743 296.602 832.743 295.303C832.743 293.895 833.933 293.462 835.341 293.462C836.857 293.462 837.723 294.328 837.723 295.519H836.532C836.424 294.653 835.774 294.437 835.233 294.437C834.583 294.437 833.933 294.545 833.933 295.195C833.933 295.736 834.475 295.953 835.666 296.169C836.64 296.386 837.831 296.711 837.831 298.01C837.831 299.31 836.965 299.959 835.449 299.959C833.392 300.176 832.526 299.201 832.418 297.902Z" fill="#3D3D3D"/>
<path d="M845.41 290.863H846.817L850.39 299.959H848.983L848.008 297.36H844.219L843.245 299.959H841.837L845.41 290.863ZM847.467 296.169L846.059 292.379L844.652 296.169H847.467Z" fill="#3D3D3D"/>
<path d="M851.039 293.678H852.23V294.869C852.447 294.328 852.88 294.003 853.313 293.786C853.637 293.678 853.962 293.57 854.504 293.57V294.869H854.287C853.204 294.869 852.338 295.627 852.338 296.927V299.959H851.039V293.678Z" fill="#3D3D3D"/>
<path d="M855.587 298.227V294.761H854.721V293.787C855.479 293.787 855.587 293.462 855.587 292.704V292.054H856.778V293.679H858.185V294.761H856.778V297.902C856.778 298.66 857.103 298.877 857.86 298.877C857.969 298.877 858.077 298.877 858.293 298.877V299.96C857.969 299.96 857.752 299.96 857.536 299.96C856.128 300.068 855.587 299.418 855.587 298.227Z" fill="#3D3D3D"/>
<path d="M859.485 290.863H860.892V292.162H859.485V290.863ZM859.485 293.678H860.784V299.959H859.485V293.678Z" fill="#3D3D3D"/>
<path d="M861.541 296.819C861.541 294.87 862.624 293.462 864.573 293.462C866.197 293.462 867.279 294.437 867.388 295.844H866.197C866.088 294.87 865.547 294.437 864.681 294.437C863.49 294.437 862.949 295.303 862.949 296.711C862.949 298.118 863.598 298.985 864.681 298.985C865.547 298.985 866.088 298.443 866.305 297.794H867.496C867.388 298.877 866.413 300.068 864.681 300.068C862.624 300.176 861.541 298.66 861.541 296.819Z" fill="#3D3D3D"/>
<path d="M868.579 290.863H869.878V299.959H868.579V290.863Z" fill="#3D3D3D"/>
<path d="M870.853 296.819C870.853 294.869 871.935 293.57 873.776 293.57C875.4 293.57 876.591 294.653 876.591 296.385V297.36H872.044C872.152 298.443 872.693 299.201 873.776 299.201C874.642 299.201 875.183 298.66 875.4 298.226H876.591C876.483 299.093 875.508 300.284 873.776 300.284C871.827 300.176 870.853 298.768 870.853 296.819ZM875.4 296.277C875.4 295.086 874.642 294.544 873.776 294.544C872.91 294.544 872.152 295.086 872.152 296.277H875.4Z" fill="#3D3D3D"/>
<path d="M751.976 233.468H753.275C753.6 234.226 754.358 234.551 755.549 234.551C757.498 234.551 757.931 233.684 757.931 232.71C757.931 231.41 757.173 230.869 755.008 230.869H754.141V229.786L756.956 227.728H752.517V226.537H758.472V227.945L755.657 230.002H755.874C757.931 230.002 759.23 230.977 759.23 232.926C759.23 234.442 758.364 235.85 755.549 235.85C753.6 235.742 752.301 234.984 751.976 233.468Z" fill="#3D3D3D"/>
<path d="M760.53 231.086C760.53 228.595 761.72 226.321 764.319 226.321C766.917 226.321 768.108 228.487 768.108 231.086C768.108 233.685 767.026 235.851 764.319 235.851C761.612 235.742 760.53 233.576 760.53 231.086ZM766.809 231.086C766.809 229.136 766.051 227.512 764.319 227.512C762.587 227.512 761.829 229.136 761.829 231.086C761.829 233.035 762.587 234.659 764.319 234.659C765.943 234.551 766.809 233.035 766.809 231.086Z" fill="#3D3D3D"/>
<path d="M772.114 226.537H773.197L769.949 236.933H768.866L772.114 226.537Z" fill="#3D3D3D"/>
<path d="M773.955 231.086C773.955 228.595 775.146 226.321 777.744 226.321C780.343 226.321 781.534 228.487 781.534 231.086C781.534 233.685 780.451 235.851 777.744 235.851C775.146 235.742 773.955 233.576 773.955 231.086ZM780.234 231.086C780.234 229.136 779.477 227.512 777.744 227.512C776.012 227.512 775.254 229.136 775.254 231.086C775.254 233.035 776.012 234.659 777.744 234.659C779.477 234.551 780.234 233.035 780.234 231.086Z" fill="#3D3D3D"/>
<path d="M782.724 233.576H784.024C784.132 234.226 784.998 234.551 786.081 234.551C787.596 234.551 788.571 233.685 788.571 232.494C788.571 231.194 787.596 230.328 786.297 230.328C785.215 230.328 784.565 230.869 784.24 231.627H782.833L784.132 226.429H789.004V227.62H784.998L784.457 229.895C784.89 229.461 785.648 229.245 786.514 229.245C788.463 229.245 789.762 230.544 789.762 232.494C789.762 234.443 788.354 235.742 786.081 235.742C784.348 235.742 782.833 234.876 782.724 233.576Z" fill="#3D3D3D"/>
<path d="M752.301 244.514H754.033L757.931 250.687V244.514H759.663V253.611H757.931L754.141 247.655V253.611H752.301V244.514Z" fill="#3D3D3D"/>
<path d="M763.994 250.362L760.854 244.514H762.803L764.86 248.846L766.917 244.514H768.866L765.726 250.362V253.502H763.994V250.362Z" fill="#3D3D3D"/>
<path d="M770.057 244.514H773.413C775.254 244.514 776.553 245.272 776.553 246.897C776.553 247.763 776.012 248.521 775.254 248.738C776.336 248.954 776.986 249.82 776.986 251.012C776.986 252.744 775.687 253.611 773.738 253.611H769.949V244.514H770.057ZM773.197 248.088C774.171 248.088 774.821 247.763 774.821 247.113C774.821 246.463 774.279 246.03 773.305 246.03H771.898V248.088H773.197ZM773.522 251.986C774.496 251.986 775.254 251.553 775.254 250.687C775.254 249.82 774.496 249.387 773.413 249.387H771.789V251.986H773.522Z" fill="#3D3D3D"/>
<path d="M778.177 249.062C778.177 246.354 779.909 244.297 782.724 244.297C785.323 244.297 786.838 246.03 787.055 247.979H785.215C784.998 246.788 784.132 245.813 782.724 245.813C781.1 245.813 780.234 247.221 780.234 248.953C780.234 250.686 781.1 252.094 782.833 252.094C784.24 252.094 785.106 251.119 785.323 249.928H787.163C786.947 251.986 785.431 253.61 782.724 253.61C779.801 253.718 778.177 251.661 778.177 249.062Z" fill="#3D3D3D"/>
<path d="M791.602 253.502V244.406H795.283C797.989 244.406 799.505 245.597 799.505 248.954C799.505 252.203 798.098 253.502 795.283 253.502H791.602ZM795.066 251.986C796.69 251.986 797.664 251.336 797.664 249.062C797.664 246.896 796.907 246.138 795.066 246.138H793.442V251.986H795.066Z" fill="#3D3D3D"/>
<path d="M800.372 250.362C800.372 248.413 801.563 247.005 803.512 247.005C805.461 247.005 806.652 248.413 806.652 250.362C806.652 252.311 805.461 253.719 803.512 253.719C801.563 253.719 800.372 252.311 800.372 250.362ZM804.919 250.362C804.919 249.171 804.378 248.413 803.512 248.413C802.646 248.413 802.104 249.062 802.104 250.362C802.104 251.553 802.646 252.311 803.512 252.311C804.378 252.311 804.919 251.661 804.919 250.362Z" fill="#3D3D3D"/>
<path d="M807.625 247.329H809.357V248.304C809.898 247.438 810.656 247.221 811.414 247.221C812.821 247.221 813.687 248.196 813.687 249.82V253.61H811.955V250.362C811.955 249.062 811.522 248.521 810.764 248.521C810.006 248.521 809.357 249.279 809.357 250.47V253.61H807.625V247.329Z" fill="#3D3D3D"/>
<path d="M814.771 251.77C814.771 251.228 814.988 250.687 815.529 250.362C816.071 249.929 816.937 249.712 818.561 249.712H818.994V249.387C818.994 248.738 818.669 248.304 818.019 248.304C817.153 248.304 816.937 248.738 816.937 249.171H815.096C815.096 248.088 815.746 247.005 817.911 247.005C819.643 247.005 820.726 247.655 820.726 249.712V251.878V252.636V253.394H818.994V252.528C818.669 253.069 817.911 253.502 816.937 253.502C815.313 253.719 814.771 252.744 814.771 251.77ZM818.886 251.445V250.687H818.669C817.478 250.687 816.612 251.012 816.612 251.77C816.612 252.311 817.045 252.528 817.586 252.528C818.453 252.528 818.886 251.878 818.886 251.445Z" fill="#3D3D3D"/>
<path d="M822.025 251.661V248.846H821.267V247.438C821.917 247.438 822.133 247.113 822.133 246.463V245.705H823.865V247.329H825.056V248.846H823.865V251.12C823.865 251.878 824.19 251.986 824.84 251.986H825.273V253.61C824.948 253.61 824.731 253.719 824.19 253.719C822.566 253.61 822.025 252.961 822.025 251.661Z" fill="#3D3D3D"/>
<path d="M825.814 250.362C825.814 248.413 826.897 247.005 828.846 247.005C830.578 247.005 831.877 248.088 831.877 250.037V250.795H827.546C827.655 251.661 828.088 252.203 828.954 252.203C829.603 252.203 830.037 251.77 830.145 251.337H831.877C831.769 252.419 830.686 253.611 828.846 253.611C826.897 253.719 825.814 252.311 825.814 250.362ZM830.145 249.82C830.145 248.954 829.603 248.521 828.846 248.521C828.088 248.521 827.546 248.954 827.546 249.82H830.145Z" fill="#3D3D3D"/>
<path d="M836.315 251.661V248.846H835.557V247.438C836.207 247.438 836.423 247.113 836.423 246.463V245.705H838.156V247.329H839.347V248.846H838.156V251.12C838.156 251.878 838.48 251.986 839.13 251.986H839.563V253.61C839.238 253.61 839.022 253.719 838.48 253.719C836.856 253.61 836.315 252.961 836.315 251.661Z" fill="#3D3D3D"/>
<path d="M840.104 250.362C840.104 248.413 841.295 247.005 843.244 247.005C845.193 247.005 846.384 248.413 846.384 250.362C846.384 252.311 845.193 253.719 843.244 253.719C841.295 253.719 840.104 252.311 840.104 250.362ZM844.652 250.362C844.652 249.171 844.11 248.413 843.244 248.413C842.378 248.413 841.837 249.062 841.837 250.362C841.837 251.553 842.378 252.311 843.244 252.311C844.11 252.311 844.652 251.661 844.652 250.362Z" fill="#3D3D3D"/>
<path d="M850.174 251.444H851.798C851.906 252.094 852.447 252.419 853.205 252.419C853.746 252.419 854.071 252.203 854.071 251.769C854.071 251.336 853.313 251.12 852.772 251.011C851.364 250.578 850.39 250.145 850.39 248.954C850.39 247.654 851.581 247.113 853.097 247.113C854.829 247.113 855.695 247.979 855.803 249.17H854.179C854.071 248.521 853.638 248.412 853.097 248.412C852.555 248.412 852.122 248.521 852.122 248.954C852.122 249.387 852.988 249.604 854.071 249.82C855.046 250.145 856.02 250.47 856.02 251.661C856.02 252.961 855.046 253.61 853.422 253.61C851.256 253.719 850.282 252.852 850.174 251.444Z" fill="#3D3D3D"/>
<path d="M856.777 251.011V247.221H858.509V250.47C858.509 251.878 859.051 252.311 859.7 252.311C860.566 252.311 861.108 251.553 861.108 250.362V247.221H862.84V253.502H861.108V252.527C860.566 253.394 859.917 253.719 859.051 253.719C857.643 253.719 856.777 252.852 856.777 251.011Z" fill="#3D3D3D"/>
<path d="M870.527 250.362C870.527 252.311 869.445 253.719 867.821 253.719C867.171 253.719 866.413 253.394 865.98 252.852V256.426H864.248V247.329H865.98V248.087C866.413 247.546 867.171 247.113 867.821 247.113C869.445 247.113 870.527 248.412 870.527 250.362ZM868.795 250.47C868.795 249.279 868.254 248.521 867.387 248.521C866.521 248.521 865.98 249.17 865.98 250.253V250.795C865.98 251.769 866.521 252.419 867.387 252.419C868.254 252.419 868.795 251.553 868.795 250.47Z" fill="#3D3D3D"/>
<path d="M877.89 250.362C877.89 252.311 876.807 253.719 875.183 253.719C874.534 253.719 873.776 253.394 873.343 252.852V256.426H871.61V247.329H873.343V248.087C873.776 247.546 874.534 247.113 875.183 247.113C876.807 247.113 877.89 248.412 877.89 250.362ZM876.158 250.47C876.158 249.279 875.616 248.521 874.75 248.521C873.884 248.521 873.343 249.17 873.343 250.253V250.795C873.343 251.769 873.884 252.419 874.75 252.419C875.616 252.419 876.158 251.553 876.158 250.47Z" fill="#3D3D3D"/>
<path d="M878.756 250.362C878.756 248.413 879.947 247.005 881.896 247.005C883.845 247.005 885.036 248.413 885.036 250.362C885.036 252.311 883.845 253.719 881.896 253.719C879.947 253.719 878.756 252.311 878.756 250.362ZM883.303 250.362C883.303 249.171 882.762 248.413 881.896 248.413C881.03 248.413 880.489 249.062 880.489 250.362C880.489 251.553 881.03 252.311 881.896 252.311C882.762 252.311 883.303 251.661 883.303 250.362Z" fill="#3D3D3D"/>
<path d="M886.01 247.329H887.742V248.521C887.959 247.979 888.392 247.546 888.825 247.438C889.149 247.329 889.474 247.221 890.016 247.221V248.954H889.799C888.5 248.954 887.742 249.82 887.742 251.12V253.61H886.01V247.329Z" fill="#3D3D3D"/>
<path d="M891.098 251.661V248.846H890.34V247.438C890.989 247.438 891.206 247.113 891.206 246.463V245.705H892.938V247.329H894.129V248.846H892.938V251.12C892.938 251.878 893.263 251.986 893.913 251.986H894.346V253.61C894.021 253.61 893.804 253.719 893.263 253.719C891.639 253.61 891.098 252.961 891.098 251.661Z" fill="#3D3D3D"/>
<path d="M751.652 262.49C751.652 260.541 752.735 259.133 754.684 259.133C756.416 259.133 757.607 260.216 757.715 261.732H755.983C755.875 260.974 755.442 260.541 754.792 260.541C753.926 260.541 753.385 261.191 753.385 262.49C753.385 263.682 753.926 264.44 754.792 264.44C755.442 264.44 755.875 264.006 755.983 263.248H757.715C757.607 264.656 756.524 265.847 754.684 265.847C752.735 265.847 751.652 264.44 751.652 262.49Z" fill="#3D3D3D"/>
<path d="M758.798 256.643H760.53V260.433C761.072 259.566 761.83 259.35 762.587 259.35C763.995 259.35 764.861 260.325 764.861 261.949V265.847H763.129V262.707C763.129 261.407 762.696 260.866 761.938 260.866C761.18 260.866 760.53 261.624 760.53 262.815V265.956H758.798V256.643Z" fill="#3D3D3D"/>
<path d="M766.159 256.643H768V258.375H766.159V256.643ZM766.159 259.458H767.892V265.739H766.159V259.458Z" fill="#3D3D3D"/>
<path d="M779.802 261.949V265.739H778.069V262.49C778.069 261.083 777.528 260.649 776.878 260.649C776.012 260.649 775.471 261.407 775.471 262.599V265.739H773.739V262.49C773.739 261.083 773.197 260.649 772.548 260.649C771.682 260.649 771.14 261.407 771.14 262.599V265.739H769.408V259.458H771.14V260.433C771.682 259.566 772.331 259.35 773.197 259.35C774.172 259.35 774.93 259.783 775.254 260.649C775.904 259.675 776.77 259.35 777.528 259.35C778.935 259.242 779.802 260.108 779.802 261.949Z" fill="#3D3D3D"/>
<path d="M787.488 262.49C787.488 264.439 786.406 265.847 784.782 265.847C784.132 265.847 783.374 265.522 782.941 264.981V268.554H781.209V259.458H782.941V260.216C783.374 259.674 784.132 259.241 784.782 259.241C786.406 259.241 787.488 260.541 787.488 262.49ZM785.756 262.598C785.756 261.407 785.215 260.649 784.348 260.649C783.482 260.649 782.941 261.299 782.941 262.382V262.923C782.941 263.898 783.482 264.548 784.348 264.548C785.215 264.548 785.756 263.681 785.756 262.598Z" fill="#3D3D3D"/>
<path d="M788.029 263.898C788.029 263.357 788.246 262.815 788.787 262.49C789.328 262.057 790.195 261.841 791.819 261.841H792.252V261.516C792.252 260.866 791.927 260.433 791.277 260.433C790.411 260.433 790.195 260.866 790.195 261.299H788.462C788.462 260.216 789.112 259.133 791.277 259.133C793.009 259.133 794.092 259.783 794.092 261.841V264.006V264.764V265.522H792.36V264.656C792.035 265.198 791.277 265.631 790.303 265.631C788.679 265.847 788.029 264.873 788.029 263.898ZM792.143 263.573V262.815H791.927C790.736 262.815 789.87 263.14 789.87 263.898C789.87 264.44 790.303 264.656 790.844 264.656C791.71 264.656 792.143 264.006 792.143 263.573Z" fill="#3D3D3D"/>
<path d="M795.066 259.458H796.798V260.433C797.339 259.567 798.097 259.35 798.855 259.35C800.263 259.35 801.129 260.325 801.129 261.949V265.739H799.397V262.599C799.397 261.299 798.964 260.758 798.206 260.758C797.448 260.758 796.798 261.516 796.798 262.707V265.848H795.066V259.458Z" fill="#3D3D3D"/>
<path d="M808.275 264.223V265.631H802.321V264.223L806.002 260.758H802.429V259.35H807.95V260.758L804.269 264.223H808.275Z" fill="#3D3D3D"/>
<path d="M808.925 262.49C808.925 260.541 810.007 259.133 811.956 259.133C813.688 259.133 814.987 260.216 814.987 262.165V262.924H810.657C810.765 263.79 811.198 264.331 812.064 264.331C812.714 264.331 813.147 263.898 813.255 263.465H814.987C814.879 264.548 813.796 265.739 811.956 265.739C810.007 265.847 808.925 264.44 808.925 262.49ZM813.255 261.949C813.255 261.083 812.714 260.649 811.956 260.649C811.198 260.649 810.657 261.083 810.657 261.949H813.255Z" fill="#3D3D3D"/>
<path d="M815.745 262.49C815.745 260.541 816.828 259.133 818.777 259.133C820.509 259.133 821.808 260.216 821.808 262.165V262.924H817.477C817.586 263.79 818.019 264.331 818.885 264.331C819.535 264.331 819.968 263.898 820.076 263.465H821.808C821.7 264.548 820.617 265.739 818.777 265.739C816.828 265.847 815.745 264.44 815.745 262.49ZM820.076 261.949C820.076 261.083 819.535 260.649 818.777 260.649C818.019 260.649 817.477 261.083 817.477 261.949H820.076Z" fill="#3D3D3D"/>
<path d="M822.566 263.573H824.19C824.298 264.223 824.731 264.548 825.597 264.548C826.139 264.548 826.464 264.331 826.464 263.898C826.464 263.465 825.706 263.248 825.164 263.14C823.757 262.707 822.782 262.273 822.782 261.082C822.782 259.783 823.973 259.241 825.489 259.241C827.221 259.241 828.088 260.108 828.196 261.299H826.572C826.463 260.649 826.03 260.541 825.489 260.541C824.948 260.541 824.515 260.649 824.515 261.082C824.515 261.515 825.381 261.732 826.464 261.949C827.438 262.273 828.412 262.598 828.412 263.789C828.412 265.089 827.438 265.739 825.814 265.739C823.649 265.847 822.674 264.981 822.566 263.573Z" fill="#3D3D3D"/>
<path d="M832.094 263.898C832.094 263.357 832.311 262.815 832.852 262.49C833.393 262.057 834.26 261.841 835.884 261.841H836.317V261.516C836.317 260.866 835.992 260.433 835.342 260.433C834.476 260.433 834.26 260.866 834.26 261.299H832.419C832.419 260.216 833.069 259.133 835.234 259.133C836.966 259.133 838.049 259.783 838.049 261.841V264.006V264.764V265.522H836.317V264.656C835.992 265.198 835.234 265.631 834.26 265.631C832.744 265.847 832.094 264.873 832.094 263.898ZM836.208 263.573V262.815H835.992C834.801 262.815 833.935 263.14 833.935 263.898C833.935 264.44 834.368 264.656 834.909 264.656C835.775 264.656 836.208 264.006 836.208 263.573Z" fill="#3D3D3D"/>
<path d="M845.301 259.458V264.872C845.301 267.58 844.326 268.554 842.378 268.554C840.645 268.554 839.454 267.796 839.238 266.28H840.97C841.078 266.822 841.62 267.147 842.269 267.147C843.135 267.147 843.568 266.605 843.568 265.306V264.872C843.135 265.522 842.594 265.847 841.728 265.847C840.104 265.847 839.021 264.439 839.021 262.49C839.021 260.649 839.996 259.241 841.728 259.241C842.594 259.241 843.244 259.566 843.677 260.216V259.349H845.301V259.458ZM843.46 262.273C843.46 261.19 842.811 260.649 842.053 260.649C841.187 260.649 840.645 261.299 840.645 262.49C840.645 263.789 841.187 264.439 842.161 264.439C842.919 264.439 843.568 263.898 843.568 262.707V262.273H843.46Z" fill="#3D3D3D"/>
<path d="M846.276 263.898C846.276 263.357 846.493 262.815 847.034 262.49C847.576 262.057 848.442 261.841 850.066 261.841H850.499V261.516C850.499 260.866 850.174 260.433 849.524 260.433C848.658 260.433 848.442 260.866 848.442 261.299H846.493C846.493 260.216 847.142 259.133 849.308 259.133C851.04 259.133 852.123 259.783 852.123 261.841V264.006V264.764V265.522H850.39V264.656C850.066 265.198 849.308 265.631 848.333 265.631C846.818 265.847 846.276 264.873 846.276 263.898ZM850.39 263.573V262.815H850.174C848.983 262.815 848.117 263.14 848.117 263.898C848.117 264.44 848.55 264.656 849.091 264.656C849.957 264.656 850.39 264.006 850.39 263.573Z" fill="#3D3D3D"/>
<path d="M853.205 256.643H855.045V258.375H853.205V256.643ZM853.205 259.458H854.937V265.739H853.205V259.458Z" fill="#3D3D3D"/>
<path d="M856.344 259.458H858.077V260.433C858.618 259.567 859.376 259.35 860.134 259.35C861.541 259.35 862.407 260.325 862.407 261.949V265.739H860.675V262.599C860.675 261.299 860.242 260.758 859.484 260.758C858.726 260.758 858.077 261.516 858.077 262.707V265.848H856.344V259.458Z" fill="#3D3D3D"/>
<path d="M755.659 316.312V324.109H754.359V316.312H751.544V315.121H758.365V316.312H755.659Z" fill="#3D3D3D"/>
<path d="M759.447 315.012H760.746V318.802C761.288 317.936 762.154 317.72 762.803 317.72C764.211 317.72 765.077 318.802 765.077 320.21V324.109H763.778V320.535C763.778 319.344 763.236 318.694 762.37 318.694C761.396 318.694 760.638 319.452 760.638 320.752V324.109H759.339V315.012H759.447Z" fill="#3D3D3D"/>
<path d="M766.159 320.968C766.159 319.019 767.242 317.719 769.083 317.719C770.707 317.719 771.897 318.802 771.897 320.535V321.509H767.35C767.459 322.592 768 323.35 769.083 323.35C769.949 323.35 770.49 322.809 770.707 322.376H771.897C771.789 323.242 770.815 324.433 769.083 324.433C767.134 324.325 766.159 322.809 766.159 320.968ZM770.707 320.427C770.707 319.235 769.949 318.694 769.083 318.694C768.216 318.694 767.459 319.235 767.459 320.427H770.707Z" fill="#3D3D3D"/>
<path d="M783.483 315.012V324.109H782.183V319.994H777.853V324.109H776.554V315.012H777.853V318.694H782.183V315.012H783.483Z" fill="#3D3D3D"/>
<path d="M785.215 321.618V317.828H786.514V321.51C786.514 322.917 787.164 323.242 787.813 323.242C788.896 323.242 789.654 322.484 789.654 321.185V317.828H790.953V324.109H789.654V323.026C789.113 324 788.355 324.217 787.489 324.217C786.081 324.325 785.215 323.459 785.215 321.618Z" fill="#3D3D3D"/>
<path d="M802.212 320.318V324.109H801.021V320.427C801.021 319.019 800.371 318.694 799.722 318.694C798.639 318.694 797.881 319.452 797.881 320.752V324.109H796.69V320.427C796.69 319.019 796.041 318.694 795.391 318.694C794.308 318.694 793.551 319.452 793.551 320.752V324.109H792.251V317.828H793.551V318.802C794.092 317.936 794.85 317.719 795.716 317.719C796.69 317.719 797.34 318.153 797.665 319.019C798.314 318.044 799.18 317.719 800.046 317.719C801.454 317.611 802.212 318.478 802.212 320.318Z" fill="#3D3D3D"/>
<path d="M803.404 322.376C803.404 321.834 803.62 321.293 804.053 320.968C804.595 320.535 805.461 320.318 807.301 320.318H807.626V319.993C807.626 319.235 807.301 318.802 806.327 318.802C805.244 318.802 804.92 319.344 804.92 319.777H803.729C803.729 318.911 804.27 317.828 806.327 317.828C807.843 317.828 808.925 318.477 808.925 320.535V322.701V323.459V324.217H807.734V323.351C807.301 324 806.544 324.325 805.569 324.325C803.945 324.217 803.404 323.242 803.404 322.376ZM807.626 322.051V321.185H807.301C805.894 321.185 804.595 321.401 804.595 322.376C804.595 322.917 805.028 323.351 805.786 323.351C807.085 323.242 807.626 322.484 807.626 322.051Z" fill="#3D3D3D"/>
<path d="M810.007 317.828H811.307V318.802C811.848 317.936 812.714 317.719 813.364 317.719C814.771 317.719 815.637 318.802 815.637 320.21V324.108H814.338V320.535C814.338 319.344 813.797 318.694 812.931 318.694C811.956 318.694 811.198 319.452 811.198 320.751V324.108H809.899V317.828H810.007Z" fill="#3D3D3D"/>
<path d="M819.967 321.185H821.266C821.591 322.701 822.674 323.134 824.081 323.134C825.272 323.134 825.922 322.701 825.922 321.835C825.922 320.86 825.056 320.535 824.406 320.427C823.865 320.21 823.107 320.102 822.349 319.885C821.266 319.452 820.4 318.911 820.4 317.611C820.4 315.662 822.132 314.904 823.648 314.904C825.705 314.904 826.896 316.203 826.896 317.936H825.597C825.489 316.42 824.406 316.095 823.54 316.095C822.998 316.095 821.808 316.203 821.808 317.395C821.808 318.044 822.132 318.369 822.89 318.586C823.432 318.802 823.756 318.911 824.514 319.019C825.272 319.236 827.221 319.56 827.221 321.618C827.221 323.459 826.138 324.217 823.973 324.217C821.266 324.325 820.075 322.917 819.967 321.185Z" fill="#3D3D3D"/>
<path d="M827.979 320.968C827.979 319.019 829.169 317.611 831.01 317.611C832.85 317.611 834.041 319.019 834.041 320.968C834.041 322.809 832.85 324.325 831.01 324.325C829.169 324.325 827.979 322.809 827.979 320.968ZM832.85 320.968C832.85 319.561 832.201 318.694 831.01 318.694C829.819 318.694 829.169 319.561 829.169 320.968C829.169 322.376 829.819 323.242 831.01 323.242C832.201 323.242 832.85 322.376 832.85 320.968Z" fill="#3D3D3D"/>
<path d="M835.124 320.968C835.124 319.019 836.207 317.611 838.156 317.611C839.78 317.611 840.862 318.586 840.971 319.994H839.78C839.671 319.019 839.13 318.586 838.264 318.586C837.073 318.586 836.532 319.452 836.532 320.86C836.532 322.268 837.181 323.134 838.264 323.134C839.13 323.134 839.672 322.593 839.888 321.943H841.079C840.971 323.026 839.996 324.217 838.264 324.217C836.099 324.325 835.124 322.809 835.124 320.968Z" fill="#3D3D3D"/>
<path d="M842.054 315.012H843.462V316.312H842.054V315.012ZM842.163 317.828H843.462V324.109H842.163V317.828Z" fill="#3D3D3D"/>
<path d="M844.219 320.968C844.219 319.019 845.301 317.719 847.142 317.719C848.766 317.719 849.957 318.802 849.957 320.535V321.509H845.409C845.518 322.592 846.059 323.35 847.142 323.35C848.008 323.35 848.549 322.809 848.766 322.376H849.957C849.848 323.242 848.874 324.433 847.142 324.433C845.301 324.325 844.219 322.809 844.219 320.968ZM848.766 320.427C848.766 319.235 848.008 318.694 847.142 318.694C846.275 318.694 845.518 319.235 845.518 320.427H848.766Z" fill="#3D3D3D"/>
<path d="M851.58 322.376V318.91H850.714V317.936C851.472 317.936 851.58 317.611 851.58 316.853V316.203H852.771V317.828H854.179V318.91H852.771V322.051C852.771 322.809 853.096 323.026 853.854 323.026C853.962 323.026 854.071 323.026 854.287 323.026V324.108C853.962 324.108 853.746 324.108 853.529 324.108C852.014 324.217 851.58 323.567 851.58 322.376Z" fill="#3D3D3D"/>
<path d="M857.103 324.109L854.721 317.828H856.128L857.536 322.051L857.752 322.593L857.969 322.051L859.376 317.828H860.784L858.618 323.567L857.427 326.924H856.236L857.103 324.109Z" fill="#3D3D3D"/>
<path d="M758.148 333.096C758.148 335.045 757.066 336.453 755.333 336.453C754.575 336.453 753.601 336.02 753.276 335.479V336.237H752.085V327.14H753.384V330.822C753.817 330.172 754.684 329.847 755.442 329.847C756.957 329.739 758.148 331.147 758.148 333.096ZM756.849 333.096C756.849 331.688 756.091 330.822 755.008 330.822C753.926 330.822 753.168 331.58 753.168 332.771V333.421C753.168 334.504 753.926 335.262 755.008 335.262C756.199 335.37 756.849 334.396 756.849 333.096Z" fill="#3D3D3D"/>
<path d="M759.123 327.14H760.422V336.237H759.123V327.14Z" fill="#3D3D3D"/>
<path d="M761.397 333.097C761.397 331.148 762.588 329.74 764.428 329.74C766.269 329.74 767.459 331.148 767.459 333.097C767.459 334.938 766.269 336.454 764.428 336.454C762.588 336.454 761.397 334.938 761.397 333.097ZM766.269 333.097C766.269 331.689 765.619 330.823 764.428 330.823C763.237 330.823 762.588 331.689 762.588 333.097C762.588 334.505 763.237 335.371 764.428 335.371C765.619 335.371 766.269 334.505 766.269 333.097Z" fill="#3D3D3D"/>
<path d="M774.28 329.956V335.696C774.28 338.295 773.089 339.053 771.356 339.053C769.732 339.053 768.65 338.403 768.325 336.887H769.516C769.733 337.645 770.382 337.97 771.248 337.97C772.547 337.97 772.872 337.212 772.872 335.696V335.263C772.439 336.021 771.681 336.346 770.815 336.346C769.083 336.346 768 334.938 768 332.989C768 331.148 768.866 329.74 770.707 329.74C771.573 329.74 772.331 330.065 772.872 330.823V329.848H774.28V329.956ZM772.98 332.664C772.98 331.472 772.223 330.823 771.14 330.823C769.949 330.823 769.299 331.689 769.299 332.989C769.299 334.396 769.949 335.263 771.14 335.263C772.223 335.263 772.98 334.505 772.98 333.313V332.664Z" fill="#3D3D3D"/>
<path d="M781.859 333.097C781.859 335.046 780.777 336.454 779.044 336.454C778.286 336.454 777.42 336.02 776.987 335.479V339.161H775.688V330.064H776.879V330.931C777.312 330.281 778.178 329.956 778.936 329.956C780.668 329.739 781.859 331.147 781.859 333.097ZM780.56 333.097C780.56 331.689 779.802 330.822 778.719 330.822C777.637 330.822 776.879 331.58 776.879 332.772V333.421C776.879 334.504 777.637 335.262 778.719 335.262C779.802 335.371 780.56 334.396 780.56 333.097Z" fill="#3D3D3D"/>
<path d="M782.832 333.097C782.832 331.148 784.023 329.74 785.863 329.74C787.704 329.74 788.895 331.148 788.895 333.097C788.895 334.938 787.704 336.454 785.863 336.454C784.023 336.454 782.832 334.938 782.832 333.097ZM787.596 333.097C787.596 331.689 786.946 330.823 785.755 330.823C784.564 330.823 783.915 331.689 783.915 333.097C783.915 334.505 784.564 335.371 785.755 335.371C786.946 335.371 787.596 334.505 787.596 333.097Z" fill="#3D3D3D"/>
<path d="M789.653 334.18H790.844C791.06 335.154 791.71 335.371 792.684 335.371C793.334 335.371 793.767 335.046 793.767 334.505C793.767 333.963 793.117 333.747 792.468 333.53C790.952 333.097 789.869 332.88 789.869 331.581C789.869 330.173 791.06 329.74 792.468 329.74C793.983 329.74 794.85 330.606 794.85 331.797H793.659C793.55 330.931 792.901 330.714 792.359 330.714C791.818 330.714 791.06 330.823 791.06 331.472C791.06 332.014 791.602 332.23 792.793 332.447C793.767 332.664 794.958 332.989 794.958 334.288C794.958 335.588 794.092 336.237 792.576 336.237C790.627 336.454 789.761 335.479 789.653 334.18Z" fill="#3D3D3D"/>
<path d="M796.366 334.504V331.039H795.608V330.064C796.366 330.064 796.474 329.739 796.474 328.981V328.332H797.665V329.956H799.072V331.039H797.665V334.179C797.665 334.937 797.99 335.154 798.748 335.154C798.856 335.154 798.964 335.154 799.181 335.154V336.237C798.856 336.237 798.639 336.237 798.423 336.237C796.907 336.345 796.366 335.695 796.366 334.504Z" fill="#3D3D3D"/>
</svg>
