<svg width="392" height="321" viewBox="0 0 392 321" fill="none" xmlns="http://www.w3.org/2000/svg">
<circle cx="231.022" cy="160.022" r="158.522" stroke="white" stroke-width="3"/>
<path d="M171.965 128C178.526 128 181.982 125.678 181.982 117.578C181.982 109.856 178.823 107.48 172.424 107.48H163.325V128H171.965ZM168.374 123.626V111.854H171.398C175.016 111.854 176.582 112.664 176.582 117.767C176.582 122.897 174.989 123.626 171.398 123.626H168.374ZM182.488 128H188.05L189.454 124.004H196.906L198.31 128H203.872L195.772 107.48H190.615L182.488 128ZM191.02 119.441L193.18 113.231L195.367 119.441H191.02ZM219.941 112.529L219.914 107.48H202.607V112.529H208.763V128H213.812V112.529H219.941ZM218.664 128H224.226L225.63 124.004H233.082L234.486 128H240.048L231.948 107.48H226.791L218.664 128ZM227.196 119.441L229.356 113.231L231.543 119.441H227.196ZM115.591 160.432C122.287 160.432 125.689 156.112 126.121 151.495H120.694C120.262 153.655 118.723 156.058 115.591 156.058C112.162 156.058 110.65 153.115 110.65 149.767C110.65 146.419 112.135 143.422 115.618 143.422C118.642 143.422 120.235 145.717 120.694 147.985H126.121C125.743 143.476 122.26 139.048 115.726 139.048C108.976 139.048 105.223 143.8 105.223 149.929C105.223 155.599 108.49 160.432 115.591 160.432ZM139.117 160.432C146.137 160.432 149.782 155.518 149.782 149.74C149.782 143.935 146.137 139.048 139.117 139.048C132.097 139.048 128.452 143.935 128.452 149.74C128.452 155.518 132.097 160.432 139.117 160.432ZM139.117 156.058C135.499 156.058 133.933 152.629 133.933 149.74C133.933 146.851 135.499 143.422 139.117 143.422C142.735 143.422 144.301 146.851 144.301 149.74C144.301 152.629 142.735 156.058 139.117 156.058ZM157.774 154.951V139.48H152.779V160H167.629V154.951H157.774ZM174.701 154.951V139.48H169.706V160H184.556V154.951H174.701ZM191.629 154.951V151.954H200.944V147.391H191.629V144.529H201.754V139.48H186.634V160H202.213V154.951H191.629ZM214.283 160.432C220.979 160.432 224.381 156.112 224.813 151.495H219.386C218.954 153.655 217.415 156.058 214.283 156.058C210.854 156.058 209.342 153.115 209.342 149.767C209.342 146.419 210.827 143.422 214.31 143.422C217.334 143.422 218.927 145.717 219.386 147.985H224.813C224.435 143.476 220.952 139.048 214.418 139.048C207.668 139.048 203.915 143.8 203.915 149.929C203.915 155.599 207.182 160.432 214.283 160.432ZM243.777 144.529L243.75 139.48H226.443V144.529H232.599V160H237.648V144.529H243.777ZM246.064 160H251.113V139.48H246.064V160ZM264.704 160.432C271.724 160.432 275.369 155.518 275.369 149.74C275.369 143.935 271.724 139.048 264.704 139.048C257.684 139.048 254.039 143.935 254.039 149.74C254.039 155.518 257.684 160.432 264.704 160.432ZM264.704 156.058C261.086 156.058 259.52 152.629 259.52 149.74C259.52 146.851 261.086 143.422 264.704 143.422C268.322 143.422 269.888 146.851 269.888 149.74C269.888 152.629 268.322 156.058 264.704 156.058ZM278.365 160H283.414V148.228L291.19 160H296.104V139.48H291.028V151.576L283.171 139.48H278.365V160ZM128.534 192H133.583V181.335L137.579 192H142.25L146.219 181.335V192H151.268V171.48H145.706L139.928 186.276L134.096 171.48H128.534V192ZM160.002 186.951V183.954H169.317V179.391H160.002V176.529H170.127V171.48H155.007V192H170.586V186.951H160.002ZM189.684 176.529L189.657 171.48H172.35V176.529H178.506V192H183.555V176.529H189.684ZM204.689 171.48V179.391H197.075V171.48H192.026V192H197.075V184.197H204.689V192H209.765V171.48H204.689ZM223.4 192.432C230.42 192.432 234.065 187.518 234.065 181.74C234.065 175.935 230.42 171.048 223.4 171.048C216.38 171.048 212.735 175.935 212.735 181.74C212.735 187.518 216.38 192.432 223.4 192.432ZM223.4 188.058C219.782 188.058 218.216 184.629 218.216 181.74C218.216 178.851 219.782 175.422 223.4 175.422C227.018 175.422 228.584 178.851 228.584 181.74C228.584 184.629 227.018 188.058 223.4 188.058ZM245.701 192C252.262 192 255.718 189.678 255.718 181.578C255.718 173.856 252.559 171.48 246.16 171.48H237.061V192H245.701ZM242.11 187.626V175.854H245.134C248.752 175.854 250.318 176.664 250.318 181.767C250.318 186.897 248.725 187.626 245.134 187.626H242.11ZM266.756 192.432C271.643 192.432 274.64 190.38 274.64 186.249C274.64 181.605 271.211 180.741 269.537 180.174C267.296 179.418 266.567 179.175 265.892 178.905C264.461 178.338 263.786 177.852 263.786 176.907C263.786 175.53 265.055 175.179 265.946 175.179C267.242 175.179 268.457 175.746 268.673 177.906H274.262C274.046 173.775 271.265 171.048 266.189 171.048C262.22 171.048 258.197 172.722 258.197 177.177C258.197 180.12 260.033 181.632 262.409 182.766C263.57 183.306 264.839 183.738 266.189 184.197C267.728 184.737 269.24 185.358 269.24 186.465C269.24 187.572 268.376 188.247 266.756 188.247C264.704 188.247 263.516 187.383 263.003 185.358H257.522C257.9 189.651 260.924 192.432 266.756 192.432Z" fill="white"/>
<circle cx="160.022" cy="160.022" r="158.522" stroke="white" stroke-width="3"/>
</svg>
